%TF.GenerationSoftware,KiCad,Pcbnew,8.0.1*%
%TF.CreationDate,2024-04-28T17:40:03+05:30*%
%TF.ProjectId,ecg,6563672e-6b69-4636-9164-5f7063625858,rev?*%
%TF.SameCoordinates,Original*%
%TF.FileFunction,Copper,L4,Bot*%
%TF.FilePolarity,Positive*%
%FSLAX46Y46*%
G04 Gerber Fmt 4.6, Leading zero omitted, Abs format (unit mm)*
G04 Created by KiCad (PCBNEW 8.0.1) date 2024-04-28 17:40:03*
%MOMM*%
%LPD*%
G01*
G04 APERTURE LIST*
G04 Aperture macros list*
%AMRoundRect*
0 Rectangle with rounded corners*
0 $1 Rounding radius*
0 $2 $3 $4 $5 $6 $7 $8 $9 X,Y pos of 4 corners*
0 Add a 4 corners polygon primitive as box body*
4,1,4,$2,$3,$4,$5,$6,$7,$8,$9,$2,$3,0*
0 Add four circle primitives for the rounded corners*
1,1,$1+$1,$2,$3*
1,1,$1+$1,$4,$5*
1,1,$1+$1,$6,$7*
1,1,$1+$1,$8,$9*
0 Add four rect primitives between the rounded corners*
20,1,$1+$1,$2,$3,$4,$5,0*
20,1,$1+$1,$4,$5,$6,$7,0*
20,1,$1+$1,$6,$7,$8,$9,0*
20,1,$1+$1,$8,$9,$2,$3,0*%
%AMFreePoly0*
4,1,45,-0.206464,1.703536,-0.205000,1.700000,-0.205000,0.880000,0.205000,0.880000,0.205000,1.700000,0.206464,1.703536,0.210000,1.705000,0.440000,1.705000,0.443536,1.703536,0.445000,1.700000,0.445000,0.880000,0.750000,0.880000,0.753536,0.878536,0.755000,0.875000,0.755000,-0.875000,0.753536,-0.878536,0.750000,-0.880000,0.445000,-0.880000,0.445000,-1.700000,0.443536,-1.703536,
0.440000,-1.705000,0.210000,-1.705000,0.206464,-1.703536,0.205000,-1.700000,0.205000,-0.880000,-0.205000,-0.880000,-0.205000,-1.700000,-0.206464,-1.703536,-0.210000,-1.705000,-0.440000,-1.705000,-0.443536,-1.703536,-0.445000,-1.700000,-0.445000,-0.880000,-0.750000,-0.880000,-0.753536,-0.878536,-0.755000,-0.875000,-0.755000,0.875000,-0.753536,0.878536,-0.750000,0.880000,-0.445000,0.880000,
-0.445000,1.700000,-0.443536,1.703536,-0.440000,1.705000,-0.210000,1.705000,-0.206464,1.703536,-0.206464,1.703536,$1*%
G04 Aperture macros list end*
%TA.AperFunction,ComponentPad*%
%ADD10O,1.700000X1.700000*%
%TD*%
%TA.AperFunction,ComponentPad*%
%ADD11R,0.500000X0.900000*%
%TD*%
%TA.AperFunction,SMDPad,CuDef*%
%ADD12RoundRect,0.012400X-0.287600X-0.142600X0.287600X-0.142600X0.287600X0.142600X-0.287600X0.142600X0*%
%TD*%
%TA.AperFunction,SMDPad,CuDef*%
%ADD13FreePoly0,0.000000*%
%TD*%
%TA.AperFunction,ComponentPad*%
%ADD14C,0.400000*%
%TD*%
%TA.AperFunction,SMDPad,CuDef*%
%ADD15R,1.000000X1.000000*%
%TD*%
%TA.AperFunction,SMDPad,CuDef*%
%ADD16R,0.558000X2.269998*%
%TD*%
%TA.AperFunction,ViaPad*%
%ADD17C,0.600000*%
%TD*%
%TA.AperFunction,Conductor*%
%ADD18C,0.200000*%
%TD*%
%TA.AperFunction,Profile*%
%ADD19C,0.050000*%
%TD*%
G04 APERTURE END LIST*
D10*
%TO.P,U5,1,Vcc*%
%TO.N,LDO_OUT*%
X152280000Y-81350000D03*
%TO.P,U5,2,JT_TMS*%
%TO.N,TMS*%
X154820000Y-81350000D03*
%TO.P,U5,3,JT_TDI*%
%TO.N,TDI*%
X157360000Y-81350000D03*
%TO.P,U5,4,JT_TDO*%
%TO.N,TDO*%
X159900000Y-81350000D03*
%TO.P,U5,5,JT_TCK*%
%TO.N,TCK*%
X162440000Y-81350000D03*
%TO.P,U5,6,UART_TXD0*%
%TO.N,TXD0*%
X164980000Y-81350000D03*
%TO.P,U5,7,UART_RXD0*%
%TO.N,RXD0*%
X167520000Y-81350000D03*
%TO.P,U5,8,GND*%
%TO.N,GND2*%
X170060000Y-81350000D03*
%TD*%
D11*
%TO.P,AE1,2,Shield*%
%TO.N,GND2*%
X139830000Y-96340000D03*
%TD*%
D10*
%TO.P,U6,1,GPIO21*%
%TO.N,Net-(U1-GPIO21)*%
X143160000Y-115850000D03*
%TO.P,U6,2,GPIO18*%
%TO.N,Net-(U1-GPIO18)*%
X145700000Y-115850000D03*
%TO.P,U6,3,GPIO12*%
%TO.N,Net-(U1-GPIO12)*%
X148240000Y-115850000D03*
%TO.P,U6,4,GPIO13*%
%TO.N,Net-(U1-GPIO13)*%
X150780000Y-115850000D03*
%TO.P,U6,5,GPIO14*%
%TO.N,Net-(U1-GPIO14)*%
X153320000Y-115850000D03*
%TO.P,U6,6,GPIO17*%
%TO.N,Net-(U1-GPIO17)*%
X155860000Y-115850000D03*
%TO.P,U6,7,USBD+*%
%TO.N,USB_D+*%
X158400000Y-115850000D03*
%TO.P,U6,8,USBD-*%
%TO.N,USB_D-*%
X160940000Y-115850000D03*
%TD*%
D12*
%TO.P,U4,1,OUT*%
%TO.N,LDO_OUT*%
X180550000Y-89074999D03*
%TO.P,U4,2,OUT*%
X180550000Y-88424999D03*
%TO.P,U4,3,FB_SNS*%
%TO.N,Net-(U4-FB_SNS)*%
X180550000Y-87774999D03*
%TO.P,U4,4,GND*%
%TO.N,GND*%
X180550000Y-87124999D03*
%TO.P,U4,5,EN*%
%TO.N,Net-(S1-COM_2)*%
X183350000Y-87124999D03*
%TO.P,U4,6,NR*%
%TO.N,Net-(U4-NR)*%
X183350000Y-87774999D03*
%TO.P,U4,7,IN*%
%TO.N,Net-(S1-COM_2)*%
X183350000Y-88424999D03*
%TO.P,U4,8,IN*%
X183350000Y-89074999D03*
D13*
%TO.P,U4,9,PAD*%
%TO.N,GND*%
X181950000Y-88099999D03*
D14*
%TO.P,U4,10*%
%TO.N,N/C*%
X181950000Y-88724999D03*
%TO.P,U4,11*%
X182450000Y-88099999D03*
%TO.P,U4,12*%
X181450000Y-88099999D03*
%TO.P,U4,13*%
X181950000Y-87474999D03*
%TD*%
D15*
%TO.P,U7,1*%
%TO.N,GND*%
X159000000Y-93500000D03*
%TD*%
%TO.P,U8,1*%
%TO.N,Net-(U2-+)*%
X159000000Y-100750000D03*
%TD*%
%TO.P,BT1,1,+*%
%TO.N,GND*%
X181910000Y-104910000D03*
%TO.P,BT1,2,-*%
%TO.N,GND2*%
X180370000Y-104910000D03*
%TD*%
D16*
%TO.P,U2,1,Rg*%
%TO.N,Net-(R3-Pad2)*%
X165070000Y-99405300D03*
%TO.P,U2,2,-*%
%TO.N,GND*%
X163800000Y-99405300D03*
%TO.P,U2,3,+*%
%TO.N,Net-(U2-+)*%
X162530000Y-99405300D03*
%TO.P,U2,4,Vs-*%
%TO.N,GND2*%
X161260000Y-99405300D03*
%TO.P,U2,5,Ref*%
%TO.N,GND*%
X161260000Y-94377700D03*
%TO.P,U2,6*%
%TO.N,Net-(R4-Pad1)*%
X162530000Y-94377700D03*
%TO.P,U2,7,Vs+*%
%TO.N,LDO_OUT*%
X163800000Y-94377700D03*
%TO.P,U2,8,Rg*%
%TO.N,Net-(R3-Pad1)*%
X165070000Y-94377700D03*
%TD*%
D17*
%TO.N,AnalogSig*%
X152400000Y-102600000D03*
X178550000Y-106525000D03*
X174550000Y-100025000D03*
X171050000Y-95525000D03*
%TO.N,Net-(U3-+)*%
X172050000Y-103025000D03*
X172800000Y-105525000D03*
%TO.N,LDO_OUT*%
X155150000Y-92100000D03*
X188430000Y-89490000D03*
X179370000Y-86430000D03*
X151650000Y-91600000D03*
X189760000Y-93510000D03*
X179236837Y-90638862D03*
X152300000Y-83700000D03*
X147797672Y-95452328D03*
X173480000Y-92150000D03*
X179400000Y-92700000D03*
%TO.N,GND2*%
X161000000Y-102000000D03*
X181500000Y-102910000D03*
X154200000Y-94400000D03*
%TO.N,Net-(R3-Pad1)*%
X167200000Y-94386200D03*
%TO.N,GND*%
X179300000Y-87325000D03*
X175430000Y-103190000D03*
X179210000Y-83530000D03*
%TO.N,Net-(R4-Pad1)*%
X170750000Y-107000000D03*
%TO.N,Net-(R3-Pad2)*%
X166850000Y-99386200D03*
%TO.N,Net-(U4-NR)*%
X184200000Y-87736091D03*
%TO.N,Net-(U4-FB_SNS)*%
X179300000Y-88792500D03*
X180550000Y-91092500D03*
X187570000Y-90870000D03*
%TO.N,Net-(U1-GPIO12)*%
X148920000Y-103640000D03*
X151900000Y-101930000D03*
%TO.N,USB_D-*%
X154600000Y-107250000D03*
X158400000Y-111990000D03*
%TO.N,Net-(U1-GPIO21)*%
X144440000Y-112710000D03*
X156630000Y-103580000D03*
%TO.N,Net-(U1-GPIO18)*%
X154600000Y-104760000D03*
X146300000Y-112620000D03*
%TO.N,RXD0*%
X159000000Y-89300000D03*
X150750000Y-90300000D03*
%TO.N,/EN*%
X147400000Y-96350000D03*
X169550000Y-99025000D03*
X170800000Y-100025000D03*
X172550000Y-100025000D03*
%TO.N,Net-(U1-U0TXD)*%
X152700000Y-89250000D03*
X157800000Y-88400000D03*
%TO.N,Net-(S1-COM_2)*%
X176670000Y-92160000D03*
X185400000Y-87825000D03*
X175690000Y-87720000D03*
X184550000Y-90025000D03*
X181530000Y-90870000D03*
%TO.N,Net-(S1-NO_1)*%
X148150000Y-97100000D03*
X159300000Y-90500000D03*
%TD*%
D18*
%TO.N,LDO_OUT*%
X180150000Y-88425000D02*
X179850000Y-88725000D01*
X153400000Y-91850000D02*
X153650000Y-91600000D01*
X180550000Y-89075001D02*
X180049999Y-89075001D01*
X152900000Y-91600000D02*
X151650000Y-91600000D01*
X163105801Y-91600000D02*
X163655801Y-92150000D01*
X147797672Y-95747672D02*
X148900000Y-96850000D01*
X180550000Y-88425000D02*
X180150000Y-88425000D01*
X180049999Y-89075001D02*
X179850000Y-89275000D01*
X164500000Y-92150000D02*
X163800000Y-92850000D01*
X152300000Y-83700000D02*
X151650000Y-84350000D01*
X152900000Y-91600000D02*
X151650000Y-90350000D01*
X148900000Y-96850000D02*
X152650000Y-96850000D01*
X155400000Y-91600000D02*
X153650000Y-91600000D01*
X151650000Y-90350000D02*
X151650000Y-84350000D01*
X153650000Y-91600000D02*
X152900000Y-91600000D01*
X179850000Y-89925000D02*
X179236837Y-90538163D01*
X163655801Y-92150000D02*
X164500000Y-92150000D01*
X163800000Y-92850000D02*
X163800000Y-94377700D01*
X155400000Y-91600000D02*
X163105801Y-91600000D01*
X173480000Y-92150000D02*
X164500000Y-92150000D01*
X179236837Y-90538163D02*
X179236837Y-90638862D01*
X179850000Y-88725000D02*
X179850000Y-89275000D01*
X152650000Y-96850000D02*
X153400000Y-96100000D01*
X155400000Y-91600000D02*
X155150000Y-91850000D01*
X153400000Y-96100000D02*
X153400000Y-91850000D01*
X147797672Y-95452328D02*
X147797672Y-95747672D01*
X179850000Y-89275000D02*
X179850000Y-89925000D01*
%TO.N,GND2*%
X161260000Y-101740000D02*
X161000000Y-102000000D01*
X161260000Y-99405300D02*
X161260000Y-101740000D01*
X180370000Y-104040000D02*
X181500000Y-102910000D01*
X180370000Y-104910000D02*
X180370000Y-104040000D01*
%TO.N,Net-(R3-Pad1)*%
X167191500Y-94377700D02*
X167200000Y-94386200D01*
X165070000Y-94377700D02*
X167191500Y-94377700D01*
%TO.N,GND*%
X163800000Y-99405300D02*
X163800000Y-100261299D01*
%TO.N,Net-(U2-+)*%
X161950000Y-102550000D02*
X162530000Y-101970000D01*
X159800000Y-102550000D02*
X161950000Y-102550000D01*
X159000000Y-101750000D02*
X159800000Y-102550000D01*
X159000000Y-100750000D02*
X159000000Y-101750000D01*
X162530000Y-101970000D02*
X162530000Y-99405300D01*
%TO.N,Net-(R4-Pad1)*%
X165360000Y-96300000D02*
X163808301Y-96300000D01*
X163808301Y-96300000D02*
X162530000Y-95021699D01*
X162530000Y-95021699D02*
X162530000Y-94377700D01*
X168200000Y-99140000D02*
X165360000Y-96300000D01*
X168200000Y-104450000D02*
X168200000Y-99140000D01*
X170750000Y-107000000D02*
X168200000Y-104450000D01*
%TO.N,Net-(R3-Pad2)*%
X165089100Y-99386200D02*
X165070000Y-99405300D01*
X166850000Y-99386200D02*
X165089100Y-99386200D01*
%TO.N,Net-(U4-NR)*%
X184193587Y-87742504D02*
X183550000Y-87742504D01*
X184200000Y-87736091D02*
X184193587Y-87742504D01*
%TO.N,Net-(U4-FB_SNS)*%
X179899999Y-87775001D02*
X180550000Y-87775001D01*
X179300000Y-88792500D02*
X179300000Y-88375000D01*
X179300000Y-88375000D02*
X179899999Y-87775001D01*
%TO.N,Net-(S1-COM_2)*%
X185400000Y-87275000D02*
X185217503Y-87092503D01*
X184700000Y-88125000D02*
X184750000Y-88175000D01*
X184700000Y-88125000D02*
X184432497Y-88392503D01*
X184750000Y-88075000D02*
X184700000Y-88125000D01*
X185400000Y-87825000D02*
X185400000Y-87275000D01*
X184950000Y-87092503D02*
X183550000Y-87092503D01*
X184750000Y-88175000D02*
X184750000Y-88675000D01*
X185217503Y-87092503D02*
X184950000Y-87092503D01*
X184950000Y-87092503D02*
X184750000Y-87292503D01*
X184750000Y-88675000D02*
X184382496Y-89042504D01*
X184750000Y-87292503D02*
X184750000Y-88075000D01*
X184432497Y-88392503D02*
X183550000Y-88392503D01*
X184382496Y-89042504D02*
X183550000Y-89042504D01*
%TD*%
%TA.AperFunction,Conductor*%
%TO.N,GND*%
G36*
X190943039Y-79019685D02*
G01*
X190988794Y-79072489D01*
X191000000Y-79124000D01*
X191000000Y-117876000D01*
X190980315Y-117943039D01*
X190927511Y-117988794D01*
X190876000Y-118000000D01*
X134124000Y-118000000D01*
X134056961Y-117980315D01*
X134011206Y-117927511D01*
X134000000Y-117876000D01*
X134000000Y-115850000D01*
X142004571Y-115850000D01*
X142024244Y-116062310D01*
X142082596Y-116267392D01*
X142082596Y-116267394D01*
X142177632Y-116458253D01*
X142177634Y-116458255D01*
X142306128Y-116628407D01*
X142463698Y-116772052D01*
X142644981Y-116884298D01*
X142843802Y-116961321D01*
X143053390Y-117000500D01*
X143053392Y-117000500D01*
X143266608Y-117000500D01*
X143266610Y-117000500D01*
X143476198Y-116961321D01*
X143675019Y-116884298D01*
X143856302Y-116772052D01*
X144013872Y-116628407D01*
X144142366Y-116458255D01*
X144237405Y-116267389D01*
X144295756Y-116062310D01*
X144306529Y-115946047D01*
X144332315Y-115881111D01*
X144374622Y-115850804D01*
X144483130Y-115850804D01*
X144519503Y-115871668D01*
X144551693Y-115933681D01*
X144553471Y-115946048D01*
X144564244Y-116062310D01*
X144622596Y-116267392D01*
X144622596Y-116267394D01*
X144717632Y-116458253D01*
X144717634Y-116458255D01*
X144846128Y-116628407D01*
X145003698Y-116772052D01*
X145184981Y-116884298D01*
X145383802Y-116961321D01*
X145593390Y-117000500D01*
X145593392Y-117000500D01*
X145806608Y-117000500D01*
X145806610Y-117000500D01*
X146016198Y-116961321D01*
X146215019Y-116884298D01*
X146396302Y-116772052D01*
X146553872Y-116628407D01*
X146682366Y-116458255D01*
X146777405Y-116267389D01*
X146835756Y-116062310D01*
X146846529Y-115946047D01*
X146872315Y-115881111D01*
X146914622Y-115850804D01*
X147023130Y-115850804D01*
X147059503Y-115871668D01*
X147091693Y-115933681D01*
X147093471Y-115946048D01*
X147104244Y-116062310D01*
X147162596Y-116267392D01*
X147162596Y-116267394D01*
X147257632Y-116458253D01*
X147257634Y-116458255D01*
X147386128Y-116628407D01*
X147543698Y-116772052D01*
X147724981Y-116884298D01*
X147923802Y-116961321D01*
X148133390Y-117000500D01*
X148133392Y-117000500D01*
X148346608Y-117000500D01*
X148346610Y-117000500D01*
X148556198Y-116961321D01*
X148755019Y-116884298D01*
X148936302Y-116772052D01*
X149093872Y-116628407D01*
X149222366Y-116458255D01*
X149317405Y-116267389D01*
X149375756Y-116062310D01*
X149386529Y-115946047D01*
X149412315Y-115881111D01*
X149454622Y-115850804D01*
X149563130Y-115850804D01*
X149599503Y-115871668D01*
X149631693Y-115933681D01*
X149633471Y-115946048D01*
X149644244Y-116062310D01*
X149702596Y-116267392D01*
X149702596Y-116267394D01*
X149797632Y-116458253D01*
X149797634Y-116458255D01*
X149926128Y-116628407D01*
X150083698Y-116772052D01*
X150264981Y-116884298D01*
X150463802Y-116961321D01*
X150673390Y-117000500D01*
X150673392Y-117000500D01*
X150886608Y-117000500D01*
X150886610Y-117000500D01*
X151096198Y-116961321D01*
X151295019Y-116884298D01*
X151476302Y-116772052D01*
X151633872Y-116628407D01*
X151762366Y-116458255D01*
X151857405Y-116267389D01*
X151915756Y-116062310D01*
X151926529Y-115946047D01*
X151952315Y-115881111D01*
X151994622Y-115850804D01*
X152103130Y-115850804D01*
X152139503Y-115871668D01*
X152171693Y-115933681D01*
X152173471Y-115946048D01*
X152184244Y-116062310D01*
X152242596Y-116267392D01*
X152242596Y-116267394D01*
X152337632Y-116458253D01*
X152337634Y-116458255D01*
X152466128Y-116628407D01*
X152623698Y-116772052D01*
X152804981Y-116884298D01*
X153003802Y-116961321D01*
X153213390Y-117000500D01*
X153213392Y-117000500D01*
X153426608Y-117000500D01*
X153426610Y-117000500D01*
X153636198Y-116961321D01*
X153835019Y-116884298D01*
X154016302Y-116772052D01*
X154173872Y-116628407D01*
X154302366Y-116458255D01*
X154397405Y-116267389D01*
X154455756Y-116062310D01*
X154466529Y-115946047D01*
X154492315Y-115881111D01*
X154534622Y-115850804D01*
X154643130Y-115850804D01*
X154679503Y-115871668D01*
X154711693Y-115933681D01*
X154713471Y-115946048D01*
X154724244Y-116062310D01*
X154782596Y-116267392D01*
X154782596Y-116267394D01*
X154877632Y-116458253D01*
X154877634Y-116458255D01*
X155006128Y-116628407D01*
X155163698Y-116772052D01*
X155344981Y-116884298D01*
X155543802Y-116961321D01*
X155753390Y-117000500D01*
X155753392Y-117000500D01*
X155966608Y-117000500D01*
X155966610Y-117000500D01*
X156176198Y-116961321D01*
X156375019Y-116884298D01*
X156556302Y-116772052D01*
X156713872Y-116628407D01*
X156842366Y-116458255D01*
X156937405Y-116267389D01*
X156995756Y-116062310D01*
X157006529Y-115946047D01*
X157032315Y-115881111D01*
X157074622Y-115850804D01*
X157183130Y-115850804D01*
X157219503Y-115871668D01*
X157251693Y-115933681D01*
X157253471Y-115946048D01*
X157264244Y-116062310D01*
X157322596Y-116267392D01*
X157322596Y-116267394D01*
X157417632Y-116458253D01*
X157417634Y-116458255D01*
X157546128Y-116628407D01*
X157703698Y-116772052D01*
X157884981Y-116884298D01*
X158083802Y-116961321D01*
X158293390Y-117000500D01*
X158293392Y-117000500D01*
X158506608Y-117000500D01*
X158506610Y-117000500D01*
X158716198Y-116961321D01*
X158915019Y-116884298D01*
X159096302Y-116772052D01*
X159253872Y-116628407D01*
X159382366Y-116458255D01*
X159477405Y-116267389D01*
X159535756Y-116062310D01*
X159546529Y-115946047D01*
X159572315Y-115881111D01*
X159614622Y-115850804D01*
X159723130Y-115850804D01*
X159759503Y-115871668D01*
X159791693Y-115933681D01*
X159793471Y-115946048D01*
X159804244Y-116062310D01*
X159862596Y-116267392D01*
X159862596Y-116267394D01*
X159957632Y-116458253D01*
X159957634Y-116458255D01*
X160086128Y-116628407D01*
X160243698Y-116772052D01*
X160424981Y-116884298D01*
X160623802Y-116961321D01*
X160833390Y-117000500D01*
X160833392Y-117000500D01*
X161046608Y-117000500D01*
X161046610Y-117000500D01*
X161256198Y-116961321D01*
X161455019Y-116884298D01*
X161636302Y-116772052D01*
X161793872Y-116628407D01*
X161922366Y-116458255D01*
X162017405Y-116267389D01*
X162075756Y-116062310D01*
X162095429Y-115850000D01*
X162075756Y-115637690D01*
X162017405Y-115432611D01*
X162017403Y-115432606D01*
X162017403Y-115432605D01*
X161922367Y-115241746D01*
X161793872Y-115071593D01*
X161636302Y-114927948D01*
X161455019Y-114815702D01*
X161455017Y-114815701D01*
X161355608Y-114777190D01*
X161256198Y-114738679D01*
X161046610Y-114699500D01*
X160833390Y-114699500D01*
X160623802Y-114738679D01*
X160623799Y-114738679D01*
X160623799Y-114738680D01*
X160424982Y-114815701D01*
X160424980Y-114815702D01*
X160243699Y-114927947D01*
X160086127Y-115071593D01*
X159957632Y-115241746D01*
X159862596Y-115432605D01*
X159862596Y-115432607D01*
X159804244Y-115637689D01*
X159793471Y-115753951D01*
X159767685Y-115818888D01*
X159723130Y-115850804D01*
X159614622Y-115850804D01*
X159616869Y-115849194D01*
X159580497Y-115828331D01*
X159548307Y-115766318D01*
X159546529Y-115753951D01*
X159545849Y-115746613D01*
X159535756Y-115637690D01*
X159477405Y-115432611D01*
X159477403Y-115432606D01*
X159477403Y-115432605D01*
X159382367Y-115241746D01*
X159253872Y-115071593D01*
X159096302Y-114927948D01*
X158915019Y-114815702D01*
X158915017Y-114815701D01*
X158815608Y-114777190D01*
X158716198Y-114738679D01*
X158506610Y-114699500D01*
X158293390Y-114699500D01*
X158083802Y-114738679D01*
X158083799Y-114738679D01*
X158083799Y-114738680D01*
X157884982Y-114815701D01*
X157884980Y-114815702D01*
X157703699Y-114927947D01*
X157546127Y-115071593D01*
X157417632Y-115241746D01*
X157322596Y-115432605D01*
X157322596Y-115432607D01*
X157264244Y-115637689D01*
X157253471Y-115753951D01*
X157227685Y-115818888D01*
X157183130Y-115850804D01*
X157074622Y-115850804D01*
X157076869Y-115849194D01*
X157040497Y-115828331D01*
X157008307Y-115766318D01*
X157006529Y-115753951D01*
X157005849Y-115746613D01*
X156995756Y-115637690D01*
X156937405Y-115432611D01*
X156937403Y-115432606D01*
X156937403Y-115432605D01*
X156842367Y-115241746D01*
X156713872Y-115071593D01*
X156556302Y-114927948D01*
X156375019Y-114815702D01*
X156375017Y-114815701D01*
X156275608Y-114777190D01*
X156176198Y-114738679D01*
X155966610Y-114699500D01*
X155753390Y-114699500D01*
X155543802Y-114738679D01*
X155543799Y-114738679D01*
X155543799Y-114738680D01*
X155344982Y-114815701D01*
X155344980Y-114815702D01*
X155163699Y-114927947D01*
X155006127Y-115071593D01*
X154877632Y-115241746D01*
X154782596Y-115432605D01*
X154782596Y-115432607D01*
X154724244Y-115637689D01*
X154713471Y-115753951D01*
X154687685Y-115818888D01*
X154643130Y-115850804D01*
X154534622Y-115850804D01*
X154536869Y-115849194D01*
X154500497Y-115828331D01*
X154468307Y-115766318D01*
X154466529Y-115753951D01*
X154465849Y-115746613D01*
X154455756Y-115637690D01*
X154397405Y-115432611D01*
X154397403Y-115432606D01*
X154397403Y-115432605D01*
X154302367Y-115241746D01*
X154173872Y-115071593D01*
X154016302Y-114927948D01*
X153835019Y-114815702D01*
X153835017Y-114815701D01*
X153735608Y-114777190D01*
X153636198Y-114738679D01*
X153426610Y-114699500D01*
X153213390Y-114699500D01*
X153003802Y-114738679D01*
X153003799Y-114738679D01*
X153003799Y-114738680D01*
X152804982Y-114815701D01*
X152804980Y-114815702D01*
X152623699Y-114927947D01*
X152466127Y-115071593D01*
X152337632Y-115241746D01*
X152242596Y-115432605D01*
X152242596Y-115432607D01*
X152184244Y-115637689D01*
X152173471Y-115753951D01*
X152147685Y-115818888D01*
X152103130Y-115850804D01*
X151994622Y-115850804D01*
X151996869Y-115849194D01*
X151960497Y-115828331D01*
X151928307Y-115766318D01*
X151926529Y-115753951D01*
X151925849Y-115746613D01*
X151915756Y-115637690D01*
X151857405Y-115432611D01*
X151857403Y-115432606D01*
X151857403Y-115432605D01*
X151762367Y-115241746D01*
X151633872Y-115071593D01*
X151476302Y-114927948D01*
X151295019Y-114815702D01*
X151295017Y-114815701D01*
X151195608Y-114777190D01*
X151096198Y-114738679D01*
X150886610Y-114699500D01*
X150673390Y-114699500D01*
X150463802Y-114738679D01*
X150463799Y-114738679D01*
X150463799Y-114738680D01*
X150264982Y-114815701D01*
X150264980Y-114815702D01*
X150083699Y-114927947D01*
X149926127Y-115071593D01*
X149797632Y-115241746D01*
X149702596Y-115432605D01*
X149702596Y-115432607D01*
X149644244Y-115637689D01*
X149633471Y-115753951D01*
X149607685Y-115818888D01*
X149563130Y-115850804D01*
X149454622Y-115850804D01*
X149456869Y-115849194D01*
X149420497Y-115828331D01*
X149388307Y-115766318D01*
X149386529Y-115753951D01*
X149385849Y-115746613D01*
X149375756Y-115637690D01*
X149317405Y-115432611D01*
X149317403Y-115432606D01*
X149317403Y-115432605D01*
X149222367Y-115241746D01*
X149093872Y-115071593D01*
X148936302Y-114927948D01*
X148755019Y-114815702D01*
X148755017Y-114815701D01*
X148655608Y-114777190D01*
X148556198Y-114738679D01*
X148346610Y-114699500D01*
X148133390Y-114699500D01*
X147923802Y-114738679D01*
X147923799Y-114738679D01*
X147923799Y-114738680D01*
X147724982Y-114815701D01*
X147724980Y-114815702D01*
X147543699Y-114927947D01*
X147386127Y-115071593D01*
X147257632Y-115241746D01*
X147162596Y-115432605D01*
X147162596Y-115432607D01*
X147104244Y-115637689D01*
X147093471Y-115753951D01*
X147067685Y-115818888D01*
X147023130Y-115850804D01*
X146914622Y-115850804D01*
X146916869Y-115849194D01*
X146880497Y-115828331D01*
X146848307Y-115766318D01*
X146846529Y-115753951D01*
X146845849Y-115746613D01*
X146835756Y-115637690D01*
X146777405Y-115432611D01*
X146777403Y-115432606D01*
X146777403Y-115432605D01*
X146682367Y-115241746D01*
X146553872Y-115071593D01*
X146396302Y-114927948D01*
X146215019Y-114815702D01*
X146215017Y-114815701D01*
X146115608Y-114777190D01*
X146016198Y-114738679D01*
X145806610Y-114699500D01*
X145593390Y-114699500D01*
X145383802Y-114738679D01*
X145383799Y-114738679D01*
X145383799Y-114738680D01*
X145184982Y-114815701D01*
X145184980Y-114815702D01*
X145003699Y-114927947D01*
X144846127Y-115071593D01*
X144717632Y-115241746D01*
X144622596Y-115432605D01*
X144622596Y-115432607D01*
X144564244Y-115637689D01*
X144553471Y-115753951D01*
X144527685Y-115818888D01*
X144483130Y-115850804D01*
X144374622Y-115850804D01*
X144376869Y-115849194D01*
X144340497Y-115828331D01*
X144308307Y-115766318D01*
X144306529Y-115753951D01*
X144305849Y-115746613D01*
X144295756Y-115637690D01*
X144237405Y-115432611D01*
X144237403Y-115432606D01*
X144237403Y-115432605D01*
X144142367Y-115241746D01*
X144013872Y-115071593D01*
X143856302Y-114927948D01*
X143675019Y-114815702D01*
X143675017Y-114815701D01*
X143575608Y-114777190D01*
X143476198Y-114738679D01*
X143266610Y-114699500D01*
X143053390Y-114699500D01*
X142843802Y-114738679D01*
X142843799Y-114738679D01*
X142843799Y-114738680D01*
X142644982Y-114815701D01*
X142644980Y-114815702D01*
X142463699Y-114927947D01*
X142306127Y-115071593D01*
X142177632Y-115241746D01*
X142082596Y-115432605D01*
X142082596Y-115432607D01*
X142024244Y-115637689D01*
X142004571Y-115849999D01*
X142004571Y-115850000D01*
X134000000Y-115850000D01*
X134000000Y-112710001D01*
X143834318Y-112710001D01*
X143854955Y-112866760D01*
X143854956Y-112866762D01*
X143915464Y-113012841D01*
X144011718Y-113138282D01*
X144137159Y-113234536D01*
X144283238Y-113295044D01*
X144361619Y-113305363D01*
X144439999Y-113315682D01*
X144440000Y-113315682D01*
X144440001Y-113315682D01*
X144492254Y-113308802D01*
X144596762Y-113295044D01*
X144742841Y-113234536D01*
X144868282Y-113138282D01*
X144964536Y-113012841D01*
X145025044Y-112866762D01*
X145045682Y-112710000D01*
X145033833Y-112620001D01*
X145694318Y-112620001D01*
X145714955Y-112776760D01*
X145714956Y-112776762D01*
X145775464Y-112922841D01*
X145871718Y-113048282D01*
X145997159Y-113144536D01*
X146143238Y-113205044D01*
X146221619Y-113215363D01*
X146299999Y-113225682D01*
X146300000Y-113225682D01*
X146300001Y-113225682D01*
X146352254Y-113218802D01*
X146456762Y-113205044D01*
X146602841Y-113144536D01*
X146728282Y-113048282D01*
X146824536Y-112922841D01*
X146885044Y-112776762D01*
X146905682Y-112620000D01*
X146902480Y-112595682D01*
X146885044Y-112463239D01*
X146885044Y-112463238D01*
X146824536Y-112317159D01*
X146728282Y-112191718D01*
X146602841Y-112095464D01*
X146456762Y-112034956D01*
X146456760Y-112034955D01*
X146300001Y-112014318D01*
X146299999Y-112014318D01*
X146143239Y-112034955D01*
X146143237Y-112034956D01*
X145997160Y-112095463D01*
X145871718Y-112191718D01*
X145775463Y-112317160D01*
X145714956Y-112463237D01*
X145714955Y-112463239D01*
X145694318Y-112619998D01*
X145694318Y-112620001D01*
X145033833Y-112620001D01*
X145025044Y-112553239D01*
X145025044Y-112553238D01*
X144964536Y-112407159D01*
X144868282Y-112281718D01*
X144742841Y-112185464D01*
X144649401Y-112146760D01*
X144596762Y-112124956D01*
X144596760Y-112124955D01*
X144440001Y-112104318D01*
X144439999Y-112104318D01*
X144283239Y-112124955D01*
X144283237Y-112124956D01*
X144137160Y-112185463D01*
X144011718Y-112281718D01*
X143915463Y-112407160D01*
X143854956Y-112553237D01*
X143854955Y-112553239D01*
X143834318Y-112709998D01*
X143834318Y-112710001D01*
X134000000Y-112710001D01*
X134000000Y-111990001D01*
X157794318Y-111990001D01*
X157814955Y-112146760D01*
X157814956Y-112146762D01*
X157830986Y-112185463D01*
X157875464Y-112292841D01*
X157971718Y-112418282D01*
X158097159Y-112514536D01*
X158243238Y-112575044D01*
X158321619Y-112585363D01*
X158399999Y-112595682D01*
X158400000Y-112595682D01*
X158400001Y-112595682D01*
X158452254Y-112588802D01*
X158556762Y-112575044D01*
X158702841Y-112514536D01*
X158828282Y-112418282D01*
X158924536Y-112292841D01*
X158985044Y-112146762D01*
X158999764Y-112034955D01*
X159005682Y-111990001D01*
X159005682Y-111989998D01*
X158985044Y-111833239D01*
X158985044Y-111833238D01*
X158924536Y-111687159D01*
X158828282Y-111561718D01*
X158702841Y-111465464D01*
X158556762Y-111404956D01*
X158556760Y-111404955D01*
X158400001Y-111384318D01*
X158399999Y-111384318D01*
X158243239Y-111404955D01*
X158243237Y-111404956D01*
X158097160Y-111465463D01*
X157971718Y-111561718D01*
X157875463Y-111687160D01*
X157814956Y-111833237D01*
X157814955Y-111833239D01*
X157794318Y-111989998D01*
X157794318Y-111990001D01*
X134000000Y-111990001D01*
X134000000Y-107250001D01*
X153994318Y-107250001D01*
X154014955Y-107406760D01*
X154014956Y-107406762D01*
X154075464Y-107552841D01*
X154171718Y-107678282D01*
X154297159Y-107774536D01*
X154443238Y-107835044D01*
X154521619Y-107845363D01*
X154599999Y-107855682D01*
X154600000Y-107855682D01*
X154600001Y-107855682D01*
X154652254Y-107848802D01*
X154756762Y-107835044D01*
X154902841Y-107774536D01*
X155028282Y-107678282D01*
X155124536Y-107552841D01*
X155185044Y-107406762D01*
X155205682Y-107250000D01*
X155185044Y-107093238D01*
X155124536Y-106947159D01*
X155028282Y-106821718D01*
X154902841Y-106725464D01*
X154756762Y-106664956D01*
X154756760Y-106664955D01*
X154600001Y-106644318D01*
X154599999Y-106644318D01*
X154443239Y-106664955D01*
X154443237Y-106664956D01*
X154297160Y-106725463D01*
X154171718Y-106821718D01*
X154075463Y-106947160D01*
X154014956Y-107093237D01*
X154014955Y-107093239D01*
X153994318Y-107249998D01*
X153994318Y-107250001D01*
X134000000Y-107250001D01*
X134000000Y-104760001D01*
X153994318Y-104760001D01*
X154014955Y-104916760D01*
X154014956Y-104916762D01*
X154049626Y-105000464D01*
X154075464Y-105062841D01*
X154171718Y-105188282D01*
X154297159Y-105284536D01*
X154443238Y-105345044D01*
X154521619Y-105355363D01*
X154599999Y-105365682D01*
X154600000Y-105365682D01*
X154600001Y-105365682D01*
X154652254Y-105358802D01*
X154756762Y-105345044D01*
X154902841Y-105284536D01*
X155028282Y-105188282D01*
X155124536Y-105062841D01*
X155185044Y-104916762D01*
X155205682Y-104760000D01*
X155185044Y-104603238D01*
X155124536Y-104457159D01*
X155028282Y-104331718D01*
X154902841Y-104235464D01*
X154756762Y-104174956D01*
X154756760Y-104174955D01*
X154600001Y-104154318D01*
X154599999Y-104154318D01*
X154443239Y-104174955D01*
X154443237Y-104174956D01*
X154297160Y-104235463D01*
X154171718Y-104331718D01*
X154075463Y-104457160D01*
X154014956Y-104603237D01*
X154014955Y-104603239D01*
X153994318Y-104759998D01*
X153994318Y-104760001D01*
X134000000Y-104760001D01*
X134000000Y-103640001D01*
X148314318Y-103640001D01*
X148334955Y-103796760D01*
X148334956Y-103796762D01*
X148395464Y-103942841D01*
X148491718Y-104068282D01*
X148617159Y-104164536D01*
X148763238Y-104225044D01*
X148821733Y-104232745D01*
X148919999Y-104245682D01*
X148920000Y-104245682D01*
X148920001Y-104245682D01*
X148972254Y-104238802D01*
X149076762Y-104225044D01*
X149222841Y-104164536D01*
X149348282Y-104068282D01*
X149444536Y-103942841D01*
X149505044Y-103796762D01*
X149525682Y-103640000D01*
X149524455Y-103630682D01*
X149517783Y-103580001D01*
X156024318Y-103580001D01*
X156044955Y-103736760D01*
X156044956Y-103736762D01*
X156105464Y-103882841D01*
X156201718Y-104008282D01*
X156327159Y-104104536D01*
X156473238Y-104165044D01*
X156548520Y-104174955D01*
X156629999Y-104185682D01*
X156630000Y-104185682D01*
X156630001Y-104185682D01*
X156711480Y-104174955D01*
X156786762Y-104165044D01*
X156932841Y-104104536D01*
X157058282Y-104008282D01*
X157154536Y-103882841D01*
X157215044Y-103736762D01*
X157235682Y-103580000D01*
X157231671Y-103549536D01*
X157215044Y-103423239D01*
X157215044Y-103423238D01*
X157154536Y-103277159D01*
X157058282Y-103151718D01*
X156932841Y-103055464D01*
X156931612Y-103054955D01*
X156786762Y-102994956D01*
X156786760Y-102994955D01*
X156630001Y-102974318D01*
X156629999Y-102974318D01*
X156473239Y-102994955D01*
X156473237Y-102994956D01*
X156327160Y-103055463D01*
X156201718Y-103151718D01*
X156105463Y-103277160D01*
X156044956Y-103423237D01*
X156044955Y-103423239D01*
X156024318Y-103579998D01*
X156024318Y-103580001D01*
X149517783Y-103580001D01*
X149509315Y-103515682D01*
X149505044Y-103483238D01*
X149444536Y-103337159D01*
X149348282Y-103211718D01*
X149222841Y-103115464D01*
X149076762Y-103054956D01*
X149076760Y-103054955D01*
X148920001Y-103034318D01*
X148919999Y-103034318D01*
X148763239Y-103054955D01*
X148763237Y-103054956D01*
X148617160Y-103115463D01*
X148491718Y-103211718D01*
X148395463Y-103337160D01*
X148334956Y-103483237D01*
X148334955Y-103483239D01*
X148314318Y-103639998D01*
X148314318Y-103640001D01*
X134000000Y-103640001D01*
X134000000Y-101930001D01*
X151294318Y-101930001D01*
X151314955Y-102086760D01*
X151314956Y-102086762D01*
X151375464Y-102232841D01*
X151471718Y-102358282D01*
X151597159Y-102454536D01*
X151719292Y-102505125D01*
X151773695Y-102548966D01*
X151794778Y-102603500D01*
X151814956Y-102756760D01*
X151814956Y-102756762D01*
X151862059Y-102870480D01*
X151875464Y-102902841D01*
X151971718Y-103028282D01*
X152097159Y-103124536D01*
X152243238Y-103185044D01*
X152321619Y-103195363D01*
X152399999Y-103205682D01*
X152400000Y-103205682D01*
X152400001Y-103205682D01*
X152452254Y-103198802D01*
X152556762Y-103185044D01*
X152702841Y-103124536D01*
X152828282Y-103028282D01*
X152924536Y-102902841D01*
X152985044Y-102756762D01*
X153005682Y-102600000D01*
X152985044Y-102443238D01*
X152924536Y-102297159D01*
X152828282Y-102171718D01*
X152702841Y-102075464D01*
X152702839Y-102075463D01*
X152580707Y-102024874D01*
X152526304Y-101981033D01*
X152505221Y-101926498D01*
X152485044Y-101773239D01*
X152485044Y-101773238D01*
X152424536Y-101627159D01*
X152328282Y-101501718D01*
X152202841Y-101405464D01*
X152056762Y-101344956D01*
X152056760Y-101344955D01*
X151900001Y-101324318D01*
X151899999Y-101324318D01*
X151743239Y-101344955D01*
X151743237Y-101344956D01*
X151597160Y-101405463D01*
X151471718Y-101501718D01*
X151375463Y-101627160D01*
X151314956Y-101773237D01*
X151314955Y-101773239D01*
X151294318Y-101929998D01*
X151294318Y-101930001D01*
X134000000Y-101930001D01*
X134000000Y-101294856D01*
X158199500Y-101294856D01*
X158199502Y-101294882D01*
X158202413Y-101319987D01*
X158202415Y-101319991D01*
X158247793Y-101422764D01*
X158247794Y-101422765D01*
X158327235Y-101502206D01*
X158430009Y-101547585D01*
X158455135Y-101550500D01*
X158475497Y-101550499D01*
X158542535Y-101570181D01*
X158588292Y-101622983D01*
X158599500Y-101674499D01*
X158599500Y-101802726D01*
X158626793Y-101904589D01*
X158641465Y-101930000D01*
X158679520Y-101995913D01*
X159554087Y-102870480D01*
X159645412Y-102923207D01*
X159747273Y-102950500D01*
X159747275Y-102950500D01*
X162002725Y-102950500D01*
X162002727Y-102950500D01*
X162104588Y-102923207D01*
X162195913Y-102870480D01*
X162850480Y-102215913D01*
X162903207Y-102124588D01*
X162930500Y-102022727D01*
X162930500Y-101917273D01*
X162930500Y-100958381D01*
X162950185Y-100891342D01*
X163002989Y-100845587D01*
X163072147Y-100835643D01*
X163135703Y-100864668D01*
X163153767Y-100884070D01*
X163163813Y-100897489D01*
X163278906Y-100983649D01*
X163278913Y-100983653D01*
X163413620Y-101033895D01*
X163413627Y-101033897D01*
X163473155Y-101040298D01*
X163473172Y-101040299D01*
X163550000Y-101040299D01*
X163550000Y-97770301D01*
X163473155Y-97770301D01*
X163413627Y-97776702D01*
X163413620Y-97776704D01*
X163278913Y-97826946D01*
X163278906Y-97826950D01*
X163163813Y-97913110D01*
X163118635Y-97973460D01*
X163062701Y-98015331D01*
X162993009Y-98020315D01*
X162969281Y-98012583D01*
X162878992Y-97972716D01*
X162853865Y-97969801D01*
X162206143Y-97969801D01*
X162206117Y-97969803D01*
X162181012Y-97972714D01*
X162181008Y-97972716D01*
X162078235Y-98018094D01*
X161998796Y-98097533D01*
X161997300Y-98099718D01*
X161993555Y-98102774D01*
X161990669Y-98105661D01*
X161990377Y-98105369D01*
X161943173Y-98143901D01*
X161873752Y-98151807D01*
X161811077Y-98120926D01*
X161792700Y-98099718D01*
X161791207Y-98097539D01*
X161791206Y-98097536D01*
X161711765Y-98018095D01*
X161705505Y-98015331D01*
X161608992Y-97972716D01*
X161583865Y-97969801D01*
X160936143Y-97969801D01*
X160936117Y-97969803D01*
X160911012Y-97972714D01*
X160911008Y-97972716D01*
X160808235Y-98018094D01*
X160728794Y-98097535D01*
X160683415Y-98200307D01*
X160683415Y-98200309D01*
X160680500Y-98225432D01*
X160680500Y-100585155D01*
X160680502Y-100585181D01*
X160683413Y-100610286D01*
X160683415Y-100610290D01*
X160728793Y-100713063D01*
X160816360Y-100800630D01*
X160814892Y-100802097D01*
X160849757Y-100844804D01*
X160859500Y-100892983D01*
X160859500Y-101325366D01*
X160839815Y-101392405D01*
X160787011Y-101438160D01*
X160782953Y-101439927D01*
X160697160Y-101475463D01*
X160571718Y-101571718D01*
X160475463Y-101697160D01*
X160414956Y-101843237D01*
X160414955Y-101843239D01*
X160394318Y-101999998D01*
X160394318Y-102000002D01*
X160395544Y-102009316D01*
X160384778Y-102078351D01*
X160338397Y-102130607D01*
X160272605Y-102149500D01*
X160017255Y-102149500D01*
X159950216Y-102129815D01*
X159929574Y-102113181D01*
X159555078Y-101738685D01*
X159521593Y-101677362D01*
X159526577Y-101607670D01*
X159568449Y-101551737D01*
X159592666Y-101537572D01*
X159672765Y-101502206D01*
X159752206Y-101422765D01*
X159797585Y-101319991D01*
X159800500Y-101294865D01*
X159800499Y-100205136D01*
X159800497Y-100205117D01*
X159797586Y-100180012D01*
X159797585Y-100180010D01*
X159797585Y-100180009D01*
X159752206Y-100077235D01*
X159672765Y-99997794D01*
X159612633Y-99971243D01*
X159569992Y-99952415D01*
X159544865Y-99949500D01*
X158455143Y-99949500D01*
X158455117Y-99949502D01*
X158430012Y-99952413D01*
X158430008Y-99952415D01*
X158327235Y-99997793D01*
X158247794Y-100077234D01*
X158202415Y-100180006D01*
X158202415Y-100180008D01*
X158199500Y-100205131D01*
X158199500Y-101294856D01*
X134000000Y-101294856D01*
X134000000Y-96834856D01*
X139279500Y-96834856D01*
X139279502Y-96834882D01*
X139282413Y-96859987D01*
X139282415Y-96859991D01*
X139327793Y-96962764D01*
X139327794Y-96962765D01*
X139407235Y-97042206D01*
X139510009Y-97087585D01*
X139535135Y-97090500D01*
X140124864Y-97090499D01*
X140124879Y-97090497D01*
X140124882Y-97090497D01*
X140149987Y-97087586D01*
X140149988Y-97087585D01*
X140149991Y-97087585D01*
X140252765Y-97042206D01*
X140332206Y-96962765D01*
X140377585Y-96859991D01*
X140380500Y-96834865D01*
X140380500Y-96350001D01*
X146794318Y-96350001D01*
X146814955Y-96506760D01*
X146814956Y-96506762D01*
X146862059Y-96620480D01*
X146875464Y-96652841D01*
X146971718Y-96778282D01*
X147097159Y-96874536D01*
X147243238Y-96935044D01*
X147400000Y-96955682D01*
X147405975Y-96954895D01*
X147475010Y-96965657D01*
X147527268Y-97012034D01*
X147546157Y-97079302D01*
X147545106Y-97094015D01*
X147544318Y-97100001D01*
X147564955Y-97256760D01*
X147564956Y-97256762D01*
X147625464Y-97402841D01*
X147721718Y-97528282D01*
X147847159Y-97624536D01*
X147993238Y-97685044D01*
X148071619Y-97695363D01*
X148149999Y-97705682D01*
X148150000Y-97705682D01*
X148150001Y-97705682D01*
X148202254Y-97698802D01*
X148306762Y-97685044D01*
X148452841Y-97624536D01*
X148578282Y-97528282D01*
X148674536Y-97402841D01*
X148706976Y-97324523D01*
X148750815Y-97270121D01*
X148817109Y-97248056D01*
X148839070Y-97250554D01*
X148839217Y-97249439D01*
X148847271Y-97250499D01*
X148847273Y-97250500D01*
X148847275Y-97250500D01*
X152702725Y-97250500D01*
X152702727Y-97250500D01*
X152804588Y-97223207D01*
X152895913Y-97170480D01*
X153720480Y-96345913D01*
X153773207Y-96254588D01*
X153800500Y-96152727D01*
X153800500Y-96047273D01*
X153800500Y-95070077D01*
X153820185Y-95003038D01*
X153872989Y-94957283D01*
X153942147Y-94947339D01*
X153971947Y-94955514D01*
X154043238Y-94985044D01*
X154095178Y-94991882D01*
X154199999Y-95005682D01*
X154200000Y-95005682D01*
X154200001Y-95005682D01*
X154252254Y-94998802D01*
X154356762Y-94985044D01*
X154502841Y-94924536D01*
X154628282Y-94828282D01*
X154724536Y-94702841D01*
X154755660Y-94627700D01*
X160481000Y-94627700D01*
X160481000Y-95560543D01*
X160487401Y-95620071D01*
X160487403Y-95620078D01*
X160537645Y-95754785D01*
X160537649Y-95754792D01*
X160623809Y-95869886D01*
X160623812Y-95869889D01*
X160738906Y-95956049D01*
X160738913Y-95956053D01*
X160873620Y-96006295D01*
X160873627Y-96006297D01*
X160933155Y-96012698D01*
X160933172Y-96012699D01*
X161010000Y-96012699D01*
X161010000Y-94627700D01*
X160481000Y-94627700D01*
X154755660Y-94627700D01*
X154785044Y-94556762D01*
X154805682Y-94400000D01*
X154803865Y-94386201D01*
X154785044Y-94243239D01*
X154785044Y-94243238D01*
X154724536Y-94097159D01*
X154628282Y-93971718D01*
X154502841Y-93875464D01*
X154469522Y-93861663D01*
X154356762Y-93814956D01*
X154356760Y-93814955D01*
X154200001Y-93794318D01*
X154199999Y-93794318D01*
X154043239Y-93814955D01*
X154043234Y-93814957D01*
X153971952Y-93844483D01*
X153902483Y-93851952D01*
X153840004Y-93820676D01*
X153804352Y-93760587D01*
X153803022Y-93750000D01*
X158000000Y-93750000D01*
X158000000Y-94047844D01*
X158006401Y-94107372D01*
X158006403Y-94107379D01*
X158056645Y-94242086D01*
X158056649Y-94242093D01*
X158142809Y-94357187D01*
X158142812Y-94357190D01*
X158257906Y-94443350D01*
X158257913Y-94443354D01*
X158392620Y-94493596D01*
X158392627Y-94493598D01*
X158452155Y-94499999D01*
X158452172Y-94500000D01*
X158750000Y-94500000D01*
X158750000Y-93750000D01*
X159250000Y-93750000D01*
X159250000Y-94500000D01*
X159547828Y-94500000D01*
X159547844Y-94499999D01*
X159607372Y-94493598D01*
X159607379Y-94493596D01*
X159742086Y-94443354D01*
X159742093Y-94443350D01*
X159857187Y-94357190D01*
X159857190Y-94357187D01*
X159943350Y-94242093D01*
X159943354Y-94242086D01*
X159986017Y-94127700D01*
X160481000Y-94127700D01*
X161010000Y-94127700D01*
X161010000Y-92742701D01*
X160933155Y-92742701D01*
X160873627Y-92749102D01*
X160873620Y-92749104D01*
X160738913Y-92799346D01*
X160738906Y-92799350D01*
X160623812Y-92885510D01*
X160623809Y-92885513D01*
X160537649Y-93000607D01*
X160537645Y-93000614D01*
X160487403Y-93135321D01*
X160487401Y-93135328D01*
X160481000Y-93194856D01*
X160481000Y-94127700D01*
X159986017Y-94127700D01*
X159993596Y-94107379D01*
X159993598Y-94107372D01*
X159999999Y-94047844D01*
X160000000Y-94047827D01*
X160000000Y-93750000D01*
X159250000Y-93750000D01*
X158750000Y-93750000D01*
X158000000Y-93750000D01*
X153803022Y-93750000D01*
X153800500Y-93729922D01*
X153800500Y-93250000D01*
X158000000Y-93250000D01*
X158750000Y-93250000D01*
X158750000Y-92500000D01*
X159250000Y-92500000D01*
X159250000Y-93250000D01*
X160000000Y-93250000D01*
X160000000Y-92952172D01*
X159999999Y-92952155D01*
X159993598Y-92892627D01*
X159993596Y-92892620D01*
X159943354Y-92757913D01*
X159943350Y-92757906D01*
X159857190Y-92642812D01*
X159857187Y-92642809D01*
X159742093Y-92556649D01*
X159742086Y-92556645D01*
X159607379Y-92506403D01*
X159607372Y-92506401D01*
X159547844Y-92500000D01*
X159250000Y-92500000D01*
X158750000Y-92500000D01*
X158452155Y-92500000D01*
X158392627Y-92506401D01*
X158392620Y-92506403D01*
X158257913Y-92556645D01*
X158257906Y-92556649D01*
X158142812Y-92642809D01*
X158142809Y-92642812D01*
X158056649Y-92757906D01*
X158056645Y-92757913D01*
X158006403Y-92892620D01*
X158006401Y-92892627D01*
X158000000Y-92952155D01*
X158000000Y-93250000D01*
X153800500Y-93250000D01*
X153800500Y-92124500D01*
X153820185Y-92057461D01*
X153872989Y-92011706D01*
X153924500Y-92000500D01*
X154422474Y-92000500D01*
X154489513Y-92020185D01*
X154535268Y-92072989D01*
X154545412Y-92108312D01*
X154547548Y-92124536D01*
X154564955Y-92256760D01*
X154564956Y-92256762D01*
X154625464Y-92402841D01*
X154721718Y-92528282D01*
X154847159Y-92624536D01*
X154993238Y-92685044D01*
X155071619Y-92695363D01*
X155149999Y-92705682D01*
X155150000Y-92705682D01*
X155150001Y-92705682D01*
X155202254Y-92698802D01*
X155306762Y-92685044D01*
X155452841Y-92624536D01*
X155578282Y-92528282D01*
X155674536Y-92402841D01*
X155735044Y-92256762D01*
X155754587Y-92108313D01*
X155782853Y-92044418D01*
X155841178Y-92005947D01*
X155877526Y-92000500D01*
X162888546Y-92000500D01*
X162955585Y-92020185D01*
X162976227Y-92036819D01*
X163335320Y-92395912D01*
X163335321Y-92395913D01*
X163409888Y-92470480D01*
X163412575Y-92472031D01*
X163414389Y-92473934D01*
X163416334Y-92475426D01*
X163416101Y-92475729D01*
X163460792Y-92522595D01*
X163474017Y-92591202D01*
X163457965Y-92641419D01*
X163426794Y-92695408D01*
X163426793Y-92695412D01*
X163410644Y-92755682D01*
X163410644Y-92755683D01*
X163410643Y-92755682D01*
X163399500Y-92797271D01*
X163399500Y-92890016D01*
X163379815Y-92957055D01*
X163355789Y-92981799D01*
X163356360Y-92982370D01*
X163268796Y-93069933D01*
X163267300Y-93072118D01*
X163263555Y-93075174D01*
X163260669Y-93078061D01*
X163260377Y-93077769D01*
X163213173Y-93116301D01*
X163143752Y-93124207D01*
X163081077Y-93093326D01*
X163062700Y-93072118D01*
X163061207Y-93069939D01*
X163061206Y-93069936D01*
X162981765Y-92990495D01*
X162970369Y-92985463D01*
X162878992Y-92945116D01*
X162853865Y-92942201D01*
X162206143Y-92942201D01*
X162206117Y-92942203D01*
X162181012Y-92945114D01*
X162181008Y-92945116D01*
X162090718Y-92984983D01*
X162021440Y-92994055D01*
X161958255Y-92964231D01*
X161941365Y-92945860D01*
X161896186Y-92885510D01*
X161781093Y-92799350D01*
X161781086Y-92799346D01*
X161646379Y-92749104D01*
X161646372Y-92749102D01*
X161586844Y-92742701D01*
X161510000Y-92742701D01*
X161510000Y-96012699D01*
X161586828Y-96012699D01*
X161586844Y-96012698D01*
X161646372Y-96006297D01*
X161646379Y-96006295D01*
X161781086Y-95956053D01*
X161781093Y-95956049D01*
X161896186Y-95869889D01*
X161941365Y-95809540D01*
X161997299Y-95767669D01*
X162066991Y-95762685D01*
X162090717Y-95770416D01*
X162181009Y-95810284D01*
X162206135Y-95813199D01*
X162703744Y-95813198D01*
X162770783Y-95832882D01*
X162791425Y-95849517D01*
X163483480Y-96541571D01*
X163483490Y-96541582D01*
X163487820Y-96545912D01*
X163487821Y-96545913D01*
X163562388Y-96620480D01*
X163618439Y-96652841D01*
X163653714Y-96673207D01*
X163755574Y-96700501D01*
X163755576Y-96700501D01*
X163868624Y-96700501D01*
X163868640Y-96700500D01*
X165142745Y-96700500D01*
X165209784Y-96720185D01*
X165230426Y-96736819D01*
X166485438Y-97991831D01*
X167080128Y-98586520D01*
X167113613Y-98647843D01*
X167108629Y-98717535D01*
X167066757Y-98773468D01*
X167001293Y-98797885D01*
X166976262Y-98797140D01*
X166850001Y-98780518D01*
X166849999Y-98780518D01*
X166693239Y-98801155D01*
X166693237Y-98801156D01*
X166547160Y-98861663D01*
X166538590Y-98868239D01*
X166421718Y-98957918D01*
X166421716Y-98957920D01*
X166418907Y-98960076D01*
X166353737Y-98985270D01*
X166343420Y-98985700D01*
X165773499Y-98985700D01*
X165706460Y-98966015D01*
X165660705Y-98913211D01*
X165649499Y-98861700D01*
X165649499Y-98225444D01*
X165649499Y-98225437D01*
X165649497Y-98225418D01*
X165646586Y-98200313D01*
X165646585Y-98200311D01*
X165646585Y-98200310D01*
X165601206Y-98097536D01*
X165521765Y-98018095D01*
X165515505Y-98015331D01*
X165418992Y-97972716D01*
X165393865Y-97969801D01*
X164746143Y-97969801D01*
X164746117Y-97969803D01*
X164721012Y-97972714D01*
X164721008Y-97972716D01*
X164630718Y-98012583D01*
X164561440Y-98021655D01*
X164498255Y-97991831D01*
X164481365Y-97973460D01*
X164436186Y-97913110D01*
X164321093Y-97826950D01*
X164321086Y-97826946D01*
X164186379Y-97776704D01*
X164186372Y-97776702D01*
X164126844Y-97770301D01*
X164050000Y-97770301D01*
X164050000Y-101040299D01*
X164126828Y-101040299D01*
X164126844Y-101040298D01*
X164186372Y-101033897D01*
X164186379Y-101033895D01*
X164321086Y-100983653D01*
X164321093Y-100983649D01*
X164436186Y-100897489D01*
X164481365Y-100837140D01*
X164537299Y-100795269D01*
X164606991Y-100790285D01*
X164630717Y-100798016D01*
X164721009Y-100837884D01*
X164746135Y-100840799D01*
X165393864Y-100840798D01*
X165393879Y-100840796D01*
X165393882Y-100840796D01*
X165418987Y-100837885D01*
X165418988Y-100837884D01*
X165418991Y-100837884D01*
X165521765Y-100792505D01*
X165601206Y-100713064D01*
X165646585Y-100610290D01*
X165649500Y-100585164D01*
X165649500Y-99910700D01*
X165669185Y-99843661D01*
X165721989Y-99797906D01*
X165773500Y-99786700D01*
X166343420Y-99786700D01*
X166410459Y-99806385D01*
X166418907Y-99812324D01*
X166421716Y-99814479D01*
X166421718Y-99814482D01*
X166547159Y-99910736D01*
X166693238Y-99971244D01*
X166771619Y-99981563D01*
X166849999Y-99991882D01*
X166850000Y-99991882D01*
X166850001Y-99991882D01*
X166902254Y-99985002D01*
X167006762Y-99971244D01*
X167152841Y-99910736D01*
X167278282Y-99814482D01*
X167374536Y-99689041D01*
X167435044Y-99542962D01*
X167455682Y-99386200D01*
X167439059Y-99259936D01*
X167449824Y-99190902D01*
X167496204Y-99138646D01*
X167563473Y-99119761D01*
X167630274Y-99140242D01*
X167649679Y-99156071D01*
X167763181Y-99269573D01*
X167796666Y-99330896D01*
X167799500Y-99357254D01*
X167799500Y-104502726D01*
X167826793Y-104604589D01*
X167853156Y-104650250D01*
X167879520Y-104695913D01*
X169011448Y-105827841D01*
X170108596Y-106924988D01*
X170142081Y-106986311D01*
X170143854Y-106996483D01*
X170164956Y-107156760D01*
X170164956Y-107156762D01*
X170203576Y-107250000D01*
X170225464Y-107302841D01*
X170321718Y-107428282D01*
X170447159Y-107524536D01*
X170593238Y-107585044D01*
X170671619Y-107595363D01*
X170749999Y-107605682D01*
X170750000Y-107605682D01*
X170750001Y-107605682D01*
X170802254Y-107598802D01*
X170906762Y-107585044D01*
X171052841Y-107524536D01*
X171178282Y-107428282D01*
X171274536Y-107302841D01*
X171335044Y-107156762D01*
X171348802Y-107052254D01*
X171355682Y-107000001D01*
X171355682Y-106999998D01*
X171335044Y-106843239D01*
X171335044Y-106843238D01*
X171274536Y-106697159D01*
X171178282Y-106571718D01*
X171117399Y-106525001D01*
X177944318Y-106525001D01*
X177964955Y-106681760D01*
X177964956Y-106681762D01*
X178025464Y-106827841D01*
X178121718Y-106953282D01*
X178247159Y-107049536D01*
X178393238Y-107110044D01*
X178471619Y-107120363D01*
X178549999Y-107130682D01*
X178550000Y-107130682D01*
X178550001Y-107130682D01*
X178602254Y-107123802D01*
X178706762Y-107110044D01*
X178852841Y-107049536D01*
X178978282Y-106953282D01*
X179074536Y-106827841D01*
X179135044Y-106681762D01*
X179148802Y-106577254D01*
X179155682Y-106525001D01*
X179155682Y-106524998D01*
X179141923Y-106420492D01*
X179135044Y-106368238D01*
X179074536Y-106222159D01*
X178978282Y-106096718D01*
X178852841Y-106000464D01*
X178706762Y-105939956D01*
X178706760Y-105939955D01*
X178550001Y-105919318D01*
X178549999Y-105919318D01*
X178393239Y-105939955D01*
X178393237Y-105939956D01*
X178247160Y-106000463D01*
X178121718Y-106096718D01*
X178025463Y-106222160D01*
X177964956Y-106368237D01*
X177964955Y-106368239D01*
X177944318Y-106524998D01*
X177944318Y-106525001D01*
X171117399Y-106525001D01*
X171052841Y-106475464D01*
X170906762Y-106414956D01*
X170887789Y-106412458D01*
X170746483Y-106393854D01*
X170682587Y-106365587D01*
X170674988Y-106358596D01*
X169841393Y-105525001D01*
X172194318Y-105525001D01*
X172214955Y-105681760D01*
X172214956Y-105681762D01*
X172275464Y-105827841D01*
X172371718Y-105953282D01*
X172497159Y-106049536D01*
X172643238Y-106110044D01*
X172721619Y-106120363D01*
X172799999Y-106130682D01*
X172800000Y-106130682D01*
X172800001Y-106130682D01*
X172852254Y-106123802D01*
X172956762Y-106110044D01*
X173102841Y-106049536D01*
X173228282Y-105953282D01*
X173324536Y-105827841D01*
X173385044Y-105681762D01*
X173405682Y-105525000D01*
X173399756Y-105479991D01*
X173396447Y-105454856D01*
X179569500Y-105454856D01*
X179569502Y-105454882D01*
X179572413Y-105479987D01*
X179572415Y-105479991D01*
X179617793Y-105582764D01*
X179617794Y-105582765D01*
X179697235Y-105662206D01*
X179800009Y-105707585D01*
X179825135Y-105710500D01*
X180914864Y-105710499D01*
X180931917Y-105708521D01*
X181000777Y-105720350D01*
X181045471Y-105757384D01*
X181052809Y-105767186D01*
X181052814Y-105767191D01*
X181167906Y-105853350D01*
X181167913Y-105853354D01*
X181302620Y-105903596D01*
X181302627Y-105903598D01*
X181362155Y-105909999D01*
X181362172Y-105910000D01*
X181660000Y-105910000D01*
X181660000Y-105160000D01*
X182160000Y-105160000D01*
X182160000Y-105910000D01*
X182457828Y-105910000D01*
X182457844Y-105909999D01*
X182517372Y-105903598D01*
X182517379Y-105903596D01*
X182652086Y-105853354D01*
X182652093Y-105853350D01*
X182767187Y-105767190D01*
X182767190Y-105767187D01*
X182853350Y-105652093D01*
X182853354Y-105652086D01*
X182903596Y-105517379D01*
X182903598Y-105517372D01*
X182909999Y-105457844D01*
X182910000Y-105457827D01*
X182910000Y-105160000D01*
X182160000Y-105160000D01*
X181660000Y-105160000D01*
X181660000Y-103910000D01*
X182160000Y-103910000D01*
X182160000Y-104660000D01*
X182910000Y-104660000D01*
X182910000Y-104362172D01*
X182909999Y-104362155D01*
X182903598Y-104302627D01*
X182903596Y-104302620D01*
X182853354Y-104167913D01*
X182853350Y-104167906D01*
X182767190Y-104052812D01*
X182767187Y-104052809D01*
X182652093Y-103966649D01*
X182652086Y-103966645D01*
X182517379Y-103916403D01*
X182517372Y-103916401D01*
X182457844Y-103910000D01*
X182160000Y-103910000D01*
X181660000Y-103910000D01*
X181365754Y-103910000D01*
X181298715Y-103890315D01*
X181252960Y-103837511D01*
X181243016Y-103768353D01*
X181272041Y-103704797D01*
X181278058Y-103698333D01*
X181424992Y-103551399D01*
X181486311Y-103517917D01*
X181496485Y-103516144D01*
X181499997Y-103515681D01*
X181500000Y-103515682D01*
X181656762Y-103495044D01*
X181802841Y-103434536D01*
X181928282Y-103338282D01*
X182024536Y-103212841D01*
X182085044Y-103066762D01*
X182103943Y-102923207D01*
X182105682Y-102910001D01*
X182105682Y-102909998D01*
X182085044Y-102753239D01*
X182085044Y-102753238D01*
X182024536Y-102607159D01*
X181928282Y-102481718D01*
X181802841Y-102385464D01*
X181656762Y-102324956D01*
X181656760Y-102324955D01*
X181500001Y-102304318D01*
X181499999Y-102304318D01*
X181343239Y-102324955D01*
X181343237Y-102324956D01*
X181197160Y-102385463D01*
X181071718Y-102481718D01*
X180975463Y-102607160D01*
X180914956Y-102753237D01*
X180914956Y-102753238D01*
X180893855Y-102913513D01*
X180865588Y-102977409D01*
X180858597Y-102985008D01*
X180049522Y-103794084D01*
X180049520Y-103794087D01*
X179998279Y-103882839D01*
X179996793Y-103885412D01*
X179990205Y-103910000D01*
X179981405Y-103942842D01*
X179969500Y-103987270D01*
X179968440Y-103995327D01*
X179966682Y-103995095D01*
X179949815Y-104052539D01*
X179897011Y-104098294D01*
X179845505Y-104109500D01*
X179825145Y-104109500D01*
X179825118Y-104109502D01*
X179800011Y-104112414D01*
X179800008Y-104112415D01*
X179697235Y-104157793D01*
X179617794Y-104237234D01*
X179572415Y-104340006D01*
X179572415Y-104340008D01*
X179569500Y-104365131D01*
X179569500Y-105454856D01*
X173396447Y-105454856D01*
X173385044Y-105368239D01*
X173385044Y-105368238D01*
X173324536Y-105222159D01*
X173228282Y-105096718D01*
X173102841Y-105000464D01*
X172956762Y-104939956D01*
X172956760Y-104939955D01*
X172800001Y-104919318D01*
X172799999Y-104919318D01*
X172643239Y-104939955D01*
X172643237Y-104939956D01*
X172497160Y-105000463D01*
X172371718Y-105096718D01*
X172275463Y-105222160D01*
X172214956Y-105368237D01*
X172214955Y-105368239D01*
X172194318Y-105524998D01*
X172194318Y-105525001D01*
X169841393Y-105525001D01*
X168636819Y-104320426D01*
X168603334Y-104259103D01*
X168600500Y-104232745D01*
X168600500Y-103025001D01*
X171444318Y-103025001D01*
X171464955Y-103181760D01*
X171464956Y-103181762D01*
X171477828Y-103212839D01*
X171525464Y-103327841D01*
X171621718Y-103453282D01*
X171747159Y-103549536D01*
X171893238Y-103610044D01*
X171971619Y-103620363D01*
X172049999Y-103630682D01*
X172050000Y-103630682D01*
X172050001Y-103630682D01*
X172102254Y-103623802D01*
X172206762Y-103610044D01*
X172352841Y-103549536D01*
X172478282Y-103453282D01*
X172574536Y-103327841D01*
X172635044Y-103181762D01*
X172651671Y-103055464D01*
X172655682Y-103025001D01*
X172655682Y-103024998D01*
X172635044Y-102868239D01*
X172635044Y-102868238D01*
X172574536Y-102722159D01*
X172478282Y-102596718D01*
X172352841Y-102500464D01*
X172307584Y-102481718D01*
X172206762Y-102439956D01*
X172206760Y-102439955D01*
X172050001Y-102419318D01*
X172049999Y-102419318D01*
X171893239Y-102439955D01*
X171893237Y-102439956D01*
X171747160Y-102500463D01*
X171621718Y-102596718D01*
X171525463Y-102722160D01*
X171464956Y-102868237D01*
X171464955Y-102868239D01*
X171444318Y-103024998D01*
X171444318Y-103025001D01*
X168600500Y-103025001D01*
X168600500Y-100025001D01*
X170194318Y-100025001D01*
X170214955Y-100181760D01*
X170214956Y-100181762D01*
X170275464Y-100327841D01*
X170371718Y-100453282D01*
X170497159Y-100549536D01*
X170643238Y-100610044D01*
X170721619Y-100620363D01*
X170799999Y-100630682D01*
X170800000Y-100630682D01*
X170800001Y-100630682D01*
X170852254Y-100623802D01*
X170956762Y-100610044D01*
X171102841Y-100549536D01*
X171228282Y-100453282D01*
X171324536Y-100327841D01*
X171385044Y-100181762D01*
X171405682Y-100025001D01*
X171944318Y-100025001D01*
X171964955Y-100181760D01*
X171964956Y-100181762D01*
X172025464Y-100327841D01*
X172121718Y-100453282D01*
X172247159Y-100549536D01*
X172393238Y-100610044D01*
X172471619Y-100620363D01*
X172549999Y-100630682D01*
X172550000Y-100630682D01*
X172550001Y-100630682D01*
X172602254Y-100623802D01*
X172706762Y-100610044D01*
X172852841Y-100549536D01*
X172978282Y-100453282D01*
X173074536Y-100327841D01*
X173135044Y-100181762D01*
X173155682Y-100025001D01*
X173944318Y-100025001D01*
X173964955Y-100181760D01*
X173964956Y-100181762D01*
X174025464Y-100327841D01*
X174121718Y-100453282D01*
X174247159Y-100549536D01*
X174393238Y-100610044D01*
X174471619Y-100620363D01*
X174549999Y-100630682D01*
X174550000Y-100630682D01*
X174550001Y-100630682D01*
X174602254Y-100623802D01*
X174706762Y-100610044D01*
X174852841Y-100549536D01*
X174978282Y-100453282D01*
X175074536Y-100327841D01*
X175135044Y-100181762D01*
X175155682Y-100025000D01*
X175135044Y-99868238D01*
X175074536Y-99722159D01*
X174978282Y-99596718D01*
X174852841Y-99500464D01*
X174706762Y-99439956D01*
X174706760Y-99439955D01*
X174550001Y-99419318D01*
X174549999Y-99419318D01*
X174393239Y-99439955D01*
X174393237Y-99439956D01*
X174247160Y-99500463D01*
X174121718Y-99596718D01*
X174025463Y-99722160D01*
X173964956Y-99868237D01*
X173964955Y-99868239D01*
X173944318Y-100024998D01*
X173944318Y-100025001D01*
X173155682Y-100025001D01*
X173155682Y-100025000D01*
X173135044Y-99868238D01*
X173074536Y-99722159D01*
X172978282Y-99596718D01*
X172852841Y-99500464D01*
X172706762Y-99439956D01*
X172706760Y-99439955D01*
X172550001Y-99419318D01*
X172549999Y-99419318D01*
X172393239Y-99439955D01*
X172393237Y-99439956D01*
X172247160Y-99500463D01*
X172121718Y-99596718D01*
X172025463Y-99722160D01*
X171964956Y-99868237D01*
X171964955Y-99868239D01*
X171944318Y-100024998D01*
X171944318Y-100025001D01*
X171405682Y-100025001D01*
X171405682Y-100025000D01*
X171385044Y-99868238D01*
X171324536Y-99722159D01*
X171228282Y-99596718D01*
X171102841Y-99500464D01*
X170956762Y-99439956D01*
X170956760Y-99439955D01*
X170800001Y-99419318D01*
X170799999Y-99419318D01*
X170643239Y-99439955D01*
X170643237Y-99439956D01*
X170497160Y-99500463D01*
X170371718Y-99596718D01*
X170275463Y-99722160D01*
X170214956Y-99868237D01*
X170214955Y-99868239D01*
X170194318Y-100024998D01*
X170194318Y-100025001D01*
X168600500Y-100025001D01*
X168600500Y-99202729D01*
X168600501Y-99202716D01*
X168600501Y-99087276D01*
X168600501Y-99087274D01*
X168583815Y-99025001D01*
X168944318Y-99025001D01*
X168964955Y-99181760D01*
X168964956Y-99181762D01*
X169001328Y-99269573D01*
X169025464Y-99327841D01*
X169121718Y-99453282D01*
X169247159Y-99549536D01*
X169393238Y-99610044D01*
X169471619Y-99620363D01*
X169549999Y-99630682D01*
X169550000Y-99630682D01*
X169550001Y-99630682D01*
X169602254Y-99623802D01*
X169706762Y-99610044D01*
X169852841Y-99549536D01*
X169978282Y-99453282D01*
X170074536Y-99327841D01*
X170135044Y-99181762D01*
X170155682Y-99025000D01*
X170150451Y-98985270D01*
X170135044Y-98868239D01*
X170135044Y-98868238D01*
X170074536Y-98722159D01*
X169978282Y-98596718D01*
X169852841Y-98500464D01*
X169706762Y-98439956D01*
X169706760Y-98439955D01*
X169550001Y-98419318D01*
X169549999Y-98419318D01*
X169393239Y-98439955D01*
X169393237Y-98439956D01*
X169247160Y-98500463D01*
X169121718Y-98596718D01*
X169025463Y-98722160D01*
X168964956Y-98868237D01*
X168964955Y-98868239D01*
X168944318Y-99024998D01*
X168944318Y-99025001D01*
X168583815Y-99025001D01*
X168573207Y-98985413D01*
X168522031Y-98896774D01*
X168520480Y-98894087D01*
X168445913Y-98819520D01*
X168445912Y-98819519D01*
X168441582Y-98815189D01*
X168441571Y-98815179D01*
X165605915Y-95979522D01*
X165605914Y-95979521D01*
X165605913Y-95979520D01*
X165590162Y-95970426D01*
X165556453Y-95950963D01*
X165508238Y-95900396D01*
X165495016Y-95831789D01*
X165520984Y-95766924D01*
X165530757Y-95755912D01*
X165601206Y-95685464D01*
X165646585Y-95582690D01*
X165649500Y-95557564D01*
X165649500Y-95525001D01*
X170444318Y-95525001D01*
X170464955Y-95681760D01*
X170464956Y-95681762D01*
X170522218Y-95820006D01*
X170525464Y-95827841D01*
X170621718Y-95953282D01*
X170747159Y-96049536D01*
X170893238Y-96110044D01*
X170971619Y-96120363D01*
X171049999Y-96130682D01*
X171050000Y-96130682D01*
X171050001Y-96130682D01*
X171102254Y-96123802D01*
X171206762Y-96110044D01*
X171352841Y-96049536D01*
X171478282Y-95953282D01*
X171574536Y-95827841D01*
X171635044Y-95681762D01*
X171651003Y-95560543D01*
X171655682Y-95525001D01*
X171655682Y-95524998D01*
X171635044Y-95368239D01*
X171635044Y-95368238D01*
X171574536Y-95222159D01*
X171478282Y-95096718D01*
X171352841Y-95000464D01*
X171332122Y-94991882D01*
X171206762Y-94939956D01*
X171206760Y-94939955D01*
X171050001Y-94919318D01*
X171049999Y-94919318D01*
X170893239Y-94939955D01*
X170893237Y-94939956D01*
X170747160Y-95000463D01*
X170621718Y-95096718D01*
X170525463Y-95222160D01*
X170464956Y-95368237D01*
X170464955Y-95368239D01*
X170444318Y-95524998D01*
X170444318Y-95525001D01*
X165649500Y-95525001D01*
X165649500Y-94902200D01*
X165669185Y-94835161D01*
X165721989Y-94789406D01*
X165773500Y-94778200D01*
X166684074Y-94778200D01*
X166751113Y-94797885D01*
X166771504Y-94814317D01*
X166771716Y-94814480D01*
X166771718Y-94814482D01*
X166897159Y-94910736D01*
X167043238Y-94971244D01*
X167121619Y-94981563D01*
X167199999Y-94991882D01*
X167200000Y-94991882D01*
X167200001Y-94991882D01*
X167252254Y-94985002D01*
X167356762Y-94971244D01*
X167502841Y-94910736D01*
X167628282Y-94814482D01*
X167724536Y-94689041D01*
X167785044Y-94542962D01*
X167803865Y-94400000D01*
X167805682Y-94386201D01*
X167805682Y-94386198D01*
X167785044Y-94229439D01*
X167785044Y-94229438D01*
X167724536Y-94083359D01*
X167628282Y-93957918D01*
X167502841Y-93861664D01*
X167479394Y-93851952D01*
X167356762Y-93801156D01*
X167356760Y-93801155D01*
X167200001Y-93780518D01*
X167199999Y-93780518D01*
X167043239Y-93801155D01*
X167043237Y-93801156D01*
X166897157Y-93861664D01*
X166779982Y-93951576D01*
X166714813Y-93976770D01*
X166704496Y-93977200D01*
X165773499Y-93977200D01*
X165706460Y-93957515D01*
X165660705Y-93904711D01*
X165649499Y-93853200D01*
X165649499Y-93510001D01*
X189154318Y-93510001D01*
X189174955Y-93666760D01*
X189174956Y-93666762D01*
X189227791Y-93794318D01*
X189235464Y-93812841D01*
X189331718Y-93938282D01*
X189457159Y-94034536D01*
X189603238Y-94095044D01*
X189619311Y-94097160D01*
X189759999Y-94115682D01*
X189760000Y-94115682D01*
X189760001Y-94115682D01*
X189823121Y-94107372D01*
X189916762Y-94095044D01*
X190062841Y-94034536D01*
X190188282Y-93938282D01*
X190284536Y-93812841D01*
X190345044Y-93666762D01*
X190365682Y-93510000D01*
X190345044Y-93353238D01*
X190284536Y-93207159D01*
X190188282Y-93081718D01*
X190062841Y-92985464D01*
X190055371Y-92982370D01*
X189916762Y-92924956D01*
X189916760Y-92924955D01*
X189760001Y-92904318D01*
X189759999Y-92904318D01*
X189603239Y-92924955D01*
X189603237Y-92924956D01*
X189457160Y-92985463D01*
X189331718Y-93081718D01*
X189235463Y-93207160D01*
X189174956Y-93353237D01*
X189174955Y-93353239D01*
X189154318Y-93509998D01*
X189154318Y-93510001D01*
X165649499Y-93510001D01*
X165649499Y-93197844D01*
X165649499Y-93197837D01*
X165649497Y-93197818D01*
X165646586Y-93172713D01*
X165646585Y-93172711D01*
X165646585Y-93172710D01*
X165601206Y-93069936D01*
X165521765Y-92990495D01*
X165510369Y-92985463D01*
X165418992Y-92945116D01*
X165393865Y-92942201D01*
X164746143Y-92942201D01*
X164746117Y-92942203D01*
X164721012Y-92945114D01*
X164721008Y-92945116D01*
X164618235Y-92990494D01*
X164538796Y-93069933D01*
X164537300Y-93072118D01*
X164533555Y-93075174D01*
X164530669Y-93078061D01*
X164530377Y-93077769D01*
X164483173Y-93116301D01*
X164413752Y-93124207D01*
X164351077Y-93093326D01*
X164332700Y-93072118D01*
X164331207Y-93069939D01*
X164331206Y-93069936D01*
X164326512Y-93065242D01*
X164293027Y-93003919D01*
X164298011Y-92934227D01*
X164326512Y-92889880D01*
X164450711Y-92765682D01*
X164629574Y-92586819D01*
X164690897Y-92553334D01*
X164717255Y-92550500D01*
X172973420Y-92550500D01*
X173040459Y-92570185D01*
X173048907Y-92576124D01*
X173051716Y-92578279D01*
X173051718Y-92578282D01*
X173177159Y-92674536D01*
X173323238Y-92735044D01*
X173381399Y-92742701D01*
X173479999Y-92755682D01*
X173480000Y-92755682D01*
X173480001Y-92755682D01*
X173560804Y-92745044D01*
X173636762Y-92735044D01*
X173782841Y-92674536D01*
X173908282Y-92578282D01*
X174004536Y-92452841D01*
X174065044Y-92306762D01*
X174084365Y-92160001D01*
X176064318Y-92160001D01*
X176084955Y-92316760D01*
X176084956Y-92316762D01*
X176118257Y-92397159D01*
X176145464Y-92462841D01*
X176241718Y-92588282D01*
X176367159Y-92684536D01*
X176513238Y-92745044D01*
X176591619Y-92755363D01*
X176669999Y-92765682D01*
X176670000Y-92765682D01*
X176670001Y-92765682D01*
X176745950Y-92755683D01*
X176826762Y-92745044D01*
X176935505Y-92700001D01*
X178794318Y-92700001D01*
X178814955Y-92856760D01*
X178814956Y-92856762D01*
X178874541Y-93000614D01*
X178875464Y-93002841D01*
X178971718Y-93128282D01*
X179097159Y-93224536D01*
X179243238Y-93285044D01*
X179321619Y-93295363D01*
X179399999Y-93305682D01*
X179400000Y-93305682D01*
X179400001Y-93305682D01*
X179452254Y-93298802D01*
X179556762Y-93285044D01*
X179702841Y-93224536D01*
X179828282Y-93128282D01*
X179924536Y-93002841D01*
X179985044Y-92856762D01*
X180005682Y-92700000D01*
X180005077Y-92695408D01*
X179990974Y-92588281D01*
X179985044Y-92543238D01*
X179924536Y-92397159D01*
X179828282Y-92271718D01*
X179702841Y-92175464D01*
X179556762Y-92114956D01*
X179556760Y-92114955D01*
X179400001Y-92094318D01*
X179399999Y-92094318D01*
X179243239Y-92114955D01*
X179243237Y-92114956D01*
X179097160Y-92175463D01*
X178971718Y-92271718D01*
X178875463Y-92397160D01*
X178814956Y-92543237D01*
X178814955Y-92543239D01*
X178794318Y-92699998D01*
X178794318Y-92700001D01*
X176935505Y-92700001D01*
X176972841Y-92684536D01*
X177098282Y-92588282D01*
X177194536Y-92462841D01*
X177255044Y-92316762D01*
X177275682Y-92160000D01*
X177274365Y-92150000D01*
X177255044Y-92003239D01*
X177255044Y-92003238D01*
X177194536Y-91857159D01*
X177098282Y-91731718D01*
X176972841Y-91635464D01*
X176948696Y-91625463D01*
X176826762Y-91574956D01*
X176826760Y-91574955D01*
X176670001Y-91554318D01*
X176669999Y-91554318D01*
X176513239Y-91574955D01*
X176513237Y-91574956D01*
X176367160Y-91635463D01*
X176241718Y-91731718D01*
X176145463Y-91857160D01*
X176084956Y-92003237D01*
X176084955Y-92003239D01*
X176064318Y-92159998D01*
X176064318Y-92160001D01*
X174084365Y-92160001D01*
X174085682Y-92150001D01*
X174085682Y-92149998D01*
X174071782Y-92044418D01*
X174065044Y-91993238D01*
X174004536Y-91847159D01*
X173908282Y-91721718D01*
X173782841Y-91625464D01*
X173636762Y-91564956D01*
X173636760Y-91564955D01*
X173480001Y-91544318D01*
X173479999Y-91544318D01*
X173323239Y-91564955D01*
X173323237Y-91564956D01*
X173177160Y-91625463D01*
X173177159Y-91625464D01*
X173051718Y-91721718D01*
X173051716Y-91721720D01*
X173048907Y-91723876D01*
X172983737Y-91749070D01*
X172973420Y-91749500D01*
X163873056Y-91749500D01*
X163806017Y-91729815D01*
X163785375Y-91713181D01*
X163351716Y-91279522D01*
X163351714Y-91279520D01*
X163299303Y-91249260D01*
X163260390Y-91226793D01*
X163209458Y-91213146D01*
X163158528Y-91199500D01*
X163158527Y-91199500D01*
X159740116Y-91199500D01*
X159673077Y-91179815D01*
X159627322Y-91127011D01*
X159617378Y-91057853D01*
X159646403Y-90994297D01*
X159664625Y-90977126D01*
X159728282Y-90928282D01*
X159824536Y-90802841D01*
X159885044Y-90656762D01*
X159887400Y-90638863D01*
X178631155Y-90638863D01*
X178651792Y-90795622D01*
X178651793Y-90795624D01*
X178711655Y-90940145D01*
X178712301Y-90941703D01*
X178808555Y-91067144D01*
X178933996Y-91163398D01*
X179080075Y-91223906D01*
X179158456Y-91234225D01*
X179236836Y-91244544D01*
X179236837Y-91244544D01*
X179236838Y-91244544D01*
X179289091Y-91237664D01*
X179393599Y-91223906D01*
X179539678Y-91163398D01*
X179665119Y-91067144D01*
X179724452Y-90989818D01*
X179780880Y-90948616D01*
X179850626Y-90944461D01*
X179911546Y-90978673D01*
X179944299Y-91040390D01*
X179945767Y-91081488D01*
X179944318Y-91092495D01*
X179944318Y-91092501D01*
X179964955Y-91249260D01*
X179964956Y-91249262D01*
X180025130Y-91394536D01*
X180025464Y-91395341D01*
X180121718Y-91520782D01*
X180247159Y-91617036D01*
X180393238Y-91677544D01*
X180471619Y-91687863D01*
X180549999Y-91698182D01*
X180550000Y-91698182D01*
X180550001Y-91698182D01*
X180602254Y-91691302D01*
X180706762Y-91677544D01*
X180852841Y-91617036D01*
X180978282Y-91520782D01*
X181056000Y-91419497D01*
X181112425Y-91378296D01*
X181182171Y-91374141D01*
X181219422Y-91391689D01*
X181220124Y-91390474D01*
X181227157Y-91394534D01*
X181227159Y-91394536D01*
X181227160Y-91394536D01*
X181227163Y-91394538D01*
X181229102Y-91395341D01*
X181373238Y-91455044D01*
X181451619Y-91465363D01*
X181529999Y-91475682D01*
X181530000Y-91475682D01*
X181530001Y-91475682D01*
X181582254Y-91468802D01*
X181686762Y-91455044D01*
X181832841Y-91394536D01*
X181958282Y-91298282D01*
X182054536Y-91172841D01*
X182115044Y-91026762D01*
X182130984Y-90905682D01*
X182135682Y-90870001D01*
X186964318Y-90870001D01*
X186984955Y-91026760D01*
X186984956Y-91026762D01*
X187041892Y-91164219D01*
X187045464Y-91172841D01*
X187141718Y-91298282D01*
X187267159Y-91394536D01*
X187413238Y-91455044D01*
X187491619Y-91465363D01*
X187569999Y-91475682D01*
X187570000Y-91475682D01*
X187570001Y-91475682D01*
X187622254Y-91468802D01*
X187726762Y-91455044D01*
X187872841Y-91394536D01*
X187998282Y-91298282D01*
X188094536Y-91172841D01*
X188155044Y-91026762D01*
X188170984Y-90905682D01*
X188175682Y-90870001D01*
X188175682Y-90869998D01*
X188161923Y-90765492D01*
X188155044Y-90713238D01*
X188094536Y-90567159D01*
X187998282Y-90441718D01*
X187872841Y-90345464D01*
X187867469Y-90343239D01*
X187726762Y-90284956D01*
X187726760Y-90284955D01*
X187570001Y-90264318D01*
X187569999Y-90264318D01*
X187413239Y-90284955D01*
X187413237Y-90284956D01*
X187267160Y-90345463D01*
X187141718Y-90441718D01*
X187045463Y-90567160D01*
X186984956Y-90713237D01*
X186984955Y-90713239D01*
X186964318Y-90869998D01*
X186964318Y-90870001D01*
X182135682Y-90870001D01*
X182135682Y-90869998D01*
X182121923Y-90765492D01*
X182115044Y-90713238D01*
X182054536Y-90567159D01*
X182009325Y-90508239D01*
X181984132Y-90443071D01*
X181998170Y-90374627D01*
X182046984Y-90324637D01*
X182115075Y-90308973D01*
X182125351Y-90310016D01*
X182160005Y-90314999D01*
X182390002Y-90314999D01*
X182443988Y-90312105D01*
X182583259Y-90276556D01*
X182590330Y-90273627D01*
X182685076Y-90221892D01*
X182790277Y-90123949D01*
X182790278Y-90123947D01*
X182863629Y-90000326D01*
X182866554Y-89993266D01*
X182884544Y-89942270D01*
X182904999Y-89799997D01*
X182905000Y-89799996D01*
X182905000Y-89654499D01*
X182924685Y-89587460D01*
X182977489Y-89541705D01*
X183029000Y-89530499D01*
X183674268Y-89530499D01*
X183704644Y-89526499D01*
X183719834Y-89524500D01*
X183819841Y-89477866D01*
X183819842Y-89477865D01*
X183828727Y-89471644D01*
X183829755Y-89473113D01*
X183879707Y-89445838D01*
X183906065Y-89443004D01*
X183988220Y-89443004D01*
X184055259Y-89462689D01*
X184101014Y-89515493D01*
X184110958Y-89584651D01*
X184086596Y-89642490D01*
X184025464Y-89722157D01*
X183964956Y-89868237D01*
X183964955Y-89868239D01*
X183944318Y-90024998D01*
X183944318Y-90025001D01*
X183964955Y-90181760D01*
X183964956Y-90181762D01*
X184018080Y-90310016D01*
X184025464Y-90327841D01*
X184121718Y-90453282D01*
X184247159Y-90549536D01*
X184393238Y-90610044D01*
X184471619Y-90620363D01*
X184549999Y-90630682D01*
X184550000Y-90630682D01*
X184550001Y-90630682D01*
X184602254Y-90623802D01*
X184706762Y-90610044D01*
X184852841Y-90549536D01*
X184978282Y-90453282D01*
X185074536Y-90327841D01*
X185135044Y-90181762D01*
X185149094Y-90075043D01*
X185155682Y-90025001D01*
X185155682Y-90024998D01*
X185141632Y-89918281D01*
X185135044Y-89868238D01*
X185074536Y-89722159D01*
X184978282Y-89596718D01*
X184852841Y-89500464D01*
X184827581Y-89490001D01*
X187824318Y-89490001D01*
X187844955Y-89646760D01*
X187844956Y-89646762D01*
X187899949Y-89779528D01*
X187905464Y-89792841D01*
X188001718Y-89918282D01*
X188127159Y-90014536D01*
X188273238Y-90075044D01*
X188307746Y-90079587D01*
X188429999Y-90095682D01*
X188430000Y-90095682D01*
X188430001Y-90095682D01*
X188482254Y-90088802D01*
X188586762Y-90075044D01*
X188732841Y-90014536D01*
X188858282Y-89918282D01*
X188954536Y-89792841D01*
X189015044Y-89646762D01*
X189032326Y-89515493D01*
X189035682Y-89490001D01*
X189035682Y-89489998D01*
X189015044Y-89333239D01*
X189015044Y-89333238D01*
X188954536Y-89187159D01*
X188858282Y-89061718D01*
X188732841Y-88965464D01*
X188688651Y-88947160D01*
X188586762Y-88904956D01*
X188586760Y-88904955D01*
X188430001Y-88884318D01*
X188429999Y-88884318D01*
X188273239Y-88904955D01*
X188273237Y-88904956D01*
X188127160Y-88965463D01*
X188001718Y-89061718D01*
X187905463Y-89187160D01*
X187844956Y-89333237D01*
X187844955Y-89333239D01*
X187824318Y-89489998D01*
X187824318Y-89490001D01*
X184827581Y-89490001D01*
X184768381Y-89465479D01*
X184713979Y-89421639D01*
X184691914Y-89355345D01*
X184709193Y-89287645D01*
X184728150Y-89263242D01*
X185070480Y-88920913D01*
X185123207Y-88829588D01*
X185150500Y-88727727D01*
X185150500Y-88622273D01*
X185150500Y-88539229D01*
X185170185Y-88472190D01*
X185222989Y-88426435D01*
X185290683Y-88416290D01*
X185400000Y-88430682D01*
X185400001Y-88430682D01*
X185452254Y-88423802D01*
X185556762Y-88410044D01*
X185702841Y-88349536D01*
X185828282Y-88253282D01*
X185924536Y-88127841D01*
X185985044Y-87981762D01*
X186005682Y-87825000D01*
X185985044Y-87668238D01*
X185924536Y-87522159D01*
X185924535Y-87522158D01*
X185924535Y-87522157D01*
X185826125Y-87393907D01*
X185800931Y-87328738D01*
X185800501Y-87318421D01*
X185800501Y-87222274D01*
X185794968Y-87201626D01*
X185773207Y-87120413D01*
X185773206Y-87120412D01*
X185773206Y-87120410D01*
X185773204Y-87120407D01*
X185757298Y-87092857D01*
X185757297Y-87092856D01*
X185720480Y-87029087D01*
X185645913Y-86954520D01*
X185638855Y-86947462D01*
X185638847Y-86947455D01*
X185463416Y-86772023D01*
X185424819Y-86749738D01*
X185372092Y-86719296D01*
X185321160Y-86705649D01*
X185270230Y-86692003D01*
X185270229Y-86692003D01*
X185010339Y-86692003D01*
X185010323Y-86692002D01*
X185002727Y-86692002D01*
X184897273Y-86692002D01*
X184889677Y-86692002D01*
X184889661Y-86692003D01*
X183782719Y-86692003D01*
X183730317Y-86680386D01*
X183719834Y-86675498D01*
X183719831Y-86675497D01*
X183719830Y-86675497D01*
X183674268Y-86669499D01*
X183674266Y-86669499D01*
X183029000Y-86669499D01*
X182961961Y-86649814D01*
X182916206Y-86597010D01*
X182905000Y-86545499D01*
X182905000Y-86399996D01*
X182902106Y-86346010D01*
X182866557Y-86206739D01*
X182863628Y-86199668D01*
X182811893Y-86104922D01*
X182713950Y-85999721D01*
X182713948Y-85999720D01*
X182590327Y-85926369D01*
X182583267Y-85923444D01*
X182532271Y-85905454D01*
X182389998Y-85884999D01*
X182200000Y-85884999D01*
X182200000Y-86861131D01*
X182180315Y-86928170D01*
X182127511Y-86973925D01*
X182058353Y-86983869D01*
X182041066Y-86980108D01*
X182021964Y-86974499D01*
X182021961Y-86974499D01*
X181878039Y-86974499D01*
X181878035Y-86974499D01*
X181858934Y-86980108D01*
X181789064Y-86980108D01*
X181730287Y-86942333D01*
X181701262Y-86878777D01*
X181700000Y-86861131D01*
X181700000Y-85884999D01*
X181509998Y-85884999D01*
X181456011Y-85887892D01*
X181316740Y-85923441D01*
X181309669Y-85926370D01*
X181214923Y-85978105D01*
X181109722Y-86076048D01*
X181109721Y-86076050D01*
X181036370Y-86199671D01*
X181033445Y-86206731D01*
X181015455Y-86257727D01*
X181000227Y-86363646D01*
X180971202Y-86427202D01*
X180912424Y-86464976D01*
X180877489Y-86469999D01*
X180705000Y-86469999D01*
X180705000Y-87155999D01*
X180685315Y-87223038D01*
X180632511Y-87268793D01*
X180581000Y-87279999D01*
X179750000Y-87279999D01*
X179750000Y-87316608D01*
X179750178Y-87319934D01*
X179748668Y-87320014D01*
X179737277Y-87382889D01*
X179689628Y-87433991D01*
X179688437Y-87434687D01*
X179654085Y-87454521D01*
X178979522Y-88129084D01*
X178979520Y-88129087D01*
X178926793Y-88220412D01*
X178904116Y-88305044D01*
X178902913Y-88309535D01*
X178875555Y-88356919D01*
X178876666Y-88357771D01*
X178871720Y-88364216D01*
X178871718Y-88364218D01*
X178820719Y-88430682D01*
X178775463Y-88489660D01*
X178714956Y-88635737D01*
X178714955Y-88635739D01*
X178694318Y-88792498D01*
X178694318Y-88792501D01*
X178714955Y-88949260D01*
X178714956Y-88949262D01*
X178775464Y-89095341D01*
X178871718Y-89220782D01*
X178997159Y-89317036D01*
X179143238Y-89377544D01*
X179150500Y-89378500D01*
X179299999Y-89398182D01*
X179300000Y-89398182D01*
X179309310Y-89396956D01*
X179378345Y-89407718D01*
X179430603Y-89454096D01*
X179449500Y-89519894D01*
X179449500Y-89707744D01*
X179429815Y-89774783D01*
X179413181Y-89795425D01*
X179195879Y-90012726D01*
X179134556Y-90046211D01*
X179124385Y-90047984D01*
X179080075Y-90053818D01*
X178933997Y-90114325D01*
X178808555Y-90210580D01*
X178712300Y-90336022D01*
X178651793Y-90482099D01*
X178651792Y-90482101D01*
X178631155Y-90638860D01*
X178631155Y-90638863D01*
X159887400Y-90638863D01*
X159898802Y-90552254D01*
X159905682Y-90500001D01*
X159905682Y-90499998D01*
X159885044Y-90343239D01*
X159885044Y-90343238D01*
X159824536Y-90197159D01*
X159728282Y-90071718D01*
X159602841Y-89975464D01*
X159576446Y-89964531D01*
X159475755Y-89922823D01*
X159421352Y-89878982D01*
X159399287Y-89812688D01*
X159416566Y-89744988D01*
X159424833Y-89732775D01*
X159428278Y-89728284D01*
X159428282Y-89728282D01*
X159524536Y-89602841D01*
X159585044Y-89456762D01*
X159605682Y-89300000D01*
X159604055Y-89287645D01*
X159585044Y-89143239D01*
X159585044Y-89143238D01*
X159524536Y-88997159D01*
X159428282Y-88871718D01*
X159302841Y-88775464D01*
X159240979Y-88749840D01*
X159156762Y-88714956D01*
X159156760Y-88714955D01*
X159000001Y-88694318D01*
X158999999Y-88694318D01*
X158843239Y-88714955D01*
X158843237Y-88714956D01*
X158697160Y-88775463D01*
X158571718Y-88871718D01*
X158475463Y-88997160D01*
X158414956Y-89143237D01*
X158414955Y-89143239D01*
X158394318Y-89299998D01*
X158394318Y-89300001D01*
X158414955Y-89456760D01*
X158414956Y-89456762D01*
X158450140Y-89541705D01*
X158475464Y-89602841D01*
X158571718Y-89728282D01*
X158697159Y-89824536D01*
X158824245Y-89877176D01*
X158878647Y-89921017D01*
X158900712Y-89987311D01*
X158883433Y-90055010D01*
X158875167Y-90067223D01*
X158775464Y-90197157D01*
X158714956Y-90343237D01*
X158714955Y-90343239D01*
X158694318Y-90499998D01*
X158694318Y-90500001D01*
X158714955Y-90656760D01*
X158714956Y-90656762D01*
X158772474Y-90795624D01*
X158775464Y-90802841D01*
X158871718Y-90928282D01*
X158935371Y-90977125D01*
X158976573Y-91033552D01*
X158980728Y-91103298D01*
X158946515Y-91164219D01*
X158884798Y-91196971D01*
X158859884Y-91199500D01*
X153117255Y-91199500D01*
X153050216Y-91179815D01*
X153029574Y-91163181D01*
X152086819Y-90220426D01*
X152053334Y-90159103D01*
X152050500Y-90132745D01*
X152050500Y-89755276D01*
X152070185Y-89688237D01*
X152122989Y-89642482D01*
X152192147Y-89632538D01*
X152255703Y-89661563D01*
X152267166Y-89673730D01*
X152271713Y-89678277D01*
X152271715Y-89678279D01*
X152271718Y-89678282D01*
X152397159Y-89774536D01*
X152543238Y-89835044D01*
X152621619Y-89845363D01*
X152699999Y-89855682D01*
X152700000Y-89855682D01*
X152700001Y-89855682D01*
X152752254Y-89848802D01*
X152856762Y-89835044D01*
X153002841Y-89774536D01*
X153128282Y-89678282D01*
X153224536Y-89552841D01*
X153285044Y-89406762D01*
X153305682Y-89250000D01*
X153302456Y-89225499D01*
X153285321Y-89095341D01*
X153285044Y-89093238D01*
X153224536Y-88947159D01*
X153128282Y-88821718D01*
X153002841Y-88725464D01*
X153001718Y-88724999D01*
X152856762Y-88664956D01*
X152856760Y-88664955D01*
X152700001Y-88644318D01*
X152699999Y-88644318D01*
X152543239Y-88664955D01*
X152543237Y-88664956D01*
X152397160Y-88725463D01*
X152271713Y-88821722D01*
X152265971Y-88827465D01*
X152264691Y-88826185D01*
X152216445Y-88861413D01*
X152146699Y-88865566D01*
X152085780Y-88831353D01*
X152053028Y-88769635D01*
X152050500Y-88744723D01*
X152050500Y-88400001D01*
X157194318Y-88400001D01*
X157214955Y-88556760D01*
X157214956Y-88556762D01*
X157271933Y-88694318D01*
X157275464Y-88702841D01*
X157371718Y-88828282D01*
X157497159Y-88924536D01*
X157643238Y-88985044D01*
X157721619Y-88995363D01*
X157799999Y-89005682D01*
X157800000Y-89005682D01*
X157800001Y-89005682D01*
X157864739Y-88997159D01*
X157956762Y-88985044D01*
X158102841Y-88924536D01*
X158228282Y-88828282D01*
X158324536Y-88702841D01*
X158385044Y-88556762D01*
X158405682Y-88400000D01*
X158400122Y-88357771D01*
X158385044Y-88243239D01*
X158385044Y-88243238D01*
X158324536Y-88097159D01*
X158228282Y-87971718D01*
X158102841Y-87875464D01*
X157981005Y-87824998D01*
X157956762Y-87814956D01*
X157956760Y-87814955D01*
X157800001Y-87794318D01*
X157799999Y-87794318D01*
X157643239Y-87814955D01*
X157643237Y-87814956D01*
X157497160Y-87875463D01*
X157371718Y-87971718D01*
X157275463Y-88097160D01*
X157214956Y-88243237D01*
X157214955Y-88243239D01*
X157194318Y-88399998D01*
X157194318Y-88400001D01*
X152050500Y-88400001D01*
X152050500Y-87720001D01*
X175084318Y-87720001D01*
X175104955Y-87876760D01*
X175104956Y-87876762D01*
X175165464Y-88022841D01*
X175261718Y-88148282D01*
X175387159Y-88244536D01*
X175533238Y-88305044D01*
X175567351Y-88309535D01*
X175689999Y-88325682D01*
X175690000Y-88325682D01*
X175690001Y-88325682D01*
X175742254Y-88318802D01*
X175846762Y-88305044D01*
X175992841Y-88244536D01*
X176118282Y-88148282D01*
X176214536Y-88022841D01*
X176275044Y-87876762D01*
X176295682Y-87720000D01*
X176288867Y-87668238D01*
X176275044Y-87563239D01*
X176275044Y-87563238D01*
X176214536Y-87417159D01*
X176118282Y-87291718D01*
X175992841Y-87195464D01*
X175846762Y-87134956D01*
X175846760Y-87134955D01*
X175690001Y-87114318D01*
X175689999Y-87114318D01*
X175533239Y-87134955D01*
X175533237Y-87134956D01*
X175387160Y-87195463D01*
X175261718Y-87291718D01*
X175165463Y-87417160D01*
X175104956Y-87563237D01*
X175104955Y-87563239D01*
X175084318Y-87719998D01*
X175084318Y-87720001D01*
X152050500Y-87720001D01*
X152050500Y-86430001D01*
X178764318Y-86430001D01*
X178784955Y-86586760D01*
X178784956Y-86586762D01*
X178845464Y-86732841D01*
X178941718Y-86858282D01*
X179067159Y-86954536D01*
X179213238Y-87015044D01*
X179291619Y-87025363D01*
X179369999Y-87035682D01*
X179370000Y-87035682D01*
X179370001Y-87035682D01*
X179422254Y-87028802D01*
X179526762Y-87015044D01*
X179639921Y-86968171D01*
X179709388Y-86960703D01*
X179727959Y-86969999D01*
X180395000Y-86969999D01*
X180395000Y-86469999D01*
X180213373Y-86469999D01*
X180152361Y-86476559D01*
X180135736Y-86482761D01*
X180066044Y-86487745D01*
X180004721Y-86454260D01*
X179971236Y-86392937D01*
X179969463Y-86382764D01*
X179964624Y-86346010D01*
X179955044Y-86273238D01*
X179894536Y-86127159D01*
X179798282Y-86001718D01*
X179672841Y-85905464D01*
X179526762Y-85844956D01*
X179526760Y-85844955D01*
X179370001Y-85824318D01*
X179369999Y-85824318D01*
X179213239Y-85844955D01*
X179213237Y-85844956D01*
X179067160Y-85905463D01*
X178941718Y-86001718D01*
X178845463Y-86127160D01*
X178784956Y-86273237D01*
X178784955Y-86273239D01*
X178764318Y-86429998D01*
X178764318Y-86430001D01*
X152050500Y-86430001D01*
X152050500Y-84567254D01*
X152070185Y-84500215D01*
X152086810Y-84479582D01*
X152224992Y-84341399D01*
X152286311Y-84307917D01*
X152296485Y-84306144D01*
X152299997Y-84305681D01*
X152300000Y-84305682D01*
X152456762Y-84285044D01*
X152602841Y-84224536D01*
X152728282Y-84128282D01*
X152824536Y-84002841D01*
X152885044Y-83856762D01*
X152905682Y-83700000D01*
X152885044Y-83543238D01*
X152824536Y-83397159D01*
X152728282Y-83271718D01*
X152602841Y-83175464D01*
X152456762Y-83114956D01*
X152456760Y-83114955D01*
X152300001Y-83094318D01*
X152299999Y-83094318D01*
X152143239Y-83114955D01*
X152143237Y-83114956D01*
X151997160Y-83175463D01*
X151871718Y-83271718D01*
X151775463Y-83397160D01*
X151714956Y-83543237D01*
X151714956Y-83543238D01*
X151693855Y-83703513D01*
X151665588Y-83767409D01*
X151658598Y-83775008D01*
X151329519Y-84104088D01*
X151276791Y-84195413D01*
X151252778Y-84285040D01*
X151252777Y-84285045D01*
X151249500Y-84297273D01*
X151249500Y-89674918D01*
X151229815Y-89741957D01*
X151177011Y-89787712D01*
X151107853Y-89797656D01*
X151060845Y-89777858D01*
X151059881Y-89779528D01*
X151052843Y-89775465D01*
X151052838Y-89775463D01*
X150906762Y-89714956D01*
X150906760Y-89714955D01*
X150750001Y-89694318D01*
X150749999Y-89694318D01*
X150593239Y-89714955D01*
X150593237Y-89714956D01*
X150447160Y-89775463D01*
X150321718Y-89871718D01*
X150225463Y-89997160D01*
X150164956Y-90143237D01*
X150164955Y-90143239D01*
X150144318Y-90299998D01*
X150144318Y-90300001D01*
X150164955Y-90456760D01*
X150164956Y-90456762D01*
X150225464Y-90602841D01*
X150321718Y-90728282D01*
X150447159Y-90824536D01*
X150593238Y-90885044D01*
X150671619Y-90895363D01*
X150749999Y-90905682D01*
X150750000Y-90905682D01*
X150750001Y-90905682D01*
X150802254Y-90898802D01*
X150906762Y-90885044D01*
X151052841Y-90824536D01*
X151178282Y-90728282D01*
X151215341Y-90679984D01*
X151271767Y-90638783D01*
X151341513Y-90634628D01*
X151401397Y-90667790D01*
X151542739Y-90809132D01*
X151576223Y-90870453D01*
X151571239Y-90940145D01*
X151529368Y-90996079D01*
X151500106Y-91010299D01*
X151500747Y-91011846D01*
X151493239Y-91014955D01*
X151493238Y-91014956D01*
X151470110Y-91024536D01*
X151347160Y-91075463D01*
X151221718Y-91171718D01*
X151125463Y-91297160D01*
X151064956Y-91443237D01*
X151064955Y-91443239D01*
X151044318Y-91599998D01*
X151044318Y-91600001D01*
X151064955Y-91756760D01*
X151064956Y-91756762D01*
X151125464Y-91902841D01*
X151221718Y-92028282D01*
X151347159Y-92124536D01*
X151493238Y-92185044D01*
X151571619Y-92195363D01*
X151649999Y-92205682D01*
X151650000Y-92205682D01*
X151650001Y-92205682D01*
X151702254Y-92198802D01*
X151806762Y-92185044D01*
X151952841Y-92124536D01*
X152078282Y-92028282D01*
X152078283Y-92028279D01*
X152081093Y-92026124D01*
X152146263Y-92000930D01*
X152156580Y-92000500D01*
X152847273Y-92000500D01*
X152875500Y-92000500D01*
X152942539Y-92020185D01*
X152988294Y-92072989D01*
X152999500Y-92124500D01*
X152999500Y-95882745D01*
X152979815Y-95949784D01*
X152963181Y-95970426D01*
X152520426Y-96413181D01*
X152459103Y-96446666D01*
X152432745Y-96449500D01*
X149117255Y-96449500D01*
X149050216Y-96429815D01*
X149029574Y-96413181D01*
X148395250Y-95778857D01*
X148361765Y-95717534D01*
X148366749Y-95647842D01*
X148368370Y-95643723D01*
X148382716Y-95609090D01*
X148403354Y-95452328D01*
X148382716Y-95295566D01*
X148322208Y-95149487D01*
X148225954Y-95024046D01*
X148100513Y-94927792D01*
X148092652Y-94924536D01*
X147954434Y-94867284D01*
X147954432Y-94867283D01*
X147797673Y-94846646D01*
X147797671Y-94846646D01*
X147640911Y-94867283D01*
X147640909Y-94867284D01*
X147494832Y-94927791D01*
X147369390Y-95024046D01*
X147273135Y-95149488D01*
X147212628Y-95295565D01*
X147212627Y-95295567D01*
X147191990Y-95452326D01*
X147191990Y-95452329D01*
X147212627Y-95609088D01*
X147212629Y-95609093D01*
X147224765Y-95638392D01*
X147232234Y-95707861D01*
X147200959Y-95770340D01*
X147157657Y-95800405D01*
X147097160Y-95825463D01*
X146971718Y-95921718D01*
X146875463Y-96047160D01*
X146814956Y-96193237D01*
X146814955Y-96193239D01*
X146794318Y-96349998D01*
X146794318Y-96350001D01*
X140380500Y-96350001D01*
X140380499Y-95845136D01*
X140379078Y-95832882D01*
X140377586Y-95820012D01*
X140377585Y-95820010D01*
X140377585Y-95820009D01*
X140332206Y-95717235D01*
X140252765Y-95637794D01*
X140212626Y-95620071D01*
X140149992Y-95592415D01*
X140124865Y-95589500D01*
X139535143Y-95589500D01*
X139535117Y-95589502D01*
X139510012Y-95592413D01*
X139510008Y-95592415D01*
X139407235Y-95637793D01*
X139327794Y-95717234D01*
X139282415Y-95820006D01*
X139282415Y-95820008D01*
X139279500Y-95845131D01*
X139279500Y-96834856D01*
X134000000Y-96834856D01*
X134000000Y-81350000D01*
X151124571Y-81350000D01*
X151144244Y-81562310D01*
X151202596Y-81767392D01*
X151202596Y-81767394D01*
X151297632Y-81958253D01*
X151297634Y-81958255D01*
X151426128Y-82128407D01*
X151583698Y-82272052D01*
X151764981Y-82384298D01*
X151963802Y-82461321D01*
X152173390Y-82500500D01*
X152173392Y-82500500D01*
X152386608Y-82500500D01*
X152386610Y-82500500D01*
X152596198Y-82461321D01*
X152795019Y-82384298D01*
X152976302Y-82272052D01*
X153133872Y-82128407D01*
X153262366Y-81958255D01*
X153357405Y-81767389D01*
X153415756Y-81562310D01*
X153426529Y-81446047D01*
X153452315Y-81381111D01*
X153494622Y-81350804D01*
X153603130Y-81350804D01*
X153639503Y-81371668D01*
X153671693Y-81433681D01*
X153673471Y-81446048D01*
X153684244Y-81562310D01*
X153742596Y-81767392D01*
X153742596Y-81767394D01*
X153837632Y-81958253D01*
X153837634Y-81958255D01*
X153966128Y-82128407D01*
X154123698Y-82272052D01*
X154304981Y-82384298D01*
X154503802Y-82461321D01*
X154713390Y-82500500D01*
X154713392Y-82500500D01*
X154926608Y-82500500D01*
X154926610Y-82500500D01*
X155136198Y-82461321D01*
X155335019Y-82384298D01*
X155516302Y-82272052D01*
X155673872Y-82128407D01*
X155802366Y-81958255D01*
X155897405Y-81767389D01*
X155955756Y-81562310D01*
X155966529Y-81446047D01*
X155992315Y-81381111D01*
X156034622Y-81350804D01*
X156143130Y-81350804D01*
X156179503Y-81371668D01*
X156211693Y-81433681D01*
X156213471Y-81446048D01*
X156224244Y-81562310D01*
X156282596Y-81767392D01*
X156282596Y-81767394D01*
X156377632Y-81958253D01*
X156377634Y-81958255D01*
X156506128Y-82128407D01*
X156663698Y-82272052D01*
X156844981Y-82384298D01*
X157043802Y-82461321D01*
X157253390Y-82500500D01*
X157253392Y-82500500D01*
X157466608Y-82500500D01*
X157466610Y-82500500D01*
X157676198Y-82461321D01*
X157875019Y-82384298D01*
X158056302Y-82272052D01*
X158213872Y-82128407D01*
X158342366Y-81958255D01*
X158437405Y-81767389D01*
X158495756Y-81562310D01*
X158506529Y-81446047D01*
X158532315Y-81381111D01*
X158574622Y-81350804D01*
X158683130Y-81350804D01*
X158719503Y-81371668D01*
X158751693Y-81433681D01*
X158753471Y-81446048D01*
X158764244Y-81562310D01*
X158822596Y-81767392D01*
X158822596Y-81767394D01*
X158917632Y-81958253D01*
X158917634Y-81958255D01*
X159046128Y-82128407D01*
X159203698Y-82272052D01*
X159384981Y-82384298D01*
X159583802Y-82461321D01*
X159793390Y-82500500D01*
X159793392Y-82500500D01*
X160006608Y-82500500D01*
X160006610Y-82500500D01*
X160216198Y-82461321D01*
X160415019Y-82384298D01*
X160596302Y-82272052D01*
X160753872Y-82128407D01*
X160882366Y-81958255D01*
X160977405Y-81767389D01*
X161035756Y-81562310D01*
X161046529Y-81446047D01*
X161072315Y-81381111D01*
X161114622Y-81350804D01*
X161223130Y-81350804D01*
X161259503Y-81371668D01*
X161291693Y-81433681D01*
X161293471Y-81446048D01*
X161304244Y-81562310D01*
X161362596Y-81767392D01*
X161362596Y-81767394D01*
X161457632Y-81958253D01*
X161457634Y-81958255D01*
X161586128Y-82128407D01*
X161743698Y-82272052D01*
X161924981Y-82384298D01*
X162123802Y-82461321D01*
X162333390Y-82500500D01*
X162333392Y-82500500D01*
X162546608Y-82500500D01*
X162546610Y-82500500D01*
X162756198Y-82461321D01*
X162955019Y-82384298D01*
X163136302Y-82272052D01*
X163293872Y-82128407D01*
X163422366Y-81958255D01*
X163517405Y-81767389D01*
X163575756Y-81562310D01*
X163586529Y-81446047D01*
X163612315Y-81381111D01*
X163654622Y-81350804D01*
X163763130Y-81350804D01*
X163799503Y-81371668D01*
X163831693Y-81433681D01*
X163833471Y-81446048D01*
X163844244Y-81562310D01*
X163902596Y-81767392D01*
X163902596Y-81767394D01*
X163997632Y-81958253D01*
X163997634Y-81958255D01*
X164126128Y-82128407D01*
X164283698Y-82272052D01*
X164464981Y-82384298D01*
X164663802Y-82461321D01*
X164873390Y-82500500D01*
X164873392Y-82500500D01*
X165086608Y-82500500D01*
X165086610Y-82500500D01*
X165296198Y-82461321D01*
X165495019Y-82384298D01*
X165676302Y-82272052D01*
X165833872Y-82128407D01*
X165962366Y-81958255D01*
X166057405Y-81767389D01*
X166115756Y-81562310D01*
X166126529Y-81446047D01*
X166152315Y-81381111D01*
X166194622Y-81350804D01*
X166303130Y-81350804D01*
X166339503Y-81371668D01*
X166371693Y-81433681D01*
X166373471Y-81446048D01*
X166384244Y-81562310D01*
X166442596Y-81767392D01*
X166442596Y-81767394D01*
X166537632Y-81958253D01*
X166537634Y-81958255D01*
X166666128Y-82128407D01*
X166823698Y-82272052D01*
X167004981Y-82384298D01*
X167203802Y-82461321D01*
X167413390Y-82500500D01*
X167413392Y-82500500D01*
X167626608Y-82500500D01*
X167626610Y-82500500D01*
X167836198Y-82461321D01*
X168035019Y-82384298D01*
X168216302Y-82272052D01*
X168373872Y-82128407D01*
X168502366Y-81958255D01*
X168597405Y-81767389D01*
X168655756Y-81562310D01*
X168666529Y-81446047D01*
X168692315Y-81381111D01*
X168734622Y-81350804D01*
X168843130Y-81350804D01*
X168879503Y-81371668D01*
X168911693Y-81433681D01*
X168913471Y-81446048D01*
X168924244Y-81562310D01*
X168982596Y-81767392D01*
X168982596Y-81767394D01*
X169077632Y-81958253D01*
X169077634Y-81958255D01*
X169206128Y-82128407D01*
X169363698Y-82272052D01*
X169544981Y-82384298D01*
X169743802Y-82461321D01*
X169953390Y-82500500D01*
X169953392Y-82500500D01*
X170166608Y-82500500D01*
X170166610Y-82500500D01*
X170376198Y-82461321D01*
X170575019Y-82384298D01*
X170756302Y-82272052D01*
X170913872Y-82128407D01*
X171042366Y-81958255D01*
X171137405Y-81767389D01*
X171195756Y-81562310D01*
X171215429Y-81350000D01*
X171195756Y-81137690D01*
X171137405Y-80932611D01*
X171137403Y-80932606D01*
X171137403Y-80932605D01*
X171042367Y-80741746D01*
X170913872Y-80571593D01*
X170756302Y-80427948D01*
X170575019Y-80315702D01*
X170575017Y-80315701D01*
X170475608Y-80277190D01*
X170376198Y-80238679D01*
X170166610Y-80199500D01*
X169953390Y-80199500D01*
X169743802Y-80238679D01*
X169743799Y-80238679D01*
X169743799Y-80238680D01*
X169544982Y-80315701D01*
X169544980Y-80315702D01*
X169363699Y-80427947D01*
X169206127Y-80571593D01*
X169077632Y-80741746D01*
X168982596Y-80932605D01*
X168982596Y-80932607D01*
X168924244Y-81137689D01*
X168913471Y-81253951D01*
X168887685Y-81318888D01*
X168843130Y-81350804D01*
X168734622Y-81350804D01*
X168736869Y-81349194D01*
X168700497Y-81328331D01*
X168668307Y-81266318D01*
X168666529Y-81253951D01*
X168665849Y-81246613D01*
X168655756Y-81137690D01*
X168597405Y-80932611D01*
X168597403Y-80932606D01*
X168597403Y-80932605D01*
X168502367Y-80741746D01*
X168373872Y-80571593D01*
X168216302Y-80427948D01*
X168035019Y-80315702D01*
X168035017Y-80315701D01*
X167935608Y-80277190D01*
X167836198Y-80238679D01*
X167626610Y-80199500D01*
X167413390Y-80199500D01*
X167203802Y-80238679D01*
X167203799Y-80238679D01*
X167203799Y-80238680D01*
X167004982Y-80315701D01*
X167004980Y-80315702D01*
X166823699Y-80427947D01*
X166666127Y-80571593D01*
X166537632Y-80741746D01*
X166442596Y-80932605D01*
X166442596Y-80932607D01*
X166384244Y-81137689D01*
X166373471Y-81253951D01*
X166347685Y-81318888D01*
X166303130Y-81350804D01*
X166194622Y-81350804D01*
X166196869Y-81349194D01*
X166160497Y-81328331D01*
X166128307Y-81266318D01*
X166126529Y-81253951D01*
X166125849Y-81246613D01*
X166115756Y-81137690D01*
X166057405Y-80932611D01*
X166057403Y-80932606D01*
X166057403Y-80932605D01*
X165962367Y-80741746D01*
X165833872Y-80571593D01*
X165676302Y-80427948D01*
X165495019Y-80315702D01*
X165495017Y-80315701D01*
X165395608Y-80277190D01*
X165296198Y-80238679D01*
X165086610Y-80199500D01*
X164873390Y-80199500D01*
X164663802Y-80238679D01*
X164663799Y-80238679D01*
X164663799Y-80238680D01*
X164464982Y-80315701D01*
X164464980Y-80315702D01*
X164283699Y-80427947D01*
X164126127Y-80571593D01*
X163997632Y-80741746D01*
X163902596Y-80932605D01*
X163902596Y-80932607D01*
X163844244Y-81137689D01*
X163833471Y-81253951D01*
X163807685Y-81318888D01*
X163763130Y-81350804D01*
X163654622Y-81350804D01*
X163656869Y-81349194D01*
X163620497Y-81328331D01*
X163588307Y-81266318D01*
X163586529Y-81253951D01*
X163585849Y-81246613D01*
X163575756Y-81137690D01*
X163517405Y-80932611D01*
X163517403Y-80932606D01*
X163517403Y-80932605D01*
X163422367Y-80741746D01*
X163293872Y-80571593D01*
X163136302Y-80427948D01*
X162955019Y-80315702D01*
X162955017Y-80315701D01*
X162855608Y-80277190D01*
X162756198Y-80238679D01*
X162546610Y-80199500D01*
X162333390Y-80199500D01*
X162123802Y-80238679D01*
X162123799Y-80238679D01*
X162123799Y-80238680D01*
X161924982Y-80315701D01*
X161924980Y-80315702D01*
X161743699Y-80427947D01*
X161586127Y-80571593D01*
X161457632Y-80741746D01*
X161362596Y-80932605D01*
X161362596Y-80932607D01*
X161304244Y-81137689D01*
X161293471Y-81253951D01*
X161267685Y-81318888D01*
X161223130Y-81350804D01*
X161114622Y-81350804D01*
X161116869Y-81349194D01*
X161080497Y-81328331D01*
X161048307Y-81266318D01*
X161046529Y-81253951D01*
X161045849Y-81246613D01*
X161035756Y-81137690D01*
X160977405Y-80932611D01*
X160977403Y-80932606D01*
X160977403Y-80932605D01*
X160882367Y-80741746D01*
X160753872Y-80571593D01*
X160596302Y-80427948D01*
X160415019Y-80315702D01*
X160415017Y-80315701D01*
X160315608Y-80277190D01*
X160216198Y-80238679D01*
X160006610Y-80199500D01*
X159793390Y-80199500D01*
X159583802Y-80238679D01*
X159583799Y-80238679D01*
X159583799Y-80238680D01*
X159384982Y-80315701D01*
X159384980Y-80315702D01*
X159203699Y-80427947D01*
X159046127Y-80571593D01*
X158917632Y-80741746D01*
X158822596Y-80932605D01*
X158822596Y-80932607D01*
X158764244Y-81137689D01*
X158753471Y-81253951D01*
X158727685Y-81318888D01*
X158683130Y-81350804D01*
X158574622Y-81350804D01*
X158576869Y-81349194D01*
X158540497Y-81328331D01*
X158508307Y-81266318D01*
X158506529Y-81253951D01*
X158505849Y-81246613D01*
X158495756Y-81137690D01*
X158437405Y-80932611D01*
X158437403Y-80932606D01*
X158437403Y-80932605D01*
X158342367Y-80741746D01*
X158213872Y-80571593D01*
X158056302Y-80427948D01*
X157875019Y-80315702D01*
X157875017Y-80315701D01*
X157775608Y-80277190D01*
X157676198Y-80238679D01*
X157466610Y-80199500D01*
X157253390Y-80199500D01*
X157043802Y-80238679D01*
X157043799Y-80238679D01*
X157043799Y-80238680D01*
X156844982Y-80315701D01*
X156844980Y-80315702D01*
X156663699Y-80427947D01*
X156506127Y-80571593D01*
X156377632Y-80741746D01*
X156282596Y-80932605D01*
X156282596Y-80932607D01*
X156224244Y-81137689D01*
X156213471Y-81253951D01*
X156187685Y-81318888D01*
X156143130Y-81350804D01*
X156034622Y-81350804D01*
X156036869Y-81349194D01*
X156000497Y-81328331D01*
X155968307Y-81266318D01*
X155966529Y-81253951D01*
X155965849Y-81246613D01*
X155955756Y-81137690D01*
X155897405Y-80932611D01*
X155897403Y-80932606D01*
X155897403Y-80932605D01*
X155802367Y-80741746D01*
X155673872Y-80571593D01*
X155516302Y-80427948D01*
X155335019Y-80315702D01*
X155335017Y-80315701D01*
X155235608Y-80277190D01*
X155136198Y-80238679D01*
X154926610Y-80199500D01*
X154713390Y-80199500D01*
X154503802Y-80238679D01*
X154503799Y-80238679D01*
X154503799Y-80238680D01*
X154304982Y-80315701D01*
X154304980Y-80315702D01*
X154123699Y-80427947D01*
X153966127Y-80571593D01*
X153837632Y-80741746D01*
X153742596Y-80932605D01*
X153742596Y-80932607D01*
X153684244Y-81137689D01*
X153673471Y-81253951D01*
X153647685Y-81318888D01*
X153603130Y-81350804D01*
X153494622Y-81350804D01*
X153496869Y-81349194D01*
X153460497Y-81328331D01*
X153428307Y-81266318D01*
X153426529Y-81253951D01*
X153425849Y-81246613D01*
X153415756Y-81137690D01*
X153357405Y-80932611D01*
X153357403Y-80932606D01*
X153357403Y-80932605D01*
X153262367Y-80741746D01*
X153133872Y-80571593D01*
X152976302Y-80427948D01*
X152795019Y-80315702D01*
X152795017Y-80315701D01*
X152695608Y-80277190D01*
X152596198Y-80238679D01*
X152386610Y-80199500D01*
X152173390Y-80199500D01*
X151963802Y-80238679D01*
X151963799Y-80238679D01*
X151963799Y-80238680D01*
X151764982Y-80315701D01*
X151764980Y-80315702D01*
X151583699Y-80427947D01*
X151426127Y-80571593D01*
X151297632Y-80741746D01*
X151202596Y-80932605D01*
X151202596Y-80932607D01*
X151144244Y-81137689D01*
X151124571Y-81349999D01*
X151124571Y-81350000D01*
X134000000Y-81350000D01*
X134000000Y-79124000D01*
X134019685Y-79056961D01*
X134072489Y-79011206D01*
X134124000Y-79000000D01*
X190876000Y-79000000D01*
X190943039Y-79019685D01*
G37*
%TD.AperFunction*%
%TD*%
D19*
X134000000Y-79000000D02*
X191000000Y-79000000D01*
X191000000Y-118000000D02*
X191000000Y-79000000D01*
X134000000Y-118000000D02*
X191000000Y-118000000D01*
X134000000Y-79000000D02*
X134000000Y-118000000D01*
M02*
