%TF.GenerationSoftware,KiCad,Pcbnew,8.0.1*%
%TF.CreationDate,2024-04-28T17:36:13+05:30*%
%TF.ProjectId,ecg,6563672e-6b69-4636-9164-5f7063625858,rev?*%
%TF.SameCoordinates,Original*%
%TF.FileFunction,Plated,1,4,PTH,Drill*%
%TF.FilePolarity,Positive*%
%FSLAX46Y46*%
G04 Gerber Fmt 4.6, Leading zero omitted, Abs format (unit mm)*
G04 Created by KiCad (PCBNEW 8.0.1) date 2024-04-28 17:36:13*
%MOMM*%
%LPD*%
G01*
G04 APERTURE LIST*
%TA.AperFunction,ComponentDrill*%
%ADD10C,0.200000*%
%TD*%
%TA.AperFunction,ViaDrill*%
%ADD11C,0.300000*%
%TD*%
%TA.AperFunction,ComponentDrill*%
%ADD12C,0.300000*%
%TD*%
%TA.AperFunction,ViaDrill*%
%ADD13C,0.400000*%
%TD*%
%TA.AperFunction,ComponentDrill*%
%ADD14C,1.000000*%
%TD*%
G04 APERTURE END LIST*
D10*
%TO.C,U4*%
X181450000Y-88099999D03*
X181950000Y-87474999D03*
X181950000Y-88724999D03*
X182450000Y-88099999D03*
%TD*%
D11*
X144440000Y-112710000D03*
X146300000Y-112620000D03*
X147400000Y-96350000D03*
X147797672Y-95452328D03*
X148150000Y-97100000D03*
X148920000Y-103640000D03*
X150750000Y-90300000D03*
X151650000Y-91600000D03*
X151900000Y-101930000D03*
X152300000Y-83700000D03*
X152400000Y-102600000D03*
X152700000Y-89250000D03*
X154200000Y-94400000D03*
X154600000Y-104760000D03*
X154600000Y-107250000D03*
X155150000Y-92100000D03*
X156630000Y-103580000D03*
X157800000Y-88400000D03*
X158400000Y-111990000D03*
X159000000Y-89300000D03*
X159300000Y-90500000D03*
X161000000Y-102000000D03*
X166850000Y-99386200D03*
X167200000Y-94386200D03*
X169550000Y-99025000D03*
X170750000Y-107000000D03*
X170800000Y-100025000D03*
X171050000Y-95525000D03*
X172050000Y-103025000D03*
X172550000Y-100025000D03*
X172800000Y-105525000D03*
X173480000Y-92150000D03*
X174550000Y-100025000D03*
X178550000Y-106525000D03*
X179236837Y-90638862D03*
X179300000Y-87325000D03*
X179300000Y-88792500D03*
X179400000Y-92700000D03*
X180550000Y-91092500D03*
X181500000Y-102910000D03*
X181530000Y-90870000D03*
X184200000Y-87736091D03*
X184550000Y-90025000D03*
X185400000Y-87825000D03*
X187570000Y-90870000D03*
X189760000Y-93510000D03*
D12*
%TO.C,AE1*%
X139830000Y-96340000D03*
%TD*%
D13*
X175430000Y-103190000D03*
X175690000Y-87720000D03*
X176670000Y-92160000D03*
X179210000Y-83530000D03*
X179370000Y-86430000D03*
X188430000Y-89490000D03*
D14*
%TO.C,U6*%
X143160000Y-115850000D03*
X145700000Y-115850000D03*
X148240000Y-115850000D03*
X150780000Y-115850000D03*
%TO.C,U5*%
X152280000Y-81350000D03*
%TO.C,U6*%
X153320000Y-115850000D03*
%TO.C,U5*%
X154820000Y-81350000D03*
%TO.C,U6*%
X155860000Y-115850000D03*
%TO.C,U5*%
X157360000Y-81350000D03*
%TO.C,U6*%
X158400000Y-115850000D03*
%TO.C,U5*%
X159900000Y-81350000D03*
%TO.C,U6*%
X160940000Y-115850000D03*
%TO.C,U5*%
X162440000Y-81350000D03*
X164980000Y-81350000D03*
X167520000Y-81350000D03*
X170060000Y-81350000D03*
M02*
