%TF.GenerationSoftware,KiCad,Pcbnew,8.0.1*%
%TF.CreationDate,2024-04-28T17:40:03+05:30*%
%TF.ProjectId,ecg,6563672e-6b69-4636-9164-5f7063625858,rev?*%
%TF.SameCoordinates,Original*%
%TF.FileFunction,Legend,Bot*%
%TF.FilePolarity,Positive*%
%FSLAX46Y46*%
G04 Gerber Fmt 4.6, Leading zero omitted, Abs format (unit mm)*
G04 Created by KiCad (PCBNEW 8.0.1) date 2024-04-28 17:40:03*
%MOMM*%
%LPD*%
G01*
G04 APERTURE LIST*
%ADD10C,0.080000*%
%ADD11C,0.100000*%
%ADD12C,0.150000*%
%ADD13C,0.127000*%
%ADD14C,0.200000*%
%ADD15C,0.120000*%
%ADD16C,0.152400*%
%TA.AperFunction,Profile*%
%ADD17C,0.050000*%
%TD*%
G04 APERTURE END LIST*
D10*
X145837845Y-113136030D02*
X145914035Y-113097935D01*
X145914035Y-113097935D02*
X146028321Y-113097935D01*
X146028321Y-113097935D02*
X146142607Y-113136030D01*
X146142607Y-113136030D02*
X146218797Y-113212220D01*
X146218797Y-113212220D02*
X146256892Y-113288411D01*
X146256892Y-113288411D02*
X146294988Y-113440792D01*
X146294988Y-113440792D02*
X146294988Y-113555078D01*
X146294988Y-113555078D02*
X146256892Y-113707459D01*
X146256892Y-113707459D02*
X146218797Y-113783649D01*
X146218797Y-113783649D02*
X146142607Y-113859840D01*
X146142607Y-113859840D02*
X146028321Y-113897935D01*
X146028321Y-113897935D02*
X145952130Y-113897935D01*
X145952130Y-113897935D02*
X145837845Y-113859840D01*
X145837845Y-113859840D02*
X145799749Y-113821744D01*
X145799749Y-113821744D02*
X145799749Y-113555078D01*
X145799749Y-113555078D02*
X145952130Y-113555078D01*
X145037845Y-113897935D02*
X145494988Y-113897935D01*
X145266416Y-113897935D02*
X145266416Y-113097935D01*
X145266416Y-113097935D02*
X145342607Y-113212220D01*
X145342607Y-113212220D02*
X145418797Y-113288411D01*
X145418797Y-113288411D02*
X145494988Y-113326506D01*
X144580702Y-113440792D02*
X144656892Y-113402697D01*
X144656892Y-113402697D02*
X144694987Y-113364601D01*
X144694987Y-113364601D02*
X144733083Y-113288411D01*
X144733083Y-113288411D02*
X144733083Y-113250316D01*
X144733083Y-113250316D02*
X144694987Y-113174125D01*
X144694987Y-113174125D02*
X144656892Y-113136030D01*
X144656892Y-113136030D02*
X144580702Y-113097935D01*
X144580702Y-113097935D02*
X144428321Y-113097935D01*
X144428321Y-113097935D02*
X144352130Y-113136030D01*
X144352130Y-113136030D02*
X144314035Y-113174125D01*
X144314035Y-113174125D02*
X144275940Y-113250316D01*
X144275940Y-113250316D02*
X144275940Y-113288411D01*
X144275940Y-113288411D02*
X144314035Y-113364601D01*
X144314035Y-113364601D02*
X144352130Y-113402697D01*
X144352130Y-113402697D02*
X144428321Y-113440792D01*
X144428321Y-113440792D02*
X144580702Y-113440792D01*
X144580702Y-113440792D02*
X144656892Y-113478887D01*
X144656892Y-113478887D02*
X144694987Y-113516982D01*
X144694987Y-113516982D02*
X144733083Y-113593173D01*
X144733083Y-113593173D02*
X144733083Y-113745554D01*
X144733083Y-113745554D02*
X144694987Y-113821744D01*
X144694987Y-113821744D02*
X144656892Y-113859840D01*
X144656892Y-113859840D02*
X144580702Y-113897935D01*
X144580702Y-113897935D02*
X144428321Y-113897935D01*
X144428321Y-113897935D02*
X144352130Y-113859840D01*
X144352130Y-113859840D02*
X144314035Y-113821744D01*
X144314035Y-113821744D02*
X144275940Y-113745554D01*
X144275940Y-113745554D02*
X144275940Y-113593173D01*
X144275940Y-113593173D02*
X144314035Y-113516982D01*
X144314035Y-113516982D02*
X144352130Y-113478887D01*
X144352130Y-113478887D02*
X144428321Y-113440792D01*
X163256892Y-113097935D02*
X163256892Y-113745554D01*
X163256892Y-113745554D02*
X163218797Y-113821744D01*
X163218797Y-113821744D02*
X163180702Y-113859840D01*
X163180702Y-113859840D02*
X163104511Y-113897935D01*
X163104511Y-113897935D02*
X162952130Y-113897935D01*
X162952130Y-113897935D02*
X162875940Y-113859840D01*
X162875940Y-113859840D02*
X162837845Y-113821744D01*
X162837845Y-113821744D02*
X162799749Y-113745554D01*
X162799749Y-113745554D02*
X162799749Y-113097935D01*
X162456893Y-113859840D02*
X162342607Y-113897935D01*
X162342607Y-113897935D02*
X162152131Y-113897935D01*
X162152131Y-113897935D02*
X162075940Y-113859840D01*
X162075940Y-113859840D02*
X162037845Y-113821744D01*
X162037845Y-113821744D02*
X161999750Y-113745554D01*
X161999750Y-113745554D02*
X161999750Y-113669363D01*
X161999750Y-113669363D02*
X162037845Y-113593173D01*
X162037845Y-113593173D02*
X162075940Y-113555078D01*
X162075940Y-113555078D02*
X162152131Y-113516982D01*
X162152131Y-113516982D02*
X162304512Y-113478887D01*
X162304512Y-113478887D02*
X162380702Y-113440792D01*
X162380702Y-113440792D02*
X162418797Y-113402697D01*
X162418797Y-113402697D02*
X162456893Y-113326506D01*
X162456893Y-113326506D02*
X162456893Y-113250316D01*
X162456893Y-113250316D02*
X162418797Y-113174125D01*
X162418797Y-113174125D02*
X162380702Y-113136030D01*
X162380702Y-113136030D02*
X162304512Y-113097935D01*
X162304512Y-113097935D02*
X162114035Y-113097935D01*
X162114035Y-113097935D02*
X161999750Y-113136030D01*
X161390226Y-113478887D02*
X161275940Y-113516982D01*
X161275940Y-113516982D02*
X161237845Y-113555078D01*
X161237845Y-113555078D02*
X161199749Y-113631268D01*
X161199749Y-113631268D02*
X161199749Y-113745554D01*
X161199749Y-113745554D02*
X161237845Y-113821744D01*
X161237845Y-113821744D02*
X161275940Y-113859840D01*
X161275940Y-113859840D02*
X161352130Y-113897935D01*
X161352130Y-113897935D02*
X161656892Y-113897935D01*
X161656892Y-113897935D02*
X161656892Y-113097935D01*
X161656892Y-113097935D02*
X161390226Y-113097935D01*
X161390226Y-113097935D02*
X161314035Y-113136030D01*
X161314035Y-113136030D02*
X161275940Y-113174125D01*
X161275940Y-113174125D02*
X161237845Y-113250316D01*
X161237845Y-113250316D02*
X161237845Y-113326506D01*
X161237845Y-113326506D02*
X161275940Y-113402697D01*
X161275940Y-113402697D02*
X161314035Y-113440792D01*
X161314035Y-113440792D02*
X161390226Y-113478887D01*
X161390226Y-113478887D02*
X161656892Y-113478887D01*
X160856892Y-113593173D02*
X160247369Y-113593173D01*
X148337845Y-113136030D02*
X148414035Y-113097935D01*
X148414035Y-113097935D02*
X148528321Y-113097935D01*
X148528321Y-113097935D02*
X148642607Y-113136030D01*
X148642607Y-113136030D02*
X148718797Y-113212220D01*
X148718797Y-113212220D02*
X148756892Y-113288411D01*
X148756892Y-113288411D02*
X148794988Y-113440792D01*
X148794988Y-113440792D02*
X148794988Y-113555078D01*
X148794988Y-113555078D02*
X148756892Y-113707459D01*
X148756892Y-113707459D02*
X148718797Y-113783649D01*
X148718797Y-113783649D02*
X148642607Y-113859840D01*
X148642607Y-113859840D02*
X148528321Y-113897935D01*
X148528321Y-113897935D02*
X148452130Y-113897935D01*
X148452130Y-113897935D02*
X148337845Y-113859840D01*
X148337845Y-113859840D02*
X148299749Y-113821744D01*
X148299749Y-113821744D02*
X148299749Y-113555078D01*
X148299749Y-113555078D02*
X148452130Y-113555078D01*
X147537845Y-113897935D02*
X147994988Y-113897935D01*
X147766416Y-113897935D02*
X147766416Y-113097935D01*
X147766416Y-113097935D02*
X147842607Y-113212220D01*
X147842607Y-113212220D02*
X147918797Y-113288411D01*
X147918797Y-113288411D02*
X147994988Y-113326506D01*
X147233083Y-113174125D02*
X147194987Y-113136030D01*
X147194987Y-113136030D02*
X147118797Y-113097935D01*
X147118797Y-113097935D02*
X146928321Y-113097935D01*
X146928321Y-113097935D02*
X146852130Y-113136030D01*
X146852130Y-113136030D02*
X146814035Y-113174125D01*
X146814035Y-113174125D02*
X146775940Y-113250316D01*
X146775940Y-113250316D02*
X146775940Y-113326506D01*
X146775940Y-113326506D02*
X146814035Y-113440792D01*
X146814035Y-113440792D02*
X147271178Y-113897935D01*
X147271178Y-113897935D02*
X146775940Y-113897935D01*
X159756892Y-113097935D02*
X159756892Y-113745554D01*
X159756892Y-113745554D02*
X159718797Y-113821744D01*
X159718797Y-113821744D02*
X159680702Y-113859840D01*
X159680702Y-113859840D02*
X159604511Y-113897935D01*
X159604511Y-113897935D02*
X159452130Y-113897935D01*
X159452130Y-113897935D02*
X159375940Y-113859840D01*
X159375940Y-113859840D02*
X159337845Y-113821744D01*
X159337845Y-113821744D02*
X159299749Y-113745554D01*
X159299749Y-113745554D02*
X159299749Y-113097935D01*
X158956893Y-113859840D02*
X158842607Y-113897935D01*
X158842607Y-113897935D02*
X158652131Y-113897935D01*
X158652131Y-113897935D02*
X158575940Y-113859840D01*
X158575940Y-113859840D02*
X158537845Y-113821744D01*
X158537845Y-113821744D02*
X158499750Y-113745554D01*
X158499750Y-113745554D02*
X158499750Y-113669363D01*
X158499750Y-113669363D02*
X158537845Y-113593173D01*
X158537845Y-113593173D02*
X158575940Y-113555078D01*
X158575940Y-113555078D02*
X158652131Y-113516982D01*
X158652131Y-113516982D02*
X158804512Y-113478887D01*
X158804512Y-113478887D02*
X158880702Y-113440792D01*
X158880702Y-113440792D02*
X158918797Y-113402697D01*
X158918797Y-113402697D02*
X158956893Y-113326506D01*
X158956893Y-113326506D02*
X158956893Y-113250316D01*
X158956893Y-113250316D02*
X158918797Y-113174125D01*
X158918797Y-113174125D02*
X158880702Y-113136030D01*
X158880702Y-113136030D02*
X158804512Y-113097935D01*
X158804512Y-113097935D02*
X158614035Y-113097935D01*
X158614035Y-113097935D02*
X158499750Y-113136030D01*
X157890226Y-113478887D02*
X157775940Y-113516982D01*
X157775940Y-113516982D02*
X157737845Y-113555078D01*
X157737845Y-113555078D02*
X157699749Y-113631268D01*
X157699749Y-113631268D02*
X157699749Y-113745554D01*
X157699749Y-113745554D02*
X157737845Y-113821744D01*
X157737845Y-113821744D02*
X157775940Y-113859840D01*
X157775940Y-113859840D02*
X157852130Y-113897935D01*
X157852130Y-113897935D02*
X158156892Y-113897935D01*
X158156892Y-113897935D02*
X158156892Y-113097935D01*
X158156892Y-113097935D02*
X157890226Y-113097935D01*
X157890226Y-113097935D02*
X157814035Y-113136030D01*
X157814035Y-113136030D02*
X157775940Y-113174125D01*
X157775940Y-113174125D02*
X157737845Y-113250316D01*
X157737845Y-113250316D02*
X157737845Y-113326506D01*
X157737845Y-113326506D02*
X157775940Y-113402697D01*
X157775940Y-113402697D02*
X157814035Y-113440792D01*
X157814035Y-113440792D02*
X157890226Y-113478887D01*
X157890226Y-113478887D02*
X158156892Y-113478887D01*
X157356892Y-113593173D02*
X156747369Y-113593173D01*
X157052130Y-113897935D02*
X157052130Y-113288411D01*
X153337845Y-113136030D02*
X153414035Y-113097935D01*
X153414035Y-113097935D02*
X153528321Y-113097935D01*
X153528321Y-113097935D02*
X153642607Y-113136030D01*
X153642607Y-113136030D02*
X153718797Y-113212220D01*
X153718797Y-113212220D02*
X153756892Y-113288411D01*
X153756892Y-113288411D02*
X153794988Y-113440792D01*
X153794988Y-113440792D02*
X153794988Y-113555078D01*
X153794988Y-113555078D02*
X153756892Y-113707459D01*
X153756892Y-113707459D02*
X153718797Y-113783649D01*
X153718797Y-113783649D02*
X153642607Y-113859840D01*
X153642607Y-113859840D02*
X153528321Y-113897935D01*
X153528321Y-113897935D02*
X153452130Y-113897935D01*
X153452130Y-113897935D02*
X153337845Y-113859840D01*
X153337845Y-113859840D02*
X153299749Y-113821744D01*
X153299749Y-113821744D02*
X153299749Y-113555078D01*
X153299749Y-113555078D02*
X153452130Y-113555078D01*
X152537845Y-113897935D02*
X152994988Y-113897935D01*
X152766416Y-113897935D02*
X152766416Y-113097935D01*
X152766416Y-113097935D02*
X152842607Y-113212220D01*
X152842607Y-113212220D02*
X152918797Y-113288411D01*
X152918797Y-113288411D02*
X152994988Y-113326506D01*
X151852130Y-113364601D02*
X151852130Y-113897935D01*
X152042606Y-113059840D02*
X152233083Y-113631268D01*
X152233083Y-113631268D02*
X151737844Y-113631268D01*
X167699749Y-83897935D02*
X167966416Y-83516982D01*
X168156892Y-83897935D02*
X168156892Y-83097935D01*
X168156892Y-83097935D02*
X167852130Y-83097935D01*
X167852130Y-83097935D02*
X167775940Y-83136030D01*
X167775940Y-83136030D02*
X167737845Y-83174125D01*
X167737845Y-83174125D02*
X167699749Y-83250316D01*
X167699749Y-83250316D02*
X167699749Y-83364601D01*
X167699749Y-83364601D02*
X167737845Y-83440792D01*
X167737845Y-83440792D02*
X167775940Y-83478887D01*
X167775940Y-83478887D02*
X167852130Y-83516982D01*
X167852130Y-83516982D02*
X168156892Y-83516982D01*
X167433083Y-83097935D02*
X166899749Y-83897935D01*
X166899749Y-83097935D02*
X167433083Y-83897935D01*
X158191178Y-83097935D02*
X157734035Y-83097935D01*
X157962607Y-83897935D02*
X157962607Y-83097935D01*
X157467368Y-83897935D02*
X157467368Y-83097935D01*
X157467368Y-83097935D02*
X157276892Y-83097935D01*
X157276892Y-83097935D02*
X157162606Y-83136030D01*
X157162606Y-83136030D02*
X157086416Y-83212220D01*
X157086416Y-83212220D02*
X157048321Y-83288411D01*
X157048321Y-83288411D02*
X157010225Y-83440792D01*
X157010225Y-83440792D02*
X157010225Y-83555078D01*
X157010225Y-83555078D02*
X157048321Y-83707459D01*
X157048321Y-83707459D02*
X157086416Y-83783649D01*
X157086416Y-83783649D02*
X157162606Y-83859840D01*
X157162606Y-83859840D02*
X157276892Y-83897935D01*
X157276892Y-83897935D02*
X157467368Y-83897935D01*
X156667368Y-83897935D02*
X156667368Y-83097935D01*
D11*
X183796115Y-104891466D02*
X183034211Y-104891466D01*
X183415163Y-105272419D02*
X183415163Y-104510514D01*
D10*
X165551178Y-83097935D02*
X165094035Y-83097935D01*
X165322607Y-83897935D02*
X165322607Y-83097935D01*
X164903559Y-83097935D02*
X164370225Y-83897935D01*
X164370225Y-83097935D02*
X164903559Y-83897935D01*
X163421178Y-83097935D02*
X162964035Y-83097935D01*
X163192607Y-83897935D02*
X163192607Y-83097935D01*
X162240225Y-83821744D02*
X162278321Y-83859840D01*
X162278321Y-83859840D02*
X162392606Y-83897935D01*
X162392606Y-83897935D02*
X162468797Y-83897935D01*
X162468797Y-83897935D02*
X162583083Y-83859840D01*
X162583083Y-83859840D02*
X162659273Y-83783649D01*
X162659273Y-83783649D02*
X162697368Y-83707459D01*
X162697368Y-83707459D02*
X162735464Y-83555078D01*
X162735464Y-83555078D02*
X162735464Y-83440792D01*
X162735464Y-83440792D02*
X162697368Y-83288411D01*
X162697368Y-83288411D02*
X162659273Y-83212220D01*
X162659273Y-83212220D02*
X162583083Y-83136030D01*
X162583083Y-83136030D02*
X162468797Y-83097935D01*
X162468797Y-83097935D02*
X162392606Y-83097935D01*
X162392606Y-83097935D02*
X162278321Y-83136030D01*
X162278321Y-83136030D02*
X162240225Y-83174125D01*
X161897368Y-83897935D02*
X161897368Y-83097935D01*
X161440225Y-83897935D02*
X161783083Y-83440792D01*
X161440225Y-83097935D02*
X161897368Y-83555078D01*
X160881178Y-83097935D02*
X160424035Y-83097935D01*
X160652607Y-83897935D02*
X160652607Y-83097935D01*
X160157368Y-83897935D02*
X160157368Y-83097935D01*
X160157368Y-83097935D02*
X159966892Y-83097935D01*
X159966892Y-83097935D02*
X159852606Y-83136030D01*
X159852606Y-83136030D02*
X159776416Y-83212220D01*
X159776416Y-83212220D02*
X159738321Y-83288411D01*
X159738321Y-83288411D02*
X159700225Y-83440792D01*
X159700225Y-83440792D02*
X159700225Y-83555078D01*
X159700225Y-83555078D02*
X159738321Y-83707459D01*
X159738321Y-83707459D02*
X159776416Y-83783649D01*
X159776416Y-83783649D02*
X159852606Y-83859840D01*
X159852606Y-83859840D02*
X159966892Y-83897935D01*
X159966892Y-83897935D02*
X160157368Y-83897935D01*
X159204987Y-83097935D02*
X159052606Y-83097935D01*
X159052606Y-83097935D02*
X158976416Y-83136030D01*
X158976416Y-83136030D02*
X158900225Y-83212220D01*
X158900225Y-83212220D02*
X158862130Y-83364601D01*
X158862130Y-83364601D02*
X158862130Y-83631268D01*
X158862130Y-83631268D02*
X158900225Y-83783649D01*
X158900225Y-83783649D02*
X158976416Y-83859840D01*
X158976416Y-83859840D02*
X159052606Y-83897935D01*
X159052606Y-83897935D02*
X159204987Y-83897935D01*
X159204987Y-83897935D02*
X159281178Y-83859840D01*
X159281178Y-83859840D02*
X159357368Y-83783649D01*
X159357368Y-83783649D02*
X159395464Y-83631268D01*
X159395464Y-83631268D02*
X159395464Y-83364601D01*
X159395464Y-83364601D02*
X159357368Y-83212220D01*
X159357368Y-83212220D02*
X159281178Y-83136030D01*
X159281178Y-83136030D02*
X159204987Y-83097935D01*
X143337845Y-113136030D02*
X143414035Y-113097935D01*
X143414035Y-113097935D02*
X143528321Y-113097935D01*
X143528321Y-113097935D02*
X143642607Y-113136030D01*
X143642607Y-113136030D02*
X143718797Y-113212220D01*
X143718797Y-113212220D02*
X143756892Y-113288411D01*
X143756892Y-113288411D02*
X143794988Y-113440792D01*
X143794988Y-113440792D02*
X143794988Y-113555078D01*
X143794988Y-113555078D02*
X143756892Y-113707459D01*
X143756892Y-113707459D02*
X143718797Y-113783649D01*
X143718797Y-113783649D02*
X143642607Y-113859840D01*
X143642607Y-113859840D02*
X143528321Y-113897935D01*
X143528321Y-113897935D02*
X143452130Y-113897935D01*
X143452130Y-113897935D02*
X143337845Y-113859840D01*
X143337845Y-113859840D02*
X143299749Y-113821744D01*
X143299749Y-113821744D02*
X143299749Y-113555078D01*
X143299749Y-113555078D02*
X143452130Y-113555078D01*
X142994988Y-113174125D02*
X142956892Y-113136030D01*
X142956892Y-113136030D02*
X142880702Y-113097935D01*
X142880702Y-113097935D02*
X142690226Y-113097935D01*
X142690226Y-113097935D02*
X142614035Y-113136030D01*
X142614035Y-113136030D02*
X142575940Y-113174125D01*
X142575940Y-113174125D02*
X142537845Y-113250316D01*
X142537845Y-113250316D02*
X142537845Y-113326506D01*
X142537845Y-113326506D02*
X142575940Y-113440792D01*
X142575940Y-113440792D02*
X143033083Y-113897935D01*
X143033083Y-113897935D02*
X142537845Y-113897935D01*
X141775940Y-113897935D02*
X142233083Y-113897935D01*
X142004511Y-113897935D02*
X142004511Y-113097935D01*
X142004511Y-113097935D02*
X142080702Y-113212220D01*
X142080702Y-113212220D02*
X142156892Y-113288411D01*
X142156892Y-113288411D02*
X142233083Y-113326506D01*
X155837845Y-113136030D02*
X155914035Y-113097935D01*
X155914035Y-113097935D02*
X156028321Y-113097935D01*
X156028321Y-113097935D02*
X156142607Y-113136030D01*
X156142607Y-113136030D02*
X156218797Y-113212220D01*
X156218797Y-113212220D02*
X156256892Y-113288411D01*
X156256892Y-113288411D02*
X156294988Y-113440792D01*
X156294988Y-113440792D02*
X156294988Y-113555078D01*
X156294988Y-113555078D02*
X156256892Y-113707459D01*
X156256892Y-113707459D02*
X156218797Y-113783649D01*
X156218797Y-113783649D02*
X156142607Y-113859840D01*
X156142607Y-113859840D02*
X156028321Y-113897935D01*
X156028321Y-113897935D02*
X155952130Y-113897935D01*
X155952130Y-113897935D02*
X155837845Y-113859840D01*
X155837845Y-113859840D02*
X155799749Y-113821744D01*
X155799749Y-113821744D02*
X155799749Y-113555078D01*
X155799749Y-113555078D02*
X155952130Y-113555078D01*
X155037845Y-113897935D02*
X155494988Y-113897935D01*
X155266416Y-113897935D02*
X155266416Y-113097935D01*
X155266416Y-113097935D02*
X155342607Y-113212220D01*
X155342607Y-113212220D02*
X155418797Y-113288411D01*
X155418797Y-113288411D02*
X155494988Y-113326506D01*
X154771178Y-113097935D02*
X154237844Y-113097935D01*
X154237844Y-113097935D02*
X154580702Y-113897935D01*
X155851178Y-83097935D02*
X155394035Y-83097935D01*
X155622607Y-83897935D02*
X155622607Y-83097935D01*
X155127368Y-83897935D02*
X155127368Y-83097935D01*
X155127368Y-83097935D02*
X154860702Y-83669363D01*
X154860702Y-83669363D02*
X154594035Y-83097935D01*
X154594035Y-83097935D02*
X154594035Y-83897935D01*
X154251178Y-83859840D02*
X154136892Y-83897935D01*
X154136892Y-83897935D02*
X153946416Y-83897935D01*
X153946416Y-83897935D02*
X153870225Y-83859840D01*
X153870225Y-83859840D02*
X153832130Y-83821744D01*
X153832130Y-83821744D02*
X153794035Y-83745554D01*
X153794035Y-83745554D02*
X153794035Y-83669363D01*
X153794035Y-83669363D02*
X153832130Y-83593173D01*
X153832130Y-83593173D02*
X153870225Y-83555078D01*
X153870225Y-83555078D02*
X153946416Y-83516982D01*
X153946416Y-83516982D02*
X154098797Y-83478887D01*
X154098797Y-83478887D02*
X154174987Y-83440792D01*
X154174987Y-83440792D02*
X154213082Y-83402697D01*
X154213082Y-83402697D02*
X154251178Y-83326506D01*
X154251178Y-83326506D02*
X154251178Y-83250316D01*
X154251178Y-83250316D02*
X154213082Y-83174125D01*
X154213082Y-83174125D02*
X154174987Y-83136030D01*
X154174987Y-83136030D02*
X154098797Y-83097935D01*
X154098797Y-83097935D02*
X153908320Y-83097935D01*
X153908320Y-83097935D02*
X153794035Y-83136030D01*
X150837845Y-113136030D02*
X150914035Y-113097935D01*
X150914035Y-113097935D02*
X151028321Y-113097935D01*
X151028321Y-113097935D02*
X151142607Y-113136030D01*
X151142607Y-113136030D02*
X151218797Y-113212220D01*
X151218797Y-113212220D02*
X151256892Y-113288411D01*
X151256892Y-113288411D02*
X151294988Y-113440792D01*
X151294988Y-113440792D02*
X151294988Y-113555078D01*
X151294988Y-113555078D02*
X151256892Y-113707459D01*
X151256892Y-113707459D02*
X151218797Y-113783649D01*
X151218797Y-113783649D02*
X151142607Y-113859840D01*
X151142607Y-113859840D02*
X151028321Y-113897935D01*
X151028321Y-113897935D02*
X150952130Y-113897935D01*
X150952130Y-113897935D02*
X150837845Y-113859840D01*
X150837845Y-113859840D02*
X150799749Y-113821744D01*
X150799749Y-113821744D02*
X150799749Y-113555078D01*
X150799749Y-113555078D02*
X150952130Y-113555078D01*
X150037845Y-113897935D02*
X150494988Y-113897935D01*
X150266416Y-113897935D02*
X150266416Y-113097935D01*
X150266416Y-113097935D02*
X150342607Y-113212220D01*
X150342607Y-113212220D02*
X150418797Y-113288411D01*
X150418797Y-113288411D02*
X150494988Y-113326506D01*
X149771178Y-113097935D02*
X149275940Y-113097935D01*
X149275940Y-113097935D02*
X149542606Y-113402697D01*
X149542606Y-113402697D02*
X149428321Y-113402697D01*
X149428321Y-113402697D02*
X149352130Y-113440792D01*
X149352130Y-113440792D02*
X149314035Y-113478887D01*
X149314035Y-113478887D02*
X149275940Y-113555078D01*
X149275940Y-113555078D02*
X149275940Y-113745554D01*
X149275940Y-113745554D02*
X149314035Y-113821744D01*
X149314035Y-113821744D02*
X149352130Y-113859840D01*
X149352130Y-113859840D02*
X149428321Y-113897935D01*
X149428321Y-113897935D02*
X149656892Y-113897935D01*
X149656892Y-113897935D02*
X149733083Y-113859840D01*
X149733083Y-113859840D02*
X149771178Y-113821744D01*
D12*
X182681904Y-84524819D02*
X182681904Y-85334342D01*
X182681904Y-85334342D02*
X182634285Y-85429580D01*
X182634285Y-85429580D02*
X182586666Y-85477200D01*
X182586666Y-85477200D02*
X182491428Y-85524819D01*
X182491428Y-85524819D02*
X182300952Y-85524819D01*
X182300952Y-85524819D02*
X182205714Y-85477200D01*
X182205714Y-85477200D02*
X182158095Y-85429580D01*
X182158095Y-85429580D02*
X182110476Y-85334342D01*
X182110476Y-85334342D02*
X182110476Y-84524819D01*
X181205714Y-84858152D02*
X181205714Y-85524819D01*
X181443809Y-84477200D02*
X181681904Y-85191485D01*
X181681904Y-85191485D02*
X181062857Y-85191485D01*
X159761904Y-94664819D02*
X159761904Y-95474342D01*
X159761904Y-95474342D02*
X159714285Y-95569580D01*
X159714285Y-95569580D02*
X159666666Y-95617200D01*
X159666666Y-95617200D02*
X159571428Y-95664819D01*
X159571428Y-95664819D02*
X159380952Y-95664819D01*
X159380952Y-95664819D02*
X159285714Y-95617200D01*
X159285714Y-95617200D02*
X159238095Y-95569580D01*
X159238095Y-95569580D02*
X159190476Y-95474342D01*
X159190476Y-95474342D02*
X159190476Y-94664819D01*
X158809523Y-94664819D02*
X158142857Y-94664819D01*
X158142857Y-94664819D02*
X158571428Y-95664819D01*
X159761904Y-98594819D02*
X159761904Y-99404342D01*
X159761904Y-99404342D02*
X159714285Y-99499580D01*
X159714285Y-99499580D02*
X159666666Y-99547200D01*
X159666666Y-99547200D02*
X159571428Y-99594819D01*
X159571428Y-99594819D02*
X159380952Y-99594819D01*
X159380952Y-99594819D02*
X159285714Y-99547200D01*
X159285714Y-99547200D02*
X159238095Y-99499580D01*
X159238095Y-99499580D02*
X159190476Y-99404342D01*
X159190476Y-99404342D02*
X159190476Y-98594819D01*
X158571428Y-99023390D02*
X158666666Y-98975771D01*
X158666666Y-98975771D02*
X158714285Y-98928152D01*
X158714285Y-98928152D02*
X158761904Y-98832914D01*
X158761904Y-98832914D02*
X158761904Y-98785295D01*
X158761904Y-98785295D02*
X158714285Y-98690057D01*
X158714285Y-98690057D02*
X158666666Y-98642438D01*
X158666666Y-98642438D02*
X158571428Y-98594819D01*
X158571428Y-98594819D02*
X158380952Y-98594819D01*
X158380952Y-98594819D02*
X158285714Y-98642438D01*
X158285714Y-98642438D02*
X158238095Y-98690057D01*
X158238095Y-98690057D02*
X158190476Y-98785295D01*
X158190476Y-98785295D02*
X158190476Y-98832914D01*
X158190476Y-98832914D02*
X158238095Y-98928152D01*
X158238095Y-98928152D02*
X158285714Y-98975771D01*
X158285714Y-98975771D02*
X158380952Y-99023390D01*
X158380952Y-99023390D02*
X158571428Y-99023390D01*
X158571428Y-99023390D02*
X158666666Y-99071009D01*
X158666666Y-99071009D02*
X158714285Y-99118628D01*
X158714285Y-99118628D02*
X158761904Y-99213866D01*
X158761904Y-99213866D02*
X158761904Y-99404342D01*
X158761904Y-99404342D02*
X158714285Y-99499580D01*
X158714285Y-99499580D02*
X158666666Y-99547200D01*
X158666666Y-99547200D02*
X158571428Y-99594819D01*
X158571428Y-99594819D02*
X158380952Y-99594819D01*
X158380952Y-99594819D02*
X158285714Y-99547200D01*
X158285714Y-99547200D02*
X158238095Y-99499580D01*
X158238095Y-99499580D02*
X158190476Y-99404342D01*
X158190476Y-99404342D02*
X158190476Y-99213866D01*
X158190476Y-99213866D02*
X158238095Y-99118628D01*
X158238095Y-99118628D02*
X158285714Y-99071009D01*
X158285714Y-99071009D02*
X158380952Y-99023390D01*
X182505714Y-106531009D02*
X182362857Y-106578628D01*
X182362857Y-106578628D02*
X182315238Y-106626247D01*
X182315238Y-106626247D02*
X182267619Y-106721485D01*
X182267619Y-106721485D02*
X182267619Y-106864342D01*
X182267619Y-106864342D02*
X182315238Y-106959580D01*
X182315238Y-106959580D02*
X182362857Y-107007200D01*
X182362857Y-107007200D02*
X182458095Y-107054819D01*
X182458095Y-107054819D02*
X182839047Y-107054819D01*
X182839047Y-107054819D02*
X182839047Y-106054819D01*
X182839047Y-106054819D02*
X182505714Y-106054819D01*
X182505714Y-106054819D02*
X182410476Y-106102438D01*
X182410476Y-106102438D02*
X182362857Y-106150057D01*
X182362857Y-106150057D02*
X182315238Y-106245295D01*
X182315238Y-106245295D02*
X182315238Y-106340533D01*
X182315238Y-106340533D02*
X182362857Y-106435771D01*
X182362857Y-106435771D02*
X182410476Y-106483390D01*
X182410476Y-106483390D02*
X182505714Y-106531009D01*
X182505714Y-106531009D02*
X182839047Y-106531009D01*
X181981904Y-106054819D02*
X181410476Y-106054819D01*
X181696190Y-107054819D02*
X181696190Y-106054819D01*
X180553333Y-107054819D02*
X181124761Y-107054819D01*
X180839047Y-107054819D02*
X180839047Y-106054819D01*
X180839047Y-106054819D02*
X180934285Y-106197676D01*
X180934285Y-106197676D02*
X181029523Y-106292914D01*
X181029523Y-106292914D02*
X181124761Y-106340533D01*
X163710180Y-97653404D02*
X162900657Y-97653404D01*
X162900657Y-97653404D02*
X162805419Y-97605785D01*
X162805419Y-97605785D02*
X162757800Y-97558166D01*
X162757800Y-97558166D02*
X162710180Y-97462928D01*
X162710180Y-97462928D02*
X162710180Y-97272452D01*
X162710180Y-97272452D02*
X162757800Y-97177214D01*
X162757800Y-97177214D02*
X162805419Y-97129595D01*
X162805419Y-97129595D02*
X162900657Y-97081976D01*
X162900657Y-97081976D02*
X163710180Y-97081976D01*
X163614942Y-96653404D02*
X163662561Y-96605785D01*
X163662561Y-96605785D02*
X163710180Y-96510547D01*
X163710180Y-96510547D02*
X163710180Y-96272452D01*
X163710180Y-96272452D02*
X163662561Y-96177214D01*
X163662561Y-96177214D02*
X163614942Y-96129595D01*
X163614942Y-96129595D02*
X163519704Y-96081976D01*
X163519704Y-96081976D02*
X163424466Y-96081976D01*
X163424466Y-96081976D02*
X163281609Y-96129595D01*
X163281609Y-96129595D02*
X162710180Y-96701023D01*
X162710180Y-96701023D02*
X162710180Y-96081976D01*
X166154819Y-99990000D02*
X166392914Y-99990000D01*
X166297676Y-99751905D02*
X166392914Y-99990000D01*
X166392914Y-99990000D02*
X166297676Y-100228095D01*
X166583390Y-99847143D02*
X166392914Y-99990000D01*
X166392914Y-99990000D02*
X166583390Y-100132857D01*
D13*
%TO.C,U4*%
X181190000Y-86599999D02*
X180450000Y-86599999D01*
X181190000Y-89599999D02*
X180450000Y-89599999D01*
X183450000Y-86599999D02*
X182710000Y-86599999D01*
X183450000Y-89599999D02*
X182710000Y-89599999D01*
D14*
X179720000Y-89074999D02*
G75*
G02*
X179520000Y-89074999I-100000J0D01*
G01*
X179520000Y-89074999D02*
G75*
G02*
X179720000Y-89074999I100000J0D01*
G01*
D15*
%TO.C,U7*%
X158300000Y-92800000D02*
X159700000Y-92800000D01*
X158300000Y-94200000D02*
X158300000Y-92800000D01*
X159700000Y-92800000D02*
X159700000Y-94200000D01*
X159700000Y-94200000D02*
X158300000Y-94200000D01*
%TO.C,U8*%
X158300000Y-100050000D02*
X159700000Y-100050000D01*
X158300000Y-101450000D02*
X158300000Y-100050000D01*
X159700000Y-100050000D02*
X159700000Y-101450000D01*
X159700000Y-101450000D02*
X158300000Y-101450000D01*
%TO.C,BT1*%
X179670000Y-104210000D02*
X182610000Y-104210000D01*
X179670000Y-105610000D02*
X179670000Y-104210000D01*
X182610000Y-104210000D02*
X182610000Y-105610000D01*
X182610000Y-105610000D02*
X179670000Y-105610000D01*
D16*
%TO.C,U2*%
X160536100Y-94770600D02*
X160536100Y-99012400D01*
X165793900Y-99012400D02*
X165793900Y-94770600D01*
%TD*%
D17*
X134000000Y-79000000D02*
X191000000Y-79000000D01*
X191000000Y-118000000D02*
X191000000Y-79000000D01*
X134000000Y-118000000D02*
X191000000Y-118000000D01*
X134000000Y-79000000D02*
X134000000Y-118000000D01*
M02*
