%TF.GenerationSoftware,KiCad,Pcbnew,8.0.1*%
%TF.CreationDate,2024-04-28T17:40:03+05:30*%
%TF.ProjectId,ecg,6563672e-6b69-4636-9164-5f7063625858,rev?*%
%TF.SameCoordinates,Original*%
%TF.FileFunction,Legend,Top*%
%TF.FilePolarity,Positive*%
%FSLAX46Y46*%
G04 Gerber Fmt 4.6, Leading zero omitted, Abs format (unit mm)*
G04 Created by KiCad (PCBNEW 8.0.1) date 2024-04-28 17:40:03*
%MOMM*%
%LPD*%
G01*
G04 APERTURE LIST*
%ADD10C,0.000000*%
%ADD11C,0.100000*%
%ADD12C,0.080000*%
%ADD13C,0.150000*%
%ADD14C,0.254000*%
%ADD15C,0.120000*%
%ADD16C,0.152400*%
%ADD17C,0.200000*%
%TA.AperFunction,Profile*%
%ADD18C,0.050000*%
%TD*%
G04 APERTURE END LIST*
D10*
G36*
X175370000Y-112360000D02*
G01*
X175426731Y-112364646D01*
X175483631Y-112372158D01*
X175540630Y-112382578D01*
X175597659Y-112395948D01*
X175654649Y-112412310D01*
X175711528Y-112431706D01*
X175768228Y-112454178D01*
X175824680Y-112479768D01*
X175849801Y-112494009D01*
X175874169Y-112508526D01*
X175897841Y-112523343D01*
X175920874Y-112538485D01*
X175943327Y-112553976D01*
X175965259Y-112569839D01*
X175986726Y-112586099D01*
X176007788Y-112602780D01*
X176028502Y-112619906D01*
X176048926Y-112637501D01*
X176069119Y-112655589D01*
X176089137Y-112674195D01*
X176128887Y-112713054D01*
X176168638Y-112754273D01*
X176218247Y-112730624D01*
X176266408Y-112706190D01*
X176313432Y-112680903D01*
X176359628Y-112654695D01*
X176405309Y-112627498D01*
X176450784Y-112599245D01*
X176496365Y-112569868D01*
X176542362Y-112539299D01*
X176596065Y-112505993D01*
X176649580Y-112476933D01*
X176703012Y-112451883D01*
X176756469Y-112430607D01*
X176810057Y-112412870D01*
X176863882Y-112398435D01*
X176918051Y-112387067D01*
X176972671Y-112378530D01*
X177027848Y-112372588D01*
X177083689Y-112369005D01*
X177140299Y-112367547D01*
X177197787Y-112367976D01*
X177256258Y-112370057D01*
X177315819Y-112373555D01*
X177438638Y-112383856D01*
X177498789Y-112402556D01*
X177556754Y-112423901D01*
X177612604Y-112447831D01*
X177666414Y-112474283D01*
X177718255Y-112503195D01*
X177768201Y-112534506D01*
X177816325Y-112568154D01*
X177862700Y-112604077D01*
X177907398Y-112642212D01*
X177950492Y-112682500D01*
X177992056Y-112724876D01*
X178032163Y-112769281D01*
X178070885Y-112815651D01*
X178108295Y-112863926D01*
X178144466Y-112914042D01*
X178179471Y-112965940D01*
X178212618Y-113041247D01*
X178240492Y-113117080D01*
X178263294Y-113193382D01*
X178281225Y-113270100D01*
X178294485Y-113347177D01*
X178303275Y-113424557D01*
X178307794Y-113502186D01*
X178308244Y-113580007D01*
X178304824Y-113657966D01*
X178297736Y-113736007D01*
X178287180Y-113814075D01*
X178273356Y-113892113D01*
X178256465Y-113970067D01*
X178236707Y-114047880D01*
X178214283Y-114125499D01*
X178189393Y-114202867D01*
X178122536Y-114349738D01*
X178048758Y-114491751D01*
X177968402Y-114629008D01*
X177881808Y-114761612D01*
X177789320Y-114889664D01*
X177691277Y-115013266D01*
X177588023Y-115132522D01*
X177479898Y-115247532D01*
X177367244Y-115358399D01*
X177250403Y-115465225D01*
X177129716Y-115568113D01*
X177005526Y-115667164D01*
X176878173Y-115762481D01*
X176747999Y-115854165D01*
X176615347Y-115942319D01*
X176480557Y-116027045D01*
X176446442Y-116040077D01*
X176414319Y-116051176D01*
X176383896Y-116060399D01*
X176354881Y-116067801D01*
X176326980Y-116073439D01*
X176299900Y-116077370D01*
X176273350Y-116079648D01*
X176247035Y-116080332D01*
X176220664Y-116079476D01*
X176193943Y-116077137D01*
X176166581Y-116073371D01*
X176138283Y-116068234D01*
X176108758Y-116061783D01*
X176077712Y-116054074D01*
X176009888Y-116035106D01*
X175865834Y-115959305D01*
X175724498Y-115876530D01*
X175586236Y-115787075D01*
X175451404Y-115691234D01*
X175320358Y-115589301D01*
X175193454Y-115481570D01*
X175071047Y-115368333D01*
X174953496Y-115249886D01*
X174841154Y-115126521D01*
X174734379Y-114998532D01*
X174633527Y-114866213D01*
X174538953Y-114729858D01*
X174451014Y-114589761D01*
X174370065Y-114446215D01*
X174296464Y-114299513D01*
X174230565Y-114149950D01*
X174209735Y-114079091D01*
X174190972Y-114007598D01*
X174174445Y-113935576D01*
X174160325Y-113863129D01*
X174148781Y-113790364D01*
X174139983Y-113717385D01*
X174134102Y-113644298D01*
X174131308Y-113571208D01*
X174131771Y-113498221D01*
X174135661Y-113425441D01*
X174143147Y-113352973D01*
X174154401Y-113280924D01*
X174169592Y-113209398D01*
X174188889Y-113138501D01*
X174212465Y-113068337D01*
X174240487Y-112999013D01*
X174272242Y-112947483D01*
X174305840Y-112897812D01*
X174341210Y-112850039D01*
X174378283Y-112804208D01*
X174416989Y-112760361D01*
X174457259Y-112718539D01*
X174499023Y-112678784D01*
X174542210Y-112641139D01*
X174586752Y-112605645D01*
X174632579Y-112572345D01*
X174679621Y-112541281D01*
X174727807Y-112512494D01*
X174777070Y-112486027D01*
X174827338Y-112461921D01*
X174878542Y-112440219D01*
X174930613Y-112420963D01*
X174983480Y-112404194D01*
X175037074Y-112389955D01*
X175091325Y-112378288D01*
X175146164Y-112369235D01*
X175201521Y-112362838D01*
X175257325Y-112359138D01*
X175313509Y-112358178D01*
X175370000Y-112360000D01*
G37*
D11*
X174286115Y-82438533D02*
X173524211Y-82438533D01*
X173905163Y-82057580D02*
X173905163Y-82819485D01*
X166923884Y-86072419D02*
X166923884Y-85072419D01*
X166923884Y-85072419D02*
X167304836Y-85072419D01*
X167304836Y-85072419D02*
X167400074Y-85120038D01*
X167400074Y-85120038D02*
X167447693Y-85167657D01*
X167447693Y-85167657D02*
X167495312Y-85262895D01*
X167495312Y-85262895D02*
X167495312Y-85405752D01*
X167495312Y-85405752D02*
X167447693Y-85500990D01*
X167447693Y-85500990D02*
X167400074Y-85548609D01*
X167400074Y-85548609D02*
X167304836Y-85596228D01*
X167304836Y-85596228D02*
X166923884Y-85596228D01*
X168114360Y-85072419D02*
X168304836Y-85072419D01*
X168304836Y-85072419D02*
X168400074Y-85120038D01*
X168400074Y-85120038D02*
X168495312Y-85215276D01*
X168495312Y-85215276D02*
X168542931Y-85405752D01*
X168542931Y-85405752D02*
X168542931Y-85739085D01*
X168542931Y-85739085D02*
X168495312Y-85929561D01*
X168495312Y-85929561D02*
X168400074Y-86024800D01*
X168400074Y-86024800D02*
X168304836Y-86072419D01*
X168304836Y-86072419D02*
X168114360Y-86072419D01*
X168114360Y-86072419D02*
X168019122Y-86024800D01*
X168019122Y-86024800D02*
X167923884Y-85929561D01*
X167923884Y-85929561D02*
X167876265Y-85739085D01*
X167876265Y-85739085D02*
X167876265Y-85405752D01*
X167876265Y-85405752D02*
X167923884Y-85215276D01*
X167923884Y-85215276D02*
X168019122Y-85120038D01*
X168019122Y-85120038D02*
X168114360Y-85072419D01*
X168876265Y-85072419D02*
X169114360Y-86072419D01*
X169114360Y-86072419D02*
X169304836Y-85358133D01*
X169304836Y-85358133D02*
X169495312Y-86072419D01*
X169495312Y-86072419D02*
X169733408Y-85072419D01*
X170114360Y-85548609D02*
X170447693Y-85548609D01*
X170590550Y-86072419D02*
X170114360Y-86072419D01*
X170114360Y-86072419D02*
X170114360Y-85072419D01*
X170114360Y-85072419D02*
X170590550Y-85072419D01*
X171590550Y-86072419D02*
X171257217Y-85596228D01*
X171019122Y-86072419D02*
X171019122Y-85072419D01*
X171019122Y-85072419D02*
X171400074Y-85072419D01*
X171400074Y-85072419D02*
X171495312Y-85120038D01*
X171495312Y-85120038D02*
X171542931Y-85167657D01*
X171542931Y-85167657D02*
X171590550Y-85262895D01*
X171590550Y-85262895D02*
X171590550Y-85405752D01*
X171590550Y-85405752D02*
X171542931Y-85500990D01*
X171542931Y-85500990D02*
X171495312Y-85548609D01*
X171495312Y-85548609D02*
X171400074Y-85596228D01*
X171400074Y-85596228D02*
X171019122Y-85596228D01*
X167767217Y-90978609D02*
X167910074Y-91026228D01*
X167910074Y-91026228D02*
X167957693Y-91073847D01*
X167957693Y-91073847D02*
X168005312Y-91169085D01*
X168005312Y-91169085D02*
X168005312Y-91311942D01*
X168005312Y-91311942D02*
X167957693Y-91407180D01*
X167957693Y-91407180D02*
X167910074Y-91454800D01*
X167910074Y-91454800D02*
X167814836Y-91502419D01*
X167814836Y-91502419D02*
X167433884Y-91502419D01*
X167433884Y-91502419D02*
X167433884Y-90502419D01*
X167433884Y-90502419D02*
X167767217Y-90502419D01*
X167767217Y-90502419D02*
X167862455Y-90550038D01*
X167862455Y-90550038D02*
X167910074Y-90597657D01*
X167910074Y-90597657D02*
X167957693Y-90692895D01*
X167957693Y-90692895D02*
X167957693Y-90788133D01*
X167957693Y-90788133D02*
X167910074Y-90883371D01*
X167910074Y-90883371D02*
X167862455Y-90930990D01*
X167862455Y-90930990D02*
X167767217Y-90978609D01*
X167767217Y-90978609D02*
X167433884Y-90978609D01*
X168624360Y-90502419D02*
X168814836Y-90502419D01*
X168814836Y-90502419D02*
X168910074Y-90550038D01*
X168910074Y-90550038D02*
X169005312Y-90645276D01*
X169005312Y-90645276D02*
X169052931Y-90835752D01*
X169052931Y-90835752D02*
X169052931Y-91169085D01*
X169052931Y-91169085D02*
X169005312Y-91359561D01*
X169005312Y-91359561D02*
X168910074Y-91454800D01*
X168910074Y-91454800D02*
X168814836Y-91502419D01*
X168814836Y-91502419D02*
X168624360Y-91502419D01*
X168624360Y-91502419D02*
X168529122Y-91454800D01*
X168529122Y-91454800D02*
X168433884Y-91359561D01*
X168433884Y-91359561D02*
X168386265Y-91169085D01*
X168386265Y-91169085D02*
X168386265Y-90835752D01*
X168386265Y-90835752D02*
X168433884Y-90645276D01*
X168433884Y-90645276D02*
X168529122Y-90550038D01*
X168529122Y-90550038D02*
X168624360Y-90502419D01*
X169671979Y-90502419D02*
X169862455Y-90502419D01*
X169862455Y-90502419D02*
X169957693Y-90550038D01*
X169957693Y-90550038D02*
X170052931Y-90645276D01*
X170052931Y-90645276D02*
X170100550Y-90835752D01*
X170100550Y-90835752D02*
X170100550Y-91169085D01*
X170100550Y-91169085D02*
X170052931Y-91359561D01*
X170052931Y-91359561D02*
X169957693Y-91454800D01*
X169957693Y-91454800D02*
X169862455Y-91502419D01*
X169862455Y-91502419D02*
X169671979Y-91502419D01*
X169671979Y-91502419D02*
X169576741Y-91454800D01*
X169576741Y-91454800D02*
X169481503Y-91359561D01*
X169481503Y-91359561D02*
X169433884Y-91169085D01*
X169433884Y-91169085D02*
X169433884Y-90835752D01*
X169433884Y-90835752D02*
X169481503Y-90645276D01*
X169481503Y-90645276D02*
X169576741Y-90550038D01*
X169576741Y-90550038D02*
X169671979Y-90502419D01*
X170386265Y-90502419D02*
X170957693Y-90502419D01*
X170671979Y-91502419D02*
X170671979Y-90502419D01*
D12*
X181909271Y-112208020D02*
X182023557Y-112246115D01*
X182023557Y-112246115D02*
X182214033Y-112246115D01*
X182214033Y-112246115D02*
X182290224Y-112208020D01*
X182290224Y-112208020D02*
X182328319Y-112169924D01*
X182328319Y-112169924D02*
X182366414Y-112093734D01*
X182366414Y-112093734D02*
X182366414Y-112017543D01*
X182366414Y-112017543D02*
X182328319Y-111941353D01*
X182328319Y-111941353D02*
X182290224Y-111903258D01*
X182290224Y-111903258D02*
X182214033Y-111865162D01*
X182214033Y-111865162D02*
X182061652Y-111827067D01*
X182061652Y-111827067D02*
X181985462Y-111788972D01*
X181985462Y-111788972D02*
X181947367Y-111750877D01*
X181947367Y-111750877D02*
X181909271Y-111674686D01*
X181909271Y-111674686D02*
X181909271Y-111598496D01*
X181909271Y-111598496D02*
X181947367Y-111522305D01*
X181947367Y-111522305D02*
X181985462Y-111484210D01*
X181985462Y-111484210D02*
X182061652Y-111446115D01*
X182061652Y-111446115D02*
X182252129Y-111446115D01*
X182252129Y-111446115D02*
X182366414Y-111484210D01*
X183052129Y-112246115D02*
X183052129Y-111827067D01*
X183052129Y-111827067D02*
X183014034Y-111750877D01*
X183014034Y-111750877D02*
X182937843Y-111712781D01*
X182937843Y-111712781D02*
X182785462Y-111712781D01*
X182785462Y-111712781D02*
X182709272Y-111750877D01*
X183052129Y-112208020D02*
X182975938Y-112246115D01*
X182975938Y-112246115D02*
X182785462Y-112246115D01*
X182785462Y-112246115D02*
X182709272Y-112208020D01*
X182709272Y-112208020D02*
X182671176Y-112131829D01*
X182671176Y-112131829D02*
X182671176Y-112055639D01*
X182671176Y-112055639D02*
X182709272Y-111979448D01*
X182709272Y-111979448D02*
X182785462Y-111941353D01*
X182785462Y-111941353D02*
X182975938Y-111941353D01*
X182975938Y-111941353D02*
X183052129Y-111903258D01*
X183356891Y-111712781D02*
X183547367Y-112246115D01*
X183737844Y-111712781D02*
X183547367Y-112246115D01*
X183547367Y-112246115D02*
X183471177Y-112436591D01*
X183471177Y-112436591D02*
X183433082Y-112474686D01*
X183433082Y-112474686D02*
X183356891Y-112512781D01*
X184385463Y-112246115D02*
X184385463Y-111827067D01*
X184385463Y-111827067D02*
X184347368Y-111750877D01*
X184347368Y-111750877D02*
X184271177Y-111712781D01*
X184271177Y-111712781D02*
X184118796Y-111712781D01*
X184118796Y-111712781D02*
X184042606Y-111750877D01*
X184385463Y-112208020D02*
X184309272Y-112246115D01*
X184309272Y-112246115D02*
X184118796Y-112246115D01*
X184118796Y-112246115D02*
X184042606Y-112208020D01*
X184042606Y-112208020D02*
X184004510Y-112131829D01*
X184004510Y-112131829D02*
X184004510Y-112055639D01*
X184004510Y-112055639D02*
X184042606Y-111979448D01*
X184042606Y-111979448D02*
X184118796Y-111941353D01*
X184118796Y-111941353D02*
X184309272Y-111941353D01*
X184309272Y-111941353D02*
X184385463Y-111903258D01*
X184766416Y-111712781D02*
X184766416Y-112246115D01*
X184766416Y-111788972D02*
X184804511Y-111750877D01*
X184804511Y-111750877D02*
X184880701Y-111712781D01*
X184880701Y-111712781D02*
X184994987Y-111712781D01*
X184994987Y-111712781D02*
X185071178Y-111750877D01*
X185071178Y-111750877D02*
X185109273Y-111827067D01*
X185109273Y-111827067D02*
X185109273Y-112246115D01*
X186366416Y-111827067D02*
X186480702Y-111865162D01*
X186480702Y-111865162D02*
X186518797Y-111903258D01*
X186518797Y-111903258D02*
X186556893Y-111979448D01*
X186556893Y-111979448D02*
X186556893Y-112093734D01*
X186556893Y-112093734D02*
X186518797Y-112169924D01*
X186518797Y-112169924D02*
X186480702Y-112208020D01*
X186480702Y-112208020D02*
X186404512Y-112246115D01*
X186404512Y-112246115D02*
X186099750Y-112246115D01*
X186099750Y-112246115D02*
X186099750Y-111446115D01*
X186099750Y-111446115D02*
X186366416Y-111446115D01*
X186366416Y-111446115D02*
X186442607Y-111484210D01*
X186442607Y-111484210D02*
X186480702Y-111522305D01*
X186480702Y-111522305D02*
X186518797Y-111598496D01*
X186518797Y-111598496D02*
X186518797Y-111674686D01*
X186518797Y-111674686D02*
X186480702Y-111750877D01*
X186480702Y-111750877D02*
X186442607Y-111788972D01*
X186442607Y-111788972D02*
X186366416Y-111827067D01*
X186366416Y-111827067D02*
X186099750Y-111827067D01*
X186899750Y-112246115D02*
X186899750Y-111712781D01*
X186899750Y-111446115D02*
X186861654Y-111484210D01*
X186861654Y-111484210D02*
X186899750Y-111522305D01*
X186899750Y-111522305D02*
X186937845Y-111484210D01*
X186937845Y-111484210D02*
X186899750Y-111446115D01*
X186899750Y-111446115D02*
X186899750Y-111522305D01*
X187242606Y-112208020D02*
X187318797Y-112246115D01*
X187318797Y-112246115D02*
X187471178Y-112246115D01*
X187471178Y-112246115D02*
X187547368Y-112208020D01*
X187547368Y-112208020D02*
X187585464Y-112131829D01*
X187585464Y-112131829D02*
X187585464Y-112093734D01*
X187585464Y-112093734D02*
X187547368Y-112017543D01*
X187547368Y-112017543D02*
X187471178Y-111979448D01*
X187471178Y-111979448D02*
X187356892Y-111979448D01*
X187356892Y-111979448D02*
X187280702Y-111941353D01*
X187280702Y-111941353D02*
X187242606Y-111865162D01*
X187242606Y-111865162D02*
X187242606Y-111827067D01*
X187242606Y-111827067D02*
X187280702Y-111750877D01*
X187280702Y-111750877D02*
X187356892Y-111712781D01*
X187356892Y-111712781D02*
X187471178Y-111712781D01*
X187471178Y-111712781D02*
X187547368Y-111750877D01*
X187852130Y-111712781D02*
X188004511Y-112246115D01*
X188004511Y-112246115D02*
X188156892Y-111865162D01*
X188156892Y-111865162D02*
X188309273Y-112246115D01*
X188309273Y-112246115D02*
X188461654Y-111712781D01*
X189109273Y-112246115D02*
X189109273Y-111827067D01*
X189109273Y-111827067D02*
X189071178Y-111750877D01*
X189071178Y-111750877D02*
X188994987Y-111712781D01*
X188994987Y-111712781D02*
X188842606Y-111712781D01*
X188842606Y-111712781D02*
X188766416Y-111750877D01*
X189109273Y-112208020D02*
X189033082Y-112246115D01*
X189033082Y-112246115D02*
X188842606Y-112246115D01*
X188842606Y-112246115D02*
X188766416Y-112208020D01*
X188766416Y-112208020D02*
X188728320Y-112131829D01*
X188728320Y-112131829D02*
X188728320Y-112055639D01*
X188728320Y-112055639D02*
X188766416Y-111979448D01*
X188766416Y-111979448D02*
X188842606Y-111941353D01*
X188842606Y-111941353D02*
X189033082Y-111941353D01*
X189033082Y-111941353D02*
X189109273Y-111903258D01*
X189452130Y-112208020D02*
X189528321Y-112246115D01*
X189528321Y-112246115D02*
X189680702Y-112246115D01*
X189680702Y-112246115D02*
X189756892Y-112208020D01*
X189756892Y-112208020D02*
X189794988Y-112131829D01*
X189794988Y-112131829D02*
X189794988Y-112093734D01*
X189794988Y-112093734D02*
X189756892Y-112017543D01*
X189756892Y-112017543D02*
X189680702Y-111979448D01*
X189680702Y-111979448D02*
X189566416Y-111979448D01*
X189566416Y-111979448D02*
X189490226Y-111941353D01*
X189490226Y-111941353D02*
X189452130Y-111865162D01*
X189452130Y-111865162D02*
X189452130Y-111827067D01*
X189452130Y-111827067D02*
X189490226Y-111750877D01*
X189490226Y-111750877D02*
X189566416Y-111712781D01*
X189566416Y-111712781D02*
X189680702Y-111712781D01*
X189680702Y-111712781D02*
X189756892Y-111750877D01*
X180347366Y-113495975D02*
X180461652Y-113534070D01*
X180461652Y-113534070D02*
X180652128Y-113534070D01*
X180652128Y-113534070D02*
X180728319Y-113495975D01*
X180728319Y-113495975D02*
X180766414Y-113457879D01*
X180766414Y-113457879D02*
X180804509Y-113381689D01*
X180804509Y-113381689D02*
X180804509Y-113305498D01*
X180804509Y-113305498D02*
X180766414Y-113229308D01*
X180766414Y-113229308D02*
X180728319Y-113191213D01*
X180728319Y-113191213D02*
X180652128Y-113153117D01*
X180652128Y-113153117D02*
X180499747Y-113115022D01*
X180499747Y-113115022D02*
X180423557Y-113076927D01*
X180423557Y-113076927D02*
X180385462Y-113038832D01*
X180385462Y-113038832D02*
X180347366Y-112962641D01*
X180347366Y-112962641D02*
X180347366Y-112886451D01*
X180347366Y-112886451D02*
X180385462Y-112810260D01*
X180385462Y-112810260D02*
X180423557Y-112772165D01*
X180423557Y-112772165D02*
X180499747Y-112734070D01*
X180499747Y-112734070D02*
X180690224Y-112734070D01*
X180690224Y-112734070D02*
X180804509Y-112772165D01*
X181490224Y-113534070D02*
X181490224Y-113115022D01*
X181490224Y-113115022D02*
X181452129Y-113038832D01*
X181452129Y-113038832D02*
X181375938Y-113000736D01*
X181375938Y-113000736D02*
X181223557Y-113000736D01*
X181223557Y-113000736D02*
X181147367Y-113038832D01*
X181490224Y-113495975D02*
X181414033Y-113534070D01*
X181414033Y-113534070D02*
X181223557Y-113534070D01*
X181223557Y-113534070D02*
X181147367Y-113495975D01*
X181147367Y-113495975D02*
X181109271Y-113419784D01*
X181109271Y-113419784D02*
X181109271Y-113343594D01*
X181109271Y-113343594D02*
X181147367Y-113267403D01*
X181147367Y-113267403D02*
X181223557Y-113229308D01*
X181223557Y-113229308D02*
X181414033Y-113229308D01*
X181414033Y-113229308D02*
X181490224Y-113191213D01*
X181871177Y-113534070D02*
X181871177Y-113000736D01*
X181871177Y-112734070D02*
X181833081Y-112772165D01*
X181833081Y-112772165D02*
X181871177Y-112810260D01*
X181871177Y-112810260D02*
X181909272Y-112772165D01*
X181909272Y-112772165D02*
X181871177Y-112734070D01*
X181871177Y-112734070D02*
X181871177Y-112810260D01*
X182252129Y-113000736D02*
X182252129Y-113800736D01*
X182252129Y-113038832D02*
X182328319Y-113000736D01*
X182328319Y-113000736D02*
X182480700Y-113000736D01*
X182480700Y-113000736D02*
X182556891Y-113038832D01*
X182556891Y-113038832D02*
X182594986Y-113076927D01*
X182594986Y-113076927D02*
X182633081Y-113153117D01*
X182633081Y-113153117D02*
X182633081Y-113381689D01*
X182633081Y-113381689D02*
X182594986Y-113457879D01*
X182594986Y-113457879D02*
X182556891Y-113495975D01*
X182556891Y-113495975D02*
X182480700Y-113534070D01*
X182480700Y-113534070D02*
X182328319Y-113534070D01*
X182328319Y-113534070D02*
X182252129Y-113495975D01*
X182975939Y-113534070D02*
X182975939Y-113000736D01*
X182975939Y-113153117D02*
X183014034Y-113076927D01*
X183014034Y-113076927D02*
X183052129Y-113038832D01*
X183052129Y-113038832D02*
X183128320Y-113000736D01*
X183128320Y-113000736D02*
X183204510Y-113000736D01*
X183814034Y-113534070D02*
X183814034Y-113115022D01*
X183814034Y-113115022D02*
X183775939Y-113038832D01*
X183775939Y-113038832D02*
X183699748Y-113000736D01*
X183699748Y-113000736D02*
X183547367Y-113000736D01*
X183547367Y-113000736D02*
X183471177Y-113038832D01*
X183814034Y-113495975D02*
X183737843Y-113534070D01*
X183737843Y-113534070D02*
X183547367Y-113534070D01*
X183547367Y-113534070D02*
X183471177Y-113495975D01*
X183471177Y-113495975D02*
X183433081Y-113419784D01*
X183433081Y-113419784D02*
X183433081Y-113343594D01*
X183433081Y-113343594D02*
X183471177Y-113267403D01*
X183471177Y-113267403D02*
X183547367Y-113229308D01*
X183547367Y-113229308D02*
X183737843Y-113229308D01*
X183737843Y-113229308D02*
X183814034Y-113191213D01*
X184156891Y-113495975D02*
X184233082Y-113534070D01*
X184233082Y-113534070D02*
X184385463Y-113534070D01*
X184385463Y-113534070D02*
X184461653Y-113495975D01*
X184461653Y-113495975D02*
X184499749Y-113419784D01*
X184499749Y-113419784D02*
X184499749Y-113381689D01*
X184499749Y-113381689D02*
X184461653Y-113305498D01*
X184461653Y-113305498D02*
X184385463Y-113267403D01*
X184385463Y-113267403D02*
X184271177Y-113267403D01*
X184271177Y-113267403D02*
X184194987Y-113229308D01*
X184194987Y-113229308D02*
X184156891Y-113153117D01*
X184156891Y-113153117D02*
X184156891Y-113115022D01*
X184156891Y-113115022D02*
X184194987Y-113038832D01*
X184194987Y-113038832D02*
X184271177Y-113000736D01*
X184271177Y-113000736D02*
X184385463Y-113000736D01*
X184385463Y-113000736D02*
X184461653Y-113038832D01*
X185185463Y-113534070D02*
X185185463Y-113115022D01*
X185185463Y-113115022D02*
X185147368Y-113038832D01*
X185147368Y-113038832D02*
X185071177Y-113000736D01*
X185071177Y-113000736D02*
X184918796Y-113000736D01*
X184918796Y-113000736D02*
X184842606Y-113038832D01*
X185185463Y-113495975D02*
X185109272Y-113534070D01*
X185109272Y-113534070D02*
X184918796Y-113534070D01*
X184918796Y-113534070D02*
X184842606Y-113495975D01*
X184842606Y-113495975D02*
X184804510Y-113419784D01*
X184804510Y-113419784D02*
X184804510Y-113343594D01*
X184804510Y-113343594D02*
X184842606Y-113267403D01*
X184842606Y-113267403D02*
X184918796Y-113229308D01*
X184918796Y-113229308D02*
X185109272Y-113229308D01*
X185109272Y-113229308D02*
X185185463Y-113191213D01*
X185909273Y-113534070D02*
X185909273Y-112734070D01*
X185909273Y-113495975D02*
X185833082Y-113534070D01*
X185833082Y-113534070D02*
X185680701Y-113534070D01*
X185680701Y-113534070D02*
X185604511Y-113495975D01*
X185604511Y-113495975D02*
X185566416Y-113457879D01*
X185566416Y-113457879D02*
X185528320Y-113381689D01*
X185528320Y-113381689D02*
X185528320Y-113153117D01*
X185528320Y-113153117D02*
X185566416Y-113076927D01*
X185566416Y-113076927D02*
X185604511Y-113038832D01*
X185604511Y-113038832D02*
X185680701Y-113000736D01*
X185680701Y-113000736D02*
X185833082Y-113000736D01*
X185833082Y-113000736D02*
X185909273Y-113038832D01*
X186899750Y-113534070D02*
X186899750Y-112734070D01*
X186899750Y-113115022D02*
X187356893Y-113115022D01*
X187356893Y-113534070D02*
X187356893Y-112734070D01*
X188080702Y-113534070D02*
X188080702Y-113115022D01*
X188080702Y-113115022D02*
X188042607Y-113038832D01*
X188042607Y-113038832D02*
X187966416Y-113000736D01*
X187966416Y-113000736D02*
X187814035Y-113000736D01*
X187814035Y-113000736D02*
X187737845Y-113038832D01*
X188080702Y-113495975D02*
X188004511Y-113534070D01*
X188004511Y-113534070D02*
X187814035Y-113534070D01*
X187814035Y-113534070D02*
X187737845Y-113495975D01*
X187737845Y-113495975D02*
X187699749Y-113419784D01*
X187699749Y-113419784D02*
X187699749Y-113343594D01*
X187699749Y-113343594D02*
X187737845Y-113267403D01*
X187737845Y-113267403D02*
X187814035Y-113229308D01*
X187814035Y-113229308D02*
X188004511Y-113229308D01*
X188004511Y-113229308D02*
X188080702Y-113191213D01*
X188461655Y-113534070D02*
X188461655Y-112734070D01*
X188537845Y-113229308D02*
X188766417Y-113534070D01*
X188766417Y-113000736D02*
X188461655Y-113305498D01*
X189109274Y-113534070D02*
X189109274Y-112734070D01*
X189185464Y-113229308D02*
X189414036Y-113534070D01*
X189414036Y-113000736D02*
X189109274Y-113305498D01*
X189756893Y-113534070D02*
X189756893Y-113000736D01*
X189756893Y-112734070D02*
X189718797Y-112772165D01*
X189718797Y-112772165D02*
X189756893Y-112810260D01*
X189756893Y-112810260D02*
X189794988Y-112772165D01*
X189794988Y-112772165D02*
X189756893Y-112734070D01*
X189756893Y-112734070D02*
X189756893Y-112810260D01*
X183814033Y-114060120D02*
X183737843Y-114022025D01*
X183737843Y-114022025D02*
X183623557Y-114022025D01*
X183623557Y-114022025D02*
X183509271Y-114060120D01*
X183509271Y-114060120D02*
X183433081Y-114136310D01*
X183433081Y-114136310D02*
X183394986Y-114212501D01*
X183394986Y-114212501D02*
X183356890Y-114364882D01*
X183356890Y-114364882D02*
X183356890Y-114479168D01*
X183356890Y-114479168D02*
X183394986Y-114631549D01*
X183394986Y-114631549D02*
X183433081Y-114707739D01*
X183433081Y-114707739D02*
X183509271Y-114783930D01*
X183509271Y-114783930D02*
X183623557Y-114822025D01*
X183623557Y-114822025D02*
X183699748Y-114822025D01*
X183699748Y-114822025D02*
X183814033Y-114783930D01*
X183814033Y-114783930D02*
X183852129Y-114745834D01*
X183852129Y-114745834D02*
X183852129Y-114479168D01*
X183852129Y-114479168D02*
X183699748Y-114479168D01*
X184537843Y-114288691D02*
X184537843Y-114822025D01*
X184194986Y-114288691D02*
X184194986Y-114707739D01*
X184194986Y-114707739D02*
X184233081Y-114783930D01*
X184233081Y-114783930D02*
X184309271Y-114822025D01*
X184309271Y-114822025D02*
X184423557Y-114822025D01*
X184423557Y-114822025D02*
X184499748Y-114783930D01*
X184499748Y-114783930D02*
X184537843Y-114745834D01*
X184918796Y-114288691D02*
X184918796Y-114822025D01*
X184918796Y-114364882D02*
X184956891Y-114326787D01*
X184956891Y-114326787D02*
X185033081Y-114288691D01*
X185033081Y-114288691D02*
X185147367Y-114288691D01*
X185147367Y-114288691D02*
X185223558Y-114326787D01*
X185223558Y-114326787D02*
X185261653Y-114402977D01*
X185261653Y-114402977D02*
X185261653Y-114822025D01*
X185947368Y-114783930D02*
X185871177Y-114822025D01*
X185871177Y-114822025D02*
X185718796Y-114822025D01*
X185718796Y-114822025D02*
X185642606Y-114783930D01*
X185642606Y-114783930D02*
X185604510Y-114707739D01*
X185604510Y-114707739D02*
X185604510Y-114402977D01*
X185604510Y-114402977D02*
X185642606Y-114326787D01*
X185642606Y-114326787D02*
X185718796Y-114288691D01*
X185718796Y-114288691D02*
X185871177Y-114288691D01*
X185871177Y-114288691D02*
X185947368Y-114326787D01*
X185947368Y-114326787D02*
X185985463Y-114402977D01*
X185985463Y-114402977D02*
X185985463Y-114479168D01*
X185985463Y-114479168D02*
X185604510Y-114555358D01*
X186214034Y-114288691D02*
X186518796Y-114288691D01*
X186328320Y-114022025D02*
X186328320Y-114707739D01*
X186328320Y-114707739D02*
X186366415Y-114783930D01*
X186366415Y-114783930D02*
X186442605Y-114822025D01*
X186442605Y-114822025D02*
X186518796Y-114822025D01*
X186785463Y-114822025D02*
X186785463Y-114022025D01*
X187128320Y-114822025D02*
X187128320Y-114402977D01*
X187128320Y-114402977D02*
X187090225Y-114326787D01*
X187090225Y-114326787D02*
X187014034Y-114288691D01*
X187014034Y-114288691D02*
X186899748Y-114288691D01*
X186899748Y-114288691D02*
X186823558Y-114326787D01*
X186823558Y-114326787D02*
X186785463Y-114364882D01*
X187509273Y-114822025D02*
X187509273Y-114288691D01*
X187509273Y-114441072D02*
X187547368Y-114364882D01*
X187547368Y-114364882D02*
X187585463Y-114326787D01*
X187585463Y-114326787D02*
X187661654Y-114288691D01*
X187661654Y-114288691D02*
X187737844Y-114288691D01*
X188347368Y-114822025D02*
X188347368Y-114402977D01*
X188347368Y-114402977D02*
X188309273Y-114326787D01*
X188309273Y-114326787D02*
X188233082Y-114288691D01*
X188233082Y-114288691D02*
X188080701Y-114288691D01*
X188080701Y-114288691D02*
X188004511Y-114326787D01*
X188347368Y-114783930D02*
X188271177Y-114822025D01*
X188271177Y-114822025D02*
X188080701Y-114822025D01*
X188080701Y-114822025D02*
X188004511Y-114783930D01*
X188004511Y-114783930D02*
X187966415Y-114707739D01*
X187966415Y-114707739D02*
X187966415Y-114631549D01*
X187966415Y-114631549D02*
X188004511Y-114555358D01*
X188004511Y-114555358D02*
X188080701Y-114517263D01*
X188080701Y-114517263D02*
X188271177Y-114517263D01*
X188271177Y-114517263D02*
X188347368Y-114479168D01*
X189604511Y-114402977D02*
X189718797Y-114441072D01*
X189718797Y-114441072D02*
X189756892Y-114479168D01*
X189756892Y-114479168D02*
X189794988Y-114555358D01*
X189794988Y-114555358D02*
X189794988Y-114669644D01*
X189794988Y-114669644D02*
X189756892Y-114745834D01*
X189756892Y-114745834D02*
X189718797Y-114783930D01*
X189718797Y-114783930D02*
X189642607Y-114822025D01*
X189642607Y-114822025D02*
X189337845Y-114822025D01*
X189337845Y-114822025D02*
X189337845Y-114022025D01*
X189337845Y-114022025D02*
X189604511Y-114022025D01*
X189604511Y-114022025D02*
X189680702Y-114060120D01*
X189680702Y-114060120D02*
X189718797Y-114098215D01*
X189718797Y-114098215D02*
X189756892Y-114174406D01*
X189756892Y-114174406D02*
X189756892Y-114250596D01*
X189756892Y-114250596D02*
X189718797Y-114326787D01*
X189718797Y-114326787D02*
X189680702Y-114364882D01*
X189680702Y-114364882D02*
X189604511Y-114402977D01*
X189604511Y-114402977D02*
X189337845Y-114402977D01*
X180956891Y-116071885D02*
X181071177Y-116109980D01*
X181071177Y-116109980D02*
X181261653Y-116109980D01*
X181261653Y-116109980D02*
X181337844Y-116071885D01*
X181337844Y-116071885D02*
X181375939Y-116033789D01*
X181375939Y-116033789D02*
X181414034Y-115957599D01*
X181414034Y-115957599D02*
X181414034Y-115881408D01*
X181414034Y-115881408D02*
X181375939Y-115805218D01*
X181375939Y-115805218D02*
X181337844Y-115767123D01*
X181337844Y-115767123D02*
X181261653Y-115729027D01*
X181261653Y-115729027D02*
X181109272Y-115690932D01*
X181109272Y-115690932D02*
X181033082Y-115652837D01*
X181033082Y-115652837D02*
X180994987Y-115614742D01*
X180994987Y-115614742D02*
X180956891Y-115538551D01*
X180956891Y-115538551D02*
X180956891Y-115462361D01*
X180956891Y-115462361D02*
X180994987Y-115386170D01*
X180994987Y-115386170D02*
X181033082Y-115348075D01*
X181033082Y-115348075D02*
X181109272Y-115309980D01*
X181109272Y-115309980D02*
X181299749Y-115309980D01*
X181299749Y-115309980D02*
X181414034Y-115348075D01*
X181756892Y-116109980D02*
X181756892Y-115576646D01*
X181756892Y-115729027D02*
X181794987Y-115652837D01*
X181794987Y-115652837D02*
X181833082Y-115614742D01*
X181833082Y-115614742D02*
X181909273Y-115576646D01*
X181909273Y-115576646D02*
X181985463Y-115576646D01*
X182556892Y-116071885D02*
X182480701Y-116109980D01*
X182480701Y-116109980D02*
X182328320Y-116109980D01*
X182328320Y-116109980D02*
X182252130Y-116071885D01*
X182252130Y-116071885D02*
X182214034Y-115995694D01*
X182214034Y-115995694D02*
X182214034Y-115690932D01*
X182214034Y-115690932D02*
X182252130Y-115614742D01*
X182252130Y-115614742D02*
X182328320Y-115576646D01*
X182328320Y-115576646D02*
X182480701Y-115576646D01*
X182480701Y-115576646D02*
X182556892Y-115614742D01*
X182556892Y-115614742D02*
X182594987Y-115690932D01*
X182594987Y-115690932D02*
X182594987Y-115767123D01*
X182594987Y-115767123D02*
X182214034Y-115843313D01*
X183242606Y-116071885D02*
X183166415Y-116109980D01*
X183166415Y-116109980D02*
X183014034Y-116109980D01*
X183014034Y-116109980D02*
X182937844Y-116071885D01*
X182937844Y-116071885D02*
X182899748Y-115995694D01*
X182899748Y-115995694D02*
X182899748Y-115690932D01*
X182899748Y-115690932D02*
X182937844Y-115614742D01*
X182937844Y-115614742D02*
X183014034Y-115576646D01*
X183014034Y-115576646D02*
X183166415Y-115576646D01*
X183166415Y-115576646D02*
X183242606Y-115614742D01*
X183242606Y-115614742D02*
X183280701Y-115690932D01*
X183280701Y-115690932D02*
X183280701Y-115767123D01*
X183280701Y-115767123D02*
X182899748Y-115843313D01*
X183623558Y-116109980D02*
X183623558Y-115309980D01*
X183699748Y-115805218D02*
X183928320Y-116109980D01*
X183928320Y-115576646D02*
X183623558Y-115881408D01*
X184614034Y-116109980D02*
X184614034Y-115690932D01*
X184614034Y-115690932D02*
X184575939Y-115614742D01*
X184575939Y-115614742D02*
X184499748Y-115576646D01*
X184499748Y-115576646D02*
X184347367Y-115576646D01*
X184347367Y-115576646D02*
X184271177Y-115614742D01*
X184614034Y-116071885D02*
X184537843Y-116109980D01*
X184537843Y-116109980D02*
X184347367Y-116109980D01*
X184347367Y-116109980D02*
X184271177Y-116071885D01*
X184271177Y-116071885D02*
X184233081Y-115995694D01*
X184233081Y-115995694D02*
X184233081Y-115919504D01*
X184233081Y-115919504D02*
X184271177Y-115843313D01*
X184271177Y-115843313D02*
X184347367Y-115805218D01*
X184347367Y-115805218D02*
X184537843Y-115805218D01*
X184537843Y-115805218D02*
X184614034Y-115767123D01*
X184994987Y-116109980D02*
X184994987Y-115576646D01*
X184994987Y-115729027D02*
X185033082Y-115652837D01*
X185033082Y-115652837D02*
X185071177Y-115614742D01*
X185071177Y-115614742D02*
X185147368Y-115576646D01*
X185147368Y-115576646D02*
X185223558Y-115576646D01*
X186556892Y-116033789D02*
X186518796Y-116071885D01*
X186518796Y-116071885D02*
X186404511Y-116109980D01*
X186404511Y-116109980D02*
X186328320Y-116109980D01*
X186328320Y-116109980D02*
X186214034Y-116071885D01*
X186214034Y-116071885D02*
X186137844Y-115995694D01*
X186137844Y-115995694D02*
X186099749Y-115919504D01*
X186099749Y-115919504D02*
X186061653Y-115767123D01*
X186061653Y-115767123D02*
X186061653Y-115652837D01*
X186061653Y-115652837D02*
X186099749Y-115500456D01*
X186099749Y-115500456D02*
X186137844Y-115424265D01*
X186137844Y-115424265D02*
X186214034Y-115348075D01*
X186214034Y-115348075D02*
X186328320Y-115309980D01*
X186328320Y-115309980D02*
X186404511Y-115309980D01*
X186404511Y-115309980D02*
X186518796Y-115348075D01*
X186518796Y-115348075D02*
X186556892Y-115386170D01*
X186899749Y-116109980D02*
X186899749Y-115309980D01*
X187242606Y-116109980D02*
X187242606Y-115690932D01*
X187242606Y-115690932D02*
X187204511Y-115614742D01*
X187204511Y-115614742D02*
X187128320Y-115576646D01*
X187128320Y-115576646D02*
X187014034Y-115576646D01*
X187014034Y-115576646D02*
X186937844Y-115614742D01*
X186937844Y-115614742D02*
X186899749Y-115652837D01*
X187928321Y-116071885D02*
X187852130Y-116109980D01*
X187852130Y-116109980D02*
X187699749Y-116109980D01*
X187699749Y-116109980D02*
X187623559Y-116071885D01*
X187623559Y-116071885D02*
X187585463Y-115995694D01*
X187585463Y-115995694D02*
X187585463Y-115690932D01*
X187585463Y-115690932D02*
X187623559Y-115614742D01*
X187623559Y-115614742D02*
X187699749Y-115576646D01*
X187699749Y-115576646D02*
X187852130Y-115576646D01*
X187852130Y-115576646D02*
X187928321Y-115614742D01*
X187928321Y-115614742D02*
X187966416Y-115690932D01*
X187966416Y-115690932D02*
X187966416Y-115767123D01*
X187966416Y-115767123D02*
X187585463Y-115843313D01*
X188614035Y-116071885D02*
X188537844Y-116109980D01*
X188537844Y-116109980D02*
X188385463Y-116109980D01*
X188385463Y-116109980D02*
X188309273Y-116071885D01*
X188309273Y-116071885D02*
X188271177Y-115995694D01*
X188271177Y-115995694D02*
X188271177Y-115690932D01*
X188271177Y-115690932D02*
X188309273Y-115614742D01*
X188309273Y-115614742D02*
X188385463Y-115576646D01*
X188385463Y-115576646D02*
X188537844Y-115576646D01*
X188537844Y-115576646D02*
X188614035Y-115614742D01*
X188614035Y-115614742D02*
X188652130Y-115690932D01*
X188652130Y-115690932D02*
X188652130Y-115767123D01*
X188652130Y-115767123D02*
X188271177Y-115843313D01*
X189109272Y-116109980D02*
X189033082Y-116071885D01*
X189033082Y-116071885D02*
X188994987Y-115995694D01*
X188994987Y-115995694D02*
X188994987Y-115309980D01*
X189756892Y-116109980D02*
X189756892Y-115690932D01*
X189756892Y-115690932D02*
X189718797Y-115614742D01*
X189718797Y-115614742D02*
X189642606Y-115576646D01*
X189642606Y-115576646D02*
X189490225Y-115576646D01*
X189490225Y-115576646D02*
X189414035Y-115614742D01*
X189756892Y-116071885D02*
X189680701Y-116109980D01*
X189680701Y-116109980D02*
X189490225Y-116109980D01*
X189490225Y-116109980D02*
X189414035Y-116071885D01*
X189414035Y-116071885D02*
X189375939Y-115995694D01*
X189375939Y-115995694D02*
X189375939Y-115919504D01*
X189375939Y-115919504D02*
X189414035Y-115843313D01*
X189414035Y-115843313D02*
X189490225Y-115805218D01*
X189490225Y-115805218D02*
X189680701Y-115805218D01*
X189680701Y-115805218D02*
X189756892Y-115767123D01*
X180118795Y-116978887D02*
X180233081Y-117016982D01*
X180233081Y-117016982D02*
X180271176Y-117055078D01*
X180271176Y-117055078D02*
X180309272Y-117131268D01*
X180309272Y-117131268D02*
X180309272Y-117245554D01*
X180309272Y-117245554D02*
X180271176Y-117321744D01*
X180271176Y-117321744D02*
X180233081Y-117359840D01*
X180233081Y-117359840D02*
X180156891Y-117397935D01*
X180156891Y-117397935D02*
X179852129Y-117397935D01*
X179852129Y-117397935D02*
X179852129Y-116597935D01*
X179852129Y-116597935D02*
X180118795Y-116597935D01*
X180118795Y-116597935D02*
X180194986Y-116636030D01*
X180194986Y-116636030D02*
X180233081Y-116674125D01*
X180233081Y-116674125D02*
X180271176Y-116750316D01*
X180271176Y-116750316D02*
X180271176Y-116826506D01*
X180271176Y-116826506D02*
X180233081Y-116902697D01*
X180233081Y-116902697D02*
X180194986Y-116940792D01*
X180194986Y-116940792D02*
X180118795Y-116978887D01*
X180118795Y-116978887D02*
X179852129Y-116978887D01*
X180994986Y-117397935D02*
X180994986Y-116978887D01*
X180994986Y-116978887D02*
X180956891Y-116902697D01*
X180956891Y-116902697D02*
X180880700Y-116864601D01*
X180880700Y-116864601D02*
X180728319Y-116864601D01*
X180728319Y-116864601D02*
X180652129Y-116902697D01*
X180994986Y-117359840D02*
X180918795Y-117397935D01*
X180918795Y-117397935D02*
X180728319Y-117397935D01*
X180728319Y-117397935D02*
X180652129Y-117359840D01*
X180652129Y-117359840D02*
X180614033Y-117283649D01*
X180614033Y-117283649D02*
X180614033Y-117207459D01*
X180614033Y-117207459D02*
X180652129Y-117131268D01*
X180652129Y-117131268D02*
X180728319Y-117093173D01*
X180728319Y-117093173D02*
X180918795Y-117093173D01*
X180918795Y-117093173D02*
X180994986Y-117055078D01*
X181261653Y-116864601D02*
X181566415Y-116864601D01*
X181375939Y-116597935D02*
X181375939Y-117283649D01*
X181375939Y-117283649D02*
X181414034Y-117359840D01*
X181414034Y-117359840D02*
X181490224Y-117397935D01*
X181490224Y-117397935D02*
X181566415Y-117397935D01*
X182175939Y-117359840D02*
X182099748Y-117397935D01*
X182099748Y-117397935D02*
X181947367Y-117397935D01*
X181947367Y-117397935D02*
X181871177Y-117359840D01*
X181871177Y-117359840D02*
X181833082Y-117321744D01*
X181833082Y-117321744D02*
X181794986Y-117245554D01*
X181794986Y-117245554D02*
X181794986Y-117016982D01*
X181794986Y-117016982D02*
X181833082Y-116940792D01*
X181833082Y-116940792D02*
X181871177Y-116902697D01*
X181871177Y-116902697D02*
X181947367Y-116864601D01*
X181947367Y-116864601D02*
X182099748Y-116864601D01*
X182099748Y-116864601D02*
X182175939Y-116902697D01*
X182518796Y-117397935D02*
X182518796Y-116597935D01*
X182861653Y-117397935D02*
X182861653Y-116978887D01*
X182861653Y-116978887D02*
X182823558Y-116902697D01*
X182823558Y-116902697D02*
X182747367Y-116864601D01*
X182747367Y-116864601D02*
X182633081Y-116864601D01*
X182633081Y-116864601D02*
X182556891Y-116902697D01*
X182556891Y-116902697D02*
X182518796Y-116940792D01*
X183966415Y-117397935D02*
X183890225Y-117359840D01*
X183890225Y-117359840D02*
X183852130Y-117321744D01*
X183852130Y-117321744D02*
X183814034Y-117245554D01*
X183814034Y-117245554D02*
X183814034Y-117016982D01*
X183814034Y-117016982D02*
X183852130Y-116940792D01*
X183852130Y-116940792D02*
X183890225Y-116902697D01*
X183890225Y-116902697D02*
X183966415Y-116864601D01*
X183966415Y-116864601D02*
X184080701Y-116864601D01*
X184080701Y-116864601D02*
X184156892Y-116902697D01*
X184156892Y-116902697D02*
X184194987Y-116940792D01*
X184194987Y-116940792D02*
X184233082Y-117016982D01*
X184233082Y-117016982D02*
X184233082Y-117245554D01*
X184233082Y-117245554D02*
X184194987Y-117321744D01*
X184194987Y-117321744D02*
X184156892Y-117359840D01*
X184156892Y-117359840D02*
X184080701Y-117397935D01*
X184080701Y-117397935D02*
X183966415Y-117397935D01*
X184461654Y-116864601D02*
X184766416Y-116864601D01*
X184575940Y-117397935D02*
X184575940Y-116712220D01*
X184575940Y-116712220D02*
X184614035Y-116636030D01*
X184614035Y-116636030D02*
X184690225Y-116597935D01*
X184690225Y-116597935D02*
X184766416Y-116597935D01*
X185642607Y-117397935D02*
X185642607Y-116597935D01*
X186480702Y-117321744D02*
X186442606Y-117359840D01*
X186442606Y-117359840D02*
X186328321Y-117397935D01*
X186328321Y-117397935D02*
X186252130Y-117397935D01*
X186252130Y-117397935D02*
X186137844Y-117359840D01*
X186137844Y-117359840D02*
X186061654Y-117283649D01*
X186061654Y-117283649D02*
X186023559Y-117207459D01*
X186023559Y-117207459D02*
X185985463Y-117055078D01*
X185985463Y-117055078D02*
X185985463Y-116940792D01*
X185985463Y-116940792D02*
X186023559Y-116788411D01*
X186023559Y-116788411D02*
X186061654Y-116712220D01*
X186061654Y-116712220D02*
X186137844Y-116636030D01*
X186137844Y-116636030D02*
X186252130Y-116597935D01*
X186252130Y-116597935D02*
X186328321Y-116597935D01*
X186328321Y-116597935D02*
X186442606Y-116636030D01*
X186442606Y-116636030D02*
X186480702Y-116674125D01*
X186823559Y-117397935D02*
X186823559Y-116597935D01*
X186823559Y-116597935D02*
X187014035Y-116597935D01*
X187014035Y-116597935D02*
X187128321Y-116636030D01*
X187128321Y-116636030D02*
X187204511Y-116712220D01*
X187204511Y-116712220D02*
X187242606Y-116788411D01*
X187242606Y-116788411D02*
X187280702Y-116940792D01*
X187280702Y-116940792D02*
X187280702Y-117055078D01*
X187280702Y-117055078D02*
X187242606Y-117207459D01*
X187242606Y-117207459D02*
X187204511Y-117283649D01*
X187204511Y-117283649D02*
X187128321Y-117359840D01*
X187128321Y-117359840D02*
X187014035Y-117397935D01*
X187014035Y-117397935D02*
X186823559Y-117397935D01*
X187509273Y-116597935D02*
X187966416Y-116597935D01*
X187737844Y-117397935D02*
X187737844Y-116597935D01*
X188271178Y-116597935D02*
X188194987Y-116750316D01*
X188575939Y-116674125D02*
X188614035Y-116636030D01*
X188614035Y-116636030D02*
X188690225Y-116597935D01*
X188690225Y-116597935D02*
X188880701Y-116597935D01*
X188880701Y-116597935D02*
X188956892Y-116636030D01*
X188956892Y-116636030D02*
X188994987Y-116674125D01*
X188994987Y-116674125D02*
X189033082Y-116750316D01*
X189033082Y-116750316D02*
X189033082Y-116826506D01*
X189033082Y-116826506D02*
X188994987Y-116940792D01*
X188994987Y-116940792D02*
X188537844Y-117397935D01*
X188537844Y-117397935D02*
X189033082Y-117397935D01*
X189337844Y-116674125D02*
X189375940Y-116636030D01*
X189375940Y-116636030D02*
X189452130Y-116597935D01*
X189452130Y-116597935D02*
X189642606Y-116597935D01*
X189642606Y-116597935D02*
X189718797Y-116636030D01*
X189718797Y-116636030D02*
X189756892Y-116674125D01*
X189756892Y-116674125D02*
X189794987Y-116750316D01*
X189794987Y-116750316D02*
X189794987Y-116826506D01*
X189794987Y-116826506D02*
X189756892Y-116940792D01*
X189756892Y-116940792D02*
X189299749Y-117397935D01*
X189299749Y-117397935D02*
X189794987Y-117397935D01*
D11*
X190129961Y-98461503D02*
X188129961Y-98937693D01*
X188129961Y-98937693D02*
X189558533Y-99318646D01*
X189558533Y-99318646D02*
X188129961Y-99699598D01*
X188129961Y-99699598D02*
X190129961Y-100175789D01*
X188129961Y-100937693D02*
X190129961Y-100937693D01*
X190129961Y-100937693D02*
X190129961Y-101699598D01*
X190129961Y-101699598D02*
X190034723Y-101890074D01*
X190034723Y-101890074D02*
X189939485Y-101985312D01*
X189939485Y-101985312D02*
X189749009Y-102080550D01*
X189749009Y-102080550D02*
X189463295Y-102080550D01*
X189463295Y-102080550D02*
X189272819Y-101985312D01*
X189272819Y-101985312D02*
X189177580Y-101890074D01*
X189177580Y-101890074D02*
X189082342Y-101699598D01*
X189082342Y-101699598D02*
X189082342Y-100937693D01*
X188891866Y-102937693D02*
X188891866Y-104461503D01*
X189177580Y-105413883D02*
X189177580Y-106080550D01*
X188129961Y-106366264D02*
X188129961Y-105413883D01*
X188129961Y-105413883D02*
X190129961Y-105413883D01*
X190129961Y-105413883D02*
X190129961Y-106366264D01*
X188320438Y-108366264D02*
X188225200Y-108271026D01*
X188225200Y-108271026D02*
X188129961Y-107985312D01*
X188129961Y-107985312D02*
X188129961Y-107794836D01*
X188129961Y-107794836D02*
X188225200Y-107509121D01*
X188225200Y-107509121D02*
X188415676Y-107318645D01*
X188415676Y-107318645D02*
X188606152Y-107223407D01*
X188606152Y-107223407D02*
X188987104Y-107128169D01*
X188987104Y-107128169D02*
X189272819Y-107128169D01*
X189272819Y-107128169D02*
X189653771Y-107223407D01*
X189653771Y-107223407D02*
X189844247Y-107318645D01*
X189844247Y-107318645D02*
X190034723Y-107509121D01*
X190034723Y-107509121D02*
X190129961Y-107794836D01*
X190129961Y-107794836D02*
X190129961Y-107985312D01*
X190129961Y-107985312D02*
X190034723Y-108271026D01*
X190034723Y-108271026D02*
X189939485Y-108366264D01*
X190034723Y-110271026D02*
X190129961Y-110080550D01*
X190129961Y-110080550D02*
X190129961Y-109794836D01*
X190129961Y-109794836D02*
X190034723Y-109509121D01*
X190034723Y-109509121D02*
X189844247Y-109318645D01*
X189844247Y-109318645D02*
X189653771Y-109223407D01*
X189653771Y-109223407D02*
X189272819Y-109128169D01*
X189272819Y-109128169D02*
X188987104Y-109128169D01*
X188987104Y-109128169D02*
X188606152Y-109223407D01*
X188606152Y-109223407D02*
X188415676Y-109318645D01*
X188415676Y-109318645D02*
X188225200Y-109509121D01*
X188225200Y-109509121D02*
X188129961Y-109794836D01*
X188129961Y-109794836D02*
X188129961Y-109985312D01*
X188129961Y-109985312D02*
X188225200Y-110271026D01*
X188225200Y-110271026D02*
X188320438Y-110366264D01*
X188320438Y-110366264D02*
X188987104Y-110366264D01*
X188987104Y-110366264D02*
X188987104Y-109985312D01*
D13*
X172143333Y-110234819D02*
X171810000Y-109758628D01*
X171571905Y-110234819D02*
X171571905Y-109234819D01*
X171571905Y-109234819D02*
X171952857Y-109234819D01*
X171952857Y-109234819D02*
X172048095Y-109282438D01*
X172048095Y-109282438D02*
X172095714Y-109330057D01*
X172095714Y-109330057D02*
X172143333Y-109425295D01*
X172143333Y-109425295D02*
X172143333Y-109568152D01*
X172143333Y-109568152D02*
X172095714Y-109663390D01*
X172095714Y-109663390D02*
X172048095Y-109711009D01*
X172048095Y-109711009D02*
X171952857Y-109758628D01*
X171952857Y-109758628D02*
X171571905Y-109758628D01*
X173000476Y-109568152D02*
X173000476Y-110234819D01*
X172762381Y-109187200D02*
X172524286Y-109901485D01*
X172524286Y-109901485D02*
X173143333Y-109901485D01*
X141509580Y-92032857D02*
X141557200Y-92080476D01*
X141557200Y-92080476D02*
X141604819Y-92223333D01*
X141604819Y-92223333D02*
X141604819Y-92318571D01*
X141604819Y-92318571D02*
X141557200Y-92461428D01*
X141557200Y-92461428D02*
X141461961Y-92556666D01*
X141461961Y-92556666D02*
X141366723Y-92604285D01*
X141366723Y-92604285D02*
X141176247Y-92651904D01*
X141176247Y-92651904D02*
X141033390Y-92651904D01*
X141033390Y-92651904D02*
X140842914Y-92604285D01*
X140842914Y-92604285D02*
X140747676Y-92556666D01*
X140747676Y-92556666D02*
X140652438Y-92461428D01*
X140652438Y-92461428D02*
X140604819Y-92318571D01*
X140604819Y-92318571D02*
X140604819Y-92223333D01*
X140604819Y-92223333D02*
X140652438Y-92080476D01*
X140652438Y-92080476D02*
X140700057Y-92032857D01*
X141604819Y-91080476D02*
X141604819Y-91651904D01*
X141604819Y-91366190D02*
X140604819Y-91366190D01*
X140604819Y-91366190D02*
X140747676Y-91461428D01*
X140747676Y-91461428D02*
X140842914Y-91556666D01*
X140842914Y-91556666D02*
X140890533Y-91651904D01*
X141604819Y-90128095D02*
X141604819Y-90699523D01*
X141604819Y-90413809D02*
X140604819Y-90413809D01*
X140604819Y-90413809D02*
X140747676Y-90509047D01*
X140747676Y-90509047D02*
X140842914Y-90604285D01*
X140842914Y-90604285D02*
X140890533Y-90699523D01*
X168898333Y-110159819D02*
X168565000Y-109683628D01*
X168326905Y-110159819D02*
X168326905Y-109159819D01*
X168326905Y-109159819D02*
X168707857Y-109159819D01*
X168707857Y-109159819D02*
X168803095Y-109207438D01*
X168803095Y-109207438D02*
X168850714Y-109255057D01*
X168850714Y-109255057D02*
X168898333Y-109350295D01*
X168898333Y-109350295D02*
X168898333Y-109493152D01*
X168898333Y-109493152D02*
X168850714Y-109588390D01*
X168850714Y-109588390D02*
X168803095Y-109636009D01*
X168803095Y-109636009D02*
X168707857Y-109683628D01*
X168707857Y-109683628D02*
X168326905Y-109683628D01*
X169755476Y-109159819D02*
X169565000Y-109159819D01*
X169565000Y-109159819D02*
X169469762Y-109207438D01*
X169469762Y-109207438D02*
X169422143Y-109255057D01*
X169422143Y-109255057D02*
X169326905Y-109397914D01*
X169326905Y-109397914D02*
X169279286Y-109588390D01*
X169279286Y-109588390D02*
X169279286Y-109969342D01*
X169279286Y-109969342D02*
X169326905Y-110064580D01*
X169326905Y-110064580D02*
X169374524Y-110112200D01*
X169374524Y-110112200D02*
X169469762Y-110159819D01*
X169469762Y-110159819D02*
X169660238Y-110159819D01*
X169660238Y-110159819D02*
X169755476Y-110112200D01*
X169755476Y-110112200D02*
X169803095Y-110064580D01*
X169803095Y-110064580D02*
X169850714Y-109969342D01*
X169850714Y-109969342D02*
X169850714Y-109731247D01*
X169850714Y-109731247D02*
X169803095Y-109636009D01*
X169803095Y-109636009D02*
X169755476Y-109588390D01*
X169755476Y-109588390D02*
X169660238Y-109540771D01*
X169660238Y-109540771D02*
X169469762Y-109540771D01*
X169469762Y-109540771D02*
X169374524Y-109588390D01*
X169374524Y-109588390D02*
X169326905Y-109636009D01*
X169326905Y-109636009D02*
X169279286Y-109731247D01*
X184369580Y-92976666D02*
X184417200Y-93024285D01*
X184417200Y-93024285D02*
X184464819Y-93167142D01*
X184464819Y-93167142D02*
X184464819Y-93262380D01*
X184464819Y-93262380D02*
X184417200Y-93405237D01*
X184417200Y-93405237D02*
X184321961Y-93500475D01*
X184321961Y-93500475D02*
X184226723Y-93548094D01*
X184226723Y-93548094D02*
X184036247Y-93595713D01*
X184036247Y-93595713D02*
X183893390Y-93595713D01*
X183893390Y-93595713D02*
X183702914Y-93548094D01*
X183702914Y-93548094D02*
X183607676Y-93500475D01*
X183607676Y-93500475D02*
X183512438Y-93405237D01*
X183512438Y-93405237D02*
X183464819Y-93262380D01*
X183464819Y-93262380D02*
X183464819Y-93167142D01*
X183464819Y-93167142D02*
X183512438Y-93024285D01*
X183512438Y-93024285D02*
X183560057Y-92976666D01*
X183464819Y-92643332D02*
X183464819Y-91976666D01*
X183464819Y-91976666D02*
X184464819Y-92405237D01*
X187228333Y-97477319D02*
X186895000Y-97001128D01*
X186656905Y-97477319D02*
X186656905Y-96477319D01*
X186656905Y-96477319D02*
X187037857Y-96477319D01*
X187037857Y-96477319D02*
X187133095Y-96524938D01*
X187133095Y-96524938D02*
X187180714Y-96572557D01*
X187180714Y-96572557D02*
X187228333Y-96667795D01*
X187228333Y-96667795D02*
X187228333Y-96810652D01*
X187228333Y-96810652D02*
X187180714Y-96905890D01*
X187180714Y-96905890D02*
X187133095Y-96953509D01*
X187133095Y-96953509D02*
X187037857Y-97001128D01*
X187037857Y-97001128D02*
X186656905Y-97001128D01*
X187704524Y-97477319D02*
X187895000Y-97477319D01*
X187895000Y-97477319D02*
X187990238Y-97429700D01*
X187990238Y-97429700D02*
X188037857Y-97382080D01*
X188037857Y-97382080D02*
X188133095Y-97239223D01*
X188133095Y-97239223D02*
X188180714Y-97048747D01*
X188180714Y-97048747D02*
X188180714Y-96667795D01*
X188180714Y-96667795D02*
X188133095Y-96572557D01*
X188133095Y-96572557D02*
X188085476Y-96524938D01*
X188085476Y-96524938D02*
X187990238Y-96477319D01*
X187990238Y-96477319D02*
X187799762Y-96477319D01*
X187799762Y-96477319D02*
X187704524Y-96524938D01*
X187704524Y-96524938D02*
X187656905Y-96572557D01*
X187656905Y-96572557D02*
X187609286Y-96667795D01*
X187609286Y-96667795D02*
X187609286Y-96905890D01*
X187609286Y-96905890D02*
X187656905Y-97001128D01*
X187656905Y-97001128D02*
X187704524Y-97048747D01*
X187704524Y-97048747D02*
X187799762Y-97096366D01*
X187799762Y-97096366D02*
X187990238Y-97096366D01*
X187990238Y-97096366D02*
X188085476Y-97048747D01*
X188085476Y-97048747D02*
X188133095Y-97001128D01*
X188133095Y-97001128D02*
X188180714Y-96905890D01*
X179158333Y-97489580D02*
X179110714Y-97537200D01*
X179110714Y-97537200D02*
X178967857Y-97584819D01*
X178967857Y-97584819D02*
X178872619Y-97584819D01*
X178872619Y-97584819D02*
X178729762Y-97537200D01*
X178729762Y-97537200D02*
X178634524Y-97441961D01*
X178634524Y-97441961D02*
X178586905Y-97346723D01*
X178586905Y-97346723D02*
X178539286Y-97156247D01*
X178539286Y-97156247D02*
X178539286Y-97013390D01*
X178539286Y-97013390D02*
X178586905Y-96822914D01*
X178586905Y-96822914D02*
X178634524Y-96727676D01*
X178634524Y-96727676D02*
X178729762Y-96632438D01*
X178729762Y-96632438D02*
X178872619Y-96584819D01*
X178872619Y-96584819D02*
X178967857Y-96584819D01*
X178967857Y-96584819D02*
X179110714Y-96632438D01*
X179110714Y-96632438D02*
X179158333Y-96680057D01*
X179539286Y-96680057D02*
X179586905Y-96632438D01*
X179586905Y-96632438D02*
X179682143Y-96584819D01*
X179682143Y-96584819D02*
X179920238Y-96584819D01*
X179920238Y-96584819D02*
X180015476Y-96632438D01*
X180015476Y-96632438D02*
X180063095Y-96680057D01*
X180063095Y-96680057D02*
X180110714Y-96775295D01*
X180110714Y-96775295D02*
X180110714Y-96870533D01*
X180110714Y-96870533D02*
X180063095Y-97013390D01*
X180063095Y-97013390D02*
X179491667Y-97584819D01*
X179491667Y-97584819D02*
X180110714Y-97584819D01*
X167044819Y-97056666D02*
X166568628Y-97389999D01*
X167044819Y-97628094D02*
X166044819Y-97628094D01*
X166044819Y-97628094D02*
X166044819Y-97247142D01*
X166044819Y-97247142D02*
X166092438Y-97151904D01*
X166092438Y-97151904D02*
X166140057Y-97104285D01*
X166140057Y-97104285D02*
X166235295Y-97056666D01*
X166235295Y-97056666D02*
X166378152Y-97056666D01*
X166378152Y-97056666D02*
X166473390Y-97104285D01*
X166473390Y-97104285D02*
X166521009Y-97151904D01*
X166521009Y-97151904D02*
X166568628Y-97247142D01*
X166568628Y-97247142D02*
X166568628Y-97628094D01*
X166044819Y-96723332D02*
X166044819Y-96104285D01*
X166044819Y-96104285D02*
X166425771Y-96437618D01*
X166425771Y-96437618D02*
X166425771Y-96294761D01*
X166425771Y-96294761D02*
X166473390Y-96199523D01*
X166473390Y-96199523D02*
X166521009Y-96151904D01*
X166521009Y-96151904D02*
X166616247Y-96104285D01*
X166616247Y-96104285D02*
X166854342Y-96104285D01*
X166854342Y-96104285D02*
X166949580Y-96151904D01*
X166949580Y-96151904D02*
X166997200Y-96199523D01*
X166997200Y-96199523D02*
X167044819Y-96294761D01*
X167044819Y-96294761D02*
X167044819Y-96580475D01*
X167044819Y-96580475D02*
X166997200Y-96675713D01*
X166997200Y-96675713D02*
X166949580Y-96723332D01*
X179833333Y-101454819D02*
X179500000Y-100978628D01*
X179261905Y-101454819D02*
X179261905Y-100454819D01*
X179261905Y-100454819D02*
X179642857Y-100454819D01*
X179642857Y-100454819D02*
X179738095Y-100502438D01*
X179738095Y-100502438D02*
X179785714Y-100550057D01*
X179785714Y-100550057D02*
X179833333Y-100645295D01*
X179833333Y-100645295D02*
X179833333Y-100788152D01*
X179833333Y-100788152D02*
X179785714Y-100883390D01*
X179785714Y-100883390D02*
X179738095Y-100931009D01*
X179738095Y-100931009D02*
X179642857Y-100978628D01*
X179642857Y-100978628D02*
X179261905Y-100978628D01*
X180785714Y-101454819D02*
X180214286Y-101454819D01*
X180500000Y-101454819D02*
X180500000Y-100454819D01*
X180500000Y-100454819D02*
X180404762Y-100597676D01*
X180404762Y-100597676D02*
X180309524Y-100692914D01*
X180309524Y-100692914D02*
X180214286Y-100740533D01*
X180058333Y-107179580D02*
X180010714Y-107227200D01*
X180010714Y-107227200D02*
X179867857Y-107274819D01*
X179867857Y-107274819D02*
X179772619Y-107274819D01*
X179772619Y-107274819D02*
X179629762Y-107227200D01*
X179629762Y-107227200D02*
X179534524Y-107131961D01*
X179534524Y-107131961D02*
X179486905Y-107036723D01*
X179486905Y-107036723D02*
X179439286Y-106846247D01*
X179439286Y-106846247D02*
X179439286Y-106703390D01*
X179439286Y-106703390D02*
X179486905Y-106512914D01*
X179486905Y-106512914D02*
X179534524Y-106417676D01*
X179534524Y-106417676D02*
X179629762Y-106322438D01*
X179629762Y-106322438D02*
X179772619Y-106274819D01*
X179772619Y-106274819D02*
X179867857Y-106274819D01*
X179867857Y-106274819D02*
X180010714Y-106322438D01*
X180010714Y-106322438D02*
X180058333Y-106370057D01*
X180963095Y-106274819D02*
X180486905Y-106274819D01*
X180486905Y-106274819D02*
X180439286Y-106751009D01*
X180439286Y-106751009D02*
X180486905Y-106703390D01*
X180486905Y-106703390D02*
X180582143Y-106655771D01*
X180582143Y-106655771D02*
X180820238Y-106655771D01*
X180820238Y-106655771D02*
X180915476Y-106703390D01*
X180915476Y-106703390D02*
X180963095Y-106751009D01*
X180963095Y-106751009D02*
X181010714Y-106846247D01*
X181010714Y-106846247D02*
X181010714Y-107084342D01*
X181010714Y-107084342D02*
X180963095Y-107179580D01*
X180963095Y-107179580D02*
X180915476Y-107227200D01*
X180915476Y-107227200D02*
X180820238Y-107274819D01*
X180820238Y-107274819D02*
X180582143Y-107274819D01*
X180582143Y-107274819D02*
X180486905Y-107227200D01*
X180486905Y-107227200D02*
X180439286Y-107179580D01*
X168193333Y-100199580D02*
X168145714Y-100247200D01*
X168145714Y-100247200D02*
X168002857Y-100294819D01*
X168002857Y-100294819D02*
X167907619Y-100294819D01*
X167907619Y-100294819D02*
X167764762Y-100247200D01*
X167764762Y-100247200D02*
X167669524Y-100151961D01*
X167669524Y-100151961D02*
X167621905Y-100056723D01*
X167621905Y-100056723D02*
X167574286Y-99866247D01*
X167574286Y-99866247D02*
X167574286Y-99723390D01*
X167574286Y-99723390D02*
X167621905Y-99532914D01*
X167621905Y-99532914D02*
X167669524Y-99437676D01*
X167669524Y-99437676D02*
X167764762Y-99342438D01*
X167764762Y-99342438D02*
X167907619Y-99294819D01*
X167907619Y-99294819D02*
X168002857Y-99294819D01*
X168002857Y-99294819D02*
X168145714Y-99342438D01*
X168145714Y-99342438D02*
X168193333Y-99390057D01*
X168526667Y-99294819D02*
X169145714Y-99294819D01*
X169145714Y-99294819D02*
X168812381Y-99675771D01*
X168812381Y-99675771D02*
X168955238Y-99675771D01*
X168955238Y-99675771D02*
X169050476Y-99723390D01*
X169050476Y-99723390D02*
X169098095Y-99771009D01*
X169098095Y-99771009D02*
X169145714Y-99866247D01*
X169145714Y-99866247D02*
X169145714Y-100104342D01*
X169145714Y-100104342D02*
X169098095Y-100199580D01*
X169098095Y-100199580D02*
X169050476Y-100247200D01*
X169050476Y-100247200D02*
X168955238Y-100294819D01*
X168955238Y-100294819D02*
X168669524Y-100294819D01*
X168669524Y-100294819D02*
X168574286Y-100247200D01*
X168574286Y-100247200D02*
X168526667Y-100199580D01*
X148388095Y-80914819D02*
X148388095Y-81724342D01*
X148388095Y-81724342D02*
X148435714Y-81819580D01*
X148435714Y-81819580D02*
X148483333Y-81867200D01*
X148483333Y-81867200D02*
X148578571Y-81914819D01*
X148578571Y-81914819D02*
X148769047Y-81914819D01*
X148769047Y-81914819D02*
X148864285Y-81867200D01*
X148864285Y-81867200D02*
X148911904Y-81819580D01*
X148911904Y-81819580D02*
X148959523Y-81724342D01*
X148959523Y-81724342D02*
X148959523Y-80914819D01*
X149911904Y-80914819D02*
X149435714Y-80914819D01*
X149435714Y-80914819D02*
X149388095Y-81391009D01*
X149388095Y-81391009D02*
X149435714Y-81343390D01*
X149435714Y-81343390D02*
X149530952Y-81295771D01*
X149530952Y-81295771D02*
X149769047Y-81295771D01*
X149769047Y-81295771D02*
X149864285Y-81343390D01*
X149864285Y-81343390D02*
X149911904Y-81391009D01*
X149911904Y-81391009D02*
X149959523Y-81486247D01*
X149959523Y-81486247D02*
X149959523Y-81724342D01*
X149959523Y-81724342D02*
X149911904Y-81819580D01*
X149911904Y-81819580D02*
X149864285Y-81867200D01*
X149864285Y-81867200D02*
X149769047Y-81914819D01*
X149769047Y-81914819D02*
X149530952Y-81914819D01*
X149530952Y-81914819D02*
X149435714Y-81867200D01*
X149435714Y-81867200D02*
X149388095Y-81819580D01*
X177913333Y-93604819D02*
X177580000Y-93128628D01*
X177341905Y-93604819D02*
X177341905Y-92604819D01*
X177341905Y-92604819D02*
X177722857Y-92604819D01*
X177722857Y-92604819D02*
X177818095Y-92652438D01*
X177818095Y-92652438D02*
X177865714Y-92700057D01*
X177865714Y-92700057D02*
X177913333Y-92795295D01*
X177913333Y-92795295D02*
X177913333Y-92938152D01*
X177913333Y-92938152D02*
X177865714Y-93033390D01*
X177865714Y-93033390D02*
X177818095Y-93081009D01*
X177818095Y-93081009D02*
X177722857Y-93128628D01*
X177722857Y-93128628D02*
X177341905Y-93128628D01*
X178484762Y-93033390D02*
X178389524Y-92985771D01*
X178389524Y-92985771D02*
X178341905Y-92938152D01*
X178341905Y-92938152D02*
X178294286Y-92842914D01*
X178294286Y-92842914D02*
X178294286Y-92795295D01*
X178294286Y-92795295D02*
X178341905Y-92700057D01*
X178341905Y-92700057D02*
X178389524Y-92652438D01*
X178389524Y-92652438D02*
X178484762Y-92604819D01*
X178484762Y-92604819D02*
X178675238Y-92604819D01*
X178675238Y-92604819D02*
X178770476Y-92652438D01*
X178770476Y-92652438D02*
X178818095Y-92700057D01*
X178818095Y-92700057D02*
X178865714Y-92795295D01*
X178865714Y-92795295D02*
X178865714Y-92842914D01*
X178865714Y-92842914D02*
X178818095Y-92938152D01*
X178818095Y-92938152D02*
X178770476Y-92985771D01*
X178770476Y-92985771D02*
X178675238Y-93033390D01*
X178675238Y-93033390D02*
X178484762Y-93033390D01*
X178484762Y-93033390D02*
X178389524Y-93081009D01*
X178389524Y-93081009D02*
X178341905Y-93128628D01*
X178341905Y-93128628D02*
X178294286Y-93223866D01*
X178294286Y-93223866D02*
X178294286Y-93414342D01*
X178294286Y-93414342D02*
X178341905Y-93509580D01*
X178341905Y-93509580D02*
X178389524Y-93557200D01*
X178389524Y-93557200D02*
X178484762Y-93604819D01*
X178484762Y-93604819D02*
X178675238Y-93604819D01*
X178675238Y-93604819D02*
X178770476Y-93557200D01*
X178770476Y-93557200D02*
X178818095Y-93509580D01*
X178818095Y-93509580D02*
X178865714Y-93414342D01*
X178865714Y-93414342D02*
X178865714Y-93223866D01*
X178865714Y-93223866D02*
X178818095Y-93128628D01*
X178818095Y-93128628D02*
X178770476Y-93081009D01*
X178770476Y-93081009D02*
X178675238Y-93033390D01*
X150682142Y-108624819D02*
X150348809Y-108148628D01*
X150110714Y-108624819D02*
X150110714Y-107624819D01*
X150110714Y-107624819D02*
X150491666Y-107624819D01*
X150491666Y-107624819D02*
X150586904Y-107672438D01*
X150586904Y-107672438D02*
X150634523Y-107720057D01*
X150634523Y-107720057D02*
X150682142Y-107815295D01*
X150682142Y-107815295D02*
X150682142Y-107958152D01*
X150682142Y-107958152D02*
X150634523Y-108053390D01*
X150634523Y-108053390D02*
X150586904Y-108101009D01*
X150586904Y-108101009D02*
X150491666Y-108148628D01*
X150491666Y-108148628D02*
X150110714Y-108148628D01*
X151634523Y-108624819D02*
X151063095Y-108624819D01*
X151348809Y-108624819D02*
X151348809Y-107624819D01*
X151348809Y-107624819D02*
X151253571Y-107767676D01*
X151253571Y-107767676D02*
X151158333Y-107862914D01*
X151158333Y-107862914D02*
X151063095Y-107910533D01*
X152253571Y-107624819D02*
X152348809Y-107624819D01*
X152348809Y-107624819D02*
X152444047Y-107672438D01*
X152444047Y-107672438D02*
X152491666Y-107720057D01*
X152491666Y-107720057D02*
X152539285Y-107815295D01*
X152539285Y-107815295D02*
X152586904Y-108005771D01*
X152586904Y-108005771D02*
X152586904Y-108243866D01*
X152586904Y-108243866D02*
X152539285Y-108434342D01*
X152539285Y-108434342D02*
X152491666Y-108529580D01*
X152491666Y-108529580D02*
X152444047Y-108577200D01*
X152444047Y-108577200D02*
X152348809Y-108624819D01*
X152348809Y-108624819D02*
X152253571Y-108624819D01*
X152253571Y-108624819D02*
X152158333Y-108577200D01*
X152158333Y-108577200D02*
X152110714Y-108529580D01*
X152110714Y-108529580D02*
X152063095Y-108434342D01*
X152063095Y-108434342D02*
X152015476Y-108243866D01*
X152015476Y-108243866D02*
X152015476Y-108005771D01*
X152015476Y-108005771D02*
X152063095Y-107815295D01*
X152063095Y-107815295D02*
X152110714Y-107720057D01*
X152110714Y-107720057D02*
X152158333Y-107672438D01*
X152158333Y-107672438D02*
X152253571Y-107624819D01*
X186288333Y-85272080D02*
X186240714Y-85319700D01*
X186240714Y-85319700D02*
X186097857Y-85367319D01*
X186097857Y-85367319D02*
X186002619Y-85367319D01*
X186002619Y-85367319D02*
X185859762Y-85319700D01*
X185859762Y-85319700D02*
X185764524Y-85224461D01*
X185764524Y-85224461D02*
X185716905Y-85129223D01*
X185716905Y-85129223D02*
X185669286Y-84938747D01*
X185669286Y-84938747D02*
X185669286Y-84795890D01*
X185669286Y-84795890D02*
X185716905Y-84605414D01*
X185716905Y-84605414D02*
X185764524Y-84510176D01*
X185764524Y-84510176D02*
X185859762Y-84414938D01*
X185859762Y-84414938D02*
X186002619Y-84367319D01*
X186002619Y-84367319D02*
X186097857Y-84367319D01*
X186097857Y-84367319D02*
X186240714Y-84414938D01*
X186240714Y-84414938D02*
X186288333Y-84462557D01*
X186859762Y-84795890D02*
X186764524Y-84748271D01*
X186764524Y-84748271D02*
X186716905Y-84700652D01*
X186716905Y-84700652D02*
X186669286Y-84605414D01*
X186669286Y-84605414D02*
X186669286Y-84557795D01*
X186669286Y-84557795D02*
X186716905Y-84462557D01*
X186716905Y-84462557D02*
X186764524Y-84414938D01*
X186764524Y-84414938D02*
X186859762Y-84367319D01*
X186859762Y-84367319D02*
X187050238Y-84367319D01*
X187050238Y-84367319D02*
X187145476Y-84414938D01*
X187145476Y-84414938D02*
X187193095Y-84462557D01*
X187193095Y-84462557D02*
X187240714Y-84557795D01*
X187240714Y-84557795D02*
X187240714Y-84605414D01*
X187240714Y-84605414D02*
X187193095Y-84700652D01*
X187193095Y-84700652D02*
X187145476Y-84748271D01*
X187145476Y-84748271D02*
X187050238Y-84795890D01*
X187050238Y-84795890D02*
X186859762Y-84795890D01*
X186859762Y-84795890D02*
X186764524Y-84843509D01*
X186764524Y-84843509D02*
X186716905Y-84891128D01*
X186716905Y-84891128D02*
X186669286Y-84986366D01*
X186669286Y-84986366D02*
X186669286Y-85176842D01*
X186669286Y-85176842D02*
X186716905Y-85272080D01*
X186716905Y-85272080D02*
X186764524Y-85319700D01*
X186764524Y-85319700D02*
X186859762Y-85367319D01*
X186859762Y-85367319D02*
X187050238Y-85367319D01*
X187050238Y-85367319D02*
X187145476Y-85319700D01*
X187145476Y-85319700D02*
X187193095Y-85272080D01*
X187193095Y-85272080D02*
X187240714Y-85176842D01*
X187240714Y-85176842D02*
X187240714Y-84986366D01*
X187240714Y-84986366D02*
X187193095Y-84891128D01*
X187193095Y-84891128D02*
X187145476Y-84843509D01*
X187145476Y-84843509D02*
X187050238Y-84795890D01*
X176559580Y-88872857D02*
X176607200Y-88920476D01*
X176607200Y-88920476D02*
X176654819Y-89063333D01*
X176654819Y-89063333D02*
X176654819Y-89158571D01*
X176654819Y-89158571D02*
X176607200Y-89301428D01*
X176607200Y-89301428D02*
X176511961Y-89396666D01*
X176511961Y-89396666D02*
X176416723Y-89444285D01*
X176416723Y-89444285D02*
X176226247Y-89491904D01*
X176226247Y-89491904D02*
X176083390Y-89491904D01*
X176083390Y-89491904D02*
X175892914Y-89444285D01*
X175892914Y-89444285D02*
X175797676Y-89396666D01*
X175797676Y-89396666D02*
X175702438Y-89301428D01*
X175702438Y-89301428D02*
X175654819Y-89158571D01*
X175654819Y-89158571D02*
X175654819Y-89063333D01*
X175654819Y-89063333D02*
X175702438Y-88920476D01*
X175702438Y-88920476D02*
X175750057Y-88872857D01*
X176654819Y-87920476D02*
X176654819Y-88491904D01*
X176654819Y-88206190D02*
X175654819Y-88206190D01*
X175654819Y-88206190D02*
X175797676Y-88301428D01*
X175797676Y-88301428D02*
X175892914Y-88396666D01*
X175892914Y-88396666D02*
X175940533Y-88491904D01*
X175654819Y-87301428D02*
X175654819Y-87206190D01*
X175654819Y-87206190D02*
X175702438Y-87110952D01*
X175702438Y-87110952D02*
X175750057Y-87063333D01*
X175750057Y-87063333D02*
X175845295Y-87015714D01*
X175845295Y-87015714D02*
X176035771Y-86968095D01*
X176035771Y-86968095D02*
X176273866Y-86968095D01*
X176273866Y-86968095D02*
X176464342Y-87015714D01*
X176464342Y-87015714D02*
X176559580Y-87063333D01*
X176559580Y-87063333D02*
X176607200Y-87110952D01*
X176607200Y-87110952D02*
X176654819Y-87206190D01*
X176654819Y-87206190D02*
X176654819Y-87301428D01*
X176654819Y-87301428D02*
X176607200Y-87396666D01*
X176607200Y-87396666D02*
X176559580Y-87444285D01*
X176559580Y-87444285D02*
X176464342Y-87491904D01*
X176464342Y-87491904D02*
X176273866Y-87539523D01*
X176273866Y-87539523D02*
X176035771Y-87539523D01*
X176035771Y-87539523D02*
X175845295Y-87491904D01*
X175845295Y-87491904D02*
X175750057Y-87444285D01*
X175750057Y-87444285D02*
X175702438Y-87396666D01*
X175702438Y-87396666D02*
X175654819Y-87301428D01*
X176008333Y-110134819D02*
X175675000Y-109658628D01*
X175436905Y-110134819D02*
X175436905Y-109134819D01*
X175436905Y-109134819D02*
X175817857Y-109134819D01*
X175817857Y-109134819D02*
X175913095Y-109182438D01*
X175913095Y-109182438D02*
X175960714Y-109230057D01*
X175960714Y-109230057D02*
X176008333Y-109325295D01*
X176008333Y-109325295D02*
X176008333Y-109468152D01*
X176008333Y-109468152D02*
X175960714Y-109563390D01*
X175960714Y-109563390D02*
X175913095Y-109611009D01*
X175913095Y-109611009D02*
X175817857Y-109658628D01*
X175817857Y-109658628D02*
X175436905Y-109658628D01*
X176913095Y-109134819D02*
X176436905Y-109134819D01*
X176436905Y-109134819D02*
X176389286Y-109611009D01*
X176389286Y-109611009D02*
X176436905Y-109563390D01*
X176436905Y-109563390D02*
X176532143Y-109515771D01*
X176532143Y-109515771D02*
X176770238Y-109515771D01*
X176770238Y-109515771D02*
X176865476Y-109563390D01*
X176865476Y-109563390D02*
X176913095Y-109611009D01*
X176913095Y-109611009D02*
X176960714Y-109706247D01*
X176960714Y-109706247D02*
X176960714Y-109944342D01*
X176960714Y-109944342D02*
X176913095Y-110039580D01*
X176913095Y-110039580D02*
X176865476Y-110087200D01*
X176865476Y-110087200D02*
X176770238Y-110134819D01*
X176770238Y-110134819D02*
X176532143Y-110134819D01*
X176532143Y-110134819D02*
X176436905Y-110087200D01*
X176436905Y-110087200D02*
X176389286Y-110039580D01*
X146478095Y-100284819D02*
X146478095Y-101094342D01*
X146478095Y-101094342D02*
X146525714Y-101189580D01*
X146525714Y-101189580D02*
X146573333Y-101237200D01*
X146573333Y-101237200D02*
X146668571Y-101284819D01*
X146668571Y-101284819D02*
X146859047Y-101284819D01*
X146859047Y-101284819D02*
X146954285Y-101237200D01*
X146954285Y-101237200D02*
X147001904Y-101189580D01*
X147001904Y-101189580D02*
X147049523Y-101094342D01*
X147049523Y-101094342D02*
X147049523Y-100284819D01*
X148049523Y-101284819D02*
X147478095Y-101284819D01*
X147763809Y-101284819D02*
X147763809Y-100284819D01*
X147763809Y-100284819D02*
X147668571Y-100427676D01*
X147668571Y-100427676D02*
X147573333Y-100522914D01*
X147573333Y-100522914D02*
X147478095Y-100570533D01*
X149200000Y-93024819D02*
X149200000Y-93262914D01*
X148961905Y-93167676D02*
X149200000Y-93262914D01*
X149200000Y-93262914D02*
X149438095Y-93167676D01*
X149057143Y-93453390D02*
X149200000Y-93262914D01*
X149200000Y-93262914D02*
X149342857Y-93453390D01*
X147432142Y-111484819D02*
X147098809Y-111008628D01*
X146860714Y-111484819D02*
X146860714Y-110484819D01*
X146860714Y-110484819D02*
X147241666Y-110484819D01*
X147241666Y-110484819D02*
X147336904Y-110532438D01*
X147336904Y-110532438D02*
X147384523Y-110580057D01*
X147384523Y-110580057D02*
X147432142Y-110675295D01*
X147432142Y-110675295D02*
X147432142Y-110818152D01*
X147432142Y-110818152D02*
X147384523Y-110913390D01*
X147384523Y-110913390D02*
X147336904Y-110961009D01*
X147336904Y-110961009D02*
X147241666Y-111008628D01*
X147241666Y-111008628D02*
X146860714Y-111008628D01*
X148384523Y-111484819D02*
X147813095Y-111484819D01*
X148098809Y-111484819D02*
X148098809Y-110484819D01*
X148098809Y-110484819D02*
X148003571Y-110627676D01*
X148003571Y-110627676D02*
X147908333Y-110722914D01*
X147908333Y-110722914D02*
X147813095Y-110770533D01*
X149336904Y-111484819D02*
X148765476Y-111484819D01*
X149051190Y-111484819D02*
X149051190Y-110484819D01*
X149051190Y-110484819D02*
X148955952Y-110627676D01*
X148955952Y-110627676D02*
X148860714Y-110722914D01*
X148860714Y-110722914D02*
X148765476Y-110770533D01*
X188083333Y-94189580D02*
X188035714Y-94237200D01*
X188035714Y-94237200D02*
X187892857Y-94284819D01*
X187892857Y-94284819D02*
X187797619Y-94284819D01*
X187797619Y-94284819D02*
X187654762Y-94237200D01*
X187654762Y-94237200D02*
X187559524Y-94141961D01*
X187559524Y-94141961D02*
X187511905Y-94046723D01*
X187511905Y-94046723D02*
X187464286Y-93856247D01*
X187464286Y-93856247D02*
X187464286Y-93713390D01*
X187464286Y-93713390D02*
X187511905Y-93522914D01*
X187511905Y-93522914D02*
X187559524Y-93427676D01*
X187559524Y-93427676D02*
X187654762Y-93332438D01*
X187654762Y-93332438D02*
X187797619Y-93284819D01*
X187797619Y-93284819D02*
X187892857Y-93284819D01*
X187892857Y-93284819D02*
X188035714Y-93332438D01*
X188035714Y-93332438D02*
X188083333Y-93380057D01*
X188559524Y-94284819D02*
X188750000Y-94284819D01*
X188750000Y-94284819D02*
X188845238Y-94237200D01*
X188845238Y-94237200D02*
X188892857Y-94189580D01*
X188892857Y-94189580D02*
X188988095Y-94046723D01*
X188988095Y-94046723D02*
X189035714Y-93856247D01*
X189035714Y-93856247D02*
X189035714Y-93475295D01*
X189035714Y-93475295D02*
X188988095Y-93380057D01*
X188988095Y-93380057D02*
X188940476Y-93332438D01*
X188940476Y-93332438D02*
X188845238Y-93284819D01*
X188845238Y-93284819D02*
X188654762Y-93284819D01*
X188654762Y-93284819D02*
X188559524Y-93332438D01*
X188559524Y-93332438D02*
X188511905Y-93380057D01*
X188511905Y-93380057D02*
X188464286Y-93475295D01*
X188464286Y-93475295D02*
X188464286Y-93713390D01*
X188464286Y-93713390D02*
X188511905Y-93808628D01*
X188511905Y-93808628D02*
X188559524Y-93856247D01*
X188559524Y-93856247D02*
X188654762Y-93903866D01*
X188654762Y-93903866D02*
X188845238Y-93903866D01*
X188845238Y-93903866D02*
X188940476Y-93856247D01*
X188940476Y-93856247D02*
X188988095Y-93808628D01*
X188988095Y-93808628D02*
X189035714Y-93713390D01*
X171808333Y-92429580D02*
X171760714Y-92477200D01*
X171760714Y-92477200D02*
X171617857Y-92524819D01*
X171617857Y-92524819D02*
X171522619Y-92524819D01*
X171522619Y-92524819D02*
X171379762Y-92477200D01*
X171379762Y-92477200D02*
X171284524Y-92381961D01*
X171284524Y-92381961D02*
X171236905Y-92286723D01*
X171236905Y-92286723D02*
X171189286Y-92096247D01*
X171189286Y-92096247D02*
X171189286Y-91953390D01*
X171189286Y-91953390D02*
X171236905Y-91762914D01*
X171236905Y-91762914D02*
X171284524Y-91667676D01*
X171284524Y-91667676D02*
X171379762Y-91572438D01*
X171379762Y-91572438D02*
X171522619Y-91524819D01*
X171522619Y-91524819D02*
X171617857Y-91524819D01*
X171617857Y-91524819D02*
X171760714Y-91572438D01*
X171760714Y-91572438D02*
X171808333Y-91620057D01*
X172760714Y-92524819D02*
X172189286Y-92524819D01*
X172475000Y-92524819D02*
X172475000Y-91524819D01*
X172475000Y-91524819D02*
X172379762Y-91667676D01*
X172379762Y-91667676D02*
X172284524Y-91762914D01*
X172284524Y-91762914D02*
X172189286Y-91810533D01*
X142143333Y-96154819D02*
X141667143Y-96154819D01*
X141667143Y-96154819D02*
X141667143Y-95154819D01*
X143000476Y-96154819D02*
X142429048Y-96154819D01*
X142714762Y-96154819D02*
X142714762Y-95154819D01*
X142714762Y-95154819D02*
X142619524Y-95297676D01*
X142619524Y-95297676D02*
X142524286Y-95392914D01*
X142524286Y-95392914D02*
X142429048Y-95440533D01*
X175203333Y-106329580D02*
X175155714Y-106377200D01*
X175155714Y-106377200D02*
X175012857Y-106424819D01*
X175012857Y-106424819D02*
X174917619Y-106424819D01*
X174917619Y-106424819D02*
X174774762Y-106377200D01*
X174774762Y-106377200D02*
X174679524Y-106281961D01*
X174679524Y-106281961D02*
X174631905Y-106186723D01*
X174631905Y-106186723D02*
X174584286Y-105996247D01*
X174584286Y-105996247D02*
X174584286Y-105853390D01*
X174584286Y-105853390D02*
X174631905Y-105662914D01*
X174631905Y-105662914D02*
X174679524Y-105567676D01*
X174679524Y-105567676D02*
X174774762Y-105472438D01*
X174774762Y-105472438D02*
X174917619Y-105424819D01*
X174917619Y-105424819D02*
X175012857Y-105424819D01*
X175012857Y-105424819D02*
X175155714Y-105472438D01*
X175155714Y-105472438D02*
X175203333Y-105520057D01*
X176060476Y-105424819D02*
X175870000Y-105424819D01*
X175870000Y-105424819D02*
X175774762Y-105472438D01*
X175774762Y-105472438D02*
X175727143Y-105520057D01*
X175727143Y-105520057D02*
X175631905Y-105662914D01*
X175631905Y-105662914D02*
X175584286Y-105853390D01*
X175584286Y-105853390D02*
X175584286Y-106234342D01*
X175584286Y-106234342D02*
X175631905Y-106329580D01*
X175631905Y-106329580D02*
X175679524Y-106377200D01*
X175679524Y-106377200D02*
X175774762Y-106424819D01*
X175774762Y-106424819D02*
X175965238Y-106424819D01*
X175965238Y-106424819D02*
X176060476Y-106377200D01*
X176060476Y-106377200D02*
X176108095Y-106329580D01*
X176108095Y-106329580D02*
X176155714Y-106234342D01*
X176155714Y-106234342D02*
X176155714Y-105996247D01*
X176155714Y-105996247D02*
X176108095Y-105901009D01*
X176108095Y-105901009D02*
X176060476Y-105853390D01*
X176060476Y-105853390D02*
X175965238Y-105805771D01*
X175965238Y-105805771D02*
X175774762Y-105805771D01*
X175774762Y-105805771D02*
X175679524Y-105853390D01*
X175679524Y-105853390D02*
X175631905Y-105901009D01*
X175631905Y-105901009D02*
X175584286Y-105996247D01*
D14*
X169743842Y-89292619D02*
X169804318Y-89111190D01*
X169804318Y-89111190D02*
X169804318Y-88808809D01*
X169804318Y-88808809D02*
X169743842Y-88687857D01*
X169743842Y-88687857D02*
X169683365Y-88627381D01*
X169683365Y-88627381D02*
X169562413Y-88566904D01*
X169562413Y-88566904D02*
X169441461Y-88566904D01*
X169441461Y-88566904D02*
X169320508Y-88627381D01*
X169320508Y-88627381D02*
X169260032Y-88687857D01*
X169260032Y-88687857D02*
X169199556Y-88808809D01*
X169199556Y-88808809D02*
X169139080Y-89050714D01*
X169139080Y-89050714D02*
X169078603Y-89171666D01*
X169078603Y-89171666D02*
X169018127Y-89232143D01*
X169018127Y-89232143D02*
X168897175Y-89292619D01*
X168897175Y-89292619D02*
X168776222Y-89292619D01*
X168776222Y-89292619D02*
X168655270Y-89232143D01*
X168655270Y-89232143D02*
X168594794Y-89171666D01*
X168594794Y-89171666D02*
X168534318Y-89050714D01*
X168534318Y-89050714D02*
X168534318Y-88748333D01*
X168534318Y-88748333D02*
X168594794Y-88566904D01*
X169804318Y-87357380D02*
X169804318Y-88083095D01*
X169804318Y-87720238D02*
X168534318Y-87720238D01*
X168534318Y-87720238D02*
X168715746Y-87841190D01*
X168715746Y-87841190D02*
X168836699Y-87962142D01*
X168836699Y-87962142D02*
X168897175Y-88083095D01*
D13*
X143929580Y-92112857D02*
X143977200Y-92160476D01*
X143977200Y-92160476D02*
X144024819Y-92303333D01*
X144024819Y-92303333D02*
X144024819Y-92398571D01*
X144024819Y-92398571D02*
X143977200Y-92541428D01*
X143977200Y-92541428D02*
X143881961Y-92636666D01*
X143881961Y-92636666D02*
X143786723Y-92684285D01*
X143786723Y-92684285D02*
X143596247Y-92731904D01*
X143596247Y-92731904D02*
X143453390Y-92731904D01*
X143453390Y-92731904D02*
X143262914Y-92684285D01*
X143262914Y-92684285D02*
X143167676Y-92636666D01*
X143167676Y-92636666D02*
X143072438Y-92541428D01*
X143072438Y-92541428D02*
X143024819Y-92398571D01*
X143024819Y-92398571D02*
X143024819Y-92303333D01*
X143024819Y-92303333D02*
X143072438Y-92160476D01*
X143072438Y-92160476D02*
X143120057Y-92112857D01*
X144024819Y-91160476D02*
X144024819Y-91731904D01*
X144024819Y-91446190D02*
X143024819Y-91446190D01*
X143024819Y-91446190D02*
X143167676Y-91541428D01*
X143167676Y-91541428D02*
X143262914Y-91636666D01*
X143262914Y-91636666D02*
X143310533Y-91731904D01*
X143120057Y-90779523D02*
X143072438Y-90731904D01*
X143072438Y-90731904D02*
X143024819Y-90636666D01*
X143024819Y-90636666D02*
X143024819Y-90398571D01*
X143024819Y-90398571D02*
X143072438Y-90303333D01*
X143072438Y-90303333D02*
X143120057Y-90255714D01*
X143120057Y-90255714D02*
X143215295Y-90208095D01*
X143215295Y-90208095D02*
X143310533Y-90208095D01*
X143310533Y-90208095D02*
X143453390Y-90255714D01*
X143453390Y-90255714D02*
X144024819Y-90827142D01*
X144024819Y-90827142D02*
X144024819Y-90208095D01*
X170233333Y-103479580D02*
X170185714Y-103527200D01*
X170185714Y-103527200D02*
X170042857Y-103574819D01*
X170042857Y-103574819D02*
X169947619Y-103574819D01*
X169947619Y-103574819D02*
X169804762Y-103527200D01*
X169804762Y-103527200D02*
X169709524Y-103431961D01*
X169709524Y-103431961D02*
X169661905Y-103336723D01*
X169661905Y-103336723D02*
X169614286Y-103146247D01*
X169614286Y-103146247D02*
X169614286Y-103003390D01*
X169614286Y-103003390D02*
X169661905Y-102812914D01*
X169661905Y-102812914D02*
X169709524Y-102717676D01*
X169709524Y-102717676D02*
X169804762Y-102622438D01*
X169804762Y-102622438D02*
X169947619Y-102574819D01*
X169947619Y-102574819D02*
X170042857Y-102574819D01*
X170042857Y-102574819D02*
X170185714Y-102622438D01*
X170185714Y-102622438D02*
X170233333Y-102670057D01*
X171090476Y-102908152D02*
X171090476Y-103574819D01*
X170852381Y-102527200D02*
X170614286Y-103241485D01*
X170614286Y-103241485D02*
X171233333Y-103241485D01*
X172028095Y-94874819D02*
X172028095Y-95684342D01*
X172028095Y-95684342D02*
X172075714Y-95779580D01*
X172075714Y-95779580D02*
X172123333Y-95827200D01*
X172123333Y-95827200D02*
X172218571Y-95874819D01*
X172218571Y-95874819D02*
X172409047Y-95874819D01*
X172409047Y-95874819D02*
X172504285Y-95827200D01*
X172504285Y-95827200D02*
X172551904Y-95779580D01*
X172551904Y-95779580D02*
X172599523Y-95684342D01*
X172599523Y-95684342D02*
X172599523Y-94874819D01*
X172980476Y-94874819D02*
X173599523Y-94874819D01*
X173599523Y-94874819D02*
X173266190Y-95255771D01*
X173266190Y-95255771D02*
X173409047Y-95255771D01*
X173409047Y-95255771D02*
X173504285Y-95303390D01*
X173504285Y-95303390D02*
X173551904Y-95351009D01*
X173551904Y-95351009D02*
X173599523Y-95446247D01*
X173599523Y-95446247D02*
X173599523Y-95684342D01*
X173599523Y-95684342D02*
X173551904Y-95779580D01*
X173551904Y-95779580D02*
X173504285Y-95827200D01*
X173504285Y-95827200D02*
X173409047Y-95874819D01*
X173409047Y-95874819D02*
X173123333Y-95874819D01*
X173123333Y-95874819D02*
X173028095Y-95827200D01*
X173028095Y-95827200D02*
X172980476Y-95779580D01*
X161288095Y-106354819D02*
X161288095Y-107164342D01*
X161288095Y-107164342D02*
X161335714Y-107259580D01*
X161335714Y-107259580D02*
X161383333Y-107307200D01*
X161383333Y-107307200D02*
X161478571Y-107354819D01*
X161478571Y-107354819D02*
X161669047Y-107354819D01*
X161669047Y-107354819D02*
X161764285Y-107307200D01*
X161764285Y-107307200D02*
X161811904Y-107259580D01*
X161811904Y-107259580D02*
X161859523Y-107164342D01*
X161859523Y-107164342D02*
X161859523Y-106354819D01*
X162383333Y-107354819D02*
X162573809Y-107354819D01*
X162573809Y-107354819D02*
X162669047Y-107307200D01*
X162669047Y-107307200D02*
X162716666Y-107259580D01*
X162716666Y-107259580D02*
X162811904Y-107116723D01*
X162811904Y-107116723D02*
X162859523Y-106926247D01*
X162859523Y-106926247D02*
X162859523Y-106545295D01*
X162859523Y-106545295D02*
X162811904Y-106450057D01*
X162811904Y-106450057D02*
X162764285Y-106402438D01*
X162764285Y-106402438D02*
X162669047Y-106354819D01*
X162669047Y-106354819D02*
X162478571Y-106354819D01*
X162478571Y-106354819D02*
X162383333Y-106402438D01*
X162383333Y-106402438D02*
X162335714Y-106450057D01*
X162335714Y-106450057D02*
X162288095Y-106545295D01*
X162288095Y-106545295D02*
X162288095Y-106783390D01*
X162288095Y-106783390D02*
X162335714Y-106878628D01*
X162335714Y-106878628D02*
X162383333Y-106926247D01*
X162383333Y-106926247D02*
X162478571Y-106973866D01*
X162478571Y-106973866D02*
X162669047Y-106973866D01*
X162669047Y-106973866D02*
X162764285Y-106926247D01*
X162764285Y-106926247D02*
X162811904Y-106878628D01*
X162811904Y-106878628D02*
X162859523Y-106783390D01*
X159535400Y-103629219D02*
X159535400Y-103867314D01*
X159297305Y-103772076D02*
X159535400Y-103867314D01*
X159535400Y-103867314D02*
X159773495Y-103772076D01*
X159392543Y-104057790D02*
X159535400Y-103867314D01*
X159535400Y-103867314D02*
X159678257Y-104057790D01*
X173083333Y-102844819D02*
X172750000Y-102368628D01*
X172511905Y-102844819D02*
X172511905Y-101844819D01*
X172511905Y-101844819D02*
X172892857Y-101844819D01*
X172892857Y-101844819D02*
X172988095Y-101892438D01*
X172988095Y-101892438D02*
X173035714Y-101940057D01*
X173035714Y-101940057D02*
X173083333Y-102035295D01*
X173083333Y-102035295D02*
X173083333Y-102178152D01*
X173083333Y-102178152D02*
X173035714Y-102273390D01*
X173035714Y-102273390D02*
X172988095Y-102321009D01*
X172988095Y-102321009D02*
X172892857Y-102368628D01*
X172892857Y-102368628D02*
X172511905Y-102368628D01*
X173464286Y-101940057D02*
X173511905Y-101892438D01*
X173511905Y-101892438D02*
X173607143Y-101844819D01*
X173607143Y-101844819D02*
X173845238Y-101844819D01*
X173845238Y-101844819D02*
X173940476Y-101892438D01*
X173940476Y-101892438D02*
X173988095Y-101940057D01*
X173988095Y-101940057D02*
X174035714Y-102035295D01*
X174035714Y-102035295D02*
X174035714Y-102130533D01*
X174035714Y-102130533D02*
X173988095Y-102273390D01*
X173988095Y-102273390D02*
X173416667Y-102844819D01*
X173416667Y-102844819D02*
X174035714Y-102844819D01*
X159663333Y-85274819D02*
X159330000Y-84798628D01*
X159091905Y-85274819D02*
X159091905Y-84274819D01*
X159091905Y-84274819D02*
X159472857Y-84274819D01*
X159472857Y-84274819D02*
X159568095Y-84322438D01*
X159568095Y-84322438D02*
X159615714Y-84370057D01*
X159615714Y-84370057D02*
X159663333Y-84465295D01*
X159663333Y-84465295D02*
X159663333Y-84608152D01*
X159663333Y-84608152D02*
X159615714Y-84703390D01*
X159615714Y-84703390D02*
X159568095Y-84751009D01*
X159568095Y-84751009D02*
X159472857Y-84798628D01*
X159472857Y-84798628D02*
X159091905Y-84798628D01*
X159996667Y-84274819D02*
X160663333Y-84274819D01*
X160663333Y-84274819D02*
X160234762Y-85274819D01*
X141989104Y-89036666D02*
X141989104Y-88560476D01*
X142274819Y-89131904D02*
X141274819Y-88798571D01*
X141274819Y-88798571D02*
X142274819Y-88465238D01*
X141751009Y-88131904D02*
X141751009Y-87798571D01*
X142274819Y-87655714D02*
X142274819Y-88131904D01*
X142274819Y-88131904D02*
X141274819Y-88131904D01*
X141274819Y-88131904D02*
X141274819Y-87655714D01*
X142274819Y-86703333D02*
X142274819Y-87274761D01*
X142274819Y-86989047D02*
X141274819Y-86989047D01*
X141274819Y-86989047D02*
X141417676Y-87084285D01*
X141417676Y-87084285D02*
X141512914Y-87179523D01*
X141512914Y-87179523D02*
X141560533Y-87274761D01*
X175384285Y-81291009D02*
X175527142Y-81338628D01*
X175527142Y-81338628D02*
X175574761Y-81386247D01*
X175574761Y-81386247D02*
X175622380Y-81481485D01*
X175622380Y-81481485D02*
X175622380Y-81624342D01*
X175622380Y-81624342D02*
X175574761Y-81719580D01*
X175574761Y-81719580D02*
X175527142Y-81767200D01*
X175527142Y-81767200D02*
X175431904Y-81814819D01*
X175431904Y-81814819D02*
X175050952Y-81814819D01*
X175050952Y-81814819D02*
X175050952Y-80814819D01*
X175050952Y-80814819D02*
X175384285Y-80814819D01*
X175384285Y-80814819D02*
X175479523Y-80862438D01*
X175479523Y-80862438D02*
X175527142Y-80910057D01*
X175527142Y-80910057D02*
X175574761Y-81005295D01*
X175574761Y-81005295D02*
X175574761Y-81100533D01*
X175574761Y-81100533D02*
X175527142Y-81195771D01*
X175527142Y-81195771D02*
X175479523Y-81243390D01*
X175479523Y-81243390D02*
X175384285Y-81291009D01*
X175384285Y-81291009D02*
X175050952Y-81291009D01*
X175908095Y-80814819D02*
X176479523Y-80814819D01*
X176193809Y-81814819D02*
X176193809Y-80814819D01*
X176765238Y-80910057D02*
X176812857Y-80862438D01*
X176812857Y-80862438D02*
X176908095Y-80814819D01*
X176908095Y-80814819D02*
X177146190Y-80814819D01*
X177146190Y-80814819D02*
X177241428Y-80862438D01*
X177241428Y-80862438D02*
X177289047Y-80910057D01*
X177289047Y-80910057D02*
X177336666Y-81005295D01*
X177336666Y-81005295D02*
X177336666Y-81100533D01*
X177336666Y-81100533D02*
X177289047Y-81243390D01*
X177289047Y-81243390D02*
X176717619Y-81814819D01*
X176717619Y-81814819D02*
X177336666Y-81814819D01*
X163268095Y-115414819D02*
X163268095Y-116224342D01*
X163268095Y-116224342D02*
X163315714Y-116319580D01*
X163315714Y-116319580D02*
X163363333Y-116367200D01*
X163363333Y-116367200D02*
X163458571Y-116414819D01*
X163458571Y-116414819D02*
X163649047Y-116414819D01*
X163649047Y-116414819D02*
X163744285Y-116367200D01*
X163744285Y-116367200D02*
X163791904Y-116319580D01*
X163791904Y-116319580D02*
X163839523Y-116224342D01*
X163839523Y-116224342D02*
X163839523Y-115414819D01*
X164744285Y-115414819D02*
X164553809Y-115414819D01*
X164553809Y-115414819D02*
X164458571Y-115462438D01*
X164458571Y-115462438D02*
X164410952Y-115510057D01*
X164410952Y-115510057D02*
X164315714Y-115652914D01*
X164315714Y-115652914D02*
X164268095Y-115843390D01*
X164268095Y-115843390D02*
X164268095Y-116224342D01*
X164268095Y-116224342D02*
X164315714Y-116319580D01*
X164315714Y-116319580D02*
X164363333Y-116367200D01*
X164363333Y-116367200D02*
X164458571Y-116414819D01*
X164458571Y-116414819D02*
X164649047Y-116414819D01*
X164649047Y-116414819D02*
X164744285Y-116367200D01*
X164744285Y-116367200D02*
X164791904Y-116319580D01*
X164791904Y-116319580D02*
X164839523Y-116224342D01*
X164839523Y-116224342D02*
X164839523Y-115986247D01*
X164839523Y-115986247D02*
X164791904Y-115891009D01*
X164791904Y-115891009D02*
X164744285Y-115843390D01*
X164744285Y-115843390D02*
X164649047Y-115795771D01*
X164649047Y-115795771D02*
X164458571Y-115795771D01*
X164458571Y-115795771D02*
X164363333Y-115843390D01*
X164363333Y-115843390D02*
X164315714Y-115891009D01*
X164315714Y-115891009D02*
X164268095Y-115986247D01*
D15*
%TO.C,R4*%
X172187742Y-107727500D02*
X172662258Y-107727500D01*
X172187742Y-108772500D02*
X172662258Y-108772500D01*
%TO.C,R6*%
X169302258Y-107752500D02*
X168827742Y-107752500D01*
X169302258Y-108797500D02*
X168827742Y-108797500D01*
%TO.C,C7*%
X184890000Y-92534420D02*
X184890000Y-92815580D01*
X185910000Y-92534420D02*
X185910000Y-92815580D01*
%TO.C,R9*%
X187632258Y-95070000D02*
X187157742Y-95070000D01*
X187632258Y-96115000D02*
X187157742Y-96115000D01*
%TO.C,C2*%
X179465580Y-95190000D02*
X179184420Y-95190000D01*
X179465580Y-96210000D02*
X179184420Y-96210000D01*
%TO.C,R3*%
X167381900Y-96648942D02*
X167381900Y-97123458D01*
X168426900Y-96648942D02*
X168426900Y-97123458D01*
%TO.C,R1*%
X176987742Y-100447500D02*
X177462258Y-100447500D01*
X176987742Y-101492500D02*
X177462258Y-101492500D01*
%TO.C,C5*%
X180084420Y-107740000D02*
X180365580Y-107740000D01*
X180084420Y-108760000D02*
X180365580Y-108760000D01*
%TO.C,C3*%
X168859420Y-100740000D02*
X169140580Y-100740000D01*
X168859420Y-101760000D02*
X169140580Y-101760000D01*
%TO.C,U5*%
X150950000Y-80020000D02*
X171410000Y-80020000D01*
X150950000Y-82680000D02*
X150950000Y-80020000D01*
X150950000Y-82680000D02*
X171410000Y-82680000D01*
X171410000Y-82680000D02*
X171410000Y-80020000D01*
%TO.C,R8*%
X178562742Y-91070000D02*
X179037258Y-91070000D01*
X178562742Y-92115000D02*
X179037258Y-92115000D01*
%TO.C,R10*%
X151087742Y-109077500D02*
X151562258Y-109077500D01*
X151087742Y-110122500D02*
X151562258Y-110122500D01*
%TO.C,C8*%
X186314420Y-85832500D02*
X186595580Y-85832500D01*
X186314420Y-86852500D02*
X186595580Y-86852500D01*
%TO.C,C10*%
X177540000Y-88106920D02*
X177540000Y-88388080D01*
X178560000Y-88106920D02*
X178560000Y-88388080D01*
%TO.C,R5*%
X176412258Y-107727500D02*
X175937742Y-107727500D01*
X176412258Y-108772500D02*
X175937742Y-108772500D01*
D16*
%TO.C,U1*%
X149797998Y-93297998D02*
X149797998Y-93917660D01*
X149797998Y-99982340D02*
X149797998Y-100602002D01*
X149797998Y-100602002D02*
X150417660Y-100602002D01*
X150417660Y-93297998D02*
X149797998Y-93297998D01*
X156482340Y-100602002D02*
X157102002Y-100602002D01*
X157102002Y-93297998D02*
X156482340Y-93297998D01*
X157102002Y-93917660D02*
X157102002Y-93297998D01*
X157102002Y-100602002D02*
X157102002Y-99982340D01*
D10*
G36*
X149366198Y-98140501D02*
G01*
X149112198Y-98140501D01*
X149112198Y-97759501D01*
X149366198Y-97759501D01*
X149366198Y-98140501D01*
G37*
G36*
X153040501Y-101287802D02*
G01*
X152659501Y-101287802D01*
X152659501Y-101033802D01*
X153040501Y-101033802D01*
X153040501Y-101287802D01*
G37*
G36*
X153440500Y-92866198D02*
G01*
X153059500Y-92866198D01*
X153059500Y-92612198D01*
X153440500Y-92612198D01*
X153440500Y-92866198D01*
G37*
G36*
X157787802Y-95340501D02*
G01*
X157533802Y-95340501D01*
X157533802Y-94959501D01*
X157787802Y-94959501D01*
X157787802Y-95340501D01*
G37*
G36*
X157787802Y-99340501D02*
G01*
X157533802Y-99340501D01*
X157533802Y-98959501D01*
X157787802Y-98959501D01*
X157787802Y-99340501D01*
G37*
D15*
%TO.C,R11*%
X148312258Y-109077500D02*
X147837742Y-109077500D01*
X148312258Y-110122500D02*
X147837742Y-110122500D01*
%TO.C,C9*%
X189135580Y-91850000D02*
X188854420Y-91850000D01*
X189135580Y-92870000D02*
X188854420Y-92870000D01*
%TO.C,C1*%
X171834420Y-92990000D02*
X172115580Y-92990000D01*
X171834420Y-94010000D02*
X172115580Y-94010000D01*
%TO.C,C6*%
X174659420Y-104015000D02*
X174940580Y-104015000D01*
X174659420Y-105035000D02*
X174940580Y-105035000D01*
D17*
%TO.C,S1*%
X166330000Y-86495000D02*
X172130000Y-86495000D01*
X166330000Y-86925000D02*
X166330000Y-86495000D01*
X166330000Y-89725000D02*
X166330000Y-90155000D01*
X166330000Y-90155000D02*
X172130000Y-90155000D01*
X172130000Y-86495000D02*
X172130000Y-86925000D01*
X172130000Y-90155000D02*
X172130000Y-89725000D01*
X174230000Y-88925000D02*
X174230000Y-88925000D01*
X174230000Y-89125000D02*
X174230000Y-89125000D01*
X174230000Y-88925000D02*
G75*
G02*
X174230000Y-89125000I0J-100000D01*
G01*
X174230000Y-89125000D02*
G75*
G02*
X174230000Y-88925000I0J100000D01*
G01*
D15*
%TO.C,C4*%
X170839420Y-104015000D02*
X171120580Y-104015000D01*
X170839420Y-105035000D02*
X171120580Y-105035000D01*
D16*
%TO.C,U3*%
X171950050Y-98831501D02*
X173626450Y-98831501D01*
X173626450Y-96418501D02*
X171950050Y-96418501D01*
%TO.C,U9*%
X159827500Y-106488340D02*
X159827500Y-107311660D01*
X160680123Y-108627200D02*
X163419877Y-108627200D01*
X163419877Y-105172800D02*
X160680123Y-105172800D01*
X164272500Y-107311660D02*
X164272500Y-106488340D01*
D15*
%TO.C,R2*%
X173242742Y-100502500D02*
X173717258Y-100502500D01*
X173242742Y-101547500D02*
X173717258Y-101547500D01*
%TO.C,R7*%
X159592742Y-85727500D02*
X160067258Y-85727500D01*
X159592742Y-86772500D02*
X160067258Y-86772500D01*
%TO.C,BT2*%
X174700000Y-82390000D02*
X177640000Y-82390000D01*
X174700000Y-83790000D02*
X174700000Y-82390000D01*
X177640000Y-82390000D02*
X177640000Y-83790000D01*
X177640000Y-83790000D02*
X174700000Y-83790000D01*
%TO.C,U6*%
X141830000Y-114520000D02*
X162290000Y-114520000D01*
X141830000Y-117180000D02*
X141830000Y-114520000D01*
X141830000Y-117180000D02*
X162290000Y-117180000D01*
X162290000Y-117180000D02*
X162290000Y-114520000D01*
%TD*%
D18*
X134000000Y-79000000D02*
X191000000Y-79000000D01*
X191000000Y-118000000D02*
X191000000Y-79000000D01*
X134000000Y-118000000D02*
X191000000Y-118000000D01*
X134000000Y-79000000D02*
X134000000Y-118000000D01*
M02*
