%TF.GenerationSoftware,KiCad,Pcbnew,8.0.1*%
%TF.CreationDate,2024-04-28T17:40:03+05:30*%
%TF.ProjectId,ecg,6563672e-6b69-4636-9164-5f7063625858,rev?*%
%TF.SameCoordinates,Original*%
%TF.FileFunction,Copper,L1,Top*%
%TF.FilePolarity,Positive*%
%FSLAX46Y46*%
G04 Gerber Fmt 4.6, Leading zero omitted, Abs format (unit mm)*
G04 Created by KiCad (PCBNEW 8.0.1) date 2024-04-28 17:40:03*
%MOMM*%
%LPD*%
G01*
G04 APERTURE LIST*
G04 Aperture macros list*
%AMRoundRect*
0 Rectangle with rounded corners*
0 $1 Rounding radius*
0 $2 $3 $4 $5 $6 $7 $8 $9 X,Y pos of 4 corners*
0 Add a 4 corners polygon primitive as box body*
4,1,4,$2,$3,$4,$5,$6,$7,$8,$9,$2,$3,0*
0 Add four circle primitives for the rounded corners*
1,1,$1+$1,$2,$3*
1,1,$1+$1,$4,$5*
1,1,$1+$1,$6,$7*
1,1,$1+$1,$8,$9*
0 Add four rect primitives between the rounded corners*
20,1,$1+$1,$2,$3,$4,$5,0*
20,1,$1+$1,$4,$5,$6,$7,0*
20,1,$1+$1,$6,$7,$8,$9,0*
20,1,$1+$1,$8,$9,$2,$3,0*%
G04 Aperture macros list end*
%TA.AperFunction,EtchedComponent*%
%ADD10C,0.000000*%
%TD*%
%TA.AperFunction,SMDPad,CuDef*%
%ADD11RoundRect,0.200000X-0.200000X-0.275000X0.200000X-0.275000X0.200000X0.275000X-0.200000X0.275000X0*%
%TD*%
%TA.AperFunction,SMDPad,CuDef*%
%ADD12RoundRect,0.100000X0.100000X-0.130000X0.100000X0.130000X-0.100000X0.130000X-0.100000X-0.130000X0*%
%TD*%
%TA.AperFunction,SMDPad,CuDef*%
%ADD13RoundRect,0.200000X0.200000X0.275000X-0.200000X0.275000X-0.200000X-0.275000X0.200000X-0.275000X0*%
%TD*%
%TA.AperFunction,SMDPad,CuDef*%
%ADD14RoundRect,0.225000X-0.250000X0.225000X-0.250000X-0.225000X0.250000X-0.225000X0.250000X0.225000X0*%
%TD*%
%TA.AperFunction,SMDPad,CuDef*%
%ADD15RoundRect,0.225000X0.225000X0.250000X-0.225000X0.250000X-0.225000X-0.250000X0.225000X-0.250000X0*%
%TD*%
%TA.AperFunction,SMDPad,CuDef*%
%ADD16RoundRect,0.200000X-0.275000X0.200000X-0.275000X-0.200000X0.275000X-0.200000X0.275000X0.200000X0*%
%TD*%
%TA.AperFunction,SMDPad,CuDef*%
%ADD17RoundRect,0.225000X-0.225000X-0.250000X0.225000X-0.250000X0.225000X0.250000X-0.225000X0.250000X0*%
%TD*%
%TA.AperFunction,ComponentPad*%
%ADD18O,1.700000X1.700000*%
%TD*%
%TA.AperFunction,SMDPad,CuDef*%
%ADD19R,0.754800X0.199200*%
%TD*%
%TA.AperFunction,SMDPad,CuDef*%
%ADD20R,0.199200X0.754800*%
%TD*%
%TA.AperFunction,SMDPad,CuDef*%
%ADD21R,4.038600X4.038600*%
%TD*%
%TA.AperFunction,SMDPad,CuDef*%
%ADD22RoundRect,0.100000X0.130000X0.100000X-0.130000X0.100000X-0.130000X-0.100000X0.130000X-0.100000X0*%
%TD*%
%TA.AperFunction,SMDPad,CuDef*%
%ADD23R,1.270000X0.760000*%
%TD*%
%TA.AperFunction,SMDPad,CuDef*%
%ADD24R,1.054100X0.355600*%
%TD*%
%TA.AperFunction,SMDPad,CuDef*%
%ADD25R,1.397000X0.711200*%
%TD*%
%TA.AperFunction,ConnectorPad*%
%ADD26R,0.500000X0.500000*%
%TD*%
%TA.AperFunction,ComponentPad*%
%ADD27R,0.500000X0.900000*%
%TD*%
%TA.AperFunction,SMDPad,CuDef*%
%ADD28R,1.000000X1.000000*%
%TD*%
%TA.AperFunction,ComponentPad*%
%ADD29C,0.400000*%
%TD*%
%TA.AperFunction,ViaPad*%
%ADD30C,0.600000*%
%TD*%
%TA.AperFunction,Conductor*%
%ADD31C,0.200000*%
%TD*%
%TA.AperFunction,Conductor*%
%ADD32C,0.428000*%
%TD*%
%TA.AperFunction,Conductor*%
%ADD33C,0.431800*%
%TD*%
%TA.AperFunction,Profile*%
%ADD34C,0.050000*%
%TD*%
G04 APERTURE END LIST*
D10*
%TA.AperFunction,EtchedComponent*%
%TO.C,AE1*%
G36*
X139120000Y-82890000D02*
G01*
X135180000Y-82890000D01*
X135180000Y-84590000D01*
X137820000Y-84590000D01*
X137820000Y-87590000D01*
X135180000Y-87590000D01*
X135180000Y-89290000D01*
X137820000Y-89290000D01*
X137820000Y-92290000D01*
X135180000Y-92290000D01*
X135180000Y-93990000D01*
X140080000Y-93990000D01*
X140080000Y-94490000D01*
X135180000Y-94490000D01*
X135180000Y-95890000D01*
X140080000Y-95890000D01*
X140080000Y-96790000D01*
X139836785Y-96790000D01*
X134680000Y-96790000D01*
X134680000Y-96347267D01*
X139682018Y-96347267D01*
X139689908Y-96395353D01*
X139706814Y-96428245D01*
X139743584Y-96463185D01*
X139788378Y-96482847D01*
X139836785Y-96487583D01*
X139884395Y-96477742D01*
X139926797Y-96453674D01*
X139959581Y-96415731D01*
X139963935Y-96407819D01*
X139976043Y-96365156D01*
X139975300Y-96316637D01*
X139962400Y-96271122D01*
X139951787Y-96252511D01*
X139916553Y-96218868D01*
X139871368Y-96198309D01*
X139821842Y-96191778D01*
X139773583Y-96200218D01*
X139741357Y-96217112D01*
X139708687Y-96252372D01*
X139688592Y-96297682D01*
X139682018Y-96347267D01*
X134680000Y-96347267D01*
X134680000Y-91790000D01*
X137320000Y-91790000D01*
X137320000Y-89790000D01*
X134680000Y-89790000D01*
X134680000Y-87090000D01*
X137320000Y-87090000D01*
X137320000Y-85090000D01*
X134680000Y-85090000D01*
X134680000Y-82390000D01*
X139120000Y-82390000D01*
X139120000Y-82890000D01*
G37*
%TD.AperFunction*%
%TD*%
D11*
%TO.P,R4,1*%
%TO.N,Net-(R4-Pad1)*%
X171600000Y-108250000D03*
%TO.P,R4,2*%
%TO.N,Net-(C5-Pad1)*%
X173250000Y-108250000D03*
%TD*%
D12*
%TO.P,C11,1*%
%TO.N,/1*%
X140990000Y-94240000D03*
%TO.P,C11,2*%
%TO.N,GND2*%
X140990000Y-93600000D03*
%TD*%
D13*
%TO.P,R6,1*%
%TO.N,Net-(C4-Pad2)*%
X169890000Y-108275000D03*
%TO.P,R6,2*%
%TO.N,Net-(R6-Pad2)*%
X168240000Y-108275000D03*
%TD*%
D14*
%TO.P,C7,1*%
%TO.N,Net-(S1-COM_2)*%
X185400000Y-91900000D03*
%TO.P,C7,2*%
%TO.N,GND*%
X185400000Y-93450000D03*
%TD*%
D13*
%TO.P,R9,1*%
%TO.N,Net-(U4-FB_SNS)*%
X188220000Y-95592500D03*
%TO.P,R9,2*%
%TO.N,GND*%
X186570000Y-95592500D03*
%TD*%
D15*
%TO.P,C2,1*%
%TO.N,GND2*%
X180100000Y-95700000D03*
%TO.P,C2,2*%
%TO.N,LDO_OUT*%
X178550000Y-95700000D03*
%TD*%
D16*
%TO.P,R3,1*%
%TO.N,Net-(R3-Pad1)*%
X167904400Y-96061200D03*
%TO.P,R3,2*%
%TO.N,Net-(R3-Pad2)*%
X167904400Y-97711200D03*
%TD*%
D11*
%TO.P,R1,1*%
%TO.N,LDO_OUT*%
X176400000Y-100970000D03*
%TO.P,R1,2*%
%TO.N,/EN*%
X178050000Y-100970000D03*
%TD*%
D17*
%TO.P,C5,1*%
%TO.N,Net-(C5-Pad1)*%
X179450000Y-108250000D03*
%TO.P,C5,2*%
%TO.N,AnalogSig*%
X181000000Y-108250000D03*
%TD*%
%TO.P,C3,1*%
%TO.N,GND2*%
X168225000Y-101250000D03*
%TO.P,C3,2*%
%TO.N,/EN*%
X169775000Y-101250000D03*
%TD*%
D18*
%TO.P,U5,1,Vcc*%
%TO.N,LDO_OUT*%
X152280000Y-81350000D03*
%TO.P,U5,2,JT_TMS*%
%TO.N,TMS*%
X154820000Y-81350000D03*
%TO.P,U5,3,JT_TDI*%
%TO.N,TDI*%
X157360000Y-81350000D03*
%TO.P,U5,4,JT_TDO*%
%TO.N,TDO*%
X159900000Y-81350000D03*
%TO.P,U5,5,JT_TCK*%
%TO.N,TCK*%
X162440000Y-81350000D03*
%TO.P,U5,6,UART_TXD0*%
%TO.N,TXD0*%
X164980000Y-81350000D03*
%TO.P,U5,7,UART_RXD0*%
%TO.N,RXD0*%
X167520000Y-81350000D03*
%TO.P,U5,8,GND*%
%TO.N,GND2*%
X170060000Y-81350000D03*
%TD*%
D11*
%TO.P,R8,1*%
%TO.N,LDO_OUT*%
X177975000Y-91592500D03*
%TO.P,R8,2*%
%TO.N,Net-(U4-FB_SNS)*%
X179625000Y-91592500D03*
%TD*%
%TO.P,R10,1*%
%TO.N,AnalogSig*%
X150500000Y-109600000D03*
%TO.P,R10,2*%
%TO.N,Net-(U1-GPIO13)*%
X152150000Y-109600000D03*
%TD*%
D17*
%TO.P,C8,1*%
%TO.N,Net-(U4-NR)*%
X185680000Y-86342500D03*
%TO.P,C8,2*%
%TO.N,GND*%
X187230000Y-86342500D03*
%TD*%
D14*
%TO.P,C10,1*%
%TO.N,LDO_OUT*%
X178050000Y-87472500D03*
%TO.P,C10,2*%
%TO.N,GND*%
X178050000Y-89022500D03*
%TD*%
D13*
%TO.P,R5,1*%
%TO.N,Net-(C5-Pad1)*%
X177000000Y-108250000D03*
%TO.P,R5,2*%
%TO.N,Net-(U3-+)*%
X175350000Y-108250000D03*
%TD*%
D19*
%TO.P,U1,1,LNA_IN*%
%TO.N,Net-(U1-LNA_IN)*%
X149997599Y-94350000D03*
%TO.P,U1,2,VDD3P3*%
%TO.N,LDO_OUT*%
X149997599Y-94749999D03*
%TO.P,U1,3,VDD3P3*%
X149997599Y-95150001D03*
%TO.P,U1,4,CHIP_PU*%
%TO.N,/EN*%
X149997599Y-95550000D03*
%TO.P,U1,5,GPIO0*%
%TO.N,Net-(S1-NO_1)*%
X149997599Y-95949999D03*
%TO.P,U1,6,GPIO1*%
%TO.N,unconnected-(U1-GPIO1-Pad6)*%
X149997599Y-96350001D03*
%TO.P,U1,7,GPIO2*%
%TO.N,unconnected-(U1-GPIO2-Pad7)*%
X149997599Y-96750000D03*
%TO.P,U1,8,GPIO3*%
%TO.N,unconnected-(U1-GPIO3-Pad8)*%
X149997599Y-97150000D03*
%TO.P,U1,9,GPIO4*%
%TO.N,unconnected-(U1-GPIO4-Pad9)*%
X149997599Y-97549999D03*
%TO.P,U1,10,GPIO5*%
%TO.N,unconnected-(U1-GPIO5-Pad10)*%
X149997599Y-97950001D03*
%TO.P,U1,11,GPIO6*%
%TO.N,unconnected-(U1-GPIO6-Pad11)*%
X149997599Y-98350000D03*
%TO.P,U1,12,GPIO7*%
%TO.N,unconnected-(U1-GPIO7-Pad12)*%
X149997599Y-98749999D03*
%TO.P,U1,13,GPIO8*%
%TO.N,unconnected-(U1-GPIO8-Pad13)*%
X149997599Y-99150001D03*
%TO.P,U1,14,GPIO9*%
%TO.N,unconnected-(U1-GPIO9-Pad14)*%
X149997599Y-99550000D03*
D20*
%TO.P,U1,15,GPIO10*%
%TO.N,unconnected-(U1-GPIO10-Pad15)*%
X150850000Y-100402401D03*
%TO.P,U1,16,GPIO11*%
%TO.N,AnalogSig*%
X151249999Y-100402401D03*
%TO.P,U1,17,GPIO12*%
%TO.N,Net-(U1-GPIO12)*%
X151650001Y-100402401D03*
%TO.P,U1,18,GPIO13*%
%TO.N,Net-(U1-GPIO13)*%
X152050000Y-100402401D03*
%TO.P,U1,19,GPIO14*%
%TO.N,Net-(U1-GPIO14)*%
X152449999Y-100402401D03*
%TO.P,U1,20,VDD3P3_RTC*%
%TO.N,LDO_OUT*%
X152850001Y-100402401D03*
%TO.P,U1,21,XTAL_32K_P*%
%TO.N,unconnected-(U1-XTAL_32K_P-Pad21)*%
X153250000Y-100402401D03*
%TO.P,U1,22,XTAL_32K_N*%
%TO.N,unconnected-(U1-XTAL_32K_N-Pad22)*%
X153650000Y-100402401D03*
%TO.P,U1,23,GPIO17*%
%TO.N,Net-(U1-GPIO17)*%
X154049999Y-100402401D03*
%TO.P,U1,24,GPIO18*%
%TO.N,Net-(U1-GPIO18)*%
X154450001Y-100402401D03*
%TO.P,U1,25,GPIO19/USB_D-*%
%TO.N,USB_D-*%
X154850000Y-100402401D03*
%TO.P,U1,26,GPIO20/USB_D+*%
%TO.N,USB_D+*%
X155249999Y-100402401D03*
%TO.P,U1,27,GPIO21*%
%TO.N,Net-(U1-GPIO21)*%
X155650001Y-100402401D03*
%TO.P,U1,28,SPICS1*%
%TO.N,unconnected-(U1-SPICS1-Pad28)*%
X156050000Y-100402401D03*
D19*
%TO.P,U1,29,VDD_SPI*%
%TO.N,unconnected-(U1-VDD_SPI-Pad29)*%
X156902401Y-99550000D03*
%TO.P,U1,30,SPIHD*%
%TO.N,unconnected-(U1-SPIHD-Pad30)*%
X156902401Y-99150001D03*
%TO.P,U1,31,SPIWP*%
%TO.N,unconnected-(U1-SPIWP-Pad31)*%
X156902401Y-98749999D03*
%TO.P,U1,32,SPICS0*%
%TO.N,unconnected-(U1-SPICS0-Pad32)*%
X156902401Y-98350000D03*
%TO.P,U1,33,SPICLK*%
%TO.N,unconnected-(U1-SPICLK-Pad33)*%
X156902401Y-97950001D03*
%TO.P,U1,34,SPIQ*%
%TO.N,unconnected-(U1-SPIQ-Pad34)*%
X156902401Y-97549999D03*
%TO.P,U1,35,SPID*%
%TO.N,unconnected-(U1-SPID-Pad35)*%
X156902401Y-97150000D03*
%TO.P,U1,36,SPICLK_N*%
%TO.N,unconnected-(U1-SPICLK_N-Pad36)*%
X156902401Y-96750000D03*
%TO.P,U1,37,SPICLK_P*%
%TO.N,unconnected-(U1-SPICLK_P-Pad37)*%
X156902401Y-96350001D03*
%TO.P,U1,38,GPIO33*%
%TO.N,unconnected-(U1-GPIO33-Pad38)*%
X156902401Y-95949999D03*
%TO.P,U1,39,GPIO34*%
%TO.N,unconnected-(U1-GPIO34-Pad39)*%
X156902401Y-95550000D03*
%TO.P,U1,40,GPIO35*%
%TO.N,unconnected-(U1-GPIO35-Pad40)*%
X156902401Y-95150001D03*
%TO.P,U1,41,GPIO36*%
%TO.N,unconnected-(U1-GPIO36-Pad41)*%
X156902401Y-94749999D03*
%TO.P,U1,42,GPIO37*%
%TO.N,unconnected-(U1-GPIO37-Pad42)*%
X156902401Y-94350000D03*
D20*
%TO.P,U1,43,GPIO38*%
%TO.N,unconnected-(U1-GPIO38-Pad43)*%
X156050000Y-93497599D03*
%TO.P,U1,44,MTCK*%
%TO.N,TCK*%
X155650001Y-93497599D03*
%TO.P,U1,45,MTDO*%
%TO.N,TDO*%
X155249999Y-93497599D03*
%TO.P,U1,46,VDD3P3_CPU*%
%TO.N,LDO_OUT*%
X154850000Y-93497599D03*
%TO.P,U1,47,MTDI*%
%TO.N,TDI*%
X154450001Y-93497599D03*
%TO.P,U1,48,MTMS*%
%TO.N,TMS*%
X154049999Y-93497599D03*
%TO.P,U1,49,U0TXD*%
%TO.N,Net-(U1-U0TXD)*%
X153650000Y-93497599D03*
%TO.P,U1,50,U0RXD*%
%TO.N,RXD0*%
X153250000Y-93497599D03*
%TO.P,U1,51,GPIO45*%
%TO.N,unconnected-(U1-GPIO45-Pad51)*%
X152850001Y-93497599D03*
%TO.P,U1,52,GPIO46*%
%TO.N,unconnected-(U1-GPIO46-Pad52)*%
X152449999Y-93497599D03*
%TO.P,U1,53,XTAL_N*%
%TO.N,unconnected-(U1-XTAL_N-Pad53)*%
X152050000Y-93497599D03*
%TO.P,U1,54,XTAL_P*%
%TO.N,unconnected-(U1-XTAL_P-Pad54)*%
X151650001Y-93497599D03*
%TO.P,U1,55,VDDA*%
%TO.N,LDO_OUT*%
X151249999Y-93497599D03*
%TO.P,U1,56,VDDA*%
X150850000Y-93497599D03*
D21*
%TO.P,U1,57,GND*%
%TO.N,GND2*%
X153450000Y-96950000D03*
%TD*%
D13*
%TO.P,R11,1*%
%TO.N,AnalogSig*%
X148900000Y-109600000D03*
%TO.P,R11,2*%
%TO.N,Net-(U1-GPIO12)*%
X147250000Y-109600000D03*
%TD*%
D15*
%TO.P,C9,1*%
%TO.N,LDO_OUT*%
X189770000Y-92360000D03*
%TO.P,C9,2*%
%TO.N,Net-(U4-FB_SNS)*%
X188220000Y-92360000D03*
%TD*%
D17*
%TO.P,C1,1*%
%TO.N,GND2*%
X171200000Y-93500000D03*
%TO.P,C1,2*%
%TO.N,LDO_OUT*%
X172750000Y-93500000D03*
%TD*%
D22*
%TO.P,L1,1,1*%
%TO.N,Net-(U1-LNA_IN)*%
X142570000Y-94240000D03*
%TO.P,L1,2,2*%
%TO.N,/1*%
X141930000Y-94240000D03*
%TD*%
D17*
%TO.P,C6,1*%
%TO.N,Net-(U3-+)*%
X174025000Y-104525000D03*
%TO.P,C6,2*%
%TO.N,GND*%
X175575000Y-104525000D03*
%TD*%
D23*
%TO.P,S1,A1,COM_1*%
%TO.N,GND2*%
X173040000Y-88960000D03*
%TO.P,S1,A2,COM_2*%
%TO.N,Net-(S1-COM_2)*%
X173040000Y-87690000D03*
%TO.P,S1,B1,NO_1*%
%TO.N,Net-(S1-NO_1)*%
X165420000Y-88960000D03*
%TO.P,S1,B2,NO_2*%
%TO.N,CELL3v7*%
X165420000Y-87690000D03*
%TD*%
D12*
%TO.P,C12,1*%
%TO.N,Net-(U1-LNA_IN)*%
X143490000Y-94240000D03*
%TO.P,C12,2*%
%TO.N,GND2*%
X143490000Y-93600000D03*
%TD*%
D17*
%TO.P,C4,1*%
%TO.N,GND2*%
X170205000Y-104525000D03*
%TO.P,C4,2*%
%TO.N,Net-(C4-Pad2)*%
X171755000Y-104525000D03*
%TD*%
D24*
%TO.P,U3,1*%
%TO.N,AnalogSig*%
X171550000Y-96975002D03*
%TO.P,U3,2,V-*%
%TO.N,GND2*%
X171550000Y-97625001D03*
%TO.P,U3,3,+*%
%TO.N,Net-(U3-+)*%
X171550000Y-98275000D03*
%TO.P,U3,4,-*%
%TO.N,AnalogSig*%
X174026500Y-98275000D03*
%TO.P,U3,5,ENABLE*%
%TO.N,LDO_OUT*%
X174026500Y-97625001D03*
%TO.P,U3,6,V+*%
X174026500Y-96975002D03*
%TD*%
D25*
%TO.P,U9,1,1*%
%TO.N,Net-(R6-Pad2)*%
X159789400Y-105800000D03*
%TO.P,U9,2,2*%
X164310600Y-105800000D03*
%TO.P,U9,3,3*%
%TO.N,GND2*%
X159789400Y-108000000D03*
%TO.P,U9,4,4*%
X164310600Y-108000000D03*
%TD*%
D11*
%TO.P,R2,1*%
%TO.N,Net-(C4-Pad2)*%
X172655000Y-101025000D03*
%TO.P,R2,2*%
%TO.N,/EN*%
X174305000Y-101025000D03*
%TD*%
%TO.P,R7,1*%
%TO.N,Net-(U1-U0TXD)*%
X159005000Y-86250000D03*
%TO.P,R7,2*%
%TO.N,TXD0*%
X160655000Y-86250000D03*
%TD*%
D26*
%TO.P,AE1,1,A*%
%TO.N,/1*%
X139830000Y-94240000D03*
D27*
%TO.P,AE1,2,Shield*%
%TO.N,GND2*%
X139830000Y-96340000D03*
%TD*%
D28*
%TO.P,BT2,1,+*%
%TO.N,CELL3v7*%
X175400000Y-83090000D03*
%TO.P,BT2,2,-*%
%TO.N,GND*%
X176940000Y-83090000D03*
%TD*%
D18*
%TO.P,U6,1,GPIO21*%
%TO.N,Net-(U1-GPIO21)*%
X143160000Y-115850000D03*
%TO.P,U6,2,GPIO18*%
%TO.N,Net-(U1-GPIO18)*%
X145700000Y-115850000D03*
%TO.P,U6,3,GPIO12*%
%TO.N,Net-(U1-GPIO12)*%
X148240000Y-115850000D03*
%TO.P,U6,4,GPIO13*%
%TO.N,Net-(U1-GPIO13)*%
X150780000Y-115850000D03*
%TO.P,U6,5,GPIO14*%
%TO.N,Net-(U1-GPIO14)*%
X153320000Y-115850000D03*
%TO.P,U6,6,GPIO17*%
%TO.N,Net-(U1-GPIO17)*%
X155860000Y-115850000D03*
%TO.P,U6,7,USBD+*%
%TO.N,USB_D+*%
X158400000Y-115850000D03*
%TO.P,U6,8,USBD-*%
%TO.N,USB_D-*%
X160940000Y-115850000D03*
%TD*%
D29*
%TO.P,U4,10*%
%TO.N,N/C*%
X181950000Y-88724999D03*
%TO.P,U4,11*%
X182450000Y-88099999D03*
%TO.P,U4,12*%
X181450000Y-88099999D03*
%TO.P,U4,13*%
X181950000Y-87474999D03*
%TD*%
D30*
%TO.N,AnalogSig*%
X152400000Y-102600000D03*
X178550000Y-106525000D03*
X174550000Y-100025000D03*
X171050000Y-95525000D03*
%TO.N,Net-(U3-+)*%
X172050000Y-103025000D03*
X172800000Y-105525000D03*
%TO.N,LDO_OUT*%
X155150000Y-92100000D03*
X188430000Y-89490000D03*
X179370000Y-86430000D03*
X151650000Y-91600000D03*
X189760000Y-93510000D03*
X179236837Y-90638862D03*
X152300000Y-83700000D03*
X147797672Y-95452328D03*
X173480000Y-92150000D03*
X179400000Y-92700000D03*
%TO.N,GND2*%
X161000000Y-102000000D03*
X181500000Y-102910000D03*
X154200000Y-94400000D03*
%TO.N,Net-(R3-Pad1)*%
X167200000Y-94386200D03*
%TO.N,GND*%
X179300000Y-87325000D03*
X175430000Y-103190000D03*
X179210000Y-83530000D03*
%TO.N,Net-(R4-Pad1)*%
X170750000Y-107000000D03*
%TO.N,Net-(R3-Pad2)*%
X166850000Y-99386200D03*
%TO.N,Net-(U4-NR)*%
X184200000Y-87736091D03*
%TO.N,Net-(U4-FB_SNS)*%
X179300000Y-88792500D03*
X180550000Y-91092500D03*
X187570000Y-90870000D03*
%TO.N,Net-(U1-GPIO12)*%
X148920000Y-103640000D03*
X151900000Y-101930000D03*
%TO.N,USB_D-*%
X154600000Y-107250000D03*
X158400000Y-111990000D03*
%TO.N,Net-(U1-GPIO21)*%
X144440000Y-112710000D03*
X156630000Y-103580000D03*
%TO.N,Net-(U1-GPIO18)*%
X154600000Y-104760000D03*
X146300000Y-112620000D03*
%TO.N,RXD0*%
X159000000Y-89300000D03*
X150750000Y-90300000D03*
%TO.N,/EN*%
X147400000Y-96350000D03*
X169550000Y-99025000D03*
X170800000Y-100025000D03*
X172550000Y-100025000D03*
%TO.N,Net-(U1-U0TXD)*%
X152700000Y-89250000D03*
X157800000Y-88400000D03*
%TO.N,Net-(S1-COM_2)*%
X176670000Y-92160000D03*
X185400000Y-87825000D03*
X175690000Y-87720000D03*
X184550000Y-90025000D03*
X181530000Y-90870000D03*
%TO.N,Net-(S1-NO_1)*%
X148150000Y-97100000D03*
X159300000Y-90500000D03*
%TD*%
D31*
%TO.N,AnalogSig*%
X171550000Y-96025000D02*
X171050000Y-95525000D01*
X151250000Y-102200000D02*
X151250000Y-100400000D01*
X178550000Y-106525000D02*
X180275000Y-106525000D01*
X174550000Y-98798500D02*
X174026500Y-98275000D01*
X174026500Y-98275000D02*
X172800000Y-98275000D01*
X172550000Y-97275000D02*
X172250002Y-96975002D01*
X150670000Y-108605000D02*
X150670000Y-109600000D01*
X180275000Y-106525000D02*
X181000000Y-107250000D01*
X151650000Y-102600000D02*
X151175000Y-103075000D01*
X149395000Y-108605000D02*
X148900000Y-109100000D01*
X172800000Y-98275000D02*
X172550000Y-98025000D01*
X151175000Y-108100000D02*
X150670000Y-108605000D01*
X150670000Y-108605000D02*
X149395000Y-108605000D01*
X151650000Y-102600000D02*
X151250000Y-102200000D01*
X152400000Y-102600000D02*
X151650000Y-102600000D01*
X181000000Y-107250000D02*
X181000000Y-108250000D01*
X172250002Y-96975002D02*
X171550000Y-96975002D01*
X171550000Y-96975002D02*
X171550000Y-96025000D01*
X148900000Y-109100000D02*
X148900000Y-109600000D01*
X151175000Y-103075000D02*
X151175000Y-108100000D01*
X172550000Y-98025000D02*
X172550000Y-97275000D01*
X174550000Y-100025000D02*
X174550000Y-98798500D01*
%TO.N,Net-(U3-+)*%
X171550000Y-98275000D02*
X171550000Y-102525000D01*
X172800000Y-106025000D02*
X173800000Y-107025000D01*
X173800000Y-104775000D02*
X174050000Y-104525000D01*
X171550000Y-102525000D02*
X172050000Y-103025000D01*
X175000000Y-108250000D02*
X175350000Y-108250000D01*
X172800000Y-105525000D02*
X172800000Y-106025000D01*
X175025000Y-108250000D02*
X175350000Y-108250000D01*
X173800000Y-107025000D02*
X174022500Y-107247500D01*
X174025000Y-107245000D02*
X174022500Y-107247500D01*
X174022500Y-107247500D02*
X175025000Y-108250000D01*
X174025000Y-104525000D02*
X174025000Y-107245000D01*
%TO.N,LDO_OUT*%
X174846500Y-95700000D02*
X174026500Y-94880000D01*
X150510000Y-95150000D02*
X150780000Y-95420000D01*
X174026500Y-96975002D02*
X174026500Y-94880000D01*
X175000002Y-96975002D02*
X174026500Y-96975002D01*
X152280000Y-83680000D02*
X152300000Y-83700000D01*
X177050000Y-90842500D02*
X177800000Y-91592500D01*
X178350000Y-92700000D02*
X177975000Y-92325000D01*
X176620000Y-101455000D02*
X176620000Y-101025000D01*
X174026500Y-93336500D02*
X174025000Y-93335000D01*
X173970000Y-92150000D02*
X174300000Y-92480000D01*
X189760000Y-92370000D02*
X189770000Y-92360000D01*
X178550000Y-95700000D02*
X174846500Y-95700000D01*
X155150000Y-92100000D02*
X154850000Y-92400000D01*
X174026500Y-94880000D02*
X174026500Y-93336500D01*
X177975000Y-92325000D02*
X177975000Y-91592500D01*
X173860000Y-93500000D02*
X172750000Y-93500000D01*
X177050000Y-90775000D02*
X177050000Y-90842500D01*
X177437500Y-87472500D02*
X178050000Y-87472500D01*
X189770000Y-90830000D02*
X188430000Y-89490000D01*
X150780000Y-98980000D02*
X150780000Y-95420000D01*
X174300000Y-92480000D02*
X174300000Y-93060000D01*
X175300000Y-100525000D02*
X175300000Y-98275000D01*
X174037500Y-91592500D02*
X173480000Y-92150000D01*
X177050000Y-87860000D02*
X177437500Y-87472500D01*
X150850000Y-92400000D02*
X150850000Y-93500000D01*
X152850000Y-100400000D02*
X152850000Y-99820000D01*
X175745000Y-100970000D02*
X176400000Y-100970000D01*
X177050000Y-90775000D02*
X177050000Y-87860000D01*
X174025000Y-93335000D02*
X173860000Y-93500000D01*
X175300000Y-97275000D02*
X175000002Y-96975002D01*
X152280000Y-81350000D02*
X152280000Y-83680000D01*
X154850000Y-92400000D02*
X154850000Y-93500000D01*
X152850000Y-99820000D02*
X152480000Y-99450000D01*
X189760000Y-93510000D02*
X189760000Y-92370000D01*
X174650001Y-97625001D02*
X174026500Y-97625001D01*
X151250000Y-99450000D02*
X150780000Y-98980000D01*
X175300000Y-98275000D02*
X175300000Y-97275000D01*
X179370000Y-86430000D02*
X179092500Y-86430000D01*
X151250000Y-92000000D02*
X151250000Y-93500000D01*
X177975000Y-91592500D02*
X176000000Y-91592500D01*
X147797672Y-95452328D02*
X148100000Y-95150000D01*
X151650000Y-91600000D02*
X150850000Y-92400000D01*
X149997599Y-95150001D02*
X150510000Y-95150000D01*
X175300000Y-98275000D02*
X174650001Y-97625001D01*
X173480000Y-92150000D02*
X173970000Y-92150000D01*
X179400000Y-92700000D02*
X178350000Y-92700000D01*
X176000000Y-91592500D02*
X174037500Y-91592500D01*
X179236837Y-90638862D02*
X178341138Y-90638862D01*
X150780000Y-95420000D02*
X150109999Y-94749999D01*
X148100000Y-95150000D02*
X150000000Y-95150000D01*
X189770000Y-92360000D02*
X189770000Y-90830000D01*
X152480000Y-99450000D02*
X151250000Y-99450000D01*
X175300000Y-100525000D02*
X175745000Y-100970000D01*
X177975000Y-91005000D02*
X177975000Y-91592500D01*
X174300000Y-93060000D02*
X174025000Y-93335000D01*
X178341138Y-90638862D02*
X177975000Y-91005000D01*
X151650000Y-91600000D02*
X151250000Y-92000000D01*
X179092500Y-86430000D02*
X178050000Y-87472500D01*
%TO.N,GND2*%
X164310600Y-108000000D02*
X159789400Y-108000000D01*
X170400001Y-97625001D02*
X171550000Y-97625001D01*
%TO.N,Net-(R3-Pad1)*%
X167904400Y-94636200D02*
X167904400Y-96061200D01*
X167200000Y-94386200D02*
X167654400Y-94386200D01*
X167654400Y-94386200D02*
X167904400Y-94636200D01*
%TO.N,GND*%
X185800000Y-95592500D02*
X186570000Y-95592500D01*
X185800000Y-95592500D02*
X185398750Y-95191250D01*
X187800000Y-86842500D02*
X187800000Y-88367500D01*
X179464655Y-90088862D02*
X179009019Y-90088862D01*
X187300000Y-86342500D02*
X187800000Y-86842500D01*
X179210000Y-83530000D02*
X178770000Y-83090000D01*
X185398750Y-95191250D02*
X185300000Y-95092500D01*
X179009019Y-90088862D02*
X179005381Y-90092500D01*
X186940000Y-91910000D02*
X185400000Y-93450000D01*
X187800000Y-88367500D02*
X187282500Y-88367500D01*
X184300000Y-90842500D02*
X183550000Y-90092500D01*
X186940000Y-88710000D02*
X186940000Y-91910000D01*
X178770000Y-83090000D02*
X176940000Y-83090000D01*
X185300000Y-95092500D02*
X184300000Y-94092500D01*
X179468293Y-90092500D02*
X179464655Y-90088862D01*
X184300000Y-94092500D02*
X184300000Y-90842500D01*
X185400000Y-95190000D02*
X185398750Y-95191250D01*
X179300000Y-87772500D02*
X179300000Y-87325000D01*
X183550000Y-90092500D02*
X179468293Y-90092500D01*
X178817500Y-90092500D02*
X178050000Y-89325000D01*
X175575000Y-104525000D02*
X175575000Y-103335000D01*
X178050000Y-89022500D02*
X179300000Y-87772500D01*
X187282500Y-88367500D02*
X186940000Y-88710000D01*
X179005381Y-90092500D02*
X178817500Y-90092500D01*
X185400000Y-93450000D02*
X185400000Y-95190000D01*
X175575000Y-103335000D02*
X175430000Y-103190000D01*
%TO.N,Net-(R4-Pad1)*%
X171600000Y-107850000D02*
X171600000Y-108250000D01*
X171620000Y-108025000D02*
X171620000Y-108595000D01*
X170750000Y-107000000D02*
X171600000Y-107850000D01*
%TO.N,Net-(R3-Pad2)*%
X167404400Y-99386200D02*
X167904400Y-98886200D01*
X166850000Y-99386200D02*
X167404400Y-99386200D01*
X167904400Y-97711200D02*
X167904400Y-98886200D01*
%TO.N,Net-(U4-NR)*%
X184350000Y-87586091D02*
X184350000Y-86625000D01*
X184350000Y-86625000D02*
X184632500Y-86342500D01*
X184200000Y-87736091D02*
X184350000Y-87586091D01*
X184632500Y-86342500D02*
X185680000Y-86342500D01*
%TO.N,Net-(U4-FB_SNS)*%
X188220000Y-95592500D02*
X188220000Y-92360000D01*
X180550000Y-91092500D02*
X180550000Y-91410000D01*
X188180000Y-91480000D02*
X188180000Y-92342500D01*
X180550000Y-91410000D02*
X180367500Y-91592500D01*
X180367500Y-91592500D02*
X179625000Y-91592500D01*
X187570000Y-90870000D02*
X188180000Y-91480000D01*
%TO.N,Net-(U1-GPIO17)*%
X155860000Y-115850000D02*
X155860000Y-114040000D01*
X155860000Y-114040000D02*
X154050000Y-112230000D01*
X154050000Y-112230000D02*
X154050000Y-100400000D01*
%TO.N,USB_D+*%
X155250000Y-104137207D02*
X155250000Y-100400000D01*
X155500000Y-105744975D02*
X155500000Y-104387207D01*
X158400000Y-114570000D02*
X155490000Y-111660000D01*
X155490000Y-111660000D02*
X155490000Y-105754975D01*
X158400000Y-115850000D02*
X158400000Y-114570000D01*
X155500000Y-104387207D02*
X155250000Y-104137207D01*
X155490000Y-105754975D02*
X155500000Y-105744975D01*
%TO.N,Net-(U1-GPIO12)*%
X147250000Y-109600000D02*
X147250000Y-105310000D01*
X148240000Y-115850000D02*
X148240000Y-113690000D01*
X147250000Y-105310000D02*
X148920000Y-103640000D01*
X151650000Y-100400000D02*
X151650000Y-99974350D01*
X151900000Y-101930000D02*
X151650000Y-101680000D01*
X151650000Y-101680000D02*
X151650000Y-100400000D01*
X147250000Y-112700000D02*
X147250000Y-109600000D01*
X148240000Y-113690000D02*
X147250000Y-112700000D01*
%TO.N,USB_D-*%
X154850000Y-104232182D02*
X154850000Y-100400000D01*
X155150000Y-104532182D02*
X154850000Y-104232182D01*
X154600000Y-107250000D02*
X154550000Y-107250000D01*
X154400000Y-107100000D02*
X154400000Y-106350000D01*
X160940000Y-114530000D02*
X158400000Y-111990000D01*
X155150000Y-105600000D02*
X155150000Y-104532182D01*
X154400000Y-106350000D02*
X155150000Y-105600000D01*
X154550000Y-107250000D02*
X154400000Y-107100000D01*
X160940000Y-115850000D02*
X160940000Y-114530000D01*
%TO.N,Net-(U1-GPIO14)*%
X153320000Y-111730000D02*
X153510000Y-111540000D01*
X152450000Y-101170000D02*
X152450000Y-100400000D01*
X153320000Y-115850000D02*
X153320000Y-111730000D01*
X153510000Y-102230000D02*
X152450000Y-101170000D01*
X153510000Y-111540000D02*
X153510000Y-102230000D01*
%TO.N,Net-(U1-GPIO13)*%
X153000000Y-108750000D02*
X152150000Y-109600000D01*
X153000000Y-102250000D02*
X153000000Y-108750000D01*
X151815000Y-109600000D02*
X151815000Y-111435000D01*
X152050000Y-100400000D02*
X152050000Y-101300000D01*
X152050000Y-101300000D02*
X153000000Y-102250000D01*
X150780000Y-112470000D02*
X150780000Y-115850000D01*
X151815000Y-111435000D02*
X150780000Y-112470000D01*
%TO.N,Net-(U1-GPIO21)*%
X143160000Y-115850000D02*
X143160000Y-113990000D01*
X143160000Y-113990000D02*
X144440000Y-112710000D01*
X156630000Y-103110000D02*
X155650000Y-102130000D01*
X156630000Y-103580000D02*
X156630000Y-103110000D01*
X155650000Y-102130000D02*
X155650000Y-100400000D01*
%TO.N,Net-(U1-GPIO18)*%
X145700000Y-115850000D02*
X145700000Y-113220000D01*
X145700000Y-113220000D02*
X146300000Y-112620000D01*
X154450000Y-104610000D02*
X154450000Y-100400000D01*
X154600000Y-104760000D02*
X154450000Y-104610000D01*
%TO.N,TDI*%
X154450000Y-84260000D02*
X154450000Y-93500000D01*
X157360000Y-81350000D02*
X154450000Y-84260000D01*
%TO.N,RXD0*%
X167520000Y-81350000D02*
X159570000Y-89300000D01*
X153250000Y-91500000D02*
X153250000Y-93500000D01*
X159570000Y-89300000D02*
X159000000Y-89300000D01*
X152050000Y-90300000D02*
X153250000Y-91500000D01*
X150750000Y-90300000D02*
X152050000Y-90300000D01*
%TO.N,TXD0*%
X161750000Y-85500000D02*
X161000000Y-86250000D01*
X164980000Y-81350000D02*
X161750000Y-84580000D01*
X161000000Y-86250000D02*
X160655000Y-86250000D01*
X161750000Y-84580000D02*
X161750000Y-85500000D01*
%TO.N,TDO*%
X156000000Y-85250000D02*
X156000000Y-92050000D01*
X159900000Y-81350000D02*
X156000000Y-85250000D01*
X155250000Y-92800000D02*
X155250000Y-93500000D01*
X156000000Y-92050000D02*
X155250000Y-92800000D01*
%TO.N,TMS*%
X154050000Y-82120000D02*
X154050000Y-93500000D01*
X154820000Y-81350000D02*
X154050000Y-82120000D01*
%TO.N,TCK*%
X158300000Y-84700000D02*
X156750000Y-86250000D01*
X155650000Y-92960000D02*
X155650000Y-93500000D01*
X162440000Y-81350000D02*
X159090000Y-84700000D01*
X156750000Y-86250000D02*
X156750000Y-91860000D01*
X159090000Y-84700000D02*
X158300000Y-84700000D01*
X156750000Y-91860000D02*
X155650000Y-92960000D01*
%TO.N,Net-(C4-Pad2)*%
X171755000Y-104820000D02*
X171755000Y-104525000D01*
X172655000Y-103625000D02*
X172655000Y-101025000D01*
X171755000Y-104525000D02*
X172655000Y-103625000D01*
X171755000Y-104525000D02*
X169890000Y-106390000D01*
X169890000Y-106390000D02*
X169890000Y-108275000D01*
%TO.N,/EN*%
X170300000Y-100025000D02*
X169870000Y-100455000D01*
X148477818Y-95550000D02*
X150000000Y-95550000D01*
X172550000Y-100025000D02*
X173585000Y-100025000D01*
X177570000Y-102150000D02*
X178050000Y-101670000D01*
X178050000Y-101670000D02*
X178050000Y-100970000D01*
X174305000Y-100745000D02*
X174305000Y-101025000D01*
X170800000Y-100025000D02*
X170300000Y-100025000D01*
X169870000Y-100455000D02*
X169870000Y-101025000D01*
X174730000Y-102150000D02*
X177570000Y-102150000D01*
X169870000Y-100455000D02*
X169550000Y-100135000D01*
X173585000Y-100025000D02*
X174305000Y-100745000D01*
X147677818Y-96350000D02*
X148477818Y-95550000D01*
X174305000Y-101725000D02*
X174730000Y-102150000D01*
X169550000Y-100135000D02*
X169550000Y-99025000D01*
X147400000Y-96350000D02*
X147677818Y-96350000D01*
X174305000Y-101025000D02*
X174305000Y-101725000D01*
%TO.N,Net-(U1-U0TXD)*%
X157800000Y-88400000D02*
X159005000Y-87195000D01*
X152700000Y-89250000D02*
X152700000Y-90250000D01*
X159005000Y-87195000D02*
X159005000Y-86250000D01*
X152700000Y-90250000D02*
X153650000Y-91200000D01*
X153650000Y-91200000D02*
X153650000Y-93500000D01*
%TO.N,Net-(R6-Pad2)*%
X165765000Y-105800000D02*
X168240000Y-108275000D01*
X164310600Y-105800000D02*
X159789400Y-105800000D01*
X164310600Y-105800000D02*
X165765000Y-105800000D01*
%TO.N,Net-(C5-Pad1)*%
X179450000Y-108250000D02*
X177000000Y-108250000D01*
X177000000Y-109250000D02*
X176750000Y-109500000D01*
X173500000Y-109500000D02*
X173250000Y-109250000D01*
X173250000Y-109250000D02*
X173250000Y-108250000D01*
X177000000Y-108250000D02*
X177000000Y-109250000D01*
X176750000Y-109500000D02*
X173500000Y-109500000D01*
D32*
%TO.N,/1*%
X139830000Y-94240000D02*
X140990000Y-94240000D01*
X141930000Y-94240000D02*
X140990000Y-94240000D01*
D33*
%TO.N,Net-(U1-LNA_IN)*%
X150060000Y-94240000D02*
X142620000Y-94240000D01*
D31*
%TO.N,CELL3v7*%
X165420000Y-85390000D02*
X165420000Y-87690000D01*
X171360000Y-84450000D02*
X166360000Y-84450000D01*
X175400000Y-83090000D02*
X172720000Y-83090000D01*
X166360000Y-84450000D02*
X165420000Y-85390000D01*
X172720000Y-83090000D02*
X171360000Y-84450000D01*
%TO.N,Net-(S1-COM_2)*%
X185050000Y-90025000D02*
X185050000Y-90030000D01*
X178000000Y-93500000D02*
X177950000Y-93450000D01*
X181530000Y-90870000D02*
X181530000Y-91347818D01*
X175690000Y-87720000D02*
X175660000Y-87690000D01*
X181530000Y-91347818D02*
X180320000Y-92557818D01*
X180320000Y-92557818D02*
X179377818Y-93500000D01*
X185400000Y-87825000D02*
X185400000Y-90380000D01*
X178570000Y-93500000D02*
X178000000Y-93500000D01*
X185050000Y-90030000D02*
X185400000Y-90380000D01*
X177950000Y-93450000D02*
X176670000Y-92170000D01*
X179377818Y-93500000D02*
X178570000Y-93500000D01*
X184550000Y-90025000D02*
X185050000Y-90025000D01*
X175660000Y-87690000D02*
X173040000Y-87690000D01*
X185400000Y-90380000D02*
X185400000Y-91900000D01*
X176670000Y-92170000D02*
X176670000Y-92160000D01*
%TO.N,Net-(S1-NO_1)*%
X160840000Y-88960000D02*
X165420000Y-88960000D01*
X148150000Y-97100000D02*
X148150000Y-96600000D01*
X148150000Y-96600000D02*
X148800000Y-95950000D01*
X159300000Y-90500000D02*
X160840000Y-88960000D01*
X148800000Y-95950000D02*
X150000000Y-95950000D01*
%TD*%
%TA.AperFunction,Conductor*%
%TO.N,GND2*%
G36*
X190943039Y-79019685D02*
G01*
X190988794Y-79072489D01*
X191000000Y-79124000D01*
X191000000Y-117876000D01*
X190980315Y-117943039D01*
X190927511Y-117988794D01*
X190876000Y-118000000D01*
X140361966Y-118000000D01*
X140294927Y-117980315D01*
X140249172Y-117927511D01*
X140237976Y-117874419D01*
X140263787Y-115850000D01*
X142004571Y-115850000D01*
X142024244Y-116062310D01*
X142082596Y-116267392D01*
X142082596Y-116267394D01*
X142177632Y-116458253D01*
X142177634Y-116458255D01*
X142306128Y-116628407D01*
X142463698Y-116772052D01*
X142644981Y-116884298D01*
X142843802Y-116961321D01*
X143053390Y-117000500D01*
X143053392Y-117000500D01*
X143266608Y-117000500D01*
X143266610Y-117000500D01*
X143476198Y-116961321D01*
X143675019Y-116884298D01*
X143856302Y-116772052D01*
X144013872Y-116628407D01*
X144142366Y-116458255D01*
X144237405Y-116267389D01*
X144295756Y-116062310D01*
X144306529Y-115946047D01*
X144332315Y-115881111D01*
X144374622Y-115850804D01*
X144483130Y-115850804D01*
X144519503Y-115871668D01*
X144551693Y-115933681D01*
X144553471Y-115946048D01*
X144564244Y-116062310D01*
X144622596Y-116267392D01*
X144622596Y-116267394D01*
X144717632Y-116458253D01*
X144717634Y-116458255D01*
X144846128Y-116628407D01*
X145003698Y-116772052D01*
X145184981Y-116884298D01*
X145383802Y-116961321D01*
X145593390Y-117000500D01*
X145593392Y-117000500D01*
X145806608Y-117000500D01*
X145806610Y-117000500D01*
X146016198Y-116961321D01*
X146215019Y-116884298D01*
X146396302Y-116772052D01*
X146553872Y-116628407D01*
X146682366Y-116458255D01*
X146777405Y-116267389D01*
X146835756Y-116062310D01*
X146846529Y-115946047D01*
X146872315Y-115881111D01*
X146916869Y-115849194D01*
X146880497Y-115828331D01*
X146848307Y-115766318D01*
X146846529Y-115753951D01*
X146845849Y-115746613D01*
X146835756Y-115637690D01*
X146777405Y-115432611D01*
X146777403Y-115432606D01*
X146777403Y-115432605D01*
X146682367Y-115241746D01*
X146553872Y-115071593D01*
X146396302Y-114927948D01*
X146345912Y-114896748D01*
X146215020Y-114815702D01*
X146215012Y-114815698D01*
X146179705Y-114802020D01*
X146124304Y-114759446D01*
X146100714Y-114693679D01*
X146100500Y-114686394D01*
X146100500Y-113437255D01*
X146120185Y-113370216D01*
X146136814Y-113349578D01*
X146224991Y-113261400D01*
X146286312Y-113227917D01*
X146296486Y-113226144D01*
X146299997Y-113225681D01*
X146300000Y-113225682D01*
X146456762Y-113205044D01*
X146602841Y-113144536D01*
X146728282Y-113048282D01*
X146774025Y-112988668D01*
X146830452Y-112947466D01*
X146900198Y-112943311D01*
X146960081Y-112976474D01*
X147803181Y-113819574D01*
X147836666Y-113880897D01*
X147839500Y-113907255D01*
X147839500Y-114686394D01*
X147819815Y-114753433D01*
X147767011Y-114799188D01*
X147760295Y-114802020D01*
X147724987Y-114815698D01*
X147724979Y-114815702D01*
X147543699Y-114927947D01*
X147386127Y-115071593D01*
X147257632Y-115241746D01*
X147162596Y-115432605D01*
X147162596Y-115432607D01*
X147104244Y-115637689D01*
X147093471Y-115753951D01*
X147067685Y-115818888D01*
X147023130Y-115850804D01*
X147059503Y-115871668D01*
X147091693Y-115933681D01*
X147093471Y-115946048D01*
X147104244Y-116062310D01*
X147162596Y-116267392D01*
X147162596Y-116267394D01*
X147257632Y-116458253D01*
X147257634Y-116458255D01*
X147386128Y-116628407D01*
X147543698Y-116772052D01*
X147724981Y-116884298D01*
X147923802Y-116961321D01*
X148133390Y-117000500D01*
X148133392Y-117000500D01*
X148346608Y-117000500D01*
X148346610Y-117000500D01*
X148556198Y-116961321D01*
X148755019Y-116884298D01*
X148936302Y-116772052D01*
X149093872Y-116628407D01*
X149222366Y-116458255D01*
X149317405Y-116267389D01*
X149375756Y-116062310D01*
X149386529Y-115946047D01*
X149412315Y-115881111D01*
X149456869Y-115849194D01*
X149420497Y-115828331D01*
X149388307Y-115766318D01*
X149386529Y-115753951D01*
X149385849Y-115746613D01*
X149375756Y-115637690D01*
X149317405Y-115432611D01*
X149317403Y-115432606D01*
X149317403Y-115432605D01*
X149222367Y-115241746D01*
X149093872Y-115071593D01*
X148936302Y-114927948D01*
X148885912Y-114896748D01*
X148755020Y-114815702D01*
X148755012Y-114815698D01*
X148719705Y-114802020D01*
X148664304Y-114759446D01*
X148640714Y-114693679D01*
X148640500Y-114686394D01*
X148640500Y-113637275D01*
X148640500Y-113637273D01*
X148613207Y-113535413D01*
X148560480Y-113444087D01*
X148485913Y-113369520D01*
X147686819Y-112570426D01*
X147653334Y-112509103D01*
X147650500Y-112482745D01*
X147650500Y-110412180D01*
X147670185Y-110345141D01*
X147700187Y-110312914D01*
X147807546Y-110232546D01*
X147893796Y-110117331D01*
X147944091Y-109982483D01*
X147950500Y-109922873D01*
X147950499Y-109277128D01*
X147944091Y-109217517D01*
X147936540Y-109197273D01*
X147893797Y-109082671D01*
X147893793Y-109082664D01*
X147807547Y-108967455D01*
X147800746Y-108962364D01*
X147727521Y-108907547D01*
X147700188Y-108887085D01*
X147658318Y-108831151D01*
X147650500Y-108787819D01*
X147650500Y-105527254D01*
X147670185Y-105460215D01*
X147686819Y-105439573D01*
X148251818Y-104874574D01*
X148844991Y-104281400D01*
X148906312Y-104247917D01*
X148916485Y-104246144D01*
X148919997Y-104245681D01*
X148920000Y-104245682D01*
X149076762Y-104225044D01*
X149222841Y-104164536D01*
X149348282Y-104068282D01*
X149444536Y-103942841D01*
X149505044Y-103796762D01*
X149525682Y-103640000D01*
X149524455Y-103630682D01*
X149505044Y-103483239D01*
X149505044Y-103483238D01*
X149444536Y-103337159D01*
X149348282Y-103211718D01*
X149222841Y-103115464D01*
X149076762Y-103054956D01*
X149076760Y-103054955D01*
X148920001Y-103034318D01*
X148919999Y-103034318D01*
X148763239Y-103054955D01*
X148763237Y-103054956D01*
X148617160Y-103115463D01*
X148491718Y-103211718D01*
X148395463Y-103337160D01*
X148334956Y-103483237D01*
X148334956Y-103483238D01*
X148313855Y-103643513D01*
X148285588Y-103707409D01*
X148278597Y-103715008D01*
X146929522Y-105064084D01*
X146929520Y-105064087D01*
X146876793Y-105155410D01*
X146849500Y-105257273D01*
X146849500Y-108787819D01*
X146829815Y-108854858D01*
X146799812Y-108887085D01*
X146692452Y-108967455D01*
X146606206Y-109082664D01*
X146606202Y-109082671D01*
X146555910Y-109217513D01*
X146555909Y-109217517D01*
X146549500Y-109277127D01*
X146549500Y-109277134D01*
X146549500Y-109277135D01*
X146549500Y-109922870D01*
X146549501Y-109922876D01*
X146555908Y-109982483D01*
X146606202Y-110117328D01*
X146606206Y-110117335D01*
X146675358Y-110209709D01*
X146692454Y-110232546D01*
X146799811Y-110312914D01*
X146841682Y-110368847D01*
X146849500Y-110412180D01*
X146849500Y-112033284D01*
X146829815Y-112100323D01*
X146777011Y-112146078D01*
X146707853Y-112156022D01*
X146650015Y-112131661D01*
X146602841Y-112095464D01*
X146456762Y-112034956D01*
X146456760Y-112034955D01*
X146300001Y-112014318D01*
X146299999Y-112014318D01*
X146143239Y-112034955D01*
X146143237Y-112034956D01*
X145997160Y-112095463D01*
X145871718Y-112191718D01*
X145775463Y-112317160D01*
X145714956Y-112463237D01*
X145714956Y-112463238D01*
X145693855Y-112623513D01*
X145665588Y-112687409D01*
X145658598Y-112695008D01*
X145379519Y-112974088D01*
X145326791Y-113065413D01*
X145311094Y-113124002D01*
X145299500Y-113167271D01*
X145299500Y-114686394D01*
X145279815Y-114753433D01*
X145227011Y-114799188D01*
X145220295Y-114802020D01*
X145184987Y-114815698D01*
X145184979Y-114815702D01*
X145003699Y-114927947D01*
X144846127Y-115071593D01*
X144717632Y-115241746D01*
X144622596Y-115432605D01*
X144622596Y-115432607D01*
X144564244Y-115637689D01*
X144553471Y-115753951D01*
X144527685Y-115818888D01*
X144483130Y-115850804D01*
X144374622Y-115850804D01*
X144376869Y-115849194D01*
X144340497Y-115828331D01*
X144308307Y-115766318D01*
X144306529Y-115753951D01*
X144305849Y-115746613D01*
X144295756Y-115637690D01*
X144237405Y-115432611D01*
X144237403Y-115432606D01*
X144237403Y-115432605D01*
X144142367Y-115241746D01*
X144013872Y-115071593D01*
X143856302Y-114927948D01*
X143805912Y-114896748D01*
X143675020Y-114815702D01*
X143675012Y-114815698D01*
X143639705Y-114802020D01*
X143584304Y-114759446D01*
X143560714Y-114693679D01*
X143560500Y-114686394D01*
X143560500Y-114207254D01*
X143580185Y-114140215D01*
X143596815Y-114119577D01*
X144364991Y-113351400D01*
X144426312Y-113317917D01*
X144436485Y-113316144D01*
X144439997Y-113315681D01*
X144440000Y-113315682D01*
X144596762Y-113295044D01*
X144742841Y-113234536D01*
X144868282Y-113138282D01*
X144964536Y-113012841D01*
X145025044Y-112866762D01*
X145045682Y-112710000D01*
X145043708Y-112695008D01*
X145025044Y-112553239D01*
X145025044Y-112553238D01*
X144964536Y-112407159D01*
X144868282Y-112281718D01*
X144742841Y-112185464D01*
X144649401Y-112146760D01*
X144596762Y-112124956D01*
X144596760Y-112124955D01*
X144440001Y-112104318D01*
X144439999Y-112104318D01*
X144283239Y-112124955D01*
X144283237Y-112124956D01*
X144137160Y-112185463D01*
X144011718Y-112281718D01*
X143915463Y-112407160D01*
X143854956Y-112553237D01*
X143854956Y-112553238D01*
X143833855Y-112713513D01*
X143805588Y-112777409D01*
X143798597Y-112785008D01*
X142839522Y-113744084D01*
X142839518Y-113744090D01*
X142786792Y-113835412D01*
X142786793Y-113835413D01*
X142759500Y-113937273D01*
X142759500Y-114686394D01*
X142739815Y-114753433D01*
X142687011Y-114799188D01*
X142680295Y-114802020D01*
X142644987Y-114815698D01*
X142644979Y-114815702D01*
X142463699Y-114927947D01*
X142306127Y-115071593D01*
X142177632Y-115241746D01*
X142082596Y-115432605D01*
X142082596Y-115432607D01*
X142024244Y-115637689D01*
X142004571Y-115849999D01*
X142004571Y-115850000D01*
X140263787Y-115850000D01*
X140531194Y-94876914D01*
X140551731Y-94810136D01*
X140605114Y-94765058D01*
X140655183Y-94754500D01*
X140747699Y-94754500D01*
X140767097Y-94756027D01*
X140858475Y-94770499D01*
X140858481Y-94770500D01*
X141121518Y-94770499D01*
X141212907Y-94756025D01*
X141232299Y-94754500D01*
X141997733Y-94754500D01*
X141997735Y-94754500D01*
X142019823Y-94748581D01*
X142034221Y-94744724D01*
X142066313Y-94740499D01*
X142091517Y-94740499D01*
X142091518Y-94740499D01*
X142185304Y-94725646D01*
X142193703Y-94721366D01*
X142262368Y-94708467D01*
X142306294Y-94721365D01*
X142314696Y-94725646D01*
X142314698Y-94725646D01*
X142314700Y-94725647D01*
X142374513Y-94735120D01*
X142408481Y-94740500D01*
X142476349Y-94740499D01*
X142508445Y-94744725D01*
X142552015Y-94756400D01*
X143259700Y-94756400D01*
X143279097Y-94757926D01*
X143358481Y-94770500D01*
X143621518Y-94770499D01*
X143700907Y-94757925D01*
X143720303Y-94756400D01*
X147352901Y-94756400D01*
X147419940Y-94776085D01*
X147465695Y-94828889D01*
X147475639Y-94898047D01*
X147446614Y-94961603D01*
X147428391Y-94978772D01*
X147384192Y-95012688D01*
X147369390Y-95024046D01*
X147273135Y-95149488D01*
X147212628Y-95295565D01*
X147212627Y-95295567D01*
X147191990Y-95452326D01*
X147191990Y-95452329D01*
X147212627Y-95609088D01*
X147212629Y-95609093D01*
X147224765Y-95638392D01*
X147232234Y-95707861D01*
X147200959Y-95770340D01*
X147157657Y-95800405D01*
X147097160Y-95825463D01*
X146971718Y-95921718D01*
X146875463Y-96047160D01*
X146814956Y-96193237D01*
X146814955Y-96193239D01*
X146794318Y-96349998D01*
X146794318Y-96350001D01*
X146814955Y-96506760D01*
X146814956Y-96506762D01*
X146861340Y-96618744D01*
X146875464Y-96652841D01*
X146971718Y-96778282D01*
X147097159Y-96874536D01*
X147243238Y-96935044D01*
X147400000Y-96955682D01*
X147405975Y-96954895D01*
X147475010Y-96965657D01*
X147527268Y-97012034D01*
X147546157Y-97079302D01*
X147545106Y-97094015D01*
X147544318Y-97100001D01*
X147564955Y-97256760D01*
X147564956Y-97256762D01*
X147625464Y-97402841D01*
X147721718Y-97528282D01*
X147847159Y-97624536D01*
X147993238Y-97685044D01*
X148064722Y-97694455D01*
X148149999Y-97705682D01*
X148150000Y-97705682D01*
X148150001Y-97705682D01*
X148202254Y-97698802D01*
X148306762Y-97685044D01*
X148452841Y-97624536D01*
X148578282Y-97528282D01*
X148674536Y-97402841D01*
X148735044Y-97256762D01*
X148755682Y-97100000D01*
X148754367Y-97090015D01*
X148738692Y-96970949D01*
X148735044Y-96943238D01*
X148674536Y-96797159D01*
X148673306Y-96795556D01*
X148672688Y-96793958D01*
X148670472Y-96790119D01*
X148671070Y-96789773D01*
X148648113Y-96730388D01*
X148662151Y-96661944D01*
X148684002Y-96632390D01*
X148787344Y-96529049D01*
X148929574Y-96386819D01*
X148990897Y-96353334D01*
X149017255Y-96350500D01*
X149195700Y-96350500D01*
X149262739Y-96370185D01*
X149308494Y-96422989D01*
X149319700Y-96474500D01*
X149319700Y-96494465D01*
X149319700Y-96494469D01*
X149319701Y-96494481D01*
X149323688Y-96528857D01*
X149322030Y-96529049D01*
X149322030Y-96570953D01*
X149323689Y-96571146D01*
X149319699Y-96605531D01*
X149319699Y-96894456D01*
X149319701Y-96894480D01*
X149323688Y-96928856D01*
X149322031Y-96929048D01*
X149322031Y-96970953D01*
X149323689Y-96971146D01*
X149319699Y-97005531D01*
X149319699Y-97294456D01*
X149319701Y-97294480D01*
X149323688Y-97328856D01*
X149322030Y-97329048D01*
X149322030Y-97370952D01*
X149323689Y-97371145D01*
X149319699Y-97405530D01*
X149319699Y-97694455D01*
X149319701Y-97694479D01*
X149323688Y-97728855D01*
X149322032Y-97729047D01*
X149322032Y-97770954D01*
X149323689Y-97771147D01*
X149319699Y-97805532D01*
X149319699Y-98094457D01*
X149319701Y-98094481D01*
X149323688Y-98128857D01*
X149322030Y-98129049D01*
X149322030Y-98170953D01*
X149323689Y-98171146D01*
X149319699Y-98205531D01*
X149319699Y-98494456D01*
X149319701Y-98494480D01*
X149323688Y-98528856D01*
X149322030Y-98529048D01*
X149322030Y-98570952D01*
X149323689Y-98571145D01*
X149319699Y-98605530D01*
X149319699Y-98894455D01*
X149319701Y-98894479D01*
X149323688Y-98928855D01*
X149322032Y-98929047D01*
X149322032Y-98970954D01*
X149323689Y-98971147D01*
X149319699Y-99005532D01*
X149319699Y-99294457D01*
X149319701Y-99294481D01*
X149323688Y-99328857D01*
X149322030Y-99329049D01*
X149322030Y-99370953D01*
X149323689Y-99371146D01*
X149319699Y-99405531D01*
X149319699Y-99694456D01*
X149319701Y-99694482D01*
X149322612Y-99719587D01*
X149322614Y-99719591D01*
X149367992Y-99822364D01*
X149367993Y-99822365D01*
X149447434Y-99901806D01*
X149550208Y-99947185D01*
X149575334Y-99950100D01*
X150325900Y-99950099D01*
X150392939Y-99969783D01*
X150438694Y-100022587D01*
X150449900Y-100074099D01*
X150449900Y-100824657D01*
X150449902Y-100824683D01*
X150452813Y-100849788D01*
X150452815Y-100849792D01*
X150498193Y-100952565D01*
X150498194Y-100952566D01*
X150577635Y-101032007D01*
X150680409Y-101077386D01*
X150705535Y-101080301D01*
X150725497Y-101080300D01*
X150792535Y-101099982D01*
X150838292Y-101152784D01*
X150849500Y-101204300D01*
X150849500Y-102252726D01*
X150876793Y-102354589D01*
X150898145Y-102391571D01*
X150929520Y-102445913D01*
X150929522Y-102445915D01*
X150995926Y-102512319D01*
X151029411Y-102573642D01*
X151024427Y-102643334D01*
X150995926Y-102687681D01*
X150854522Y-102829084D01*
X150854520Y-102829087D01*
X150834313Y-102864087D01*
X150801793Y-102920412D01*
X150792415Y-102955412D01*
X150792415Y-102955413D01*
X150792414Y-102955412D01*
X150774500Y-103022271D01*
X150774500Y-107882745D01*
X150754815Y-107949784D01*
X150738181Y-107970426D01*
X150540426Y-108168181D01*
X150479103Y-108201666D01*
X150452745Y-108204500D01*
X149455339Y-108204500D01*
X149455323Y-108204499D01*
X149447727Y-108204499D01*
X149342273Y-108204499D01*
X149274366Y-108222695D01*
X149240412Y-108231793D01*
X149149084Y-108284522D01*
X149074518Y-108359089D01*
X148627827Y-108805778D01*
X148583479Y-108834279D01*
X148457671Y-108881202D01*
X148457664Y-108881206D01*
X148342455Y-108967452D01*
X148342452Y-108967455D01*
X148256206Y-109082664D01*
X148256202Y-109082671D01*
X148205910Y-109217513D01*
X148205909Y-109217517D01*
X148199500Y-109277127D01*
X148199500Y-109277134D01*
X148199500Y-109277135D01*
X148199500Y-109922870D01*
X148199501Y-109922876D01*
X148205908Y-109982483D01*
X148256202Y-110117328D01*
X148256206Y-110117335D01*
X148342452Y-110232544D01*
X148342455Y-110232547D01*
X148457664Y-110318793D01*
X148457671Y-110318797D01*
X148499497Y-110334397D01*
X148592517Y-110369091D01*
X148652127Y-110375500D01*
X149147872Y-110375499D01*
X149207483Y-110369091D01*
X149342331Y-110318796D01*
X149457546Y-110232546D01*
X149543796Y-110117331D01*
X149583818Y-110010027D01*
X149625689Y-109954093D01*
X149691153Y-109929676D01*
X149759426Y-109944527D01*
X149808832Y-109993932D01*
X149816182Y-110010027D01*
X149856202Y-110117328D01*
X149856206Y-110117335D01*
X149942452Y-110232544D01*
X149942455Y-110232547D01*
X150057664Y-110318793D01*
X150057671Y-110318797D01*
X150099497Y-110334397D01*
X150192517Y-110369091D01*
X150252127Y-110375500D01*
X150747872Y-110375499D01*
X150807483Y-110369091D01*
X150942331Y-110318796D01*
X151057546Y-110232546D01*
X151143796Y-110117331D01*
X151174318Y-110035498D01*
X151216189Y-109979564D01*
X151281653Y-109955147D01*
X151349926Y-109969998D01*
X151399332Y-110019403D01*
X151414500Y-110078831D01*
X151414500Y-111217745D01*
X151394815Y-111284784D01*
X151378181Y-111305426D01*
X150459522Y-112224084D01*
X150459520Y-112224087D01*
X150406791Y-112315414D01*
X150389616Y-112379518D01*
X150379500Y-112417271D01*
X150379500Y-114686394D01*
X150359815Y-114753433D01*
X150307011Y-114799188D01*
X150300295Y-114802020D01*
X150264987Y-114815698D01*
X150264979Y-114815702D01*
X150083699Y-114927947D01*
X149926127Y-115071593D01*
X149797632Y-115241746D01*
X149702596Y-115432605D01*
X149702596Y-115432607D01*
X149644244Y-115637689D01*
X149633471Y-115753951D01*
X149607685Y-115818888D01*
X149563130Y-115850804D01*
X149599503Y-115871668D01*
X149631693Y-115933681D01*
X149633471Y-115946048D01*
X149644244Y-116062310D01*
X149702596Y-116267392D01*
X149702596Y-116267394D01*
X149797632Y-116458253D01*
X149797634Y-116458255D01*
X149926128Y-116628407D01*
X150083698Y-116772052D01*
X150264981Y-116884298D01*
X150463802Y-116961321D01*
X150673390Y-117000500D01*
X150673392Y-117000500D01*
X150886608Y-117000500D01*
X150886610Y-117000500D01*
X151096198Y-116961321D01*
X151295019Y-116884298D01*
X151476302Y-116772052D01*
X151633872Y-116628407D01*
X151762366Y-116458255D01*
X151857405Y-116267389D01*
X151915756Y-116062310D01*
X151926529Y-115946047D01*
X151952315Y-115881111D01*
X151996869Y-115849194D01*
X151960497Y-115828331D01*
X151928307Y-115766318D01*
X151926529Y-115753951D01*
X151925849Y-115746613D01*
X151915756Y-115637690D01*
X151857405Y-115432611D01*
X151857403Y-115432606D01*
X151857403Y-115432605D01*
X151762367Y-115241746D01*
X151633872Y-115071593D01*
X151476302Y-114927948D01*
X151425912Y-114896748D01*
X151295020Y-114815702D01*
X151295012Y-114815698D01*
X151259705Y-114802020D01*
X151204304Y-114759446D01*
X151180714Y-114693679D01*
X151180500Y-114686394D01*
X151180500Y-112687255D01*
X151200185Y-112620216D01*
X151216819Y-112599574D01*
X151670315Y-112146078D01*
X152135480Y-111680913D01*
X152188207Y-111589588D01*
X152215500Y-111487727D01*
X152215500Y-111382273D01*
X152215500Y-110499499D01*
X152235185Y-110432460D01*
X152287989Y-110386705D01*
X152339500Y-110375499D01*
X152397871Y-110375499D01*
X152397872Y-110375499D01*
X152457483Y-110369091D01*
X152592331Y-110318796D01*
X152707546Y-110232546D01*
X152793796Y-110117331D01*
X152844091Y-109982483D01*
X152850500Y-109922873D01*
X152850499Y-109517253D01*
X152870183Y-109450215D01*
X152886817Y-109429574D01*
X152897823Y-109418569D01*
X152959147Y-109385087D01*
X153028839Y-109390074D01*
X153084770Y-109431948D01*
X153109184Y-109497414D01*
X153109500Y-109506254D01*
X153109500Y-111322745D01*
X153089815Y-111389784D01*
X153073181Y-111410426D01*
X152999522Y-111484084D01*
X152999518Y-111484090D01*
X152946792Y-111575412D01*
X152946793Y-111575413D01*
X152919500Y-111677273D01*
X152919500Y-114686394D01*
X152899815Y-114753433D01*
X152847011Y-114799188D01*
X152840295Y-114802020D01*
X152804987Y-114815698D01*
X152804979Y-114815702D01*
X152623699Y-114927947D01*
X152466127Y-115071593D01*
X152337632Y-115241746D01*
X152242596Y-115432605D01*
X152242596Y-115432607D01*
X152184244Y-115637689D01*
X152173471Y-115753951D01*
X152147685Y-115818888D01*
X152103130Y-115850804D01*
X152139503Y-115871668D01*
X152171693Y-115933681D01*
X152173471Y-115946048D01*
X152184244Y-116062310D01*
X152242596Y-116267392D01*
X152242596Y-116267394D01*
X152337632Y-116458253D01*
X152337634Y-116458255D01*
X152466128Y-116628407D01*
X152623698Y-116772052D01*
X152804981Y-116884298D01*
X153003802Y-116961321D01*
X153213390Y-117000500D01*
X153213392Y-117000500D01*
X153426608Y-117000500D01*
X153426610Y-117000500D01*
X153636198Y-116961321D01*
X153835019Y-116884298D01*
X154016302Y-116772052D01*
X154173872Y-116628407D01*
X154302366Y-116458255D01*
X154397405Y-116267389D01*
X154455756Y-116062310D01*
X154466529Y-115946047D01*
X154492315Y-115881111D01*
X154536869Y-115849194D01*
X154500497Y-115828331D01*
X154468307Y-115766318D01*
X154466529Y-115753951D01*
X154465849Y-115746613D01*
X154455756Y-115637690D01*
X154397405Y-115432611D01*
X154397403Y-115432606D01*
X154397403Y-115432605D01*
X154302367Y-115241746D01*
X154173872Y-115071593D01*
X154016302Y-114927948D01*
X153965912Y-114896748D01*
X153835020Y-114815702D01*
X153835012Y-114815698D01*
X153799705Y-114802020D01*
X153744304Y-114759446D01*
X153720714Y-114693679D01*
X153720500Y-114686394D01*
X153720500Y-112766254D01*
X153740185Y-112699215D01*
X153792989Y-112653460D01*
X153862147Y-112643516D01*
X153925703Y-112672541D01*
X153932168Y-112678561D01*
X154603182Y-113349574D01*
X155423181Y-114169573D01*
X155456666Y-114230896D01*
X155459500Y-114257254D01*
X155459500Y-114686394D01*
X155439815Y-114753433D01*
X155387011Y-114799188D01*
X155380295Y-114802020D01*
X155344987Y-114815698D01*
X155344979Y-114815702D01*
X155163699Y-114927947D01*
X155006127Y-115071593D01*
X154877632Y-115241746D01*
X154782596Y-115432605D01*
X154782596Y-115432607D01*
X154724244Y-115637689D01*
X154713471Y-115753951D01*
X154687685Y-115818888D01*
X154643130Y-115850804D01*
X154679503Y-115871668D01*
X154711693Y-115933681D01*
X154713471Y-115946048D01*
X154724244Y-116062310D01*
X154782596Y-116267392D01*
X154782596Y-116267394D01*
X154877632Y-116458253D01*
X154877634Y-116458255D01*
X155006128Y-116628407D01*
X155163698Y-116772052D01*
X155344981Y-116884298D01*
X155543802Y-116961321D01*
X155753390Y-117000500D01*
X155753392Y-117000500D01*
X155966608Y-117000500D01*
X155966610Y-117000500D01*
X156176198Y-116961321D01*
X156375019Y-116884298D01*
X156556302Y-116772052D01*
X156713872Y-116628407D01*
X156842366Y-116458255D01*
X156937405Y-116267389D01*
X156995756Y-116062310D01*
X157006529Y-115946047D01*
X157032315Y-115881111D01*
X157076869Y-115849194D01*
X157040497Y-115828331D01*
X157008307Y-115766318D01*
X157006529Y-115753951D01*
X157005849Y-115746613D01*
X156995756Y-115637690D01*
X156937405Y-115432611D01*
X156937403Y-115432606D01*
X156937403Y-115432605D01*
X156842367Y-115241746D01*
X156713872Y-115071593D01*
X156556302Y-114927948D01*
X156505912Y-114896748D01*
X156375020Y-114815702D01*
X156375012Y-114815698D01*
X156339705Y-114802020D01*
X156284304Y-114759446D01*
X156260714Y-114693679D01*
X156260500Y-114686394D01*
X156260500Y-114102729D01*
X156260501Y-114102716D01*
X156260501Y-113987274D01*
X156239059Y-113907255D01*
X156233207Y-113885413D01*
X156233206Y-113885412D01*
X156233206Y-113885410D01*
X156233204Y-113885407D01*
X156209637Y-113844588D01*
X156209635Y-113844586D01*
X156180481Y-113794088D01*
X156101582Y-113715189D01*
X156101571Y-113715179D01*
X154486819Y-112100426D01*
X154453334Y-112039103D01*
X154450500Y-112012745D01*
X154450500Y-107977394D01*
X154470185Y-107910355D01*
X154522989Y-107864600D01*
X154590689Y-107854456D01*
X154600000Y-107855682D01*
X154600001Y-107855682D01*
X154652254Y-107848802D01*
X154756762Y-107835044D01*
X154902841Y-107774536D01*
X154902848Y-107774530D01*
X154903494Y-107774158D01*
X154904120Y-107774006D01*
X154910349Y-107771426D01*
X154910751Y-107772397D01*
X154971393Y-107757682D01*
X155037422Y-107780531D01*
X155080615Y-107835450D01*
X155089500Y-107881542D01*
X155089500Y-111712726D01*
X155116793Y-111814589D01*
X155127561Y-111833239D01*
X155169520Y-111905913D01*
X155169522Y-111905915D01*
X157894301Y-114630694D01*
X157927786Y-114692017D01*
X157922802Y-114761709D01*
X157880930Y-114817642D01*
X157871898Y-114823802D01*
X157703699Y-114927947D01*
X157546127Y-115071593D01*
X157417632Y-115241746D01*
X157322596Y-115432605D01*
X157322596Y-115432607D01*
X157264244Y-115637689D01*
X157253471Y-115753951D01*
X157227685Y-115818888D01*
X157183130Y-115850804D01*
X157219503Y-115871668D01*
X157251693Y-115933681D01*
X157253471Y-115946048D01*
X157264244Y-116062310D01*
X157322596Y-116267392D01*
X157322596Y-116267394D01*
X157417632Y-116458253D01*
X157417634Y-116458255D01*
X157546128Y-116628407D01*
X157703698Y-116772052D01*
X157884981Y-116884298D01*
X158083802Y-116961321D01*
X158293390Y-117000500D01*
X158293392Y-117000500D01*
X158506608Y-117000500D01*
X158506610Y-117000500D01*
X158716198Y-116961321D01*
X158915019Y-116884298D01*
X159096302Y-116772052D01*
X159253872Y-116628407D01*
X159382366Y-116458255D01*
X159477405Y-116267389D01*
X159535756Y-116062310D01*
X159546529Y-115946047D01*
X159572315Y-115881111D01*
X159616869Y-115849194D01*
X159580497Y-115828331D01*
X159548307Y-115766318D01*
X159546529Y-115753951D01*
X159545849Y-115746613D01*
X159535756Y-115637690D01*
X159477405Y-115432611D01*
X159477403Y-115432606D01*
X159477403Y-115432605D01*
X159382367Y-115241746D01*
X159253872Y-115071593D01*
X159096302Y-114927948D01*
X159045912Y-114896748D01*
X158915020Y-114815702D01*
X158915012Y-114815698D01*
X158879705Y-114802020D01*
X158824304Y-114759446D01*
X158800714Y-114693679D01*
X158800500Y-114686394D01*
X158800500Y-114517275D01*
X158800500Y-114517273D01*
X158773207Y-114415413D01*
X158720480Y-114324087D01*
X158645913Y-114249520D01*
X156386394Y-111990001D01*
X157794318Y-111990001D01*
X157814955Y-112146760D01*
X157814956Y-112146762D01*
X157830986Y-112185463D01*
X157875464Y-112292841D01*
X157971718Y-112418282D01*
X158097159Y-112514536D01*
X158243238Y-112575044D01*
X158400000Y-112595682D01*
X158400001Y-112595681D01*
X158403513Y-112596144D01*
X158467410Y-112624410D01*
X158475009Y-112631402D01*
X160459551Y-114615944D01*
X160493036Y-114677267D01*
X160488052Y-114746959D01*
X160446180Y-114802892D01*
X160427148Y-114814622D01*
X160424986Y-114815698D01*
X160243699Y-114927947D01*
X160086127Y-115071593D01*
X159957632Y-115241746D01*
X159862596Y-115432605D01*
X159862596Y-115432607D01*
X159804244Y-115637689D01*
X159793471Y-115753951D01*
X159767685Y-115818888D01*
X159723130Y-115850804D01*
X159759503Y-115871668D01*
X159791693Y-115933681D01*
X159793471Y-115946048D01*
X159804244Y-116062310D01*
X159862596Y-116267392D01*
X159862596Y-116267394D01*
X159957632Y-116458253D01*
X159957634Y-116458255D01*
X160086128Y-116628407D01*
X160243698Y-116772052D01*
X160424981Y-116884298D01*
X160623802Y-116961321D01*
X160833390Y-117000500D01*
X160833392Y-117000500D01*
X161046608Y-117000500D01*
X161046610Y-117000500D01*
X161256198Y-116961321D01*
X161455019Y-116884298D01*
X161636302Y-116772052D01*
X161793872Y-116628407D01*
X161922366Y-116458255D01*
X162017405Y-116267389D01*
X162075756Y-116062310D01*
X162095429Y-115850000D01*
X162075756Y-115637690D01*
X162017405Y-115432611D01*
X162017403Y-115432606D01*
X162017403Y-115432605D01*
X161922367Y-115241746D01*
X161793872Y-115071593D01*
X161636302Y-114927948D01*
X161585912Y-114896748D01*
X161455020Y-114815702D01*
X161455012Y-114815698D01*
X161419705Y-114802020D01*
X161364304Y-114759446D01*
X161340714Y-114693679D01*
X161340500Y-114686394D01*
X161340500Y-114477275D01*
X161340500Y-114477273D01*
X161313207Y-114375413D01*
X161260480Y-114284087D01*
X161185913Y-114209520D01*
X159041402Y-112065009D01*
X159007917Y-112003686D01*
X159006144Y-111993513D01*
X159005681Y-111989998D01*
X158985044Y-111833238D01*
X158924536Y-111687159D01*
X158828282Y-111561718D01*
X158702841Y-111465464D01*
X158556762Y-111404956D01*
X158556760Y-111404955D01*
X158400001Y-111384318D01*
X158399999Y-111384318D01*
X158243239Y-111404955D01*
X158243237Y-111404956D01*
X158097160Y-111465463D01*
X157971718Y-111561718D01*
X157875463Y-111687160D01*
X157814956Y-111833237D01*
X157814955Y-111833239D01*
X157794318Y-111989998D01*
X157794318Y-111990001D01*
X156386394Y-111990001D01*
X155926819Y-111530426D01*
X155893334Y-111469103D01*
X155890500Y-111442745D01*
X155890500Y-108250000D01*
X158590900Y-108250000D01*
X158590900Y-108403444D01*
X158597301Y-108462972D01*
X158597303Y-108462979D01*
X158647545Y-108597686D01*
X158647549Y-108597693D01*
X158733709Y-108712787D01*
X158733712Y-108712790D01*
X158848806Y-108798950D01*
X158848813Y-108798954D01*
X158983520Y-108849196D01*
X158983527Y-108849198D01*
X159043055Y-108855599D01*
X159043072Y-108855600D01*
X159539400Y-108855600D01*
X159539400Y-108250000D01*
X160039400Y-108250000D01*
X160039400Y-108855600D01*
X160535728Y-108855600D01*
X160535744Y-108855599D01*
X160595272Y-108849198D01*
X160595279Y-108849196D01*
X160729986Y-108798954D01*
X160729993Y-108798950D01*
X160845087Y-108712790D01*
X160845090Y-108712787D01*
X160931250Y-108597693D01*
X160931254Y-108597686D01*
X160981496Y-108462979D01*
X160981498Y-108462972D01*
X160987899Y-108403444D01*
X160987900Y-108403427D01*
X160987900Y-108250000D01*
X163112100Y-108250000D01*
X163112100Y-108403444D01*
X163118501Y-108462972D01*
X163118503Y-108462979D01*
X163168745Y-108597686D01*
X163168749Y-108597693D01*
X163254909Y-108712787D01*
X163254912Y-108712790D01*
X163370006Y-108798950D01*
X163370013Y-108798954D01*
X163504720Y-108849196D01*
X163504727Y-108849198D01*
X163564255Y-108855599D01*
X163564272Y-108855600D01*
X164060600Y-108855600D01*
X164060600Y-108250000D01*
X164560600Y-108250000D01*
X164560600Y-108855600D01*
X165056928Y-108855600D01*
X165056944Y-108855599D01*
X165116472Y-108849198D01*
X165116479Y-108849196D01*
X165251186Y-108798954D01*
X165251193Y-108798950D01*
X165366287Y-108712790D01*
X165366290Y-108712787D01*
X165452450Y-108597693D01*
X165452454Y-108597686D01*
X165502696Y-108462979D01*
X165502698Y-108462972D01*
X165509099Y-108403444D01*
X165509100Y-108403427D01*
X165509100Y-108250000D01*
X164560600Y-108250000D01*
X164060600Y-108250000D01*
X163112100Y-108250000D01*
X160987900Y-108250000D01*
X160039400Y-108250000D01*
X159539400Y-108250000D01*
X158590900Y-108250000D01*
X155890500Y-108250000D01*
X155890500Y-107750000D01*
X158590900Y-107750000D01*
X159539400Y-107750000D01*
X159539400Y-107144400D01*
X160039400Y-107144400D01*
X160039400Y-107750000D01*
X160987900Y-107750000D01*
X163112100Y-107750000D01*
X164060600Y-107750000D01*
X164060600Y-107144400D01*
X164560600Y-107144400D01*
X164560600Y-107750000D01*
X165509100Y-107750000D01*
X165509100Y-107596572D01*
X165509099Y-107596555D01*
X165502698Y-107537027D01*
X165502696Y-107537020D01*
X165452454Y-107402313D01*
X165452450Y-107402306D01*
X165366290Y-107287212D01*
X165366287Y-107287209D01*
X165251193Y-107201049D01*
X165251186Y-107201045D01*
X165116479Y-107150803D01*
X165116472Y-107150801D01*
X165056944Y-107144400D01*
X164560600Y-107144400D01*
X164060600Y-107144400D01*
X163564255Y-107144400D01*
X163504727Y-107150801D01*
X163504720Y-107150803D01*
X163370013Y-107201045D01*
X163370006Y-107201049D01*
X163254912Y-107287209D01*
X163254909Y-107287212D01*
X163168749Y-107402306D01*
X163168745Y-107402313D01*
X163118503Y-107537020D01*
X163118501Y-107537027D01*
X163112100Y-107596555D01*
X163112100Y-107750000D01*
X160987900Y-107750000D01*
X160987900Y-107596572D01*
X160987899Y-107596555D01*
X160981498Y-107537027D01*
X160981496Y-107537020D01*
X160931254Y-107402313D01*
X160931250Y-107402306D01*
X160845090Y-107287212D01*
X160845087Y-107287209D01*
X160729993Y-107201049D01*
X160729986Y-107201045D01*
X160595279Y-107150803D01*
X160595272Y-107150801D01*
X160535744Y-107144400D01*
X160039400Y-107144400D01*
X159539400Y-107144400D01*
X159043055Y-107144400D01*
X158983527Y-107150801D01*
X158983520Y-107150803D01*
X158848813Y-107201045D01*
X158848806Y-107201049D01*
X158733712Y-107287209D01*
X158733709Y-107287212D01*
X158647549Y-107402306D01*
X158647545Y-107402313D01*
X158597303Y-107537020D01*
X158597301Y-107537027D01*
X158590900Y-107596555D01*
X158590900Y-107750000D01*
X155890500Y-107750000D01*
X155890500Y-106200456D01*
X158790400Y-106200456D01*
X158790402Y-106200482D01*
X158793313Y-106225587D01*
X158793315Y-106225591D01*
X158838693Y-106328364D01*
X158838694Y-106328365D01*
X158918135Y-106407806D01*
X159020909Y-106453185D01*
X159046035Y-106456100D01*
X160532764Y-106456099D01*
X160532779Y-106456097D01*
X160532782Y-106456097D01*
X160557887Y-106453186D01*
X160557888Y-106453185D01*
X160557891Y-106453185D01*
X160660665Y-106407806D01*
X160740106Y-106328365D01*
X160763928Y-106274412D01*
X160809014Y-106221037D01*
X160875800Y-106200510D01*
X160877362Y-106200500D01*
X163222638Y-106200500D01*
X163289677Y-106220185D01*
X163335432Y-106272989D01*
X163336068Y-106274406D01*
X163359894Y-106328365D01*
X163439335Y-106407806D01*
X163542109Y-106453185D01*
X163567235Y-106456100D01*
X165053964Y-106456099D01*
X165053979Y-106456097D01*
X165053982Y-106456097D01*
X165079087Y-106453186D01*
X165079088Y-106453185D01*
X165079091Y-106453185D01*
X165181865Y-106407806D01*
X165261306Y-106328365D01*
X165285128Y-106274412D01*
X165330214Y-106221037D01*
X165397000Y-106200510D01*
X165398562Y-106200500D01*
X165547745Y-106200500D01*
X165614784Y-106220185D01*
X165635426Y-106236819D01*
X167503181Y-108104573D01*
X167536666Y-108165896D01*
X167539500Y-108192254D01*
X167539500Y-108597870D01*
X167539501Y-108597876D01*
X167545908Y-108657483D01*
X167596202Y-108792328D01*
X167596206Y-108792335D01*
X167682452Y-108907544D01*
X167682455Y-108907547D01*
X167797664Y-108993793D01*
X167797671Y-108993797D01*
X167801275Y-108995141D01*
X167932517Y-109044091D01*
X167992127Y-109050500D01*
X168487872Y-109050499D01*
X168547483Y-109044091D01*
X168682331Y-108993796D01*
X168797546Y-108907546D01*
X168883796Y-108792331D01*
X168934091Y-108657483D01*
X168940500Y-108597873D01*
X168940499Y-107952128D01*
X168934091Y-107892517D01*
X168930446Y-107882745D01*
X168883797Y-107757671D01*
X168883793Y-107757664D01*
X168797547Y-107642455D01*
X168797544Y-107642452D01*
X168682335Y-107556206D01*
X168682328Y-107556202D01*
X168547482Y-107505908D01*
X168547483Y-107505908D01*
X168487883Y-107499501D01*
X168487881Y-107499500D01*
X168487873Y-107499500D01*
X168487865Y-107499500D01*
X168082255Y-107499500D01*
X168015216Y-107479815D01*
X167994574Y-107463181D01*
X166010915Y-105479522D01*
X166010913Y-105479520D01*
X165965250Y-105453156D01*
X165919589Y-105426793D01*
X165868657Y-105413146D01*
X165817727Y-105399500D01*
X165817726Y-105399500D01*
X165398562Y-105399500D01*
X165331523Y-105379815D01*
X165285768Y-105327011D01*
X165285128Y-105325587D01*
X165269573Y-105290359D01*
X165261306Y-105271635D01*
X165181865Y-105192194D01*
X165181863Y-105192193D01*
X165079092Y-105146815D01*
X165053965Y-105143900D01*
X163567243Y-105143900D01*
X163567217Y-105143902D01*
X163542112Y-105146813D01*
X163542108Y-105146815D01*
X163439335Y-105192193D01*
X163359894Y-105271634D01*
X163336072Y-105325587D01*
X163290986Y-105378963D01*
X163224200Y-105399490D01*
X163222638Y-105399500D01*
X160877362Y-105399500D01*
X160810323Y-105379815D01*
X160764568Y-105327011D01*
X160763928Y-105325587D01*
X160748373Y-105290359D01*
X160740106Y-105271635D01*
X160660665Y-105192194D01*
X160660663Y-105192193D01*
X160557892Y-105146815D01*
X160532765Y-105143900D01*
X159046043Y-105143900D01*
X159046017Y-105143902D01*
X159020912Y-105146813D01*
X159020908Y-105146815D01*
X158918135Y-105192193D01*
X158838694Y-105271634D01*
X158793315Y-105374406D01*
X158793315Y-105374408D01*
X158790400Y-105399531D01*
X158790400Y-106200456D01*
X155890500Y-106200456D01*
X155890500Y-105851347D01*
X155894725Y-105819254D01*
X155900500Y-105797702D01*
X155900500Y-105692248D01*
X155900500Y-104334480D01*
X155884563Y-104275000D01*
X169255000Y-104275000D01*
X169955000Y-104275000D01*
X169955000Y-103549999D01*
X169931693Y-103550000D01*
X169931674Y-103550001D01*
X169832392Y-103560144D01*
X169671518Y-103613452D01*
X169671507Y-103613457D01*
X169527271Y-103702424D01*
X169527267Y-103702427D01*
X169407427Y-103822267D01*
X169407424Y-103822271D01*
X169318457Y-103966507D01*
X169318452Y-103966518D01*
X169265144Y-104127393D01*
X169255000Y-104226677D01*
X169255000Y-104275000D01*
X155884563Y-104275000D01*
X155873207Y-104232620D01*
X155820480Y-104141294D01*
X155745913Y-104066727D01*
X155686819Y-104007633D01*
X155653334Y-103946310D01*
X155650500Y-103919952D01*
X155650500Y-102996255D01*
X155670185Y-102929216D01*
X155722989Y-102883461D01*
X155792147Y-102873517D01*
X155855703Y-102902542D01*
X155862181Y-102908574D01*
X156084047Y-103130440D01*
X156117532Y-103191763D01*
X156112548Y-103261455D01*
X156107750Y-103271640D01*
X156044956Y-103423237D01*
X156044955Y-103423239D01*
X156024318Y-103579998D01*
X156024318Y-103580001D01*
X156044955Y-103736760D01*
X156044956Y-103736762D01*
X156105026Y-103881785D01*
X156105464Y-103882841D01*
X156201718Y-104008282D01*
X156327159Y-104104536D01*
X156473238Y-104165044D01*
X156551619Y-104175363D01*
X156629999Y-104185682D01*
X156630000Y-104185682D01*
X156630001Y-104185682D01*
X156682254Y-104178802D01*
X156786762Y-104165044D01*
X156932841Y-104104536D01*
X157058282Y-104008282D01*
X157154536Y-103882841D01*
X157215044Y-103736762D01*
X157235682Y-103580000D01*
X157231732Y-103550000D01*
X157215044Y-103423239D01*
X157215044Y-103423238D01*
X157154536Y-103277159D01*
X157154535Y-103277158D01*
X157154535Y-103277157D01*
X157056124Y-103148905D01*
X157030930Y-103083736D01*
X157030500Y-103073419D01*
X157030500Y-103057275D01*
X157030499Y-103057271D01*
X157029878Y-103054955D01*
X157021122Y-103022273D01*
X157003207Y-102955412D01*
X156950480Y-102864087D01*
X156086819Y-102000426D01*
X156053334Y-101939103D01*
X156050500Y-101912745D01*
X156050500Y-101500000D01*
X167275001Y-101500000D01*
X167275001Y-101548322D01*
X167285144Y-101647607D01*
X167338452Y-101808481D01*
X167338457Y-101808492D01*
X167427424Y-101952728D01*
X167427427Y-101952732D01*
X167547267Y-102072572D01*
X167547271Y-102072575D01*
X167691507Y-102161542D01*
X167691518Y-102161547D01*
X167852393Y-102214855D01*
X167951683Y-102224999D01*
X168475000Y-102224999D01*
X168498308Y-102224999D01*
X168498322Y-102224998D01*
X168597607Y-102214855D01*
X168758481Y-102161547D01*
X168758492Y-102161542D01*
X168902728Y-102072575D01*
X168902732Y-102072572D01*
X169022573Y-101952731D01*
X169032081Y-101937317D01*
X169084029Y-101890592D01*
X169152991Y-101879369D01*
X169212544Y-101903608D01*
X169290025Y-101962364D01*
X169424410Y-102015359D01*
X169508856Y-102025500D01*
X169508862Y-102025500D01*
X170041138Y-102025500D01*
X170041144Y-102025500D01*
X170125590Y-102015359D01*
X170259975Y-101962364D01*
X170375078Y-101875078D01*
X170462364Y-101759975D01*
X170515359Y-101625590D01*
X170525500Y-101541144D01*
X170525500Y-100958856D01*
X170515359Y-100874410D01*
X170473009Y-100767020D01*
X170466728Y-100697435D01*
X170499064Y-100635498D01*
X170559753Y-100600877D01*
X170629526Y-100604562D01*
X170635805Y-100606965D01*
X170643238Y-100610044D01*
X170721619Y-100620363D01*
X170799999Y-100630682D01*
X170800000Y-100630682D01*
X170800001Y-100630682D01*
X170852254Y-100623802D01*
X170956762Y-100610044D01*
X170978048Y-100601226D01*
X171047516Y-100593758D01*
X171109995Y-100625033D01*
X171145648Y-100685122D01*
X171149500Y-100715788D01*
X171149500Y-102577726D01*
X171176793Y-102679589D01*
X171184044Y-102692147D01*
X171229520Y-102770913D01*
X171229522Y-102770915D01*
X171408597Y-102949990D01*
X171442082Y-103011313D01*
X171443855Y-103021485D01*
X171448567Y-103057273D01*
X171464956Y-103181762D01*
X171525464Y-103327841D01*
X171621718Y-103453282D01*
X171713647Y-103523821D01*
X171717951Y-103527124D01*
X171759154Y-103583552D01*
X171763309Y-103653298D01*
X171729097Y-103714218D01*
X171667379Y-103746971D01*
X171642465Y-103749500D01*
X171488856Y-103749500D01*
X171450841Y-103754065D01*
X171404411Y-103759640D01*
X171270023Y-103812636D01*
X171192545Y-103871390D01*
X171127233Y-103896213D01*
X171058869Y-103881785D01*
X171012082Y-103837684D01*
X171002573Y-103822268D01*
X170882732Y-103702427D01*
X170882728Y-103702424D01*
X170738492Y-103613457D01*
X170738481Y-103613452D01*
X170577606Y-103560144D01*
X170478322Y-103550000D01*
X170455000Y-103550000D01*
X170455000Y-104651000D01*
X170435315Y-104718039D01*
X170382511Y-104763794D01*
X170331000Y-104775000D01*
X169255001Y-104775000D01*
X169255001Y-104823322D01*
X169265144Y-104922607D01*
X169318452Y-105083481D01*
X169318457Y-105083492D01*
X169407424Y-105227728D01*
X169407427Y-105227732D01*
X169527267Y-105347572D01*
X169527271Y-105347575D01*
X169671507Y-105436542D01*
X169671518Y-105436547D01*
X169832392Y-105489855D01*
X169927878Y-105499611D01*
X169992569Y-105526007D01*
X170032721Y-105583188D01*
X170035584Y-105652999D01*
X170002956Y-105710650D01*
X169569522Y-106144084D01*
X169569518Y-106144090D01*
X169516793Y-106235410D01*
X169516416Y-106236819D01*
X169506725Y-106272989D01*
X169489500Y-106337273D01*
X169489500Y-107462819D01*
X169469815Y-107529858D01*
X169439812Y-107562085D01*
X169332452Y-107642455D01*
X169246206Y-107757664D01*
X169246202Y-107757671D01*
X169195910Y-107892513D01*
X169195909Y-107892517D01*
X169189500Y-107952127D01*
X169189500Y-107952134D01*
X169189500Y-107952135D01*
X169189500Y-108597870D01*
X169189501Y-108597876D01*
X169195908Y-108657483D01*
X169246202Y-108792328D01*
X169246206Y-108792335D01*
X169332452Y-108907544D01*
X169332455Y-108907547D01*
X169447664Y-108993793D01*
X169447671Y-108993797D01*
X169451275Y-108995141D01*
X169582517Y-109044091D01*
X169642127Y-109050500D01*
X170137872Y-109050499D01*
X170197483Y-109044091D01*
X170332331Y-108993796D01*
X170447546Y-108907546D01*
X170533796Y-108792331D01*
X170584091Y-108657483D01*
X170590500Y-108597873D01*
X170590499Y-107952128D01*
X170584091Y-107892517D01*
X170580446Y-107882745D01*
X170535070Y-107761084D01*
X170530086Y-107691392D01*
X170563571Y-107630069D01*
X170624895Y-107596585D01*
X170667434Y-107594812D01*
X170750000Y-107605682D01*
X170750001Y-107605681D01*
X170753512Y-107606144D01*
X170817409Y-107634410D01*
X170825008Y-107641402D01*
X170889007Y-107705401D01*
X170922492Y-107766724D01*
X170917509Y-107836412D01*
X170905910Y-107867512D01*
X170905910Y-107867513D01*
X170905909Y-107867517D01*
X170899500Y-107927127D01*
X170899500Y-107927134D01*
X170899500Y-107927135D01*
X170899500Y-108572870D01*
X170899501Y-108572876D01*
X170905908Y-108632483D01*
X170956202Y-108767328D01*
X170956206Y-108767335D01*
X171042452Y-108882544D01*
X171042455Y-108882547D01*
X171157664Y-108968793D01*
X171157671Y-108968797D01*
X171199497Y-108984397D01*
X171292517Y-109019091D01*
X171352127Y-109025500D01*
X171847872Y-109025499D01*
X171907483Y-109019091D01*
X172042331Y-108968796D01*
X172157546Y-108882546D01*
X172243796Y-108767331D01*
X172294091Y-108632483D01*
X172300500Y-108572873D01*
X172300499Y-107927128D01*
X172294091Y-107867517D01*
X172294089Y-107867512D01*
X172243797Y-107732671D01*
X172243793Y-107732664D01*
X172157547Y-107617455D01*
X172157544Y-107617452D01*
X172042335Y-107531206D01*
X172042328Y-107531202D01*
X171907482Y-107480908D01*
X171907483Y-107480908D01*
X171847883Y-107474501D01*
X171847881Y-107474500D01*
X171847873Y-107474500D01*
X171847865Y-107474500D01*
X171842254Y-107474500D01*
X171775215Y-107454815D01*
X171754573Y-107438181D01*
X171391402Y-107075009D01*
X171357917Y-107013686D01*
X171356144Y-107003513D01*
X171348465Y-106945185D01*
X171335044Y-106843238D01*
X171274536Y-106697159D01*
X171178282Y-106571718D01*
X171052841Y-106475464D01*
X171006092Y-106456100D01*
X170906762Y-106414956D01*
X170906760Y-106414955D01*
X170741942Y-106393257D01*
X170742160Y-106391594D01*
X170684398Y-106374633D01*
X170638643Y-106321829D01*
X170628699Y-106252671D01*
X170657724Y-106189115D01*
X170663756Y-106182637D01*
X171509574Y-105336819D01*
X171570897Y-105303334D01*
X171597255Y-105300500D01*
X172021145Y-105300500D01*
X172068560Y-105294806D01*
X172137469Y-105306357D01*
X172189193Y-105353328D01*
X172207311Y-105420808D01*
X172206284Y-105434106D01*
X172194318Y-105524998D01*
X172194318Y-105525001D01*
X172214955Y-105681760D01*
X172214956Y-105681762D01*
X172275461Y-105827835D01*
X172275464Y-105827841D01*
X172371718Y-105953282D01*
X172371720Y-105953283D01*
X172373876Y-105956093D01*
X172399070Y-106021263D01*
X172399500Y-106031580D01*
X172399500Y-106077726D01*
X172426793Y-106179589D01*
X172441189Y-106204522D01*
X172479520Y-106270913D01*
X172479521Y-106270914D01*
X172479522Y-106270915D01*
X173471427Y-107262819D01*
X173504912Y-107324142D01*
X173499928Y-107393834D01*
X173458056Y-107449767D01*
X173392592Y-107474184D01*
X173383746Y-107474500D01*
X173002130Y-107474500D01*
X173002123Y-107474501D01*
X172942516Y-107480908D01*
X172807671Y-107531202D01*
X172807664Y-107531206D01*
X172692455Y-107617452D01*
X172692452Y-107617455D01*
X172606206Y-107732664D01*
X172606202Y-107732671D01*
X172555910Y-107867513D01*
X172555909Y-107867517D01*
X172549500Y-107927127D01*
X172549500Y-107927134D01*
X172549500Y-107927135D01*
X172549500Y-108572870D01*
X172549501Y-108572876D01*
X172555908Y-108632483D01*
X172606202Y-108767328D01*
X172606206Y-108767335D01*
X172656321Y-108834279D01*
X172692454Y-108882546D01*
X172799811Y-108962914D01*
X172841682Y-109018847D01*
X172849500Y-109062180D01*
X172849500Y-109302726D01*
X172876793Y-109404589D01*
X172900364Y-109445414D01*
X172929520Y-109495913D01*
X173179519Y-109745912D01*
X173179520Y-109745913D01*
X173254087Y-109820480D01*
X173345413Y-109873207D01*
X173447273Y-109900500D01*
X173447275Y-109900500D01*
X176802725Y-109900500D01*
X176802727Y-109900500D01*
X176904588Y-109873207D01*
X176995913Y-109820480D01*
X177320480Y-109495913D01*
X177349636Y-109445413D01*
X177365135Y-109418569D01*
X177373204Y-109404592D01*
X177373203Y-109404592D01*
X177373207Y-109404587D01*
X177400500Y-109302727D01*
X177400500Y-109062180D01*
X177420185Y-108995141D01*
X177450187Y-108962914D01*
X177557546Y-108882546D01*
X177643796Y-108767331D01*
X177656014Y-108734574D01*
X177657285Y-108731166D01*
X177699157Y-108675233D01*
X177764621Y-108650816D01*
X177773467Y-108650500D01*
X178635070Y-108650500D01*
X178702109Y-108670185D01*
X178747864Y-108722989D01*
X178750424Y-108729010D01*
X178762634Y-108759972D01*
X178762634Y-108759973D01*
X178849921Y-108875078D01*
X178965023Y-108962363D01*
X178965024Y-108962363D01*
X178965025Y-108962364D01*
X179099410Y-109015359D01*
X179183856Y-109025500D01*
X179183862Y-109025500D01*
X179716138Y-109025500D01*
X179716144Y-109025500D01*
X179800590Y-109015359D01*
X179934975Y-108962364D01*
X180050078Y-108875078D01*
X180126196Y-108774701D01*
X180182389Y-108733178D01*
X180252110Y-108728627D01*
X180313224Y-108762492D01*
X180323804Y-108774702D01*
X180399921Y-108875078D01*
X180515023Y-108962363D01*
X180515024Y-108962363D01*
X180515025Y-108962364D01*
X180649410Y-109015359D01*
X180733856Y-109025500D01*
X180733862Y-109025500D01*
X181266138Y-109025500D01*
X181266144Y-109025500D01*
X181350590Y-109015359D01*
X181484975Y-108962364D01*
X181600078Y-108875078D01*
X181687364Y-108759975D01*
X181740359Y-108625590D01*
X181750500Y-108541144D01*
X181750500Y-107958856D01*
X181740359Y-107874410D01*
X181687364Y-107740025D01*
X181687363Y-107740024D01*
X181687363Y-107740023D01*
X181600078Y-107624921D01*
X181484973Y-107537634D01*
X181484971Y-107537633D01*
X181479004Y-107535280D01*
X181423862Y-107492371D01*
X181400672Y-107426462D01*
X181400500Y-107419928D01*
X181400500Y-107197275D01*
X181400500Y-107197273D01*
X181381999Y-107128226D01*
X181381999Y-107128224D01*
X181373208Y-107095415D01*
X181373207Y-107095413D01*
X181373207Y-107095412D01*
X181320480Y-107004087D01*
X180520913Y-106204520D01*
X180475250Y-106178156D01*
X180429589Y-106151793D01*
X180378657Y-106138146D01*
X180327727Y-106124500D01*
X180327726Y-106124500D01*
X179056580Y-106124500D01*
X178989541Y-106104815D01*
X178981093Y-106098876D01*
X178978283Y-106096720D01*
X178978282Y-106096718D01*
X178852841Y-106000464D01*
X178790397Y-105974599D01*
X178706762Y-105939956D01*
X178706760Y-105939955D01*
X178550001Y-105919318D01*
X178549999Y-105919318D01*
X178393239Y-105939955D01*
X178393237Y-105939956D01*
X178247160Y-106000463D01*
X178121718Y-106096718D01*
X178025463Y-106222160D01*
X177964956Y-106368237D01*
X177964955Y-106368239D01*
X177944318Y-106524998D01*
X177944318Y-106525001D01*
X177964955Y-106681760D01*
X177964956Y-106681762D01*
X178025464Y-106827841D01*
X178121718Y-106953282D01*
X178247159Y-107049536D01*
X178393238Y-107110044D01*
X178471619Y-107120363D01*
X178549999Y-107130682D01*
X178550000Y-107130682D01*
X178550001Y-107130682D01*
X178627902Y-107120426D01*
X178706762Y-107110044D01*
X178852841Y-107049536D01*
X178978282Y-106953282D01*
X178978283Y-106953279D01*
X178981093Y-106951124D01*
X179046263Y-106925930D01*
X179056580Y-106925500D01*
X180057745Y-106925500D01*
X180124784Y-106945185D01*
X180145426Y-106961819D01*
X180531748Y-107348141D01*
X180565233Y-107409464D01*
X180560249Y-107479156D01*
X180518993Y-107534625D01*
X180399923Y-107624919D01*
X180323804Y-107725298D01*
X180267611Y-107766821D01*
X180197890Y-107771372D01*
X180136776Y-107737507D01*
X180126196Y-107725298D01*
X180050078Y-107624922D01*
X180050076Y-107624921D01*
X180050076Y-107624920D01*
X179934976Y-107537636D01*
X179800588Y-107484640D01*
X179754915Y-107479156D01*
X179716144Y-107474500D01*
X179183856Y-107474500D01*
X179145841Y-107479065D01*
X179099411Y-107484640D01*
X178965023Y-107537636D01*
X178849921Y-107624921D01*
X178762634Y-107740026D01*
X178762634Y-107740027D01*
X178750424Y-107770990D01*
X178707518Y-107826134D01*
X178641610Y-107849327D01*
X178635070Y-107849500D01*
X177773467Y-107849500D01*
X177706428Y-107829815D01*
X177660673Y-107777011D01*
X177657285Y-107768834D01*
X177643796Y-107732669D01*
X177643793Y-107732664D01*
X177557547Y-107617455D01*
X177557544Y-107617452D01*
X177442335Y-107531206D01*
X177442328Y-107531202D01*
X177307486Y-107480910D01*
X177307485Y-107480909D01*
X177307483Y-107480909D01*
X177247873Y-107474500D01*
X177247863Y-107474500D01*
X176752129Y-107474500D01*
X176752123Y-107474501D01*
X176692516Y-107480908D01*
X176557671Y-107531202D01*
X176557664Y-107531206D01*
X176442455Y-107617452D01*
X176442452Y-107617455D01*
X176356206Y-107732664D01*
X176356202Y-107732671D01*
X176305910Y-107867513D01*
X176305909Y-107867517D01*
X176299500Y-107927127D01*
X176299500Y-107927134D01*
X176299500Y-107927135D01*
X176299500Y-108572870D01*
X176299501Y-108572876D01*
X176305908Y-108632483D01*
X176356202Y-108767328D01*
X176356206Y-108767335D01*
X176442452Y-108882544D01*
X176447727Y-108887819D01*
X176481212Y-108949142D01*
X176476228Y-109018834D01*
X176434356Y-109074767D01*
X176368892Y-109099184D01*
X176360046Y-109099500D01*
X175989954Y-109099500D01*
X175922915Y-109079815D01*
X175877160Y-109027011D01*
X175867216Y-108957853D01*
X175896241Y-108894297D01*
X175902273Y-108887819D01*
X175907542Y-108882548D01*
X175907546Y-108882546D01*
X175993796Y-108767331D01*
X176044091Y-108632483D01*
X176050500Y-108572873D01*
X176050499Y-107927128D01*
X176044091Y-107867517D01*
X176044089Y-107867512D01*
X175993797Y-107732671D01*
X175993793Y-107732664D01*
X175907547Y-107617455D01*
X175907544Y-107617452D01*
X175792335Y-107531206D01*
X175792328Y-107531202D01*
X175657486Y-107480910D01*
X175657485Y-107480909D01*
X175657483Y-107480909D01*
X175597873Y-107474500D01*
X175597863Y-107474500D01*
X175102129Y-107474500D01*
X175102123Y-107474501D01*
X175042516Y-107480908D01*
X174956789Y-107512883D01*
X174887097Y-107517867D01*
X174825775Y-107484382D01*
X174461819Y-107120426D01*
X174428334Y-107059103D01*
X174425500Y-107032745D01*
X174425500Y-105355070D01*
X174445185Y-105288031D01*
X174497989Y-105242276D01*
X174503973Y-105239730D01*
X174509975Y-105237364D01*
X174625078Y-105150078D01*
X174701196Y-105049701D01*
X174757389Y-105008178D01*
X174827110Y-105003627D01*
X174888224Y-105037492D01*
X174898804Y-105049702D01*
X174974921Y-105150078D01*
X175090023Y-105237363D01*
X175090024Y-105237363D01*
X175090025Y-105237364D01*
X175224410Y-105290359D01*
X175308856Y-105300500D01*
X175308862Y-105300500D01*
X175841138Y-105300500D01*
X175841144Y-105300500D01*
X175925590Y-105290359D01*
X176059975Y-105237364D01*
X176175078Y-105150078D01*
X176262364Y-105034975D01*
X176315359Y-104900590D01*
X176325500Y-104816144D01*
X176325500Y-104233856D01*
X176315359Y-104149410D01*
X176262364Y-104015025D01*
X176262363Y-104015024D01*
X176262363Y-104015023D01*
X176175078Y-103899921D01*
X176059973Y-103812634D01*
X176059971Y-103812633D01*
X176054004Y-103810280D01*
X175998862Y-103767371D01*
X175975672Y-103701462D01*
X175975500Y-103694928D01*
X175975500Y-103466894D01*
X175984939Y-103419441D01*
X176015044Y-103346762D01*
X176033228Y-103208638D01*
X176035682Y-103190001D01*
X176035682Y-103189998D01*
X176020334Y-103073419D01*
X176015044Y-103033238D01*
X175954536Y-102887159D01*
X175858282Y-102761718D01*
X175858279Y-102761716D01*
X175853334Y-102755271D01*
X175854488Y-102754385D01*
X175825260Y-102700858D01*
X175830244Y-102631166D01*
X175872116Y-102575233D01*
X175937580Y-102550816D01*
X175946426Y-102550500D01*
X177622725Y-102550500D01*
X177622727Y-102550500D01*
X177724588Y-102523207D01*
X177815913Y-102470480D01*
X178285706Y-102000684D01*
X178285711Y-102000681D01*
X178295911Y-101990480D01*
X178295913Y-101990480D01*
X178370480Y-101915913D01*
X178423207Y-101824587D01*
X178429929Y-101799500D01*
X178440270Y-101760905D01*
X178476632Y-101701249D01*
X178485733Y-101693734D01*
X178492327Y-101688797D01*
X178492331Y-101688796D01*
X178607546Y-101602546D01*
X178693796Y-101487331D01*
X178744091Y-101352483D01*
X178750500Y-101292873D01*
X178750499Y-100647128D01*
X178744091Y-100587517D01*
X178742058Y-100582067D01*
X178693797Y-100452671D01*
X178693793Y-100452664D01*
X178607547Y-100337455D01*
X178607544Y-100337452D01*
X178492335Y-100251206D01*
X178492328Y-100251202D01*
X178357486Y-100200910D01*
X178357485Y-100200909D01*
X178357483Y-100200909D01*
X178297873Y-100194500D01*
X178297863Y-100194500D01*
X177802129Y-100194500D01*
X177802123Y-100194501D01*
X177742516Y-100200908D01*
X177607671Y-100251202D01*
X177607664Y-100251206D01*
X177492455Y-100337452D01*
X177492452Y-100337455D01*
X177406206Y-100452664D01*
X177406202Y-100452671D01*
X177355910Y-100587513D01*
X177355909Y-100587517D01*
X177349500Y-100647127D01*
X177349500Y-100647134D01*
X177349500Y-100647135D01*
X177349500Y-101292870D01*
X177349501Y-101292876D01*
X177355908Y-101352483D01*
X177406202Y-101487328D01*
X177406206Y-101487335D01*
X177453152Y-101550046D01*
X177477570Y-101615510D01*
X177462719Y-101683783D01*
X177441606Y-101712000D01*
X177440464Y-101713143D01*
X177379155Y-101746655D01*
X177352744Y-101749500D01*
X177117317Y-101749500D01*
X177050278Y-101729815D01*
X177004523Y-101677011D01*
X176994579Y-101607853D01*
X176997542Y-101593409D01*
X177009838Y-101547516D01*
X177030348Y-101505293D01*
X177043796Y-101487331D01*
X177094091Y-101352483D01*
X177100500Y-101292873D01*
X177100499Y-100647128D01*
X177094091Y-100587517D01*
X177092058Y-100582067D01*
X177043797Y-100452671D01*
X177043793Y-100452664D01*
X176957547Y-100337455D01*
X176957544Y-100337452D01*
X176842335Y-100251206D01*
X176842328Y-100251202D01*
X176707486Y-100200910D01*
X176707485Y-100200909D01*
X176707483Y-100200909D01*
X176647873Y-100194500D01*
X176647863Y-100194500D01*
X176152129Y-100194500D01*
X176152123Y-100194501D01*
X176092516Y-100200908D01*
X175957671Y-100251202D01*
X175957668Y-100251204D01*
X175898811Y-100295265D01*
X175833347Y-100319682D01*
X175765074Y-100304830D01*
X175715668Y-100255425D01*
X175700500Y-100195998D01*
X175700500Y-97222275D01*
X175700499Y-97222271D01*
X175695900Y-97205107D01*
X175681889Y-97152814D01*
X175673207Y-97120412D01*
X175620480Y-97029087D01*
X175245915Y-96654522D01*
X175193805Y-96624436D01*
X175154591Y-96601795D01*
X175103659Y-96588148D01*
X175052729Y-96574502D01*
X175052728Y-96574502D01*
X174807183Y-96574502D01*
X174740144Y-96554817D01*
X174735873Y-96551375D01*
X174735795Y-96551490D01*
X174726315Y-96544996D01*
X174623542Y-96499617D01*
X174598418Y-96496702D01*
X174598415Y-96496702D01*
X174551000Y-96496702D01*
X174483961Y-96477017D01*
X174438206Y-96424213D01*
X174427000Y-96372702D01*
X174427000Y-96135033D01*
X174446685Y-96067994D01*
X174499489Y-96022239D01*
X174568647Y-96012295D01*
X174612998Y-96027645D01*
X174646796Y-96047159D01*
X174691909Y-96073206D01*
X174691911Y-96073206D01*
X174691912Y-96073207D01*
X174793773Y-96100500D01*
X177735070Y-96100500D01*
X177802109Y-96120185D01*
X177847864Y-96172989D01*
X177850424Y-96179010D01*
X177862634Y-96209972D01*
X177862634Y-96209973D01*
X177949921Y-96325078D01*
X178065023Y-96412363D01*
X178065024Y-96412363D01*
X178065025Y-96412364D01*
X178199410Y-96465359D01*
X178283856Y-96475500D01*
X178283862Y-96475500D01*
X178816138Y-96475500D01*
X178816144Y-96475500D01*
X178900590Y-96465359D01*
X179034975Y-96412364D01*
X179112457Y-96353607D01*
X179177763Y-96328785D01*
X179246127Y-96343212D01*
X179292917Y-96387314D01*
X179302426Y-96402731D01*
X179422267Y-96522572D01*
X179422271Y-96522575D01*
X179566507Y-96611542D01*
X179566518Y-96611547D01*
X179727393Y-96664855D01*
X179826683Y-96674999D01*
X179850000Y-96674998D01*
X179850000Y-95950000D01*
X180350000Y-95950000D01*
X180350000Y-96674999D01*
X180373308Y-96674999D01*
X180373322Y-96674998D01*
X180472607Y-96664855D01*
X180633481Y-96611547D01*
X180633492Y-96611542D01*
X180777728Y-96522575D01*
X180777732Y-96522572D01*
X180897572Y-96402732D01*
X180897575Y-96402728D01*
X180986542Y-96258492D01*
X180986547Y-96258481D01*
X181039855Y-96097606D01*
X181049999Y-95998322D01*
X181050000Y-95998309D01*
X181050000Y-95950000D01*
X180350000Y-95950000D01*
X179850000Y-95950000D01*
X179850000Y-94725000D01*
X180350000Y-94725000D01*
X180350000Y-95450000D01*
X181049999Y-95450000D01*
X181049999Y-95401692D01*
X181049998Y-95401677D01*
X181039855Y-95302392D01*
X180986547Y-95141518D01*
X180986542Y-95141507D01*
X180897575Y-94997271D01*
X180897572Y-94997267D01*
X180777732Y-94877427D01*
X180777728Y-94877424D01*
X180633492Y-94788457D01*
X180633481Y-94788452D01*
X180472606Y-94735144D01*
X180373322Y-94725000D01*
X180350000Y-94725000D01*
X179850000Y-94725000D01*
X179850000Y-94724999D01*
X179826693Y-94725000D01*
X179826674Y-94725001D01*
X179727392Y-94735144D01*
X179566518Y-94788452D01*
X179566507Y-94788457D01*
X179422271Y-94877424D01*
X179422267Y-94877427D01*
X179302427Y-94997267D01*
X179302422Y-94997273D01*
X179292914Y-95012688D01*
X179240964Y-95059410D01*
X179172001Y-95070629D01*
X179112454Y-95046390D01*
X179034976Y-94987636D01*
X178900588Y-94934640D01*
X178857242Y-94929435D01*
X178816144Y-94924500D01*
X178283856Y-94924500D01*
X178247591Y-94928855D01*
X178199411Y-94934640D01*
X178065023Y-94987636D01*
X177949921Y-95074921D01*
X177862634Y-95190026D01*
X177862634Y-95190027D01*
X177850424Y-95220990D01*
X177807518Y-95276134D01*
X177741610Y-95299327D01*
X177735070Y-95299500D01*
X175063755Y-95299500D01*
X174996716Y-95279815D01*
X174976074Y-95263181D01*
X174463319Y-94750426D01*
X174429834Y-94689103D01*
X174427000Y-94662745D01*
X174427000Y-93550754D01*
X174446685Y-93483715D01*
X174463313Y-93463078D01*
X174545911Y-93380481D01*
X174545913Y-93380480D01*
X174620480Y-93305913D01*
X174673207Y-93214587D01*
X174675529Y-93205918D01*
X174675532Y-93205914D01*
X174675531Y-93205914D01*
X174685847Y-93167413D01*
X174700501Y-93112727D01*
X174700501Y-93007273D01*
X174700501Y-92999678D01*
X174700500Y-92999660D01*
X174700500Y-92427275D01*
X174700500Y-92427273D01*
X174673207Y-92325413D01*
X174620480Y-92234087D01*
X174591074Y-92204681D01*
X174557589Y-92143358D01*
X174562573Y-92073666D01*
X174604445Y-92017733D01*
X174669909Y-91993316D01*
X174678755Y-91993000D01*
X175944909Y-91993000D01*
X176011948Y-92012685D01*
X176057703Y-92065489D01*
X176067848Y-92133185D01*
X176064318Y-92159998D01*
X176064318Y-92160001D01*
X176084955Y-92316760D01*
X176084956Y-92316762D01*
X176115850Y-92391348D01*
X176145464Y-92462841D01*
X176241718Y-92588282D01*
X176367159Y-92684536D01*
X176513238Y-92745044D01*
X176661998Y-92764628D01*
X176725894Y-92792894D01*
X176733493Y-92799886D01*
X177679520Y-93745913D01*
X177754087Y-93820480D01*
X177754089Y-93820481D01*
X177754093Y-93820484D01*
X177825419Y-93861664D01*
X177825422Y-93861665D01*
X177845411Y-93873206D01*
X177845412Y-93873206D01*
X177845413Y-93873207D01*
X177947273Y-93900501D01*
X177947275Y-93900501D01*
X178060323Y-93900501D01*
X178060339Y-93900500D01*
X179430543Y-93900500D01*
X179430545Y-93900500D01*
X179532406Y-93873207D01*
X179623731Y-93820480D01*
X180555703Y-92888505D01*
X180555708Y-92888502D01*
X180565911Y-92878298D01*
X180565913Y-92878298D01*
X181850480Y-91593731D01*
X181852911Y-91589520D01*
X181903207Y-91502405D01*
X181930500Y-91400545D01*
X181930500Y-91376580D01*
X181950185Y-91309541D01*
X181956124Y-91301093D01*
X181958279Y-91298283D01*
X181958282Y-91298282D01*
X182054536Y-91172841D01*
X182115044Y-91026762D01*
X182132361Y-90895226D01*
X182135682Y-90870001D01*
X182135682Y-90869998D01*
X182117537Y-90732176D01*
X182115044Y-90713238D01*
X182094835Y-90664451D01*
X182087367Y-90594984D01*
X182118642Y-90532505D01*
X182178731Y-90496852D01*
X182209397Y-90493000D01*
X183332745Y-90493000D01*
X183399784Y-90512685D01*
X183420426Y-90529319D01*
X183863181Y-90972074D01*
X183896666Y-91033397D01*
X183899500Y-91059755D01*
X183899500Y-94039773D01*
X183899500Y-94145227D01*
X183910778Y-94187317D01*
X183926793Y-94247089D01*
X183937342Y-94265359D01*
X183979520Y-94338413D01*
X183979521Y-94338414D01*
X183979522Y-94338415D01*
X184975185Y-95334077D01*
X184975190Y-95334083D01*
X185078270Y-95437163D01*
X185554087Y-95912980D01*
X185645412Y-95965707D01*
X185747273Y-95993000D01*
X185796533Y-95993000D01*
X185863572Y-96012685D01*
X185909327Y-96065489D01*
X185912715Y-96073666D01*
X185926203Y-96109830D01*
X185926206Y-96109835D01*
X186012452Y-96225044D01*
X186012455Y-96225047D01*
X186127664Y-96311293D01*
X186127671Y-96311297D01*
X186164620Y-96325078D01*
X186262517Y-96361591D01*
X186322127Y-96368000D01*
X186817872Y-96367999D01*
X186877483Y-96361591D01*
X187012331Y-96311296D01*
X187127546Y-96225046D01*
X187213796Y-96109831D01*
X187264091Y-95974983D01*
X187270500Y-95915373D01*
X187270499Y-95269628D01*
X187264091Y-95210017D01*
X187256635Y-95190027D01*
X187213797Y-95075171D01*
X187213793Y-95075164D01*
X187127547Y-94959955D01*
X187127544Y-94959952D01*
X187012335Y-94873706D01*
X187012328Y-94873702D01*
X186877486Y-94823410D01*
X186877485Y-94823409D01*
X186877483Y-94823409D01*
X186817873Y-94817000D01*
X186817863Y-94817000D01*
X186322129Y-94817000D01*
X186322123Y-94817001D01*
X186262516Y-94823408D01*
X186127671Y-94873702D01*
X186127664Y-94873706D01*
X186012455Y-94959952D01*
X186012181Y-94960227D01*
X186011840Y-94960412D01*
X186005355Y-94965268D01*
X186004656Y-94964335D01*
X185950858Y-94993712D01*
X185881166Y-94988728D01*
X185825233Y-94946856D01*
X185800816Y-94881392D01*
X185800500Y-94872546D01*
X185800500Y-94264929D01*
X185820185Y-94197890D01*
X185872989Y-94152135D01*
X185878994Y-94149581D01*
X185909975Y-94137364D01*
X186025078Y-94050078D01*
X186112364Y-93934975D01*
X186165359Y-93800590D01*
X186175500Y-93716144D01*
X186175500Y-93292255D01*
X186195185Y-93225216D01*
X186211819Y-93204574D01*
X187257819Y-92158574D01*
X187319142Y-92125089D01*
X187388834Y-92130073D01*
X187444767Y-92171945D01*
X187469184Y-92237409D01*
X187469500Y-92246255D01*
X187469500Y-92651144D01*
X187473510Y-92684536D01*
X187479640Y-92735588D01*
X187532636Y-92869976D01*
X187619921Y-92985078D01*
X187681730Y-93031949D01*
X187735025Y-93072364D01*
X187740988Y-93074715D01*
X187796131Y-93117617D01*
X187819327Y-93183524D01*
X187819500Y-93190070D01*
X187819500Y-94780319D01*
X187799815Y-94847358D01*
X187769812Y-94879585D01*
X187662452Y-94959955D01*
X187576206Y-95075164D01*
X187576202Y-95075171D01*
X187525910Y-95210013D01*
X187525909Y-95210017D01*
X187519500Y-95269627D01*
X187519500Y-95269634D01*
X187519500Y-95269635D01*
X187519500Y-95915370D01*
X187519501Y-95915376D01*
X187525908Y-95974983D01*
X187576202Y-96109828D01*
X187576206Y-96109835D01*
X187662452Y-96225044D01*
X187662455Y-96225047D01*
X187777664Y-96311293D01*
X187777671Y-96311297D01*
X187814620Y-96325078D01*
X187912517Y-96361591D01*
X187972127Y-96368000D01*
X188467872Y-96367999D01*
X188527483Y-96361591D01*
X188662331Y-96311296D01*
X188777546Y-96225046D01*
X188863796Y-96109831D01*
X188914091Y-95974983D01*
X188920500Y-95915373D01*
X188920499Y-95269628D01*
X188914091Y-95210017D01*
X188906635Y-95190027D01*
X188863797Y-95075171D01*
X188863793Y-95075164D01*
X188777547Y-94959955D01*
X188670188Y-94879585D01*
X188628318Y-94823651D01*
X188620500Y-94780319D01*
X188620500Y-93190070D01*
X188640185Y-93123031D01*
X188692989Y-93077276D01*
X188698973Y-93074730D01*
X188704975Y-93072364D01*
X188820078Y-92985078D01*
X188896196Y-92884701D01*
X188952389Y-92843178D01*
X189022110Y-92838627D01*
X189083224Y-92872492D01*
X189093804Y-92884702D01*
X189144892Y-92952072D01*
X189169922Y-92985078D01*
X189217279Y-93020990D01*
X189219712Y-93022835D01*
X189261235Y-93079028D01*
X189265786Y-93148749D01*
X189243165Y-93197121D01*
X189235465Y-93207156D01*
X189174956Y-93353237D01*
X189174955Y-93353239D01*
X189154318Y-93509998D01*
X189154318Y-93510001D01*
X189174955Y-93666760D01*
X189174956Y-93666762D01*
X189230388Y-93800588D01*
X189235464Y-93812841D01*
X189331718Y-93938282D01*
X189457159Y-94034536D01*
X189603238Y-94095044D01*
X189673940Y-94104352D01*
X189759999Y-94115682D01*
X189760000Y-94115682D01*
X189760001Y-94115682D01*
X189846060Y-94104352D01*
X189916762Y-94095044D01*
X190062841Y-94034536D01*
X190188282Y-93938282D01*
X190284536Y-93812841D01*
X190345044Y-93666762D01*
X190365682Y-93510000D01*
X190364285Y-93499392D01*
X190345044Y-93353239D01*
X190345043Y-93353237D01*
X190298509Y-93240893D01*
X190284538Y-93207163D01*
X190284537Y-93207161D01*
X190284536Y-93207160D01*
X190284536Y-93207159D01*
X190284193Y-93206712D01*
X190284021Y-93206268D01*
X190280476Y-93200128D01*
X190281433Y-93199574D01*
X190258999Y-93141545D01*
X190273037Y-93073100D01*
X190307642Y-93032424D01*
X190370078Y-92985078D01*
X190457364Y-92869975D01*
X190510359Y-92735590D01*
X190520500Y-92651144D01*
X190520500Y-92068856D01*
X190510359Y-91984410D01*
X190457364Y-91850025D01*
X190457363Y-91850024D01*
X190457363Y-91850023D01*
X190370078Y-91734921D01*
X190254973Y-91647634D01*
X190254971Y-91647633D01*
X190249004Y-91645280D01*
X190193862Y-91602371D01*
X190170672Y-91536462D01*
X190170500Y-91529928D01*
X190170500Y-90777275D01*
X190170499Y-90777271D01*
X190167388Y-90765661D01*
X190155763Y-90722273D01*
X190143207Y-90675412D01*
X190090480Y-90584087D01*
X189071402Y-89565009D01*
X189037917Y-89503686D01*
X189036144Y-89493513D01*
X189035681Y-89489998D01*
X189015044Y-89333238D01*
X188954536Y-89187159D01*
X188858282Y-89061718D01*
X188732841Y-88965464D01*
X188688651Y-88947160D01*
X188586762Y-88904956D01*
X188586760Y-88904955D01*
X188430001Y-88884318D01*
X188429999Y-88884318D01*
X188273239Y-88904955D01*
X188273237Y-88904956D01*
X188127160Y-88965463D01*
X188001718Y-89061718D01*
X187905463Y-89187160D01*
X187844956Y-89333237D01*
X187844955Y-89333239D01*
X187824318Y-89489998D01*
X187824318Y-89490001D01*
X187844955Y-89646760D01*
X187844956Y-89646762D01*
X187903669Y-89788509D01*
X187905464Y-89792841D01*
X188001718Y-89918282D01*
X188127159Y-90014536D01*
X188273238Y-90075044D01*
X188430000Y-90095682D01*
X188430001Y-90095681D01*
X188433513Y-90096144D01*
X188497410Y-90124410D01*
X188505009Y-90131402D01*
X189333181Y-90959574D01*
X189366666Y-91020897D01*
X189369500Y-91047255D01*
X189369500Y-91529928D01*
X189349815Y-91596967D01*
X189297011Y-91642722D01*
X189290996Y-91645280D01*
X189285028Y-91647633D01*
X189285026Y-91647634D01*
X189169923Y-91734920D01*
X189093804Y-91835298D01*
X189037611Y-91876821D01*
X188967890Y-91881372D01*
X188906776Y-91847507D01*
X188896196Y-91835298D01*
X188854585Y-91780426D01*
X188820078Y-91734922D01*
X188820076Y-91734921D01*
X188820076Y-91734920D01*
X188704976Y-91647636D01*
X188671827Y-91634564D01*
X188659008Y-91629509D01*
X188603866Y-91586604D01*
X188580673Y-91520696D01*
X188580500Y-91514155D01*
X188580500Y-91427275D01*
X188580499Y-91427271D01*
X188579867Y-91424914D01*
X188561744Y-91357273D01*
X188553207Y-91325412D01*
X188500480Y-91234087D01*
X188211402Y-90945009D01*
X188177917Y-90883686D01*
X188176144Y-90873513D01*
X188175681Y-90869998D01*
X188155044Y-90713238D01*
X188094536Y-90567159D01*
X187998282Y-90441718D01*
X187872841Y-90345464D01*
X187867469Y-90343239D01*
X187726762Y-90284956D01*
X187726760Y-90284955D01*
X187570001Y-90264318D01*
X187569999Y-90264318D01*
X187480685Y-90276076D01*
X187411650Y-90265310D01*
X187359394Y-90218930D01*
X187340500Y-90153137D01*
X187340500Y-88927255D01*
X187360185Y-88860216D01*
X187376819Y-88839574D01*
X187412074Y-88804319D01*
X187473397Y-88770834D01*
X187499755Y-88768000D01*
X187852725Y-88768000D01*
X187852727Y-88768000D01*
X187954587Y-88740707D01*
X188045913Y-88687980D01*
X188120480Y-88613413D01*
X188173207Y-88522087D01*
X188200500Y-88420227D01*
X188200500Y-86789773D01*
X188185058Y-86732141D01*
X188173207Y-86687912D01*
X188141875Y-86633644D01*
X188120480Y-86596587D01*
X188045913Y-86522020D01*
X188045912Y-86522019D01*
X188041582Y-86517689D01*
X188041582Y-86517688D01*
X188041575Y-86517682D01*
X188016817Y-86492923D01*
X187983333Y-86431600D01*
X187980500Y-86405244D01*
X187980500Y-86051362D01*
X187980500Y-86051356D01*
X187970359Y-85966910D01*
X187917364Y-85832525D01*
X187917363Y-85832524D01*
X187917363Y-85832523D01*
X187830078Y-85717421D01*
X187714976Y-85630136D01*
X187580588Y-85577140D01*
X187537242Y-85571935D01*
X187496144Y-85567000D01*
X186963856Y-85567000D01*
X186925841Y-85571565D01*
X186879411Y-85577140D01*
X186745023Y-85630136D01*
X186629923Y-85717420D01*
X186553804Y-85817798D01*
X186497611Y-85859321D01*
X186427890Y-85863872D01*
X186366776Y-85830007D01*
X186356196Y-85817798D01*
X186301685Y-85745915D01*
X186280078Y-85717422D01*
X186280076Y-85717421D01*
X186280076Y-85717420D01*
X186164976Y-85630136D01*
X186030588Y-85577140D01*
X185987242Y-85571935D01*
X185946144Y-85567000D01*
X185413856Y-85567000D01*
X185375841Y-85571565D01*
X185329411Y-85577140D01*
X185195023Y-85630136D01*
X185079921Y-85717421D01*
X184992634Y-85832526D01*
X184992634Y-85832527D01*
X184980424Y-85863490D01*
X184937518Y-85918634D01*
X184871610Y-85941827D01*
X184865070Y-85942000D01*
X184579773Y-85942000D01*
X184477913Y-85969293D01*
X184477910Y-85969294D01*
X184421751Y-86001718D01*
X184386590Y-86022018D01*
X184386584Y-86022022D01*
X184029522Y-86379084D01*
X184029520Y-86379087D01*
X184000125Y-86430001D01*
X183976793Y-86470412D01*
X183962965Y-86522020D01*
X183962965Y-86522021D01*
X183962964Y-86522020D01*
X183949500Y-86572271D01*
X183949500Y-87110242D01*
X183929815Y-87177281D01*
X183900987Y-87208618D01*
X183897159Y-87211554D01*
X183897159Y-87211555D01*
X183802816Y-87283947D01*
X183771718Y-87307809D01*
X183675463Y-87433251D01*
X183614956Y-87579328D01*
X183614955Y-87579330D01*
X183594318Y-87736089D01*
X183594318Y-87736092D01*
X183614955Y-87892851D01*
X183614956Y-87892853D01*
X183651782Y-87981760D01*
X183675464Y-88038932D01*
X183771718Y-88164373D01*
X183897159Y-88260627D01*
X184043238Y-88321135D01*
X184121619Y-88331454D01*
X184199999Y-88341773D01*
X184200000Y-88341773D01*
X184200001Y-88341773D01*
X184252254Y-88334893D01*
X184356762Y-88321135D01*
X184502841Y-88260627D01*
X184628282Y-88164373D01*
X184668396Y-88112094D01*
X184724824Y-88070892D01*
X184794570Y-88066737D01*
X184855490Y-88100949D01*
X184874160Y-88125583D01*
X184875460Y-88127836D01*
X184888713Y-88145108D01*
X184971718Y-88253282D01*
X184971720Y-88253283D01*
X184973876Y-88256093D01*
X184999070Y-88321263D01*
X184999500Y-88331580D01*
X184999500Y-89375633D01*
X184979815Y-89442672D01*
X184927011Y-89488427D01*
X184857853Y-89498371D01*
X184828047Y-89490194D01*
X184706762Y-89439956D01*
X184706760Y-89439955D01*
X184550001Y-89419318D01*
X184549999Y-89419318D01*
X184393239Y-89439955D01*
X184393237Y-89439956D01*
X184247160Y-89500463D01*
X184121718Y-89596718D01*
X184025463Y-89722160D01*
X184014644Y-89748281D01*
X183970803Y-89802684D01*
X183904509Y-89824749D01*
X183836810Y-89807470D01*
X183812402Y-89788509D01*
X183795915Y-89772022D01*
X183795913Y-89772020D01*
X183742875Y-89741398D01*
X183704589Y-89719293D01*
X183631087Y-89699599D01*
X183602727Y-89692000D01*
X183602726Y-89692000D01*
X179547283Y-89692000D01*
X179525475Y-89689129D01*
X179525437Y-89689423D01*
X179517384Y-89688362D01*
X179517382Y-89688362D01*
X179517379Y-89688362D01*
X179031117Y-89688362D01*
X178964078Y-89668677D01*
X178943436Y-89652043D01*
X178830198Y-89538805D01*
X178796713Y-89477482D01*
X178801697Y-89407790D01*
X178802524Y-89405636D01*
X178814307Y-89375757D01*
X178857210Y-89320615D01*
X178923117Y-89297421D01*
X178991102Y-89313540D01*
X178991661Y-89313862D01*
X178997157Y-89317034D01*
X178997159Y-89317036D01*
X179143238Y-89377544D01*
X179198847Y-89384865D01*
X179299999Y-89398182D01*
X179300000Y-89398182D01*
X179300001Y-89398182D01*
X179378654Y-89387827D01*
X179456762Y-89377544D01*
X179602841Y-89317036D01*
X179728282Y-89220782D01*
X179824536Y-89095341D01*
X179885044Y-88949262D01*
X179905682Y-88792500D01*
X179904370Y-88782538D01*
X179887879Y-88657273D01*
X179885044Y-88635738D01*
X179824536Y-88489659D01*
X179728282Y-88364218D01*
X179602841Y-88267964D01*
X179602836Y-88267960D01*
X179595804Y-88263901D01*
X179597553Y-88260870D01*
X179555639Y-88226833D01*
X179533822Y-88160457D01*
X179549495Y-88099999D01*
X180944353Y-88099999D01*
X180964834Y-88242455D01*
X181020442Y-88364218D01*
X181024623Y-88373372D01*
X181118872Y-88482142D01*
X181239947Y-88559952D01*
X181239950Y-88559953D01*
X181239949Y-88559953D01*
X181355747Y-88593954D01*
X181414526Y-88631728D01*
X181443551Y-88695283D01*
X181443551Y-88716131D01*
X181444353Y-88716131D01*
X181444353Y-88724998D01*
X181464834Y-88867455D01*
X181501235Y-88947160D01*
X181524623Y-88998372D01*
X181618872Y-89107142D01*
X181739947Y-89184952D01*
X181739950Y-89184953D01*
X181739949Y-89184953D01*
X181878036Y-89225498D01*
X181878038Y-89225499D01*
X181878039Y-89225499D01*
X182021962Y-89225499D01*
X182021962Y-89225498D01*
X182160053Y-89184952D01*
X182281128Y-89107142D01*
X182375377Y-88998372D01*
X182435165Y-88867456D01*
X182455647Y-88724999D01*
X182455647Y-88724998D01*
X182455647Y-88716131D01*
X182458531Y-88716131D01*
X182466377Y-88661451D01*
X182512117Y-88608634D01*
X182544252Y-88593954D01*
X182660050Y-88559953D01*
X182660050Y-88559952D01*
X182660053Y-88559952D01*
X182781128Y-88482142D01*
X182875377Y-88373372D01*
X182935165Y-88242456D01*
X182955647Y-88099999D01*
X182935165Y-87957542D01*
X182875377Y-87826626D01*
X182781128Y-87717856D01*
X182660053Y-87640046D01*
X182660050Y-87640044D01*
X182544251Y-87606043D01*
X182485473Y-87568269D01*
X182456448Y-87504713D01*
X182456452Y-87483867D01*
X182455647Y-87483867D01*
X182455647Y-87474999D01*
X182435165Y-87332542D01*
X182406518Y-87269815D01*
X182375377Y-87201626D01*
X182281128Y-87092856D01*
X182160053Y-87015046D01*
X182160051Y-87015045D01*
X182160049Y-87015044D01*
X182160050Y-87015044D01*
X182021963Y-86974499D01*
X182021961Y-86974499D01*
X181878039Y-86974499D01*
X181878036Y-86974499D01*
X181739949Y-87015044D01*
X181618873Y-87092855D01*
X181524623Y-87201625D01*
X181524622Y-87201627D01*
X181464834Y-87332542D01*
X181444353Y-87474999D01*
X181444353Y-87483867D01*
X181441474Y-87483867D01*
X181433608Y-87538576D01*
X181387854Y-87591380D01*
X181355748Y-87606043D01*
X181239949Y-87640044D01*
X181118873Y-87717855D01*
X181024623Y-87826625D01*
X181024622Y-87826627D01*
X180964834Y-87957542D01*
X180944353Y-88099999D01*
X179549495Y-88099999D01*
X179551355Y-88092823D01*
X179570072Y-88068819D01*
X179620480Y-88018413D01*
X179673207Y-87927088D01*
X179700500Y-87825227D01*
X179700500Y-87825218D01*
X179701561Y-87817167D01*
X179704614Y-87817568D01*
X179720185Y-87764541D01*
X179726124Y-87756093D01*
X179728279Y-87753283D01*
X179728282Y-87753282D01*
X179824536Y-87627841D01*
X179885044Y-87481762D01*
X179905682Y-87325000D01*
X179904987Y-87319723D01*
X179886957Y-87182768D01*
X179885044Y-87168238D01*
X179824536Y-87022159D01*
X179824535Y-87022158D01*
X179824535Y-87022157D01*
X179806458Y-86998599D01*
X179781263Y-86933430D01*
X179795301Y-86864985D01*
X179806450Y-86847636D01*
X179894536Y-86732841D01*
X179955044Y-86586762D01*
X179975682Y-86430000D01*
X179955044Y-86273238D01*
X179894536Y-86127159D01*
X179798282Y-86001718D01*
X179672841Y-85905464D01*
X179526762Y-85844956D01*
X179526760Y-85844955D01*
X179370001Y-85824318D01*
X179369999Y-85824318D01*
X179213239Y-85844955D01*
X179213237Y-85844956D01*
X179067160Y-85905463D01*
X178941714Y-86001721D01*
X178883884Y-86077087D01*
X178852836Y-86104316D01*
X178853033Y-86104573D01*
X178849127Y-86107570D01*
X178847515Y-86108984D01*
X178846587Y-86109519D01*
X178809304Y-86146803D01*
X178772020Y-86184087D01*
X178270426Y-86685681D01*
X178209103Y-86719166D01*
X178182745Y-86722000D01*
X177758856Y-86722000D01*
X177720841Y-86726565D01*
X177674411Y-86732140D01*
X177540023Y-86785136D01*
X177424921Y-86872421D01*
X177337635Y-86987525D01*
X177312574Y-87051074D01*
X177269667Y-87106218D01*
X177259232Y-87112963D01*
X177250522Y-87117993D01*
X177250511Y-87118000D01*
X177191587Y-87152019D01*
X177124089Y-87219518D01*
X177124088Y-87219517D01*
X177124086Y-87219520D01*
X176729522Y-87614084D01*
X176729518Y-87614090D01*
X176676792Y-87705413D01*
X176676791Y-87705415D01*
X176666795Y-87742725D01*
X176666795Y-87742727D01*
X176649500Y-87807273D01*
X176649500Y-90722273D01*
X176649500Y-90789773D01*
X176649500Y-90895227D01*
X176676051Y-90994318D01*
X176676794Y-90997091D01*
X176676795Y-90997093D01*
X176681937Y-91005999D01*
X176698411Y-91073899D01*
X176675559Y-91139926D01*
X176620639Y-91183117D01*
X176574551Y-91192000D01*
X173984773Y-91192000D01*
X173882910Y-91219293D01*
X173791587Y-91272019D01*
X173555008Y-91508598D01*
X173493685Y-91542082D01*
X173483513Y-91543855D01*
X173323238Y-91564956D01*
X173323237Y-91564956D01*
X173177160Y-91625463D01*
X173051718Y-91721718D01*
X172955463Y-91847160D01*
X172894956Y-91993237D01*
X172894955Y-91993239D01*
X172874318Y-92149998D01*
X172874318Y-92150001D01*
X172894955Y-92306760D01*
X172894956Y-92306762D01*
X172955464Y-92452842D01*
X173010844Y-92525014D01*
X173036038Y-92590183D01*
X173022000Y-92658628D01*
X172973186Y-92708617D01*
X172912468Y-92724500D01*
X172483856Y-92724500D01*
X172445841Y-92729065D01*
X172399411Y-92734640D01*
X172265023Y-92787636D01*
X172187545Y-92846390D01*
X172122233Y-92871213D01*
X172053869Y-92856785D01*
X172007082Y-92812684D01*
X171997573Y-92797268D01*
X171877732Y-92677427D01*
X171877728Y-92677424D01*
X171733492Y-92588457D01*
X171733481Y-92588452D01*
X171572606Y-92535144D01*
X171473322Y-92525000D01*
X171450000Y-92525000D01*
X171450000Y-94474999D01*
X171473308Y-94474999D01*
X171473322Y-94474998D01*
X171572607Y-94464855D01*
X171733481Y-94411547D01*
X171733492Y-94411542D01*
X171877728Y-94322575D01*
X171877732Y-94322572D01*
X171997573Y-94202731D01*
X172007081Y-94187317D01*
X172059029Y-94140592D01*
X172127991Y-94129369D01*
X172187544Y-94153608D01*
X172265025Y-94212364D01*
X172399410Y-94265359D01*
X172483856Y-94275500D01*
X172483862Y-94275500D01*
X173016138Y-94275500D01*
X173016144Y-94275500D01*
X173100590Y-94265359D01*
X173234975Y-94212364D01*
X173350078Y-94125078D01*
X173400572Y-94058492D01*
X173403196Y-94055032D01*
X173459389Y-94013508D01*
X173529110Y-94008957D01*
X173590224Y-94042822D01*
X173623328Y-94104352D01*
X173626000Y-94129957D01*
X173626000Y-96372702D01*
X173606315Y-96439741D01*
X173553511Y-96485496D01*
X173502002Y-96496702D01*
X173454593Y-96496702D01*
X173454568Y-96496704D01*
X173429461Y-96499616D01*
X173429458Y-96499617D01*
X173326685Y-96544995D01*
X173247244Y-96624436D01*
X173201865Y-96727208D01*
X173201865Y-96727210D01*
X173198950Y-96752333D01*
X173198950Y-97197658D01*
X173198952Y-97197684D01*
X173201863Y-97222788D01*
X173201866Y-97222798D01*
X173213840Y-97249917D01*
X173222910Y-97319195D01*
X173213841Y-97350083D01*
X173201866Y-97377205D01*
X173201865Y-97377210D01*
X173199296Y-97399356D01*
X173198950Y-97402336D01*
X173198950Y-97624536D01*
X173198951Y-97750500D01*
X173179267Y-97817539D01*
X173126463Y-97863294D01*
X173074951Y-97874500D01*
X173074500Y-97874500D01*
X173007461Y-97854815D01*
X172961706Y-97802011D01*
X172950500Y-97750500D01*
X172950500Y-97222275D01*
X172950499Y-97222271D01*
X172945900Y-97205107D01*
X172931889Y-97152814D01*
X172923207Y-97120412D01*
X172870480Y-97029087D01*
X172495915Y-96654522D01*
X172404590Y-96601795D01*
X172302845Y-96574533D01*
X172260326Y-96549984D01*
X172259295Y-96551490D01*
X172249815Y-96544996D01*
X172147042Y-96499617D01*
X172121918Y-96496702D01*
X172121915Y-96496702D01*
X172074500Y-96496702D01*
X172007461Y-96477017D01*
X171961706Y-96424213D01*
X171950500Y-96372702D01*
X171950500Y-95972276D01*
X171950500Y-95972273D01*
X171934613Y-95912980D01*
X171923207Y-95870412D01*
X171896843Y-95824750D01*
X171870480Y-95779087D01*
X171795913Y-95704520D01*
X171795912Y-95704519D01*
X171791587Y-95700194D01*
X171791576Y-95700184D01*
X171691401Y-95600008D01*
X171657917Y-95538684D01*
X171656144Y-95528512D01*
X171655681Y-95524998D01*
X171635044Y-95368238D01*
X171574536Y-95222159D01*
X171478282Y-95096718D01*
X171352841Y-95000464D01*
X171345137Y-94997273D01*
X171206762Y-94939956D01*
X171206760Y-94939955D01*
X171050001Y-94919318D01*
X171049999Y-94919318D01*
X170893239Y-94939955D01*
X170893237Y-94939956D01*
X170747160Y-95000463D01*
X170621718Y-95096718D01*
X170525463Y-95222160D01*
X170464956Y-95368237D01*
X170464955Y-95368239D01*
X170444318Y-95524998D01*
X170444318Y-95525001D01*
X170464955Y-95681760D01*
X170464956Y-95681762D01*
X170524183Y-95824750D01*
X170525464Y-95827841D01*
X170621718Y-95953282D01*
X170747159Y-96049536D01*
X170893238Y-96110044D01*
X171041686Y-96129587D01*
X171105582Y-96157853D01*
X171144053Y-96216178D01*
X171149500Y-96252526D01*
X171149500Y-96372702D01*
X171129815Y-96439741D01*
X171077011Y-96485496D01*
X171025502Y-96496702D01*
X170978093Y-96496702D01*
X170978068Y-96496704D01*
X170952961Y-96499616D01*
X170952958Y-96499617D01*
X170850185Y-96544995D01*
X170770744Y-96624436D01*
X170725365Y-96727208D01*
X170725365Y-96727210D01*
X170722450Y-96752333D01*
X170722450Y-96985504D01*
X170702765Y-97052543D01*
X170672764Y-97084768D01*
X170665767Y-97090005D01*
X170665758Y-97090015D01*
X170579599Y-97205107D01*
X170579595Y-97205114D01*
X170529353Y-97339821D01*
X170529351Y-97339828D01*
X170522950Y-97399356D01*
X170522950Y-97447201D01*
X170924682Y-97447201D01*
X170943646Y-97449734D01*
X170943696Y-97449312D01*
X170952957Y-97450386D01*
X170952959Y-97450387D01*
X170978085Y-97453302D01*
X171603801Y-97453301D01*
X171670839Y-97472985D01*
X171716594Y-97525789D01*
X171727800Y-97577301D01*
X171727800Y-97672700D01*
X171708115Y-97739739D01*
X171655311Y-97785494D01*
X171603800Y-97796700D01*
X170978093Y-97796700D01*
X170978069Y-97796702D01*
X170943694Y-97800689D01*
X170943645Y-97800267D01*
X170924682Y-97802801D01*
X170522950Y-97802801D01*
X170522950Y-97850645D01*
X170529351Y-97910173D01*
X170529353Y-97910180D01*
X170579595Y-98044887D01*
X170579597Y-98044889D01*
X170665759Y-98159987D01*
X170665761Y-98159989D01*
X170672759Y-98165228D01*
X170714631Y-98221160D01*
X170722450Y-98264495D01*
X170722450Y-98497656D01*
X170722452Y-98497682D01*
X170725363Y-98522787D01*
X170725365Y-98522791D01*
X170770743Y-98625564D01*
X170770744Y-98625565D01*
X170850185Y-98705006D01*
X170952959Y-98750385D01*
X170978085Y-98753300D01*
X171025500Y-98753299D01*
X171092537Y-98772982D01*
X171138293Y-98825785D01*
X171149500Y-98877299D01*
X171149500Y-99334211D01*
X171129815Y-99401250D01*
X171077011Y-99447005D01*
X171007853Y-99456949D01*
X170978050Y-99448773D01*
X170956765Y-99439957D01*
X170956760Y-99439955D01*
X170800001Y-99419318D01*
X170799999Y-99419318D01*
X170643239Y-99439955D01*
X170643237Y-99439956D01*
X170497160Y-99500463D01*
X170497159Y-99500464D01*
X170371718Y-99596718D01*
X170371716Y-99596720D01*
X170368907Y-99598876D01*
X170303737Y-99624070D01*
X170293420Y-99624500D01*
X170247273Y-99624500D01*
X170145408Y-99651794D01*
X170145404Y-99651795D01*
X170136496Y-99656939D01*
X170068596Y-99673409D01*
X170002569Y-99650555D01*
X169959381Y-99595632D01*
X169950500Y-99549550D01*
X169950500Y-99531580D01*
X169970185Y-99464541D01*
X169976124Y-99456093D01*
X169978279Y-99453283D01*
X169978282Y-99453282D01*
X170074536Y-99327841D01*
X170135044Y-99181762D01*
X170153126Y-99044413D01*
X170155682Y-99025001D01*
X170155682Y-99024998D01*
X170138497Y-98894463D01*
X170135044Y-98868238D01*
X170074536Y-98722159D01*
X169978282Y-98596718D01*
X169852841Y-98500464D01*
X169846081Y-98497664D01*
X169706762Y-98439956D01*
X169706760Y-98439955D01*
X169550001Y-98419318D01*
X169549999Y-98419318D01*
X169393239Y-98439955D01*
X169393237Y-98439956D01*
X169247160Y-98500463D01*
X169121718Y-98596718D01*
X169025463Y-98722160D01*
X168964956Y-98868237D01*
X168964955Y-98868239D01*
X168944318Y-99024998D01*
X168944318Y-99025001D01*
X168964955Y-99181760D01*
X168964956Y-99181762D01*
X169011639Y-99294466D01*
X169025464Y-99327841D01*
X169121718Y-99453282D01*
X169121720Y-99453283D01*
X169123876Y-99456093D01*
X169149070Y-99521263D01*
X169149500Y-99531580D01*
X169149500Y-100187726D01*
X169176793Y-100289589D01*
X169203156Y-100335250D01*
X169229520Y-100380913D01*
X169229522Y-100380915D01*
X169244189Y-100395582D01*
X169277674Y-100456905D01*
X169272690Y-100526597D01*
X169231433Y-100582067D01*
X169212545Y-100596390D01*
X169147233Y-100621213D01*
X169078869Y-100606785D01*
X169032082Y-100562684D01*
X169022573Y-100547268D01*
X168902732Y-100427427D01*
X168902728Y-100427424D01*
X168758492Y-100338457D01*
X168758481Y-100338452D01*
X168597606Y-100285144D01*
X168498322Y-100275000D01*
X168475000Y-100275000D01*
X168475000Y-102224999D01*
X167951683Y-102224999D01*
X167975000Y-102224998D01*
X167975000Y-101500000D01*
X167275001Y-101500000D01*
X156050500Y-101500000D01*
X156050500Y-101204300D01*
X156070185Y-101137261D01*
X156122989Y-101091506D01*
X156174500Y-101080300D01*
X156194456Y-101080300D01*
X156194464Y-101080300D01*
X156194479Y-101080298D01*
X156194482Y-101080298D01*
X156219587Y-101077387D01*
X156219588Y-101077386D01*
X156219591Y-101077386D01*
X156322365Y-101032007D01*
X156354372Y-101000000D01*
X167275000Y-101000000D01*
X167975000Y-101000000D01*
X167975000Y-100274999D01*
X167951693Y-100275000D01*
X167951674Y-100275001D01*
X167852392Y-100285144D01*
X167691518Y-100338452D01*
X167691507Y-100338457D01*
X167547271Y-100427424D01*
X167547267Y-100427427D01*
X167427427Y-100547267D01*
X167427424Y-100547271D01*
X167338457Y-100691507D01*
X167338452Y-100691518D01*
X167285144Y-100852393D01*
X167275000Y-100951677D01*
X167275000Y-101000000D01*
X156354372Y-101000000D01*
X156401806Y-100952566D01*
X156447185Y-100849792D01*
X156450100Y-100824666D01*
X156450099Y-100074098D01*
X156469783Y-100007060D01*
X156522587Y-99961305D01*
X156574094Y-99950099D01*
X157324665Y-99950099D01*
X157324680Y-99950097D01*
X157324683Y-99950097D01*
X157349788Y-99947186D01*
X157349789Y-99947185D01*
X157349792Y-99947185D01*
X157452566Y-99901806D01*
X157532007Y-99822365D01*
X157577386Y-99719591D01*
X157580301Y-99694465D01*
X157580300Y-99405536D01*
X157578058Y-99386201D01*
X166244318Y-99386201D01*
X166264955Y-99542960D01*
X166264956Y-99542962D01*
X166315676Y-99665412D01*
X166325464Y-99689041D01*
X166421718Y-99814482D01*
X166547159Y-99910736D01*
X166693238Y-99971244D01*
X166771619Y-99981563D01*
X166849999Y-99991882D01*
X166850000Y-99991882D01*
X166850001Y-99991882D01*
X166902254Y-99985002D01*
X167006762Y-99971244D01*
X167152841Y-99910736D01*
X167278282Y-99814482D01*
X167278283Y-99814479D01*
X167281093Y-99812324D01*
X167346263Y-99787130D01*
X167356580Y-99786700D01*
X167457125Y-99786700D01*
X167457127Y-99786700D01*
X167558988Y-99759407D01*
X167650313Y-99706680D01*
X168140106Y-99216884D01*
X168140111Y-99216881D01*
X168150311Y-99206680D01*
X168150313Y-99206680D01*
X168224880Y-99132113D01*
X168275514Y-99044413D01*
X168277607Y-99040788D01*
X168304900Y-98938927D01*
X168304900Y-98833473D01*
X168304900Y-98484666D01*
X168324585Y-98417627D01*
X168377389Y-98371872D01*
X168385556Y-98368488D01*
X168421731Y-98354996D01*
X168536946Y-98268746D01*
X168623196Y-98153531D01*
X168673491Y-98018683D01*
X168679900Y-97959073D01*
X168679899Y-97463328D01*
X168673687Y-97405542D01*
X168673491Y-97403716D01*
X168623197Y-97268871D01*
X168623193Y-97268864D01*
X168536947Y-97153655D01*
X168536944Y-97153652D01*
X168421735Y-97067406D01*
X168421728Y-97067402D01*
X168286886Y-97017110D01*
X168286885Y-97017109D01*
X168286883Y-97017109D01*
X168227273Y-97010700D01*
X168227263Y-97010700D01*
X167581529Y-97010700D01*
X167581523Y-97010701D01*
X167521916Y-97017108D01*
X167387071Y-97067402D01*
X167387064Y-97067406D01*
X167271855Y-97153652D01*
X167271852Y-97153655D01*
X167185606Y-97268864D01*
X167185602Y-97268871D01*
X167135310Y-97403713D01*
X167135309Y-97403717D01*
X167128900Y-97463327D01*
X167128900Y-97463334D01*
X167128900Y-97463335D01*
X167128900Y-97959070D01*
X167128901Y-97959076D01*
X167135308Y-98018683D01*
X167185602Y-98153528D01*
X167185606Y-98153535D01*
X167271852Y-98268744D01*
X167271855Y-98268747D01*
X167387064Y-98354993D01*
X167387069Y-98354996D01*
X167423232Y-98368484D01*
X167479166Y-98410354D01*
X167503584Y-98475818D01*
X167503900Y-98484666D01*
X167503900Y-98668945D01*
X167484215Y-98735984D01*
X167467585Y-98756621D01*
X167398422Y-98825785D01*
X167348389Y-98875818D01*
X167287066Y-98909302D01*
X167217374Y-98904318D01*
X167185225Y-98886513D01*
X167152841Y-98861664D01*
X167152839Y-98861663D01*
X167152837Y-98861662D01*
X167006762Y-98801156D01*
X167006760Y-98801155D01*
X166850001Y-98780518D01*
X166849999Y-98780518D01*
X166693239Y-98801155D01*
X166693237Y-98801156D01*
X166547160Y-98861663D01*
X166421718Y-98957918D01*
X166325463Y-99083360D01*
X166264956Y-99229437D01*
X166264955Y-99229439D01*
X166244318Y-99386198D01*
X166244318Y-99386201D01*
X157578058Y-99386201D01*
X157578058Y-99386200D01*
X157576312Y-99371142D01*
X157577970Y-99370949D01*
X157577971Y-99329048D01*
X157576311Y-99328856D01*
X157580299Y-99294481D01*
X157580301Y-99294466D01*
X157580300Y-99005537D01*
X157580298Y-99005518D01*
X157576312Y-98971143D01*
X157577971Y-98970950D01*
X157577973Y-98929046D01*
X157576311Y-98928854D01*
X157577386Y-98919590D01*
X157580301Y-98894464D01*
X157580300Y-98605535D01*
X157579989Y-98602850D01*
X157576312Y-98571141D01*
X157577970Y-98570948D01*
X157577971Y-98529047D01*
X157576311Y-98528855D01*
X157577386Y-98519591D01*
X157580301Y-98494465D01*
X157580300Y-98205536D01*
X157580298Y-98205517D01*
X157576312Y-98171142D01*
X157577970Y-98170949D01*
X157577971Y-98129048D01*
X157576311Y-98128856D01*
X157580299Y-98094481D01*
X157580301Y-98094466D01*
X157580300Y-97805537D01*
X157579689Y-97800267D01*
X157576312Y-97771143D01*
X157577971Y-97770950D01*
X157577973Y-97729046D01*
X157576311Y-97728854D01*
X157577386Y-97719590D01*
X157580301Y-97694464D01*
X157580300Y-97405535D01*
X157579988Y-97402841D01*
X157576312Y-97371141D01*
X157577970Y-97370948D01*
X157577971Y-97329047D01*
X157576311Y-97328855D01*
X157577432Y-97319195D01*
X157580301Y-97294465D01*
X157580300Y-97005536D01*
X157577977Y-96985504D01*
X157576312Y-96971142D01*
X157577970Y-96970949D01*
X157577970Y-96929047D01*
X157576311Y-96928855D01*
X157580299Y-96894480D01*
X157580301Y-96894465D01*
X157580300Y-96605536D01*
X157580298Y-96605517D01*
X157576312Y-96571142D01*
X157577970Y-96570949D01*
X157577971Y-96529048D01*
X157576311Y-96528856D01*
X157578874Y-96506762D01*
X157580301Y-96494466D01*
X157580300Y-96205537D01*
X157578602Y-96190892D01*
X157576312Y-96171143D01*
X157577971Y-96170950D01*
X157577973Y-96129046D01*
X157576311Y-96128854D01*
X157578493Y-96110044D01*
X157580301Y-96094464D01*
X157580300Y-95805535D01*
X157579705Y-95800405D01*
X157576312Y-95771141D01*
X157577970Y-95770948D01*
X157577971Y-95729047D01*
X157576311Y-95728855D01*
X157577386Y-95719591D01*
X157580301Y-95694465D01*
X157580300Y-95405536D01*
X157579854Y-95401692D01*
X157576312Y-95371142D01*
X157577970Y-95370949D01*
X157577971Y-95329048D01*
X157576311Y-95328856D01*
X157579381Y-95302392D01*
X157580301Y-95294466D01*
X157580300Y-95005537D01*
X157579342Y-94997273D01*
X157576312Y-94971143D01*
X157577971Y-94970950D01*
X157577973Y-94929046D01*
X157576311Y-94928854D01*
X157577386Y-94919590D01*
X157580301Y-94894464D01*
X157580300Y-94605535D01*
X157577742Y-94583475D01*
X157576312Y-94571141D01*
X157577970Y-94570948D01*
X157577971Y-94529047D01*
X157576311Y-94528855D01*
X157580299Y-94494480D01*
X157580301Y-94494465D01*
X157580301Y-94386201D01*
X166594318Y-94386201D01*
X166614955Y-94542960D01*
X166614956Y-94542962D01*
X166640877Y-94605542D01*
X166675464Y-94689041D01*
X166771718Y-94814482D01*
X166897159Y-94910736D01*
X167043238Y-94971244D01*
X167100450Y-94978776D01*
X167199999Y-94991882D01*
X167200000Y-94991882D01*
X167356762Y-94971244D01*
X167356764Y-94971242D01*
X167363714Y-94970328D01*
X167432750Y-94981093D01*
X167485006Y-95027473D01*
X167503900Y-95093267D01*
X167503900Y-95287733D01*
X167484215Y-95354772D01*
X167431411Y-95400527D01*
X167423236Y-95403914D01*
X167387065Y-95417405D01*
X167271855Y-95503652D01*
X167271852Y-95503655D01*
X167185606Y-95618864D01*
X167185602Y-95618871D01*
X167135310Y-95753713D01*
X167135309Y-95753717D01*
X167128900Y-95813327D01*
X167128900Y-95813334D01*
X167128900Y-95813335D01*
X167128900Y-96309070D01*
X167128901Y-96309076D01*
X167135308Y-96368683D01*
X167185602Y-96503528D01*
X167185606Y-96503535D01*
X167271852Y-96618744D01*
X167271855Y-96618747D01*
X167387064Y-96704993D01*
X167387071Y-96704997D01*
X167432018Y-96721761D01*
X167521917Y-96755291D01*
X167581527Y-96761700D01*
X168227272Y-96761699D01*
X168286883Y-96755291D01*
X168421731Y-96704996D01*
X168536946Y-96618746D01*
X168623196Y-96503531D01*
X168673491Y-96368683D01*
X168679900Y-96309073D01*
X168679899Y-95813328D01*
X168673491Y-95753717D01*
X168672104Y-95749999D01*
X168623197Y-95618871D01*
X168623193Y-95618864D01*
X168536947Y-95503655D01*
X168536944Y-95503652D01*
X168421734Y-95417405D01*
X168385564Y-95403914D01*
X168329631Y-95362041D01*
X168305216Y-95296576D01*
X168304900Y-95287733D01*
X168304900Y-94583475D01*
X168304900Y-94583473D01*
X168277607Y-94481613D01*
X168224880Y-94390287D01*
X168150313Y-94315720D01*
X167900313Y-94065720D01*
X167846301Y-94034536D01*
X167808989Y-94012993D01*
X167753756Y-93998194D01*
X167707127Y-93985700D01*
X167707126Y-93985700D01*
X167706580Y-93985700D01*
X167706136Y-93985569D01*
X167699067Y-93984639D01*
X167699212Y-93983536D01*
X167639541Y-93966015D01*
X167631093Y-93960076D01*
X167628283Y-93957920D01*
X167628282Y-93957918D01*
X167502841Y-93861664D01*
X167418616Y-93826777D01*
X167356762Y-93801156D01*
X167356760Y-93801155D01*
X167200001Y-93780518D01*
X167199999Y-93780518D01*
X167043239Y-93801155D01*
X167043237Y-93801156D01*
X166897160Y-93861663D01*
X166771718Y-93957918D01*
X166675463Y-94083360D01*
X166614956Y-94229437D01*
X166614955Y-94229439D01*
X166594318Y-94386198D01*
X166594318Y-94386201D01*
X157580301Y-94386201D01*
X157580300Y-94205536D01*
X157579975Y-94202731D01*
X157577387Y-94180412D01*
X157577386Y-94180410D01*
X157577386Y-94180409D01*
X157532007Y-94077635D01*
X157452566Y-93998194D01*
X157419369Y-93983536D01*
X157349793Y-93952815D01*
X157324669Y-93949900D01*
X156574099Y-93949900D01*
X156507060Y-93930215D01*
X156461305Y-93877411D01*
X156450099Y-93825904D01*
X156450099Y-93750000D01*
X170250001Y-93750000D01*
X170250001Y-93798322D01*
X170260144Y-93897607D01*
X170313452Y-94058481D01*
X170313457Y-94058492D01*
X170402424Y-94202728D01*
X170402427Y-94202732D01*
X170522267Y-94322572D01*
X170522271Y-94322575D01*
X170666507Y-94411542D01*
X170666518Y-94411547D01*
X170827393Y-94464855D01*
X170926683Y-94474999D01*
X170950000Y-94474998D01*
X170950000Y-93750000D01*
X170250001Y-93750000D01*
X156450099Y-93750000D01*
X156450099Y-93250000D01*
X170250000Y-93250000D01*
X170950000Y-93250000D01*
X170950000Y-92524999D01*
X170926693Y-92525000D01*
X170926674Y-92525001D01*
X170827392Y-92535144D01*
X170666518Y-92588452D01*
X170666507Y-92588457D01*
X170522271Y-92677424D01*
X170522267Y-92677427D01*
X170402427Y-92797267D01*
X170402424Y-92797271D01*
X170313457Y-92941507D01*
X170313452Y-92941518D01*
X170260144Y-93102393D01*
X170250000Y-93201677D01*
X170250000Y-93250000D01*
X156450099Y-93250000D01*
X156450099Y-93075335D01*
X156449840Y-93073100D01*
X156447186Y-93050211D01*
X156447185Y-93050209D01*
X156447185Y-93050208D01*
X156401806Y-92947434D01*
X156395312Y-92937954D01*
X156396686Y-92937012D01*
X156369578Y-92887368D01*
X156374562Y-92817676D01*
X156403063Y-92773329D01*
X156676314Y-92500078D01*
X157070480Y-92105913D01*
X157123207Y-92014588D01*
X157150500Y-91912727D01*
X157150500Y-91807273D01*
X157150500Y-89300001D01*
X158394318Y-89300001D01*
X158414955Y-89456760D01*
X158414956Y-89456762D01*
X158423538Y-89477482D01*
X158475464Y-89602841D01*
X158571718Y-89728282D01*
X158697159Y-89824536D01*
X158824245Y-89877176D01*
X158878647Y-89921017D01*
X158900712Y-89987311D01*
X158883433Y-90055010D01*
X158875167Y-90067223D01*
X158775464Y-90197157D01*
X158714956Y-90343237D01*
X158714955Y-90343239D01*
X158694318Y-90499998D01*
X158694318Y-90500001D01*
X158714955Y-90656760D01*
X158714956Y-90656762D01*
X158772474Y-90795624D01*
X158775464Y-90802841D01*
X158871718Y-90928282D01*
X158997159Y-91024536D01*
X159143238Y-91085044D01*
X159193112Y-91091610D01*
X159299999Y-91105682D01*
X159300000Y-91105682D01*
X159300001Y-91105682D01*
X159352254Y-91098802D01*
X159456762Y-91085044D01*
X159602841Y-91024536D01*
X159728282Y-90928282D01*
X159824536Y-90802841D01*
X159885044Y-90656762D01*
X159905682Y-90500000D01*
X159905681Y-90499997D01*
X159906144Y-90496485D01*
X159934410Y-90432589D01*
X159941390Y-90425001D01*
X160969574Y-89396819D01*
X161030897Y-89363334D01*
X161057255Y-89360500D01*
X164384765Y-89360500D01*
X164451804Y-89380185D01*
X164497559Y-89432989D01*
X164498133Y-89434265D01*
X164532794Y-89512765D01*
X164612235Y-89592206D01*
X164715009Y-89637585D01*
X164740135Y-89640500D01*
X166099864Y-89640499D01*
X166099879Y-89640497D01*
X166099882Y-89640497D01*
X166124987Y-89637586D01*
X166124988Y-89637585D01*
X166124991Y-89637585D01*
X166227765Y-89592206D01*
X166307206Y-89512765D01*
X166352585Y-89409991D01*
X166355500Y-89384865D01*
X166355500Y-89210000D01*
X171905000Y-89210000D01*
X171905000Y-89387844D01*
X171911401Y-89447372D01*
X171911403Y-89447379D01*
X171961645Y-89582086D01*
X171961649Y-89582093D01*
X172047809Y-89697187D01*
X172047812Y-89697190D01*
X172162906Y-89783350D01*
X172162913Y-89783354D01*
X172297620Y-89833596D01*
X172297627Y-89833598D01*
X172357155Y-89839999D01*
X172357172Y-89840000D01*
X172790000Y-89840000D01*
X172790000Y-89210000D01*
X173290000Y-89210000D01*
X173290000Y-89840000D01*
X173722828Y-89840000D01*
X173722844Y-89839999D01*
X173782372Y-89833598D01*
X173782379Y-89833596D01*
X173917086Y-89783354D01*
X173917093Y-89783350D01*
X174032187Y-89697190D01*
X174032190Y-89697187D01*
X174118350Y-89582093D01*
X174118354Y-89582086D01*
X174168596Y-89447379D01*
X174168598Y-89447372D01*
X174174999Y-89387844D01*
X174175000Y-89387827D01*
X174175000Y-89210000D01*
X173290000Y-89210000D01*
X172790000Y-89210000D01*
X171905000Y-89210000D01*
X166355500Y-89210000D01*
X166355499Y-88710000D01*
X171905000Y-88710000D01*
X174175000Y-88710000D01*
X174175000Y-88532172D01*
X174174999Y-88532155D01*
X174168598Y-88472627D01*
X174168596Y-88472620D01*
X174118354Y-88337913D01*
X174118352Y-88337910D01*
X174081597Y-88288812D01*
X174057179Y-88223348D01*
X174072030Y-88155075D01*
X174121435Y-88105669D01*
X174180863Y-88090500D01*
X175156230Y-88090500D01*
X175223269Y-88110185D01*
X175254606Y-88139014D01*
X175261714Y-88148278D01*
X175261716Y-88148279D01*
X175261718Y-88148282D01*
X175387159Y-88244536D01*
X175533238Y-88305044D01*
X175611619Y-88315363D01*
X175689999Y-88325682D01*
X175690000Y-88325682D01*
X175690001Y-88325682D01*
X175742254Y-88318802D01*
X175846762Y-88305044D01*
X175992841Y-88244536D01*
X176118282Y-88148282D01*
X176214536Y-88022841D01*
X176275044Y-87876762D01*
X176292690Y-87742725D01*
X176295682Y-87720001D01*
X176295682Y-87719998D01*
X176278749Y-87591380D01*
X176275044Y-87563238D01*
X176214536Y-87417159D01*
X176118282Y-87291718D01*
X175992841Y-87195464D01*
X175980830Y-87190489D01*
X175846762Y-87134956D01*
X175846760Y-87134955D01*
X175690001Y-87114318D01*
X175689999Y-87114318D01*
X175533239Y-87134955D01*
X175533234Y-87134957D01*
X175387163Y-87195461D01*
X175387162Y-87195461D01*
X175348361Y-87225234D01*
X175298001Y-87263876D01*
X175232834Y-87289070D01*
X175222517Y-87289500D01*
X174075235Y-87289500D01*
X174008196Y-87269815D01*
X173962441Y-87217011D01*
X173961866Y-87215734D01*
X173927206Y-87137235D01*
X173847765Y-87057794D01*
X173832546Y-87051074D01*
X173744992Y-87012415D01*
X173719865Y-87009500D01*
X172360143Y-87009500D01*
X172360117Y-87009502D01*
X172335012Y-87012413D01*
X172335008Y-87012415D01*
X172232235Y-87057793D01*
X172152794Y-87137234D01*
X172107415Y-87240006D01*
X172107415Y-87240008D01*
X172104500Y-87265131D01*
X172104500Y-88118303D01*
X172084815Y-88185342D01*
X172054819Y-88217564D01*
X172047810Y-88222811D01*
X172047809Y-88222812D01*
X171961649Y-88337906D01*
X171961645Y-88337913D01*
X171911403Y-88472620D01*
X171911401Y-88472627D01*
X171905000Y-88532155D01*
X171905000Y-88710000D01*
X166355499Y-88710000D01*
X166355499Y-88535136D01*
X166355497Y-88535117D01*
X166352586Y-88510012D01*
X166352585Y-88510010D01*
X166352585Y-88510009D01*
X166307206Y-88407235D01*
X166307205Y-88407234D01*
X166300712Y-88397755D01*
X166303470Y-88395865D01*
X166279167Y-88351358D01*
X166284151Y-88281666D01*
X166302341Y-88253361D01*
X166300712Y-88252245D01*
X166307202Y-88242768D01*
X166307206Y-88242765D01*
X166352585Y-88139991D01*
X166355500Y-88114865D01*
X166355499Y-87265136D01*
X166355353Y-87263876D01*
X166352586Y-87240012D01*
X166352585Y-87240010D01*
X166352585Y-87240009D01*
X166307206Y-87137235D01*
X166227765Y-87057794D01*
X166212546Y-87051074D01*
X166124992Y-87012415D01*
X166099868Y-87009500D01*
X166099865Y-87009500D01*
X165944500Y-87009500D01*
X165877461Y-86989815D01*
X165831706Y-86937011D01*
X165820500Y-86885500D01*
X165820500Y-85607254D01*
X165840185Y-85540215D01*
X165856819Y-85519573D01*
X166489573Y-84886819D01*
X166550896Y-84853334D01*
X166577254Y-84850500D01*
X171412725Y-84850500D01*
X171412727Y-84850500D01*
X171514588Y-84823207D01*
X171605913Y-84770480D01*
X172849574Y-83526819D01*
X172910897Y-83493334D01*
X172937255Y-83490500D01*
X174475501Y-83490500D01*
X174542540Y-83510185D01*
X174588295Y-83562989D01*
X174599501Y-83614500D01*
X174599501Y-83634856D01*
X174599502Y-83634882D01*
X174602413Y-83659987D01*
X174602415Y-83659991D01*
X174647793Y-83762764D01*
X174647794Y-83762765D01*
X174727235Y-83842206D01*
X174830009Y-83887585D01*
X174855135Y-83890500D01*
X175944864Y-83890499D01*
X175944879Y-83890497D01*
X175944882Y-83890497D01*
X175969987Y-83887586D01*
X175969988Y-83887585D01*
X175969991Y-83887585D01*
X176072765Y-83842206D01*
X176082319Y-83832652D01*
X176143642Y-83799167D01*
X176213334Y-83804151D01*
X176257681Y-83832652D01*
X176267235Y-83842206D01*
X176370009Y-83887585D01*
X176395135Y-83890500D01*
X177484864Y-83890499D01*
X177484879Y-83890497D01*
X177484882Y-83890497D01*
X177509987Y-83887586D01*
X177509988Y-83887585D01*
X177509991Y-83887585D01*
X177612765Y-83842206D01*
X177692206Y-83762765D01*
X177737585Y-83659991D01*
X177740500Y-83634865D01*
X177740500Y-83614500D01*
X177760185Y-83547461D01*
X177812989Y-83501706D01*
X177864500Y-83490500D01*
X178490373Y-83490500D01*
X178557412Y-83510185D01*
X178603167Y-83562989D01*
X178613312Y-83598315D01*
X178624955Y-83686760D01*
X178624956Y-83686762D01*
X178656437Y-83762765D01*
X178685464Y-83832841D01*
X178781718Y-83958282D01*
X178907159Y-84054536D01*
X179053238Y-84115044D01*
X179131619Y-84125363D01*
X179209999Y-84135682D01*
X179210000Y-84135682D01*
X179210001Y-84135682D01*
X179266216Y-84128281D01*
X179366762Y-84115044D01*
X179512841Y-84054536D01*
X179638282Y-83958282D01*
X179734536Y-83832841D01*
X179795044Y-83686762D01*
X179815682Y-83530000D01*
X179813695Y-83514910D01*
X179795044Y-83373239D01*
X179795044Y-83373238D01*
X179734536Y-83227159D01*
X179638282Y-83101718D01*
X179512841Y-83005464D01*
X179366762Y-82944956D01*
X179310577Y-82937559D01*
X179206485Y-82923855D01*
X179142589Y-82895588D01*
X179134990Y-82888597D01*
X179015915Y-82769522D01*
X179015913Y-82769520D01*
X178970250Y-82743156D01*
X178924589Y-82716793D01*
X178873657Y-82703146D01*
X178822727Y-82689500D01*
X178822726Y-82689500D01*
X177864499Y-82689500D01*
X177797460Y-82669815D01*
X177751705Y-82617011D01*
X177740499Y-82565500D01*
X177740499Y-82545143D01*
X177740499Y-82545136D01*
X177740497Y-82545117D01*
X177737586Y-82520012D01*
X177737585Y-82520010D01*
X177737585Y-82520009D01*
X177692206Y-82417235D01*
X177612765Y-82337794D01*
X177612763Y-82337793D01*
X177509992Y-82292415D01*
X177484865Y-82289500D01*
X176395143Y-82289500D01*
X176395117Y-82289502D01*
X176370012Y-82292413D01*
X176370008Y-82292415D01*
X176267235Y-82337793D01*
X176267234Y-82337794D01*
X176257681Y-82347348D01*
X176196358Y-82380833D01*
X176126666Y-82375849D01*
X176082319Y-82347348D01*
X176072765Y-82337794D01*
X175969992Y-82292415D01*
X175944865Y-82289500D01*
X174855143Y-82289500D01*
X174855117Y-82289502D01*
X174830012Y-82292413D01*
X174830008Y-82292415D01*
X174727235Y-82337793D01*
X174647794Y-82417234D01*
X174602415Y-82520006D01*
X174602415Y-82520008D01*
X174599500Y-82545131D01*
X174599500Y-82565500D01*
X174579815Y-82632539D01*
X174527011Y-82678294D01*
X174475500Y-82689500D01*
X172667273Y-82689500D01*
X172565413Y-82716793D01*
X172565410Y-82716794D01*
X172474085Y-82769521D01*
X171230426Y-84013181D01*
X171169103Y-84046666D01*
X171142745Y-84049500D01*
X166420339Y-84049500D01*
X166420323Y-84049499D01*
X166412727Y-84049499D01*
X166307273Y-84049499D01*
X166253963Y-84063783D01*
X166205413Y-84076792D01*
X166164350Y-84100499D01*
X166164351Y-84100500D01*
X166114087Y-84129520D01*
X166114084Y-84129522D01*
X165099522Y-85144084D01*
X165099518Y-85144090D01*
X165046792Y-85235412D01*
X165046793Y-85235413D01*
X165019500Y-85337273D01*
X165019500Y-86885500D01*
X164999815Y-86952539D01*
X164947011Y-86998294D01*
X164895501Y-87009500D01*
X164740144Y-87009500D01*
X164740117Y-87009502D01*
X164715012Y-87012413D01*
X164715008Y-87012415D01*
X164612235Y-87057793D01*
X164532794Y-87137234D01*
X164487415Y-87240006D01*
X164487415Y-87240008D01*
X164484500Y-87265131D01*
X164484500Y-88114856D01*
X164484502Y-88114882D01*
X164487413Y-88139987D01*
X164487415Y-88139991D01*
X164532793Y-88242764D01*
X164539288Y-88252245D01*
X164536529Y-88254134D01*
X164560833Y-88298642D01*
X164555849Y-88368334D01*
X164537658Y-88396638D01*
X164539288Y-88397755D01*
X164532794Y-88407234D01*
X164498198Y-88485587D01*
X164453112Y-88538963D01*
X164386326Y-88559490D01*
X164384764Y-88559500D01*
X161176255Y-88559500D01*
X161109216Y-88539815D01*
X161063461Y-88487011D01*
X161053517Y-88417853D01*
X161082542Y-88354297D01*
X161088574Y-88347819D01*
X162553850Y-86882543D01*
X166981807Y-82454584D01*
X167043128Y-82421101D01*
X167112820Y-82426085D01*
X167114261Y-82426632D01*
X167203802Y-82461321D01*
X167413390Y-82500500D01*
X167413392Y-82500500D01*
X167626608Y-82500500D01*
X167626610Y-82500500D01*
X167836198Y-82461321D01*
X168035019Y-82384298D01*
X168216302Y-82272052D01*
X168373872Y-82128407D01*
X168502366Y-81958255D01*
X168569325Y-81823781D01*
X168616825Y-81772548D01*
X168684488Y-81755126D01*
X168750828Y-81777051D01*
X168792705Y-81826651D01*
X168886399Y-82027578D01*
X169021894Y-82221082D01*
X169188917Y-82388105D01*
X169382421Y-82523600D01*
X169596507Y-82623429D01*
X169596516Y-82623433D01*
X169810000Y-82680634D01*
X169810000Y-81783012D01*
X169867007Y-81815925D01*
X169994174Y-81850000D01*
X170125826Y-81850000D01*
X170252993Y-81815925D01*
X170310000Y-81783012D01*
X170310000Y-82680633D01*
X170523483Y-82623433D01*
X170523492Y-82623429D01*
X170737578Y-82523600D01*
X170931082Y-82388105D01*
X171098105Y-82221082D01*
X171233600Y-82027578D01*
X171333429Y-81813492D01*
X171333432Y-81813486D01*
X171390636Y-81600000D01*
X170493012Y-81600000D01*
X170525925Y-81542993D01*
X170560000Y-81415826D01*
X170560000Y-81284174D01*
X170525925Y-81157007D01*
X170493012Y-81100000D01*
X171390636Y-81100000D01*
X171390635Y-81099999D01*
X171333432Y-80886513D01*
X171333429Y-80886507D01*
X171233600Y-80672422D01*
X171233599Y-80672420D01*
X171098113Y-80478926D01*
X171098108Y-80478920D01*
X170931082Y-80311894D01*
X170737578Y-80176399D01*
X170523492Y-80076570D01*
X170523486Y-80076567D01*
X170310000Y-80019364D01*
X170310000Y-80916988D01*
X170252993Y-80884075D01*
X170125826Y-80850000D01*
X169994174Y-80850000D01*
X169867007Y-80884075D01*
X169810000Y-80916988D01*
X169810000Y-80019364D01*
X169809999Y-80019364D01*
X169596513Y-80076567D01*
X169596507Y-80076570D01*
X169382422Y-80176399D01*
X169382420Y-80176400D01*
X169188926Y-80311886D01*
X169188920Y-80311891D01*
X169021891Y-80478920D01*
X169021886Y-80478926D01*
X168886400Y-80672420D01*
X168886399Y-80672422D01*
X168792705Y-80873348D01*
X168746532Y-80925787D01*
X168679339Y-80944939D01*
X168612457Y-80924723D01*
X168569324Y-80876216D01*
X168502366Y-80741745D01*
X168373872Y-80571593D01*
X168216302Y-80427948D01*
X168035019Y-80315702D01*
X168035017Y-80315701D01*
X167935608Y-80277190D01*
X167836198Y-80238679D01*
X167626610Y-80199500D01*
X167413390Y-80199500D01*
X167203802Y-80238679D01*
X167203799Y-80238679D01*
X167203799Y-80238680D01*
X167004982Y-80315701D01*
X167004980Y-80315702D01*
X166823699Y-80427947D01*
X166666127Y-80571593D01*
X166537632Y-80741746D01*
X166442596Y-80932605D01*
X166442596Y-80932607D01*
X166384244Y-81137689D01*
X166373471Y-81253951D01*
X166347685Y-81318888D01*
X166303130Y-81350804D01*
X166339503Y-81371668D01*
X166371693Y-81433681D01*
X166373471Y-81446048D01*
X166384244Y-81562310D01*
X166443390Y-81770184D01*
X166442804Y-81840052D01*
X166411805Y-81891800D01*
X166044306Y-82259299D01*
X165982983Y-82292784D01*
X165929776Y-82288978D01*
X165937149Y-82311929D01*
X165919160Y-82379443D01*
X165900869Y-82402736D01*
X161558229Y-86745376D01*
X161496906Y-86778861D01*
X161427214Y-86773877D01*
X161371281Y-86732005D01*
X161346864Y-86666541D01*
X161348978Y-86640271D01*
X161348262Y-86640194D01*
X161355499Y-86572886D01*
X161355499Y-86572882D01*
X161355500Y-86572873D01*
X161355499Y-86512254D01*
X161375183Y-86445216D01*
X161391813Y-86424578D01*
X162070480Y-85745913D01*
X162123207Y-85654588D01*
X162150500Y-85552727D01*
X162150500Y-85447273D01*
X162150500Y-84797254D01*
X162170185Y-84730215D01*
X162186814Y-84709578D01*
X164441807Y-82454584D01*
X164503128Y-82421101D01*
X164572820Y-82426085D01*
X164574261Y-82426632D01*
X164663802Y-82461321D01*
X164873390Y-82500500D01*
X164873392Y-82500500D01*
X165086608Y-82500500D01*
X165086610Y-82500500D01*
X165296198Y-82461321D01*
X165495019Y-82384298D01*
X165676302Y-82272052D01*
X165729650Y-82223418D01*
X165792452Y-82192801D01*
X165839620Y-82198373D01*
X165832941Y-82180464D01*
X165847793Y-82112191D01*
X165857671Y-82096892D01*
X165962366Y-81958255D01*
X166016270Y-81850000D01*
X166057403Y-81767394D01*
X166057403Y-81767393D01*
X166057405Y-81767389D01*
X166115756Y-81562310D01*
X166126529Y-81446047D01*
X166152315Y-81381111D01*
X166196869Y-81349194D01*
X166160497Y-81328331D01*
X166128307Y-81266318D01*
X166126529Y-81253951D01*
X166125849Y-81246613D01*
X166115756Y-81137690D01*
X166057405Y-80932611D01*
X166057403Y-80932606D01*
X166057403Y-80932605D01*
X165962367Y-80741746D01*
X165833872Y-80571593D01*
X165676302Y-80427948D01*
X165495019Y-80315702D01*
X165495017Y-80315701D01*
X165395608Y-80277190D01*
X165296198Y-80238679D01*
X165086610Y-80199500D01*
X164873390Y-80199500D01*
X164663802Y-80238679D01*
X164663799Y-80238679D01*
X164663799Y-80238680D01*
X164464982Y-80315701D01*
X164464980Y-80315702D01*
X164283699Y-80427947D01*
X164126127Y-80571593D01*
X163997632Y-80741746D01*
X163902596Y-80932605D01*
X163902596Y-80932607D01*
X163844244Y-81137689D01*
X163833471Y-81253951D01*
X163807685Y-81318888D01*
X163763130Y-81350804D01*
X163799503Y-81371668D01*
X163831693Y-81433681D01*
X163833471Y-81446048D01*
X163844244Y-81562310D01*
X163903390Y-81770184D01*
X163902804Y-81840052D01*
X163871805Y-81891800D01*
X163504306Y-82259299D01*
X163442983Y-82292784D01*
X163389779Y-82288979D01*
X163397151Y-82311927D01*
X163379162Y-82379441D01*
X163360871Y-82402734D01*
X161429522Y-84334084D01*
X161429520Y-84334087D01*
X161376793Y-84425412D01*
X161376793Y-84425413D01*
X161349500Y-84527273D01*
X161349500Y-85282744D01*
X161329815Y-85349783D01*
X161313181Y-85370426D01*
X161193790Y-85489816D01*
X161132467Y-85523300D01*
X161062776Y-85518316D01*
X160962486Y-85480910D01*
X160962485Y-85480909D01*
X160962483Y-85480909D01*
X160902873Y-85474500D01*
X160902863Y-85474500D01*
X160407129Y-85474500D01*
X160407123Y-85474501D01*
X160347516Y-85480908D01*
X160212671Y-85531202D01*
X160212664Y-85531206D01*
X160097455Y-85617452D01*
X160097452Y-85617455D01*
X160011206Y-85732664D01*
X160011202Y-85732671D01*
X159962268Y-85863872D01*
X159960909Y-85867517D01*
X159954500Y-85927127D01*
X159954500Y-85927134D01*
X159954500Y-85927135D01*
X159954500Y-86572870D01*
X159954501Y-86572876D01*
X159960908Y-86632483D01*
X160011202Y-86767328D01*
X160011206Y-86767335D01*
X160097452Y-86882544D01*
X160097455Y-86882547D01*
X160212664Y-86968793D01*
X160212671Y-86968797D01*
X160254497Y-86984397D01*
X160347517Y-87019091D01*
X160407127Y-87025500D01*
X160902872Y-87025499D01*
X160962483Y-87019091D01*
X160962482Y-87019091D01*
X160970196Y-87018262D01*
X160970434Y-87020478D01*
X161028931Y-87023605D01*
X161085609Y-87064464D01*
X161111200Y-87129478D01*
X161097579Y-87198007D01*
X161075376Y-87228229D01*
X159507216Y-88796389D01*
X159445893Y-88829874D01*
X159376201Y-88824890D01*
X159344051Y-88807086D01*
X159302841Y-88775464D01*
X159291663Y-88770834D01*
X159156762Y-88714956D01*
X159156760Y-88714955D01*
X159000001Y-88694318D01*
X158999999Y-88694318D01*
X158843239Y-88714955D01*
X158843237Y-88714956D01*
X158697160Y-88775463D01*
X158571718Y-88871718D01*
X158475463Y-88997160D01*
X158414956Y-89143237D01*
X158414955Y-89143239D01*
X158394318Y-89299998D01*
X158394318Y-89300001D01*
X157150500Y-89300001D01*
X157150500Y-88905276D01*
X157170185Y-88838237D01*
X157222989Y-88792482D01*
X157292147Y-88782538D01*
X157355703Y-88811563D01*
X157367166Y-88823730D01*
X157371713Y-88828277D01*
X157371715Y-88828279D01*
X157371718Y-88828282D01*
X157497159Y-88924536D01*
X157643238Y-88985044D01*
X157721619Y-88995363D01*
X157799999Y-89005682D01*
X157800000Y-89005682D01*
X157800001Y-89005682D01*
X157864739Y-88997159D01*
X157956762Y-88985044D01*
X158102841Y-88924536D01*
X158228282Y-88828282D01*
X158324536Y-88702841D01*
X158385044Y-88556762D01*
X158405682Y-88400000D01*
X158405681Y-88399997D01*
X158406144Y-88396485D01*
X158434410Y-88332589D01*
X158441392Y-88325000D01*
X159325480Y-87440913D01*
X159339194Y-87417159D01*
X159378207Y-87349587D01*
X159405500Y-87247727D01*
X159405500Y-87062180D01*
X159425185Y-86995141D01*
X159455187Y-86962914D01*
X159562546Y-86882546D01*
X159648796Y-86767331D01*
X159699091Y-86632483D01*
X159705500Y-86572873D01*
X159705499Y-85927128D01*
X159699091Y-85867517D01*
X159690676Y-85844956D01*
X159648797Y-85732671D01*
X159648793Y-85732664D01*
X159562547Y-85617455D01*
X159562544Y-85617452D01*
X159447335Y-85531206D01*
X159447328Y-85531202D01*
X159312486Y-85480910D01*
X159312485Y-85480909D01*
X159312483Y-85480909D01*
X159252873Y-85474500D01*
X159252863Y-85474500D01*
X158757129Y-85474500D01*
X158757123Y-85474501D01*
X158697516Y-85480908D01*
X158562671Y-85531202D01*
X158562664Y-85531206D01*
X158447455Y-85617452D01*
X158447452Y-85617455D01*
X158361206Y-85732664D01*
X158361202Y-85732671D01*
X158312268Y-85863872D01*
X158310909Y-85867517D01*
X158304500Y-85927127D01*
X158304500Y-85927134D01*
X158304500Y-85927135D01*
X158304500Y-86572870D01*
X158304501Y-86572876D01*
X158310908Y-86632483D01*
X158361202Y-86767328D01*
X158361206Y-86767335D01*
X158447452Y-86882544D01*
X158447453Y-86882544D01*
X158447454Y-86882546D01*
X158458630Y-86890912D01*
X158506524Y-86926766D01*
X158548394Y-86982700D01*
X158553378Y-87052392D01*
X158519893Y-87113713D01*
X157875008Y-87758597D01*
X157813685Y-87792082D01*
X157803513Y-87793855D01*
X157643238Y-87814956D01*
X157643237Y-87814956D01*
X157497160Y-87875463D01*
X157371713Y-87971722D01*
X157365971Y-87977465D01*
X157364691Y-87976185D01*
X157316445Y-88011413D01*
X157246699Y-88015566D01*
X157185780Y-87981353D01*
X157153028Y-87919635D01*
X157150500Y-87894723D01*
X157150500Y-86467255D01*
X157170185Y-86400216D01*
X157186819Y-86379574D01*
X158429574Y-85136819D01*
X158490897Y-85103334D01*
X158517255Y-85100500D01*
X159142725Y-85100500D01*
X159142727Y-85100500D01*
X159244588Y-85073207D01*
X159335913Y-85020480D01*
X161901807Y-82454584D01*
X161963128Y-82421101D01*
X162032820Y-82426085D01*
X162034261Y-82426632D01*
X162123802Y-82461321D01*
X162333390Y-82500500D01*
X162333392Y-82500500D01*
X162546608Y-82500500D01*
X162546610Y-82500500D01*
X162756198Y-82461321D01*
X162955019Y-82384298D01*
X163136302Y-82272052D01*
X163189652Y-82223416D01*
X163252454Y-82192799D01*
X163299619Y-82198370D01*
X163292941Y-82180464D01*
X163307793Y-82112191D01*
X163317671Y-82096892D01*
X163422366Y-81958255D01*
X163476270Y-81850000D01*
X163517403Y-81767394D01*
X163517403Y-81767393D01*
X163517405Y-81767389D01*
X163575756Y-81562310D01*
X163586529Y-81446047D01*
X163612315Y-81381111D01*
X163656869Y-81349194D01*
X163620497Y-81328331D01*
X163588307Y-81266318D01*
X163586529Y-81253951D01*
X163585849Y-81246613D01*
X163575756Y-81137690D01*
X163517405Y-80932611D01*
X163517403Y-80932606D01*
X163517403Y-80932605D01*
X163422367Y-80741746D01*
X163293872Y-80571593D01*
X163136302Y-80427948D01*
X162955019Y-80315702D01*
X162955017Y-80315701D01*
X162855608Y-80277190D01*
X162756198Y-80238679D01*
X162546610Y-80199500D01*
X162333390Y-80199500D01*
X162123802Y-80238679D01*
X162123799Y-80238679D01*
X162123799Y-80238680D01*
X161924982Y-80315701D01*
X161924980Y-80315702D01*
X161743699Y-80427947D01*
X161586127Y-80571593D01*
X161457632Y-80741746D01*
X161362596Y-80932605D01*
X161362596Y-80932607D01*
X161304244Y-81137689D01*
X161293471Y-81253951D01*
X161267685Y-81318888D01*
X161223130Y-81350804D01*
X161259503Y-81371668D01*
X161291693Y-81433681D01*
X161293471Y-81446048D01*
X161304244Y-81562310D01*
X161363390Y-81770184D01*
X161362804Y-81840052D01*
X161331805Y-81891800D01*
X160964306Y-82259299D01*
X160902983Y-82292784D01*
X160849779Y-82288979D01*
X160857151Y-82311927D01*
X160839162Y-82379441D01*
X160820871Y-82402734D01*
X158960426Y-84263181D01*
X158899103Y-84296666D01*
X158872745Y-84299500D01*
X158247273Y-84299500D01*
X158145410Y-84326793D01*
X158054087Y-84379520D01*
X158054084Y-84379522D01*
X156612181Y-85821425D01*
X156550858Y-85854910D01*
X156481166Y-85849926D01*
X156425233Y-85808054D01*
X156400816Y-85742590D01*
X156400500Y-85733744D01*
X156400500Y-85467254D01*
X156420185Y-85400215D01*
X156436814Y-85379578D01*
X159361807Y-82454584D01*
X159423128Y-82421101D01*
X159492820Y-82426085D01*
X159494261Y-82426632D01*
X159583802Y-82461321D01*
X159793390Y-82500500D01*
X159793392Y-82500500D01*
X160006608Y-82500500D01*
X160006610Y-82500500D01*
X160216198Y-82461321D01*
X160415019Y-82384298D01*
X160596302Y-82272052D01*
X160649652Y-82223416D01*
X160712454Y-82192799D01*
X160759619Y-82198370D01*
X160752941Y-82180464D01*
X160767793Y-82112191D01*
X160777671Y-82096892D01*
X160882366Y-81958255D01*
X160936270Y-81850000D01*
X160977403Y-81767394D01*
X160977403Y-81767393D01*
X160977405Y-81767389D01*
X161035756Y-81562310D01*
X161046529Y-81446047D01*
X161072315Y-81381111D01*
X161116869Y-81349194D01*
X161080497Y-81328331D01*
X161048307Y-81266318D01*
X161046529Y-81253951D01*
X161045849Y-81246613D01*
X161035756Y-81137690D01*
X160977405Y-80932611D01*
X160977403Y-80932606D01*
X160977403Y-80932605D01*
X160882367Y-80741746D01*
X160753872Y-80571593D01*
X160596302Y-80427948D01*
X160415019Y-80315702D01*
X160415017Y-80315701D01*
X160315608Y-80277190D01*
X160216198Y-80238679D01*
X160006610Y-80199500D01*
X159793390Y-80199500D01*
X159583802Y-80238679D01*
X159583799Y-80238679D01*
X159583799Y-80238680D01*
X159384982Y-80315701D01*
X159384980Y-80315702D01*
X159203699Y-80427947D01*
X159046127Y-80571593D01*
X158917632Y-80741746D01*
X158822596Y-80932605D01*
X158822596Y-80932607D01*
X158764244Y-81137689D01*
X158753471Y-81253951D01*
X158727685Y-81318888D01*
X158683130Y-81350804D01*
X158719503Y-81371668D01*
X158751693Y-81433681D01*
X158753471Y-81446048D01*
X158764244Y-81562310D01*
X158823390Y-81770184D01*
X158822804Y-81840052D01*
X158791805Y-81891800D01*
X158424306Y-82259299D01*
X158362983Y-82292784D01*
X158309779Y-82288979D01*
X158317151Y-82311927D01*
X158299162Y-82379441D01*
X158280871Y-82402734D01*
X155679522Y-85004084D01*
X155679518Y-85004090D01*
X155626793Y-85095411D01*
X155625430Y-85100499D01*
X155613752Y-85144084D01*
X155599500Y-85197273D01*
X155599500Y-91450633D01*
X155579815Y-91517672D01*
X155527011Y-91563427D01*
X155457853Y-91573371D01*
X155428047Y-91565194D01*
X155306762Y-91514956D01*
X155306760Y-91514955D01*
X155150001Y-91494318D01*
X155149999Y-91494318D01*
X154990685Y-91515292D01*
X154921650Y-91504526D01*
X154869394Y-91458146D01*
X154850500Y-91392353D01*
X154850500Y-84477254D01*
X154870185Y-84410215D01*
X154886814Y-84389578D01*
X156821807Y-82454584D01*
X156883128Y-82421101D01*
X156952820Y-82426085D01*
X156954261Y-82426632D01*
X157043802Y-82461321D01*
X157253390Y-82500500D01*
X157253392Y-82500500D01*
X157466608Y-82500500D01*
X157466610Y-82500500D01*
X157676198Y-82461321D01*
X157875019Y-82384298D01*
X158056302Y-82272052D01*
X158109652Y-82223416D01*
X158172454Y-82192799D01*
X158219619Y-82198370D01*
X158212941Y-82180464D01*
X158227793Y-82112191D01*
X158237671Y-82096892D01*
X158342366Y-81958255D01*
X158396270Y-81850000D01*
X158437403Y-81767394D01*
X158437403Y-81767393D01*
X158437405Y-81767389D01*
X158495756Y-81562310D01*
X158506529Y-81446047D01*
X158532315Y-81381111D01*
X158576869Y-81349194D01*
X158540497Y-81328331D01*
X158508307Y-81266318D01*
X158506529Y-81253951D01*
X158505849Y-81246613D01*
X158495756Y-81137690D01*
X158437405Y-80932611D01*
X158437403Y-80932606D01*
X158437403Y-80932605D01*
X158342367Y-80741746D01*
X158213872Y-80571593D01*
X158056302Y-80427948D01*
X157875019Y-80315702D01*
X157875017Y-80315701D01*
X157775608Y-80277190D01*
X157676198Y-80238679D01*
X157466610Y-80199500D01*
X157253390Y-80199500D01*
X157043802Y-80238679D01*
X157043799Y-80238679D01*
X157043799Y-80238680D01*
X156844982Y-80315701D01*
X156844980Y-80315702D01*
X156663699Y-80427947D01*
X156506127Y-80571593D01*
X156377632Y-80741746D01*
X156282596Y-80932605D01*
X156282596Y-80932607D01*
X156224244Y-81137689D01*
X156213471Y-81253951D01*
X156187685Y-81318888D01*
X156143130Y-81350804D01*
X156179503Y-81371668D01*
X156211693Y-81433681D01*
X156213471Y-81446048D01*
X156224244Y-81562310D01*
X156283390Y-81770184D01*
X156282804Y-81840052D01*
X156251805Y-81891800D01*
X155884306Y-82259300D01*
X155822983Y-82292785D01*
X155769781Y-82288980D01*
X155777152Y-82311926D01*
X155759163Y-82379440D01*
X155740872Y-82402733D01*
X154662181Y-83481425D01*
X154600858Y-83514910D01*
X154531166Y-83509926D01*
X154475233Y-83468054D01*
X154450816Y-83402590D01*
X154450500Y-83393744D01*
X154450500Y-82600684D01*
X154470185Y-82533645D01*
X154522989Y-82487890D01*
X154592147Y-82477946D01*
X154597226Y-82478785D01*
X154713390Y-82500500D01*
X154713393Y-82500500D01*
X154926608Y-82500500D01*
X154926610Y-82500500D01*
X155136198Y-82461321D01*
X155335019Y-82384298D01*
X155516302Y-82272052D01*
X155569654Y-82223414D01*
X155632455Y-82192798D01*
X155679619Y-82198369D01*
X155672941Y-82180465D01*
X155687793Y-82112192D01*
X155697671Y-82096892D01*
X155697673Y-82096890D01*
X155802366Y-81958255D01*
X155844276Y-81874087D01*
X155897403Y-81767394D01*
X155897403Y-81767393D01*
X155897405Y-81767389D01*
X155955756Y-81562310D01*
X155966529Y-81446047D01*
X155992315Y-81381111D01*
X156036869Y-81349194D01*
X156000497Y-81328331D01*
X155968307Y-81266318D01*
X155966529Y-81253951D01*
X155965849Y-81246613D01*
X155955756Y-81137690D01*
X155897405Y-80932611D01*
X155897403Y-80932606D01*
X155897403Y-80932605D01*
X155802367Y-80741746D01*
X155673872Y-80571593D01*
X155516302Y-80427948D01*
X155335019Y-80315702D01*
X155335017Y-80315701D01*
X155235608Y-80277190D01*
X155136198Y-80238679D01*
X154926610Y-80199500D01*
X154713390Y-80199500D01*
X154503802Y-80238679D01*
X154503799Y-80238679D01*
X154503799Y-80238680D01*
X154304982Y-80315701D01*
X154304980Y-80315702D01*
X154123699Y-80427947D01*
X153966127Y-80571593D01*
X153837632Y-80741746D01*
X153742596Y-80932605D01*
X153742596Y-80932607D01*
X153684244Y-81137689D01*
X153673471Y-81253951D01*
X153647685Y-81318888D01*
X153603130Y-81350804D01*
X153639503Y-81371668D01*
X153671693Y-81433681D01*
X153673470Y-81446047D01*
X153684244Y-81562310D01*
X153737675Y-81750099D01*
X153744164Y-81772902D01*
X153741622Y-81773625D01*
X153746450Y-81832147D01*
X153732391Y-81869112D01*
X153676794Y-81965408D01*
X153676794Y-81965409D01*
X153651611Y-82059395D01*
X153651610Y-82059397D01*
X153649500Y-82067267D01*
X153649500Y-90333745D01*
X153629815Y-90400784D01*
X153577011Y-90446539D01*
X153507853Y-90456483D01*
X153444297Y-90427458D01*
X153437819Y-90421426D01*
X153136819Y-90120426D01*
X153103334Y-90059103D01*
X153100500Y-90032745D01*
X153100500Y-89756580D01*
X153120185Y-89689541D01*
X153126124Y-89681093D01*
X153128279Y-89678283D01*
X153128282Y-89678282D01*
X153224536Y-89552841D01*
X153285044Y-89406762D01*
X153305682Y-89250000D01*
X153302456Y-89225499D01*
X153285321Y-89095341D01*
X153285044Y-89093238D01*
X153224536Y-88947159D01*
X153128282Y-88821718D01*
X153002841Y-88725464D01*
X153001718Y-88724999D01*
X152856762Y-88664956D01*
X152856760Y-88664955D01*
X152700001Y-88644318D01*
X152699999Y-88644318D01*
X152543239Y-88664955D01*
X152543237Y-88664956D01*
X152397160Y-88725463D01*
X152271718Y-88821718D01*
X152175463Y-88947160D01*
X152114956Y-89093237D01*
X152114955Y-89093239D01*
X152094318Y-89249998D01*
X152094318Y-89250001D01*
X152114955Y-89406760D01*
X152114956Y-89406762D01*
X152149433Y-89489998D01*
X152175464Y-89552841D01*
X152271718Y-89678282D01*
X152271720Y-89678283D01*
X152273876Y-89681093D01*
X152299070Y-89746263D01*
X152299500Y-89756580D01*
X152299500Y-89790625D01*
X152279815Y-89857664D01*
X152227011Y-89903419D01*
X152157853Y-89913363D01*
X152143408Y-89910400D01*
X152102728Y-89899500D01*
X152102727Y-89899500D01*
X151256580Y-89899500D01*
X151189541Y-89879815D01*
X151181093Y-89873876D01*
X151178283Y-89871720D01*
X151178282Y-89871718D01*
X151052841Y-89775464D01*
X151046892Y-89773000D01*
X150906762Y-89714956D01*
X150906760Y-89714955D01*
X150750001Y-89694318D01*
X150749999Y-89694318D01*
X150593239Y-89714955D01*
X150593237Y-89714956D01*
X150447160Y-89775463D01*
X150321718Y-89871718D01*
X150225463Y-89997160D01*
X150164956Y-90143237D01*
X150164955Y-90143239D01*
X150144318Y-90299998D01*
X150144318Y-90300001D01*
X150164955Y-90456760D01*
X150164956Y-90456762D01*
X150222209Y-90594984D01*
X150225464Y-90602841D01*
X150321718Y-90728282D01*
X150447159Y-90824536D01*
X150593238Y-90885044D01*
X150670578Y-90895226D01*
X150749999Y-90905682D01*
X150750000Y-90905682D01*
X150750001Y-90905682D01*
X150829414Y-90895227D01*
X150906762Y-90885044D01*
X151052841Y-90824536D01*
X151178282Y-90728282D01*
X151178283Y-90728279D01*
X151181093Y-90726124D01*
X151246263Y-90700930D01*
X151256580Y-90700500D01*
X151832745Y-90700500D01*
X151899784Y-90720185D01*
X151920426Y-90736819D01*
X152034805Y-90851198D01*
X152068290Y-90912521D01*
X152063306Y-90982213D01*
X152021434Y-91038146D01*
X151955970Y-91062563D01*
X151899672Y-91053440D01*
X151806765Y-91014957D01*
X151806760Y-91014955D01*
X151650001Y-90994318D01*
X151649999Y-90994318D01*
X151493239Y-91014955D01*
X151493237Y-91014956D01*
X151347160Y-91075463D01*
X151221718Y-91171718D01*
X151125463Y-91297160D01*
X151064956Y-91443237D01*
X151064956Y-91443238D01*
X151043855Y-91603513D01*
X151015588Y-91667409D01*
X151008597Y-91675008D01*
X150529522Y-92154084D01*
X150529520Y-92154087D01*
X150476793Y-92245411D01*
X150476793Y-92245412D01*
X150457676Y-92316760D01*
X150449860Y-92345929D01*
X150449500Y-92347273D01*
X150449500Y-93557780D01*
X150449900Y-93563889D01*
X150449900Y-93654047D01*
X150430215Y-93721086D01*
X150377411Y-93766841D01*
X150308253Y-93776785D01*
X150263903Y-93761436D01*
X150259325Y-93758793D01*
X150259324Y-93758792D01*
X150211258Y-93745913D01*
X150127985Y-93723600D01*
X150127982Y-93723600D01*
X143720300Y-93723600D01*
X143700902Y-93722073D01*
X143686451Y-93719784D01*
X143621523Y-93709500D01*
X143358481Y-93709500D01*
X143279093Y-93722074D01*
X143259697Y-93723600D01*
X142552009Y-93723600D01*
X142508439Y-93735275D01*
X142476349Y-93739500D01*
X142408483Y-93739500D01*
X142314693Y-93754354D01*
X142314688Y-93754356D01*
X142306289Y-93758636D01*
X142237620Y-93771530D01*
X142193709Y-93758636D01*
X142185302Y-93754353D01*
X142091524Y-93739500D01*
X142091519Y-93739500D01*
X142066309Y-93739500D01*
X142034217Y-93735275D01*
X141997736Y-93725500D01*
X141997735Y-93725500D01*
X141232301Y-93725500D01*
X141212903Y-93723973D01*
X141121524Y-93709500D01*
X140914000Y-93709500D01*
X140846961Y-93689815D01*
X140801206Y-93637011D01*
X140790000Y-93585500D01*
X140790000Y-92877987D01*
X141190000Y-92877987D01*
X141190000Y-93400000D01*
X141685959Y-93400000D01*
X142794038Y-93400000D01*
X143290000Y-93400000D01*
X143290000Y-92877987D01*
X143690000Y-92877987D01*
X143690000Y-93400000D01*
X144185959Y-93400000D01*
X144185960Y-93399998D01*
X144174557Y-93313372D01*
X144174555Y-93313366D01*
X144114100Y-93167414D01*
X144017924Y-93042075D01*
X143892586Y-92945899D01*
X143746631Y-92885444D01*
X143690000Y-92877987D01*
X143290000Y-92877987D01*
X143233368Y-92885444D01*
X143087413Y-92945899D01*
X142962075Y-93042075D01*
X142865899Y-93167413D01*
X142805445Y-93313365D01*
X142805444Y-93313369D01*
X142794038Y-93400000D01*
X141685959Y-93400000D01*
X141685960Y-93399998D01*
X141674557Y-93313372D01*
X141674555Y-93313366D01*
X141614100Y-93167414D01*
X141517924Y-93042075D01*
X141392586Y-92945899D01*
X141246631Y-92885444D01*
X141190000Y-92877987D01*
X140790000Y-92877987D01*
X140733366Y-92885444D01*
X140729480Y-92887054D01*
X140725940Y-92887434D01*
X140725520Y-92887547D01*
X140725502Y-92887481D01*
X140660010Y-92894518D01*
X140597533Y-92863239D01*
X140561885Y-92803148D01*
X140558045Y-92770915D01*
X140703662Y-81350000D01*
X151124571Y-81350000D01*
X151144244Y-81562310D01*
X151197675Y-81750099D01*
X151202596Y-81767392D01*
X151202596Y-81767394D01*
X151297632Y-81958253D01*
X151413882Y-82112191D01*
X151426128Y-82128407D01*
X151583698Y-82272052D01*
X151764981Y-82384298D01*
X151800295Y-82397978D01*
X151855694Y-82440548D01*
X151879286Y-82506314D01*
X151879500Y-82513604D01*
X151879500Y-83219484D01*
X151859815Y-83286523D01*
X151853876Y-83294970D01*
X151775464Y-83397157D01*
X151714956Y-83543237D01*
X151714955Y-83543239D01*
X151694318Y-83699998D01*
X151694318Y-83700001D01*
X151714955Y-83856760D01*
X151714956Y-83856762D01*
X151757006Y-83958281D01*
X151775464Y-84002841D01*
X151871718Y-84128282D01*
X151997159Y-84224536D01*
X152143238Y-84285044D01*
X152221619Y-84295363D01*
X152299999Y-84305682D01*
X152300000Y-84305682D01*
X152300001Y-84305682D01*
X152352254Y-84298802D01*
X152456762Y-84285044D01*
X152602841Y-84224536D01*
X152728282Y-84128282D01*
X152824536Y-84002841D01*
X152885044Y-83856762D01*
X152898802Y-83752254D01*
X152905682Y-83700001D01*
X152905682Y-83699998D01*
X152885044Y-83543239D01*
X152885044Y-83543238D01*
X152824536Y-83397159D01*
X152728282Y-83271718D01*
X152728278Y-83271714D01*
X152728275Y-83271711D01*
X152722532Y-83265967D01*
X152723614Y-83264884D01*
X152687810Y-83215849D01*
X152680500Y-83173903D01*
X152680500Y-82513604D01*
X152700185Y-82446565D01*
X152752989Y-82400810D01*
X152759670Y-82397991D01*
X152795019Y-82384298D01*
X152976302Y-82272052D01*
X153133872Y-82128407D01*
X153262366Y-81958255D01*
X153304276Y-81874087D01*
X153357403Y-81767394D01*
X153357403Y-81767393D01*
X153357405Y-81767389D01*
X153415756Y-81562310D01*
X153426529Y-81446047D01*
X153452315Y-81381111D01*
X153496869Y-81349194D01*
X153460497Y-81328331D01*
X153428307Y-81266318D01*
X153426529Y-81253951D01*
X153425849Y-81246613D01*
X153415756Y-81137690D01*
X153357405Y-80932611D01*
X153357403Y-80932606D01*
X153357403Y-80932605D01*
X153262367Y-80741746D01*
X153133872Y-80571593D01*
X152976302Y-80427948D01*
X152795019Y-80315702D01*
X152795017Y-80315701D01*
X152695608Y-80277190D01*
X152596198Y-80238679D01*
X152386610Y-80199500D01*
X152173390Y-80199500D01*
X151963802Y-80238679D01*
X151963799Y-80238679D01*
X151963799Y-80238680D01*
X151764982Y-80315701D01*
X151764980Y-80315702D01*
X151583699Y-80427947D01*
X151426127Y-80571593D01*
X151297632Y-80741746D01*
X151202596Y-80932605D01*
X151202596Y-80932607D01*
X151144244Y-81137689D01*
X151130671Y-81284174D01*
X151124571Y-81350000D01*
X140703662Y-81350000D01*
X140732064Y-79122418D01*
X140752602Y-79055636D01*
X140805985Y-79010558D01*
X140856054Y-79000000D01*
X190876000Y-79000000D01*
X190943039Y-79019685D01*
G37*
%TD.AperFunction*%
%TA.AperFunction,Conductor*%
G36*
X155880407Y-94172583D02*
G01*
X155880409Y-94172584D01*
X155905535Y-94175499D01*
X156100501Y-94175498D01*
X156167540Y-94195182D01*
X156213295Y-94247986D01*
X156224501Y-94299497D01*
X156224501Y-94494456D01*
X156224503Y-94494480D01*
X156228490Y-94528856D01*
X156226832Y-94529048D01*
X156226832Y-94570952D01*
X156228491Y-94571145D01*
X156224501Y-94605530D01*
X156224501Y-94894455D01*
X156224503Y-94894479D01*
X156228490Y-94928855D01*
X156226834Y-94929047D01*
X156226834Y-94970954D01*
X156228491Y-94971147D01*
X156224501Y-95005532D01*
X156224501Y-95294457D01*
X156224503Y-95294481D01*
X156228490Y-95328857D01*
X156226832Y-95329049D01*
X156226832Y-95370953D01*
X156228491Y-95371146D01*
X156224501Y-95405531D01*
X156224501Y-95694456D01*
X156224503Y-95694480D01*
X156228490Y-95728856D01*
X156226832Y-95729048D01*
X156226832Y-95770952D01*
X156228491Y-95771145D01*
X156224501Y-95805530D01*
X156224501Y-96094455D01*
X156224503Y-96094479D01*
X156228490Y-96128855D01*
X156226834Y-96129047D01*
X156226834Y-96170954D01*
X156228491Y-96171147D01*
X156224501Y-96205532D01*
X156224501Y-96494457D01*
X156224503Y-96494481D01*
X156228490Y-96528857D01*
X156226832Y-96529049D01*
X156226832Y-96570953D01*
X156228491Y-96571146D01*
X156224501Y-96605531D01*
X156224501Y-96894456D01*
X156224503Y-96894480D01*
X156228490Y-96928856D01*
X156226833Y-96929048D01*
X156226833Y-96970953D01*
X156228491Y-96971146D01*
X156224501Y-97005531D01*
X156224501Y-97294456D01*
X156224503Y-97294480D01*
X156228490Y-97328856D01*
X156226832Y-97329048D01*
X156226832Y-97370952D01*
X156228491Y-97371145D01*
X156224501Y-97405530D01*
X156224501Y-97694455D01*
X156224503Y-97694479D01*
X156228490Y-97728855D01*
X156226834Y-97729047D01*
X156226834Y-97770954D01*
X156228491Y-97771147D01*
X156224501Y-97805532D01*
X156224501Y-98094457D01*
X156224503Y-98094481D01*
X156228490Y-98128857D01*
X156226832Y-98129049D01*
X156226832Y-98170953D01*
X156228491Y-98171146D01*
X156224501Y-98205531D01*
X156224501Y-98494456D01*
X156224503Y-98494480D01*
X156228490Y-98528856D01*
X156226832Y-98529048D01*
X156226832Y-98570952D01*
X156228491Y-98571145D01*
X156224501Y-98605530D01*
X156224501Y-98894455D01*
X156224503Y-98894479D01*
X156228490Y-98928855D01*
X156226834Y-98929047D01*
X156226834Y-98970954D01*
X156228491Y-98971147D01*
X156224501Y-99005532D01*
X156224501Y-99294457D01*
X156224503Y-99294481D01*
X156228490Y-99328857D01*
X156226832Y-99329049D01*
X156226832Y-99370953D01*
X156228491Y-99371146D01*
X156224501Y-99405531D01*
X156224501Y-99600501D01*
X156204816Y-99667540D01*
X156152012Y-99713295D01*
X156100502Y-99724501D01*
X155905543Y-99724501D01*
X155905519Y-99724503D01*
X155871144Y-99728490D01*
X155870952Y-99726836D01*
X155829047Y-99726835D01*
X155828855Y-99728491D01*
X155819592Y-99727416D01*
X155794466Y-99724501D01*
X155505544Y-99724501D01*
X155505520Y-99724503D01*
X155471145Y-99728490D01*
X155470953Y-99726835D01*
X155429045Y-99726833D01*
X155428853Y-99728491D01*
X155419590Y-99727416D01*
X155394464Y-99724501D01*
X155105542Y-99724501D01*
X155105518Y-99724503D01*
X155071143Y-99728490D01*
X155070951Y-99726836D01*
X155029046Y-99726835D01*
X155028854Y-99728491D01*
X155019591Y-99727416D01*
X154994465Y-99724501D01*
X154705543Y-99724501D01*
X154705519Y-99724503D01*
X154671144Y-99728490D01*
X154670952Y-99726836D01*
X154629047Y-99726835D01*
X154628855Y-99728491D01*
X154619592Y-99727416D01*
X154594466Y-99724501D01*
X154305544Y-99724501D01*
X154305520Y-99724503D01*
X154271145Y-99728490D01*
X154270953Y-99726835D01*
X154229045Y-99726833D01*
X154228853Y-99728491D01*
X154219590Y-99727416D01*
X154194464Y-99724501D01*
X153905542Y-99724501D01*
X153905518Y-99724503D01*
X153871143Y-99728490D01*
X153870951Y-99726836D01*
X153829046Y-99726835D01*
X153828854Y-99728491D01*
X153819591Y-99727416D01*
X153794465Y-99724501D01*
X153505543Y-99724501D01*
X153505519Y-99724503D01*
X153471144Y-99728490D01*
X153470951Y-99726833D01*
X153429046Y-99726832D01*
X153428854Y-99728491D01*
X153419591Y-99727416D01*
X153411602Y-99726489D01*
X153394468Y-99724501D01*
X153394465Y-99724501D01*
X153328913Y-99724501D01*
X153261874Y-99704816D01*
X153221528Y-99662504D01*
X153190503Y-99608768D01*
X153174031Y-99540871D01*
X153196883Y-99474843D01*
X153200000Y-99471158D01*
X153200000Y-97200000D01*
X153700000Y-97200000D01*
X153700000Y-99469300D01*
X155517128Y-99469300D01*
X155517144Y-99469299D01*
X155576672Y-99462898D01*
X155576679Y-99462896D01*
X155711386Y-99412654D01*
X155711393Y-99412650D01*
X155826487Y-99326490D01*
X155826490Y-99326487D01*
X155912650Y-99211393D01*
X155912654Y-99211386D01*
X155962896Y-99076679D01*
X155962898Y-99076672D01*
X155969299Y-99017144D01*
X155969300Y-99017127D01*
X155969300Y-97200000D01*
X153700000Y-97200000D01*
X153200000Y-97200000D01*
X153200000Y-94430700D01*
X153700000Y-94430700D01*
X153700000Y-96700000D01*
X155969300Y-96700000D01*
X155969300Y-94882872D01*
X155969299Y-94882855D01*
X155962898Y-94823327D01*
X155962896Y-94823320D01*
X155912654Y-94688613D01*
X155912650Y-94688606D01*
X155826490Y-94573512D01*
X155826487Y-94573509D01*
X155711393Y-94487349D01*
X155711386Y-94487345D01*
X155576679Y-94437103D01*
X155576672Y-94437101D01*
X155517144Y-94430700D01*
X153700000Y-94430700D01*
X153200000Y-94430700D01*
X151382855Y-94430700D01*
X151323327Y-94437101D01*
X151323320Y-94437103D01*
X151188613Y-94487345D01*
X151188606Y-94487349D01*
X151073512Y-94573509D01*
X151073509Y-94573512D01*
X150987349Y-94688606D01*
X150987346Y-94688611D01*
X150953625Y-94779022D01*
X150911753Y-94834955D01*
X150846289Y-94859372D01*
X150778016Y-94844520D01*
X150749762Y-94823369D01*
X150748844Y-94822451D01*
X150711816Y-94785422D01*
X150678331Y-94724098D01*
X150675498Y-94697742D01*
X150675498Y-94605542D01*
X150675498Y-94605535D01*
X150672940Y-94583475D01*
X150671510Y-94571141D01*
X150673168Y-94570948D01*
X150673169Y-94529047D01*
X150671509Y-94528855D01*
X150675497Y-94494480D01*
X150675499Y-94494465D01*
X150675498Y-94299497D01*
X150695182Y-94232459D01*
X150747986Y-94186704D01*
X150799494Y-94175498D01*
X150994464Y-94175498D01*
X150994479Y-94175496D01*
X150994482Y-94175496D01*
X151028858Y-94171510D01*
X151029050Y-94173168D01*
X151070951Y-94173168D01*
X151071144Y-94171509D01*
X151080406Y-94172583D01*
X151080408Y-94172584D01*
X151105534Y-94175499D01*
X151394463Y-94175498D01*
X151394478Y-94175496D01*
X151394481Y-94175496D01*
X151428857Y-94171510D01*
X151429049Y-94173170D01*
X151470953Y-94173170D01*
X151471146Y-94171509D01*
X151480408Y-94172583D01*
X151480410Y-94172584D01*
X151505536Y-94175499D01*
X151794465Y-94175498D01*
X151794480Y-94175496D01*
X151794483Y-94175496D01*
X151828859Y-94171510D01*
X151829051Y-94173168D01*
X151870952Y-94173168D01*
X151871145Y-94171509D01*
X151880407Y-94172583D01*
X151880409Y-94172584D01*
X151905535Y-94175499D01*
X152194464Y-94175498D01*
X152194479Y-94175496D01*
X152194482Y-94175496D01*
X152228858Y-94171510D01*
X152229050Y-94173168D01*
X152270951Y-94173168D01*
X152271144Y-94171509D01*
X152280406Y-94172583D01*
X152280408Y-94172584D01*
X152305534Y-94175499D01*
X152594463Y-94175498D01*
X152594478Y-94175496D01*
X152594481Y-94175496D01*
X152628857Y-94171510D01*
X152629049Y-94173170D01*
X152670953Y-94173170D01*
X152671146Y-94171509D01*
X152680408Y-94172583D01*
X152680410Y-94172584D01*
X152705536Y-94175499D01*
X152994465Y-94175498D01*
X152994480Y-94175496D01*
X152994483Y-94175496D01*
X153028859Y-94171510D01*
X153029051Y-94173168D01*
X153070952Y-94173168D01*
X153071145Y-94171509D01*
X153080407Y-94172583D01*
X153080409Y-94172584D01*
X153105535Y-94175499D01*
X153394464Y-94175498D01*
X153394479Y-94175496D01*
X153394482Y-94175496D01*
X153428858Y-94171510D01*
X153429050Y-94173168D01*
X153470952Y-94173167D01*
X153471145Y-94171509D01*
X153480407Y-94172583D01*
X153480409Y-94172584D01*
X153505535Y-94175499D01*
X153794464Y-94175498D01*
X153794479Y-94175496D01*
X153794482Y-94175496D01*
X153828858Y-94171510D01*
X153829050Y-94173168D01*
X153870951Y-94173168D01*
X153871144Y-94171509D01*
X153880406Y-94172583D01*
X153880408Y-94172584D01*
X153905534Y-94175499D01*
X154194463Y-94175498D01*
X154194478Y-94175496D01*
X154194481Y-94175496D01*
X154228857Y-94171510D01*
X154229049Y-94173170D01*
X154270953Y-94173170D01*
X154271146Y-94171509D01*
X154280408Y-94172583D01*
X154280410Y-94172584D01*
X154305536Y-94175499D01*
X154594465Y-94175498D01*
X154594480Y-94175496D01*
X154594483Y-94175496D01*
X154628859Y-94171510D01*
X154629051Y-94173168D01*
X154670952Y-94173168D01*
X154671145Y-94171509D01*
X154680407Y-94172583D01*
X154680409Y-94172584D01*
X154705535Y-94175499D01*
X154994464Y-94175498D01*
X154994479Y-94175496D01*
X154994482Y-94175496D01*
X155028858Y-94171510D01*
X155029050Y-94173168D01*
X155070951Y-94173168D01*
X155071144Y-94171509D01*
X155080406Y-94172583D01*
X155080408Y-94172584D01*
X155105534Y-94175499D01*
X155394463Y-94175498D01*
X155394478Y-94175496D01*
X155394481Y-94175496D01*
X155428857Y-94171510D01*
X155429049Y-94173170D01*
X155470953Y-94173170D01*
X155471146Y-94171509D01*
X155480408Y-94172583D01*
X155480410Y-94172584D01*
X155505536Y-94175499D01*
X155794465Y-94175498D01*
X155794480Y-94175496D01*
X155794483Y-94175496D01*
X155828859Y-94171510D01*
X155829051Y-94173168D01*
X155870952Y-94173168D01*
X155871145Y-94171509D01*
X155880407Y-94172583D01*
G37*
%TD.AperFunction*%
%TD*%
D34*
X134000000Y-79000000D02*
X191000000Y-79000000D01*
X191000000Y-118000000D02*
X191000000Y-79000000D01*
X134000000Y-118000000D02*
X191000000Y-118000000D01*
X134000000Y-79000000D02*
X134000000Y-118000000D01*
M02*
