%TF.GenerationSoftware,KiCad,Pcbnew,8.0.1*%
%TF.CreationDate,2024-04-28T17:40:03+05:30*%
%TF.ProjectId,ecg,6563672e-6b69-4636-9164-5f7063625858,rev?*%
%TF.SameCoordinates,Original*%
%TF.FileFunction,Paste,Bot*%
%TF.FilePolarity,Positive*%
%FSLAX46Y46*%
G04 Gerber Fmt 4.6, Leading zero omitted, Abs format (unit mm)*
G04 Created by KiCad (PCBNEW 8.0.1) date 2024-04-28 17:40:03*
%MOMM*%
%LPD*%
G01*
G04 APERTURE LIST*
G04 Aperture macros list*
%AMRoundRect*
0 Rectangle with rounded corners*
0 $1 Rounding radius*
0 $2 $3 $4 $5 $6 $7 $8 $9 X,Y pos of 4 corners*
0 Add a 4 corners polygon primitive as box body*
4,1,4,$2,$3,$4,$5,$6,$7,$8,$9,$2,$3,0*
0 Add four circle primitives for the rounded corners*
1,1,$1+$1,$2,$3*
1,1,$1+$1,$4,$5*
1,1,$1+$1,$6,$7*
1,1,$1+$1,$8,$9*
0 Add four rect primitives between the rounded corners*
20,1,$1+$1,$2,$3,$4,$5,0*
20,1,$1+$1,$4,$5,$6,$7,0*
20,1,$1+$1,$6,$7,$8,$9,0*
20,1,$1+$1,$8,$9,$2,$3,0*%
G04 Aperture macros list end*
%ADD10C,0.010000*%
%ADD11RoundRect,0.012400X-0.287600X-0.142600X0.287600X-0.142600X0.287600X0.142600X-0.287600X0.142600X0*%
%ADD12R,0.558000X2.269998*%
%TA.AperFunction,Profile*%
%ADD13C,0.050000*%
%TD*%
G04 APERTURE END LIST*
D10*
%TO.C,U4*%
X182620000Y-88874999D02*
X181280000Y-88874999D01*
X181280000Y-87324999D01*
X182620000Y-87324999D01*
X182620000Y-88874999D01*
G36*
X182620000Y-88874999D02*
G01*
X181280000Y-88874999D01*
X181280000Y-87324999D01*
X182620000Y-87324999D01*
X182620000Y-88874999D01*
G37*
X181740000Y-89799999D02*
X181510000Y-89799999D01*
X181510000Y-89074999D01*
X181740000Y-89074999D01*
X181740000Y-89799999D01*
G36*
X181740000Y-89799999D02*
G01*
X181510000Y-89799999D01*
X181510000Y-89074999D01*
X181740000Y-89074999D01*
X181740000Y-89799999D01*
G37*
X181740000Y-87124999D02*
X181510000Y-87124999D01*
X181510000Y-86399999D01*
X181740000Y-86399999D01*
X181740000Y-87124999D01*
G36*
X181740000Y-87124999D02*
G01*
X181510000Y-87124999D01*
X181510000Y-86399999D01*
X181740000Y-86399999D01*
X181740000Y-87124999D01*
G37*
X182390000Y-89799999D02*
X182160000Y-89799999D01*
X182160000Y-89074999D01*
X182390000Y-89074999D01*
X182390000Y-89799999D01*
G36*
X182390000Y-89799999D02*
G01*
X182160000Y-89799999D01*
X182160000Y-89074999D01*
X182390000Y-89074999D01*
X182390000Y-89799999D01*
G37*
X182390000Y-87124999D02*
X182160000Y-87124999D01*
X182160000Y-86399999D01*
X182390000Y-86399999D01*
X182390000Y-87124999D01*
G36*
X182390000Y-87124999D02*
G01*
X182160000Y-87124999D01*
X182160000Y-86399999D01*
X182390000Y-86399999D01*
X182390000Y-87124999D01*
G37*
%TD*%
D11*
%TO.C,U4*%
X180550000Y-89074999D03*
X180550000Y-88424999D03*
X180550000Y-87774999D03*
X180550000Y-87124999D03*
X183350000Y-87124999D03*
X183350000Y-87774999D03*
X183350000Y-88424999D03*
X183350000Y-89074999D03*
%TD*%
D12*
%TO.C,U2*%
X165070000Y-99405300D03*
X163800000Y-99405300D03*
X162530000Y-99405300D03*
X161260000Y-99405300D03*
X161260000Y-94377700D03*
X162530000Y-94377700D03*
X163800000Y-94377700D03*
X165070000Y-94377700D03*
%TD*%
D13*
X134000000Y-79000000D02*
X191000000Y-79000000D01*
X191000000Y-118000000D02*
X191000000Y-79000000D01*
X134000000Y-118000000D02*
X191000000Y-118000000D01*
X134000000Y-79000000D02*
X134000000Y-118000000D01*
M02*
